<?xml version="1.0" encoding="UTF-8" standalone="no"?>
<!DOCTYPE svg PUBLIC "-//W3C//DTD SVG 1.1//EN"
 "http://www.w3.org/Graphics/SVG/1.1/DTD/svg11.dtd">
<!-- Generated by graphviz version 2.26.3 (20100126.1600)
 -->
<!-- Title: varIsGDResource Pages: 1 -->
<svg width="1128pt" height="679pt"
 viewBox="0.00 0.00 1128.00 679.33" xmlns="http://www.w3.org/2000/svg" xmlns:xlink="http://www.w3.org/1999/xlink">
<g id="graph1" class="graph" transform="scale(1 1) rotate(0) translate(4 675.334)">
<title>varIsGDResource</title>
<polygon fill="white" stroke="white" points="-4,5 -4,-675.334 1125,-675.334 1125,5 -4,5"/>
<!-- Node1 -->
<g id="node1" class="node"><title>Node1</title>
<polygon fill="#bfbfbf" stroke="black" points="0,-142.834 0,-163.834 92,-163.834 92,-142.834 0,-142.834"/>
<text text-anchor="middle" x="46" y="-150.834" font-family="Helvetica,sans-Serif" font-size="10.00">varIsGDResource</text>
</g>
<!-- Node2 -->
<g id="node3" class="node"><title>Node2</title>
<a xlink:href="a00001.html#aaecea663190c6ce2edd146c3133f257d" target="_top" xlink:title="check variable type andd process the value in right way">
<polygon fill="white" stroke="black" points="128,-393.834 128,-414.834 192,-414.834 192,-393.834 128,-393.834"/>
<text text-anchor="middle" x="160" y="-401.834" font-family="Helvetica,sans-Serif" font-size="10.00">checkType</text>
</a>
</g>
<!-- Node1&#45;&gt;Node2 -->
<g id="edge2" class="edge"><title>Node1&#45;&gt;Node2</title>
<path fill="none" stroke="midnightblue" d="M50.8984,-164.119C68.4018,-202.657 128.026,-333.936 150.934,-384.373"/>
<polygon fill="midnightblue" stroke="midnightblue" points="147.798,-385.932 155.12,-393.589 154.171,-383.037 147.798,-385.932"/>
</g>
<!-- Node4 -->
<g id="node8" class="node"><title>Node4</title>
<a xlink:href="a00001.html#aaa2a0a3c482abd677b2bc2fa137e6c91" target="_top" xlink:title="closes table row">
<polygon fill="white" stroke="black" points="639.5,-302.834 639.5,-323.834 710.5,-323.834 710.5,-302.834 639.5,-302.834"/>
<text text-anchor="middle" x="675" y="-310.834" font-family="Helvetica,sans-Serif" font-size="10.00">closeTDRow</text>
</a>
</g>
<!-- Node1&#45;&gt;Node4 -->
<g id="edge96" class="edge"><title>Node1&#45;&gt;Node4</title>
<path fill="none" stroke="midnightblue" d="M92.1128,-142.898C190.962,-123.172 427.314,-90.395 588,-185.334 629.824,-210.045 655.966,-263.695 667.716,-293.084"/>
<polygon fill="midnightblue" stroke="midnightblue" points="664.557,-294.623 671.396,-302.715 671.096,-292.124 664.557,-294.623"/>
</g>
<!-- Node5 -->
<g id="node10" class="node"><title>Node5</title>
<a xlink:href="a00001.html#a04aa495573c880043c46c3bfc669bbe3" target="_top" xlink:title="creates the main table header">
<polygon fill="white" stroke="black" points="762.5,-341.834 762.5,-362.834 857.5,-362.834 857.5,-341.834 762.5,-341.834"/>
<text text-anchor="middle" x="810" y="-349.834" font-family="Helvetica,sans-Serif" font-size="10.00">makeTableHeader</text>
</a>
</g>
<!-- Node1&#45;&gt;Node5 -->
<g id="edge98" class="edge"><title>Node1&#45;&gt;Node5</title>
<path fill="none" stroke="midnightblue" d="M53.7731,-142.69C79.5418,-108.755 166.105,-5.33415 264,-5.33415 264,-5.33415 264,-5.33415 529,-5.33415 618.005,-5.33415 660.505,18.9351 726,-41.3341 769.677,-81.5259 798.672,-268.866 807.306,-331.716"/>
<polygon fill="midnightblue" stroke="midnightblue" points="803.838,-332.187 808.64,-341.632 810.775,-331.254 803.838,-332.187"/>
</g>
<!-- Node9 -->
<g id="node18" class="node"><title>Node9</title>
<a xlink:href="a00001.html#a0cff4870612d64738cd84a47dbb36b1d" target="_top" xlink:title="creates the table row header">
<polygon fill="white" stroke="black" points="633.5,-459.834 633.5,-480.834 716.5,-480.834 716.5,-459.834 633.5,-459.834"/>
<text text-anchor="middle" x="675" y="-467.834" font-family="Helvetica,sans-Serif" font-size="10.00">makeTDHeader</text>
</a>
</g>
<!-- Node1&#45;&gt;Node9 -->
<g id="edge100" class="edge"><title>Node1&#45;&gt;Node9</title>
<path fill="none" stroke="midnightblue" d="M48.024,-164.153C62.238,-238.54 149.843,-671.334 264,-671.334 264,-671.334 264,-671.334 385,-671.334 512.16,-671.334 623.775,-539.178 661.448,-489.186"/>
<polygon fill="midnightblue" stroke="midnightblue" points="664.475,-490.979 667.609,-480.858 658.848,-486.815 664.475,-490.979"/>
</g>
<!-- Node3 -->
<g id="node5" class="node"><title>Node3</title>
<a xlink:href="a00001.html#a86ff35452ee612d9e9e9b147e5544acc" target="_top" xlink:title="varIsArray">
<polygon fill="white" stroke="black" points="499.5,-497.834 499.5,-518.834 558.5,-518.834 558.5,-497.834 499.5,-497.834"/>
<text text-anchor="middle" x="529" y="-505.834" font-family="Helvetica,sans-Serif" font-size="10.00">varIsArray</text>
</a>
</g>
<!-- Node2&#45;&gt;Node3 -->
<g id="edge4" class="edge"><title>Node2&#45;&gt;Node3</title>
<path fill="none" stroke="midnightblue" d="M192.25,-408.649C227.402,-418.055 285.402,-437.009 336,-451.334 392.571,-467.351 459.276,-483.298 497.604,-494.829"/>
<polygon fill="midnightblue" stroke="midnightblue" points="496.583,-498.177 507.172,-497.812 498.667,-491.495 496.583,-498.177"/>
</g>
<!-- Node10 -->
<g id="node20" class="node"><title>Node10</title>
<a xlink:href="a00001.html#a5ebd24b62872515b28e27182857bfe7f" target="_top" xlink:title="renders boolean variable">
<polygon fill="white" stroke="black" points="228.5,-621.834 228.5,-642.834 299.5,-642.834 299.5,-621.834 228.5,-621.834"/>
<text text-anchor="middle" x="264" y="-629.834" font-family="Helvetica,sans-Serif" font-size="10.00">varIsBoolean</text>
</a>
</g>
<!-- Node2&#45;&gt;Node10 -->
<g id="edge20" class="edge"><title>Node2&#45;&gt;Node10</title>
<path fill="none" stroke="midnightblue" d="M161.203,-415.131C165.262,-447.372 180.945,-544.596 228,-607.334 230.166,-610.222 232.765,-612.898 235.563,-615.341"/>
<polygon fill="midnightblue" stroke="midnightblue" points="233.701,-618.323 243.778,-621.595 237.941,-612.753 233.701,-618.323"/>
</g>
<!-- Node12 -->
<g id="node25" class="node"><title>Node12</title>
<a xlink:href="a00001.html#acd3532d31c3c50577b2abd56624b3757" target="_top" xlink:title="renders NULL as red&#45;pink rectangle">
<polygon fill="white" stroke="black" points="234,-181.834 234,-202.834 294,-202.834 294,-181.834 234,-181.834"/>
<text text-anchor="middle" x="264" y="-189.834" font-family="Helvetica,sans-Serif" font-size="10.00">varIsNULL</text>
</a>
</g>
<!-- Node2&#45;&gt;Node12 -->
<g id="edge26" class="edge"><title>Node2&#45;&gt;Node12</title>
<path fill="none" stroke="midnightblue" d="M161.58,-393.523C166.5,-362.977 183.945,-274.535 228,-217.334 230.319,-214.324 233.103,-211.536 236.082,-209"/>
<polygon fill="midnightblue" stroke="midnightblue" points="238.334,-211.686 244.24,-202.89 234.138,-206.083 238.334,-211.686"/>
</g>
<!-- Node13 -->
<g id="node28" class="node"><title>Node13</title>
<a xlink:href="a00001.html#a44eb38e42426f01840a0d12fe6a6a05f" target="_top" xlink:title="renders numeric types : integers and doubles">
<polygon fill="white" stroke="black" points="349,-583.834 349,-604.834 421,-604.834 421,-583.834 349,-583.834"/>
<text text-anchor="middle" x="385" y="-591.834" font-family="Helvetica,sans-Serif" font-size="10.00">varIsNumeric</text>
</a>
</g>
<!-- Node2&#45;&gt;Node13 -->
<g id="edge30" class="edge"><title>Node2&#45;&gt;Node13</title>
<path fill="none" stroke="midnightblue" d="M160.898,-414.916C164.023,-444.614 177.2,-529.178 228,-569.334 259.102,-593.919 304.73,-598.786 338.791,-598.322"/>
<polygon fill="midnightblue" stroke="midnightblue" points="339.068,-601.815 348.961,-598.023 338.862,-594.818 339.068,-601.815"/>
</g>
<!-- Node14 -->
<g id="node31" class="node"><title>Node14</title>
<a xlink:href="a00001.html#a443a941157b2ed03d6a24ae70ece785d" target="_top" xlink:title="checks wheither variable is object of special type (using varIs*Object), and renders it if it is gene...">
<polygon fill="white" stroke="black" points="231.5,-393.834 231.5,-414.834 296.5,-414.834 296.5,-393.834 231.5,-393.834"/>
<text text-anchor="middle" x="264" y="-401.834" font-family="Helvetica,sans-Serif" font-size="10.00">varIsObject</text>
</a>
</g>
<!-- Node2&#45;&gt;Node14 -->
<g id="edge34" class="edge"><title>Node2&#45;&gt;Node14</title>
<path fill="none" stroke="midnightblue" d="M192.052,-398.047C201.169,-397.603 211.249,-397.479 220.908,-397.673"/>
<polygon fill="midnightblue" stroke="midnightblue" points="221.047,-401.179 231.156,-398.009 221.276,-394.183 221.047,-401.179"/>
</g>
<!-- Node19 -->
<g id="node50" class="node"><title>Node19</title>
<a xlink:href="a00001.html#a4ab1e15fa34f8b98071b0eb36883777e" target="_top" xlink:title="shows info about different resources, uses customized rendering founctions when needed">
<polygon fill="white" stroke="black" points="346.5,-184.834 346.5,-205.834 423.5,-205.834 423.5,-184.834 346.5,-184.834"/>
<text text-anchor="middle" x="385" y="-192.834" font-family="Helvetica,sans-Serif" font-size="10.00">varIsResource</text>
</a>
</g>
<!-- Node2&#45;&gt;Node19 -->
<g id="edge62" class="edge"><title>Node2&#45;&gt;Node19</title>
<path fill="none" stroke="midnightblue" d="M161.961,-393.7C167.462,-366.777 185.502,-295.231 228,-255.334 257.883,-227.28 302.241,-211.948 336.192,-203.823"/>
<polygon fill="midnightblue" stroke="midnightblue" points="337.383,-207.143 346.367,-201.527 335.842,-200.314 337.383,-207.143"/>
</g>
<!-- Node23 -->
<g id="node66" class="node"><title>Node23</title>
<a xlink:href="a00001.html#a1dce801bff273c92008ec238b5480928" target="_top" xlink:title="renders string either as primitive type (if it is short (less than $embeddedStringMaxLength chars) an...">
<polygon fill="white" stroke="black" points="498,-537.834 498,-558.834 560,-558.834 560,-537.834 498,-537.834"/>
<text text-anchor="middle" x="529" y="-545.834" font-family="Helvetica,sans-Serif" font-size="10.00">varIsString</text>
</a>
</g>
<!-- Node2&#45;&gt;Node23 -->
<g id="edge86" class="edge"><title>Node2&#45;&gt;Node23</title>
<path fill="none" stroke="midnightblue" d="M170.091,-415.049C182.584,-427.743 205.035,-448.749 228,-461.334 313.727,-508.313 427.425,-532.207 487.578,-542.276"/>
<polygon fill="midnightblue" stroke="midnightblue" points="487.384,-545.791 497.816,-543.943 488.508,-538.882 487.384,-545.791"/>
</g>
<!-- Node3&#45;&gt;Node2 -->
<g id="edge6" class="edge"><title>Node3&#45;&gt;Node2</title>
<path fill="none" stroke="midnightblue" d="M499.417,-507.823C461.407,-501.806 393.474,-485.607 336,-469.334 281.805,-453.99 219.118,-433.337 185.109,-418.977"/>
<polygon fill="midnightblue" stroke="midnightblue" points="186.474,-415.754 175.912,-414.92 183.649,-422.158 186.474,-415.754"/>
</g>
<!-- Node3&#45;&gt;Node4 -->
<g id="edge8" class="edge"><title>Node3&#45;&gt;Node4</title>
<path fill="none" stroke="midnightblue" d="M536.027,-497.485C551.302,-474.083 588.979,-417.34 624,-372.334 634.973,-358.233 648.186,-342.991 658.413,-331.532"/>
<polygon fill="midnightblue" stroke="midnightblue" points="661.169,-333.701 665.258,-323.927 655.966,-329.019 661.169,-333.701"/>
</g>
<!-- Node3&#45;&gt;Node5 -->
<g id="edge10" class="edge"><title>Node3&#45;&gt;Node5</title>
<path fill="none" stroke="midnightblue" d="M558.619,-513.393C599.569,-518.769 674.272,-522.589 726,-490.334 769.644,-463.12 793.864,-404.083 804.092,-372.779"/>
<polygon fill="midnightblue" stroke="midnightblue" points="807.518,-373.548 807.136,-362.96 800.832,-371.476 807.518,-373.548"/>
</g>
<!-- Node3&#45;&gt;Node9 -->
<g id="edge18" class="edge"><title>Node3&#45;&gt;Node9</title>
<path fill="none" stroke="midnightblue" d="M558.545,-500.644C577.477,-495.717 602.538,-489.194 624.562,-483.462"/>
<polygon fill="midnightblue" stroke="midnightblue" points="625.638,-486.799 634.434,-480.892 623.875,-480.024 625.638,-486.799"/>
</g>
<!-- Node6 -->
<g id="node12" class="node"><title>Node6</title>
<a xlink:href="a00001.html#a742973a203c412611192053dc0cd48af" target="_top" xlink:title="initializeHeader">
<polygon fill="white" stroke="black" points="901.5,-430.834 901.5,-451.834 984.5,-451.834 984.5,-430.834 901.5,-430.834"/>
<text text-anchor="middle" x="943" y="-438.834" font-family="Helvetica,sans-Serif" font-size="10.00">initializeHeader</text>
</a>
</g>
<!-- Node5&#45;&gt;Node6 -->
<g id="edge12" class="edge"><title>Node5&#45;&gt;Node6</title>
<path fill="none" stroke="midnightblue" d="M825.779,-362.893C848.776,-378.282 891.699,-407.005 918.734,-425.096"/>
<polygon fill="midnightblue" stroke="midnightblue" points="916.984,-428.136 927.241,-430.789 920.877,-422.319 916.984,-428.136"/>
</g>
<!-- Node8 -->
<g id="node16" class="node"><title>Node8</title>
<a xlink:href="a00001.html#a3396d3c6336b500d49e3a1a0288dc035" target="_top" xlink:title="draws the main table header">
<polygon fill="white" stroke="black" points="894,-341.834 894,-362.834 992,-362.834 992,-341.834 894,-341.834"/>
<text text-anchor="middle" x="943" y="-349.834" font-family="Helvetica,sans-Serif" font-size="10.00">renderTableHeader</text>
</a>
</g>
<!-- Node5&#45;&gt;Node8 -->
<g id="edge16" class="edge"><title>Node5&#45;&gt;Node8</title>
<path fill="none" stroke="midnightblue" d="M857.64,-352.334C866.105,-352.334 875.014,-352.334 883.754,-352.334"/>
<polygon fill="midnightblue" stroke="midnightblue" points="883.899,-355.834 893.899,-352.334 883.899,-348.834 883.899,-355.834"/>
</g>
<!-- Node7 -->
<g id="node14" class="node"><title>Node7</title>
<a xlink:href="a00001.html#a20af85a4f4041ed681b095e1427b2a1d" target="_top" xlink:title="getVariableName">
<polygon fill="white" stroke="black" points="1028.5,-430.834 1028.5,-451.834 1119.5,-451.834 1119.5,-430.834 1028.5,-430.834"/>
<text text-anchor="middle" x="1074" y="-438.834" font-family="Helvetica,sans-Serif" font-size="10.00">getVariableName</text>
</a>
</g>
<!-- Node6&#45;&gt;Node7 -->
<g id="edge14" class="edge"><title>Node6&#45;&gt;Node7</title>
<path fill="none" stroke="midnightblue" d="M984.809,-441.334C995.358,-441.334 1006.85,-441.334 1017.98,-441.334"/>
<polygon fill="midnightblue" stroke="midnightblue" points="1018.05,-444.834 1028.05,-441.334 1018.05,-437.834 1018.05,-444.834"/>
</g>
<!-- Node11 -->
<g id="node22" class="node"><title>Node11</title>
<a xlink:href="a00001.html#adbad9cee60e948aa3802a45be355a1f3" target="_top" xlink:title="renders table of 2 cells in 1 row [type][value]">
<polygon fill="white" stroke="black" points="624.5,-577.834 624.5,-598.834 725.5,-598.834 725.5,-577.834 624.5,-577.834"/>
<text text-anchor="middle" x="675" y="-585.834" font-family="Helvetica,sans-Serif" font-size="10.00">renderPrimitiveType</text>
</a>
</g>
<!-- Node10&#45;&gt;Node11 -->
<g id="edge22" class="edge"><title>Node10&#45;&gt;Node11</title>
<path fill="none" stroke="midnightblue" d="M299.619,-630.648C359.427,-627.53 483.732,-619.821 588,-605.334 597.067,-604.074 606.618,-602.482 615.938,-600.78"/>
<polygon fill="midnightblue" stroke="midnightblue" points="616.747,-604.189 625.927,-598.9 615.452,-597.31 616.747,-604.189"/>
</g>
<!-- Node11&#45;&gt;Node6 -->
<g id="edge24" class="edge"><title>Node11&#45;&gt;Node6</title>
<path fill="none" stroke="midnightblue" d="M695.395,-577.645C704.743,-572.718 715.955,-566.77 726,-561.334 794.32,-524.363 874.14,-479.892 915.304,-456.861"/>
<polygon fill="midnightblue" stroke="midnightblue" points="917.18,-459.822 924.196,-451.883 913.761,-453.714 917.18,-459.822"/>
</g>
<!-- Node12&#45;&gt;Node5 -->
<g id="edge28" class="edge"><title>Node12&#45;&gt;Node5</title>
<path fill="none" stroke="midnightblue" d="M277.669,-181.784C337.25,-137.15 577.899,28.9311 726,-80.3341 767.572,-111.005 797.266,-272.983 806.757,-331.349"/>
<polygon fill="midnightblue" stroke="midnightblue" points="803.355,-332.245 808.383,-341.571 810.268,-331.145 803.355,-332.245"/>
</g>
<!-- Node13&#45;&gt;Node11 -->
<g id="edge32" class="edge"><title>Node13&#45;&gt;Node11</title>
<path fill="none" stroke="midnightblue" d="M421.142,-593.586C469.484,-592.586 555.868,-590.799 614.288,-589.59"/>
<polygon fill="midnightblue" stroke="midnightblue" points="614.569,-593.085 624.494,-589.379 614.424,-586.087 614.569,-593.085"/>
</g>
<!-- Node14&#45;&gt;Node2 -->
<g id="edge60" class="edge"><title>Node14&#45;&gt;Node2</title>
<path fill="none" stroke="midnightblue" d="M231.156,-410.659C221.985,-411.084 211.89,-411.19 202.257,-410.978"/>
<polygon fill="midnightblue" stroke="midnightblue" points="202.168,-407.473 192.052,-410.622 201.924,-414.468 202.168,-407.473"/>
</g>
<!-- Node14&#45;&gt;Node4 -->
<g id="edge58" class="edge"><title>Node14&#45;&gt;Node4</title>
<path fill="none" stroke="midnightblue" d="M279.963,-393.792C294.157,-384.834 315.742,-372.209 336,-364.334 435.651,-325.597 562.374,-316.112 629.107,-313.9"/>
<polygon fill="midnightblue" stroke="midnightblue" points="629.395,-317.393 639.289,-313.604 629.191,-310.396 629.395,-317.393"/>
</g>
<!-- Node14&#45;&gt;Node5 -->
<g id="edge54" class="edge"><title>Node14&#45;&gt;Node5</title>
<path fill="none" stroke="midnightblue" d="M296.685,-411.914C373.739,-428.299 571.876,-461.725 726,-412.334 751.869,-404.044 776.553,-384.536 792.386,-370.001"/>
<polygon fill="midnightblue" stroke="midnightblue" points="794.98,-372.364 799.818,-362.939 790.158,-367.29 794.98,-372.364"/>
</g>
<!-- Node14&#45;&gt;Node9 -->
<g id="edge56" class="edge"><title>Node14&#45;&gt;Node9</title>
<path fill="none" stroke="midnightblue" d="M282.604,-414.955C296.774,-422.518 317.015,-432.215 336,-437.334 435.039,-464.042 555.514,-469.707 622.898,-470.584"/>
<polygon fill="midnightblue" stroke="midnightblue" points="623.212,-474.087 633.246,-470.686 623.281,-467.087 623.212,-474.087"/>
</g>
<!-- Node15 -->
<g id="node33" class="node"><title>Node15</title>
<a xlink:href="a00001.html#a783baa8ff544bb8278ac32bce66be5c4" target="_top" xlink:title="varIsSpecialObject">
<polygon fill="white" stroke="black" points="336.5,-373.834 336.5,-394.834 433.5,-394.834 433.5,-373.834 336.5,-373.834"/>
<text text-anchor="middle" x="385" y="-381.834" font-family="Helvetica,sans-Serif" font-size="10.00">varIsSpecialObject</text>
</a>
</g>
<!-- Node14&#45;&gt;Node15 -->
<g id="edge36" class="edge"><title>Node14&#45;&gt;Node15</title>
<path fill="none" stroke="midnightblue" d="M296.744,-398.922C305.878,-397.412 316.089,-395.724 326.235,-394.047"/>
<polygon fill="midnightblue" stroke="midnightblue" points="327.022,-397.465 336.317,-392.381 325.88,-390.559 327.022,-397.465"/>
</g>
<!-- Node16 -->
<g id="node35" class="node"><title>Node16</title>
<a xlink:href="a00001.html#aff5b4a4ce77391ef5bc5f2637ac683b1" target="_top" xlink:title="renders either PDO or SQLite3 statement objects">
<polygon fill="white" stroke="black" points="490,-381.834 490,-402.834 568,-402.834 568,-381.834 490,-381.834"/>
<text text-anchor="middle" x="529" y="-389.834" font-family="Helvetica,sans-Serif" font-size="10.00">varIsDBObject</text>
</a>
</g>
<!-- Node15&#45;&gt;Node16 -->
<g id="edge38" class="edge"><title>Node15&#45;&gt;Node16</title>
<path fill="none" stroke="midnightblue" d="M433.752,-387.043C448.602,-387.868 464.93,-388.775 479.808,-389.601"/>
<polygon fill="midnightblue" stroke="midnightblue" points="479.663,-393.098 489.842,-390.159 480.051,-386.109 479.663,-393.098"/>
</g>
<!-- Node18 -->
<g id="node40" class="node"><title>Node18</title>
<a xlink:href="a00001.html#a91a251e46645521ab0c05a9b787624f6" target="_top" xlink:title="function used to render exceptions">
<polygon fill="white" stroke="black" points="489,-341.834 489,-362.834 569,-362.834 569,-341.834 489,-341.834"/>
<text text-anchor="middle" x="529" y="-349.834" font-family="Helvetica,sans-Serif" font-size="10.00">varIsException</text>
</a>
</g>
<!-- Node15&#45;&gt;Node18 -->
<g id="edge44" class="edge"><title>Node15&#45;&gt;Node18</title>
<path fill="none" stroke="midnightblue" d="M432.55,-373.767C447.327,-370.484 463.662,-366.854 478.625,-363.529"/>
<polygon fill="midnightblue" stroke="midnightblue" points="479.725,-366.87 488.728,-361.284 478.207,-360.036 479.725,-366.87"/>
</g>
<!-- Node17 -->
<g id="node37" class="node"><title>Node17</title>
<a xlink:href="a00001.html#ab4bab40a2bcac12276e3e7f2739f1761" target="_top" xlink:title="renders database data">
<polygon fill="white" stroke="black" points="636.5,-381.834 636.5,-402.834 713.5,-402.834 713.5,-381.834 636.5,-381.834"/>
<text text-anchor="middle" x="675" y="-389.834" font-family="Helvetica,sans-Serif" font-size="10.00">renderDBData</text>
</a>
</g>
<!-- Node16&#45;&gt;Node17 -->
<g id="edge40" class="edge"><title>Node16&#45;&gt;Node17</title>
<path fill="none" stroke="midnightblue" d="M568.125,-392.334C585.943,-392.334 607.219,-392.334 626.08,-392.334"/>
<polygon fill="midnightblue" stroke="midnightblue" points="626.273,-395.834 636.273,-392.334 626.273,-388.834 626.273,-395.834"/>
</g>
<!-- Node17&#45;&gt;Node5 -->
<g id="edge42" class="edge"><title>Node17&#45;&gt;Node5</title>
<path fill="none" stroke="midnightblue" d="M710.47,-381.825C726.926,-376.949 746.69,-371.093 764.253,-365.889"/>
<polygon fill="midnightblue" stroke="midnightblue" points="765.705,-369.109 774.299,-362.912 763.716,-362.398 765.705,-369.109"/>
</g>
<!-- Node18&#45;&gt;Node2 -->
<g id="edge46" class="edge"><title>Node18&#45;&gt;Node2</title>
<path fill="none" stroke="midnightblue" d="M488.949,-353.411C449.824,-354.796 388.645,-357.847 336,-364.334 287.55,-370.304 275.479,-372.988 228,-384.334 219.57,-386.349 210.63,-388.769 202.101,-391.219"/>
<polygon fill="midnightblue" stroke="midnightblue" points="200.94,-387.912 192.331,-394.086 202.912,-394.629 200.94,-387.912"/>
</g>
<!-- Node18&#45;&gt;Node4 -->
<g id="edge48" class="edge"><title>Node18&#45;&gt;Node4</title>
<path fill="none" stroke="midnightblue" d="M568.51,-341.78C587.351,-336.747 609.993,-330.699 629.546,-325.476"/>
<polygon fill="midnightblue" stroke="midnightblue" points="630.694,-328.792 639.452,-322.83 628.888,-322.029 630.694,-328.792"/>
</g>
<!-- Node18&#45;&gt;Node5 -->
<g id="edge50" class="edge"><title>Node18&#45;&gt;Node5</title>
<path fill="none" stroke="midnightblue" d="M569.26,-352.334C617.163,-352.334 697.503,-352.334 752.077,-352.334"/>
<polygon fill="midnightblue" stroke="midnightblue" points="752.292,-355.834 762.292,-352.334 752.292,-348.834 752.292,-355.834"/>
</g>
<!-- Node18&#45;&gt;Node9 -->
<g id="edge52" class="edge"><title>Node18&#45;&gt;Node9</title>
<path fill="none" stroke="midnightblue" d="M569.048,-362.751C575.661,-365.344 582.232,-368.507 588,-372.334 589.095,-373.06 633.926,-423.785 658.793,-451.96"/>
<polygon fill="midnightblue" stroke="midnightblue" points="656.271,-454.392 665.512,-459.575 661.52,-449.761 656.271,-454.392"/>
</g>
<!-- Node19&#45;&gt;Node1 -->
<g id="edge70" class="edge"><title>Node19&#45;&gt;Node1</title>
<path fill="none" stroke="midnightblue" d="M351.818,-184.787C336.242,-180.242 317.329,-175.299 300,-172.334 232.717,-160.822 154.222,-156.285 102.501,-154.497"/>
<polygon fill="midnightblue" stroke="midnightblue" points="102.312,-150.989 92.2049,-154.165 102.087,-157.985 102.312,-150.989"/>
</g>
<!-- Node19&#45;&gt;Node4 -->
<g id="edge84" class="edge"><title>Node19&#45;&gt;Node4</title>
<path fill="none" stroke="midnightblue" d="M423.605,-190.801C466.259,-187.577 535.812,-187.721 588,-214.334 622.935,-232.149 650.087,-270.483 664.219,-293.877"/>
<polygon fill="midnightblue" stroke="midnightblue" points="661.246,-295.725 669.306,-302.602 667.294,-292.2 661.246,-295.725"/>
</g>
<!-- Node19&#45;&gt;Node5 -->
<g id="edge64" class="edge"><title>Node19&#45;&gt;Node5</title>
<path fill="none" stroke="midnightblue" d="M423.6,-186.26C465.053,-178.156 532.45,-169.757 588,-185.334 679.526,-211 761.71,-296.133 794.685,-333.954"/>
<polygon fill="midnightblue" stroke="midnightblue" points="792.139,-336.362 801.305,-341.677 797.454,-331.806 792.139,-336.362"/>
</g>
<!-- Node20 -->
<g id="node53" class="node"><title>Node20</title>
<a xlink:href="a00001.html#a14955ad355cef1e5d7898fb57023c999" target="_top" xlink:title="renders database resource (fetch result) into table or ... smth else">
<polygon fill="white" stroke="black" points="629.5,-89.8341 629.5,-110.834 720.5,-110.834 720.5,-89.8341 629.5,-89.8341"/>
<text text-anchor="middle" x="675" y="-97.8341" font-family="Helvetica,sans-Serif" font-size="10.00">varIsDBResource</text>
</a>
</g>
<!-- Node19&#45;&gt;Node20 -->
<g id="edge66" class="edge"><title>Node19&#45;&gt;Node20</title>
<path fill="none" stroke="midnightblue" d="M404.261,-184.732C413.365,-179.619 424.332,-173.309 434,-167.334 450.358,-157.225 452.269,-150.776 470,-143.334 518.169,-123.117 576.831,-112.049 619.041,-106.229"/>
<polygon fill="midnightblue" stroke="midnightblue" points="619.677,-109.675 629.132,-104.894 618.759,-102.736 619.677,-109.675"/>
</g>
<!-- Node21 -->
<g id="node57" class="node"><title>Node21</title>
<a xlink:href="a00001.html#a7538f8f3d434a3152a400f7478ae6454" target="_top" xlink:title="if variable is an xml resource type">
<polygon fill="white" stroke="black" points="482.5,-223.834 482.5,-244.834 575.5,-244.834 575.5,-223.834 482.5,-223.834"/>
<text text-anchor="middle" x="529" y="-231.834" font-family="Helvetica,sans-Serif" font-size="10.00">varIsXmlResource</text>
</a>
</g>
<!-- Node19&#45;&gt;Node21 -->
<g id="edge72" class="edge"><title>Node19&#45;&gt;Node21</title>
<path fill="none" stroke="midnightblue" d="M423.589,-205.785C441.032,-210.509 461.836,-216.144 480.336,-221.154"/>
<polygon fill="midnightblue" stroke="midnightblue" points="479.487,-224.55 490.054,-223.786 481.316,-217.794 479.487,-224.55"/>
</g>
<!-- Node22 -->
<g id="node59" class="node"><title>Node22</title>
<a xlink:href="a00001.html#aaa52412f9f4f725e15aafa3fcd678b1d" target="_top" xlink:title="shows information about curl easy handles">
<polygon fill="white" stroke="black" points="470.5,-263.834 470.5,-284.834 587.5,-284.834 587.5,-263.834 470.5,-263.834"/>
<text text-anchor="middle" x="529" y="-271.834" font-family="Helvetica,sans-Serif" font-size="10.00">varIsCurlEasyResource</text>
</a>
</g>
<!-- Node19&#45;&gt;Node22 -->
<g id="edge74" class="edge"><title>Node19&#45;&gt;Node22</title>
<path fill="none" stroke="midnightblue" d="M397.817,-205.956C413.858,-218.83 442.569,-240.51 470,-254.334 474.076,-256.388 478.412,-258.309 482.811,-260.084"/>
<polygon fill="midnightblue" stroke="midnightblue" points="481.874,-263.471 492.465,-263.732 484.348,-256.923 481.874,-263.471"/>
</g>
<!-- Node20&#45;&gt;Node5 -->
<g id="edge68" class="edge"><title>Node20&#45;&gt;Node5</title>
<path fill="none" stroke="midnightblue" d="M691.547,-111.066C702.545,-118.901 716.633,-130.385 726,-143.334 770.204,-204.444 795.48,-292.102 805.259,-331.621"/>
<polygon fill="midnightblue" stroke="midnightblue" points="801.875,-332.519 807.609,-341.428 808.682,-330.888 801.875,-332.519"/>
</g>
<!-- Node22&#45;&gt;Node2 -->
<g id="edge76" class="edge"><title>Node22&#45;&gt;Node2</title>
<path fill="none" stroke="midnightblue" d="M482.725,-284.846C422.624,-299.278 315.101,-327.771 228,-365.334 213.017,-371.796 197.152,-380.76 184.518,-388.464"/>
<polygon fill="midnightblue" stroke="midnightblue" points="182.589,-385.543 175.949,-393.798 186.288,-391.485 182.589,-385.543"/>
</g>
<!-- Node22&#45;&gt;Node4 -->
<g id="edge78" class="edge"><title>Node22&#45;&gt;Node4</title>
<path fill="none" stroke="midnightblue" d="M568.51,-284.888C587.351,-289.921 609.993,-295.969 629.546,-301.192"/>
<polygon fill="midnightblue" stroke="midnightblue" points="628.888,-304.639 639.452,-303.838 630.694,-297.876 628.888,-304.639"/>
</g>
<!-- Node22&#45;&gt;Node5 -->
<g id="edge80" class="edge"><title>Node22&#45;&gt;Node5</title>
<path fill="none" stroke="midnightblue" d="M587.634,-272.24C627.756,-272.65 681.527,-276.886 726,-293.334 750.909,-302.546 775.282,-321.026 791.303,-334.863"/>
<polygon fill="midnightblue" stroke="midnightblue" points="789.08,-337.57 798.878,-341.601 793.733,-332.339 789.08,-337.57"/>
</g>
<!-- Node22&#45;&gt;Node9 -->
<g id="edge82" class="edge"><title>Node22&#45;&gt;Node9</title>
<path fill="none" stroke="midnightblue" d="M542.616,-285.138C555.595,-295.983 575.029,-313.712 588,-332.334 610.285,-364.328 602.892,-379.552 624,-412.334 633.346,-426.849 646.191,-441.434 656.652,-452.348"/>
<polygon fill="midnightblue" stroke="midnightblue" points="654.26,-454.908 663.763,-459.592 659.255,-450.004 654.26,-454.908"/>
</g>
<!-- Node23&#45;&gt;Node4 -->
<g id="edge94" class="edge"><title>Node23&#45;&gt;Node4</title>
<path fill="none" stroke="midnightblue" d="M560.249,-543.953C570.366,-541.064 580.817,-536.274 588,-528.334 635.736,-475.567 591.787,-435.781 624,-372.334 631.892,-356.791 644.745,-341.958 655.574,-331.054"/>
<polygon fill="midnightblue" stroke="midnightblue" points="658.257,-333.327 663.001,-323.853 653.385,-328.301 658.257,-333.327"/>
</g>
<!-- Node23&#45;&gt;Node5 -->
<g id="edge88" class="edge"><title>Node23&#45;&gt;Node5</title>
<path fill="none" stroke="midnightblue" d="M560.245,-551.633C602.068,-554.362 676.691,-553.135 726,-517.334 775.267,-481.564 797.614,-408.402 805.906,-372.76"/>
<polygon fill="midnightblue" stroke="midnightblue" points="809.327,-373.502 808.043,-362.986 802.488,-372.007 809.327,-373.502"/>
</g>
<!-- Node23&#45;&gt;Node9 -->
<g id="edge92" class="edge"><title>Node23&#45;&gt;Node9</title>
<path fill="none" stroke="midnightblue" d="M560.234,-539.434C569.382,-536.381 579.267,-532.633 588,-528.334 611.578,-516.728 636.31,-499.701 653.352,-487.096"/>
<polygon fill="midnightblue" stroke="midnightblue" points="655.625,-489.765 661.516,-480.959 651.419,-484.17 655.625,-489.765"/>
</g>
<!-- Node23&#45;&gt;Node11 -->
<g id="edge90" class="edge"><title>Node23&#45;&gt;Node11</title>
<path fill="none" stroke="midnightblue" d="M560.321,-556.915C579.648,-562.21 604.838,-569.112 626.684,-575.097"/>
<polygon fill="midnightblue" stroke="midnightblue" points="625.884,-578.507 636.454,-577.774 627.734,-571.755 625.884,-578.507"/>
</g>
</g>
</svg>
