<?xml version="1.0" encoding="UTF-8" standalone="no"?>
<!DOCTYPE svg PUBLIC "-//W3C//DTD SVG 1.1//EN"
 "http://www.w3.org/Graphics/SVG/1.1/DTD/svg11.dtd">
<!-- Generated by graphviz version 2.26.3 (20100126.1600)
 -->
<!-- Title: varIsCurlEasyResource Pages: 1 -->
<!--zoomable 206 -->
<svg id="main" version="1.1" xmlns="http://www.w3.org/2000/svg" xmlns:xlink="http://www.w3.org/1999/xlink" xml:space="preserve" onload="init(evt)">
        <defs>
                <circle id="rim" cx="0" cy="0" r="7"/>
                <circle id="rim2" cx="0" cy="0" r="3.5"/>
                <g id="zoomPlus">
                        <use xlink:href="#rim" fill="#404040">
                                <set attributeName="fill" to="#808080" begin="zoomplus.mouseover" end="zoomplus.mouseout"/>
                        </use>
                        <path d="M-4,0h8M0,-4v8" fill="none" stroke="white" stroke-width="1.5" pointer-events="none"/>
                </g>
                <g id="zoomMin">
                        <use xlink:href="#rim" fill="#404040">
                                <set attributeName="fill" to="#808080" begin="zoomminus.mouseover" end="zoomminus.mouseout"/>
                        </use>
                        <path d="M-4,0h8" fill="none" stroke="white" stroke-width="1.5" pointer-events="none"/>
                </g>
                <g id="dirArrow">
                        <path fill="none" stroke="white" stroke-width="1.5" d="M0,-3.0v7 M-2.5,-0.5L0,-3.0L2.5,-0.5"/>
                </g>
               <g id="resetDef">
                       <use xlink:href="#rim2" fill="#404040">
                               <set attributeName="fill" to="#808080" begin="reset.mouseover" end="reset.mouseout"/>
                       </use>
               </g>
        </defs>

<script type="text/javascript">
var viewWidth = 704;
var viewHeight = 206;
var sectionId = 'dynsection-21';
</script>
<script xlink:href="svgpan.js"/>
<svg id="graph" class="graph">
<g id="viewport">
<title>varIsCurlEasyResource</title>
<polygon fill="white" stroke="white" points="-4,5 -4,-202 701,-202 701,5 -4,5"/>
<!-- Node1 -->
<g id="node1" class="node"><title>Node1</title>
<polygon fill="#bfbfbf" stroke="black" points="0.5,-52.5 0.5,-73.5 117.5,-73.5 117.5,-52.5 0.5,-52.5"/>
<text text-anchor="middle" x="59" y="-60.5" font-family="Helvetica,sans-Serif" font-size="10.00">varIsCurlEasyResource</text>
</g>
<!-- Node2 -->
<g id="node3" class="node"><title>Node2</title>
<a xlink:href="a00001.html#a4ab1e15fa34f8b98071b0eb36883777e" target="_top" xlink:title="shows info about different resources, uses customized rendering founctions when needed">
<polygon fill="white" stroke="black" points="154.5,-33.5 154.5,-54.5 231.5,-54.5 231.5,-33.5 154.5,-33.5"/>
<text text-anchor="middle" x="193" y="-41.5" font-family="Helvetica,sans-Serif" font-size="10.00">varIsResource</text>
</a>
</g>
<!-- Node1&#45;&gt;Node2 -->
<g id="edge2" class="edge"><title>Node1&#45;&gt;Node2</title>
<path fill="none" stroke="midnightblue" d="M127.685,-53.2611C136.833,-51.964 145.939,-50.6728 154.32,-49.4844"/>
<polygon fill="midnightblue" stroke="midnightblue" points="127.184,-49.797 117.774,-54.6663 128.167,-56.7277 127.184,-49.797"/>
</g>
<!-- Node3 -->
<g id="node5" class="node"><title>Node3</title>
<a xlink:href="a00001.html#aaecea663190c6ce2edd146c3133f257d" target="_top" xlink:title="check variable type andd process the value in right way">
<polygon fill="white" stroke="black" points="268,-72.5 268,-93.5 332,-93.5 332,-72.5 268,-72.5"/>
<text text-anchor="middle" x="300" y="-80.5" font-family="Helvetica,sans-Serif" font-size="10.00">checkType</text>
</a>
</g>
<!-- Node2&#45;&gt;Node3 -->
<g id="edge4" class="edge"><title>Node2&#45;&gt;Node3</title>
<path fill="none" stroke="midnightblue" d="M231.596,-58.0677C244.602,-62.8083 258.886,-68.0144 271.021,-72.4376"/>
<polygon fill="midnightblue" stroke="midnightblue" points="232.55,-54.6901 221.956,-54.554 230.153,-61.2669 232.55,-54.6901"/>
</g>
<!-- Node3&#45;&gt;Node1 -->
<g id="edge12" class="edge"><title>Node3&#45;&gt;Node1</title>
<path fill="none" stroke="midnightblue" d="M257.364,-79.4617C218.528,-76.2388 160.821,-71.4498 117.647,-67.867"/>
<polygon fill="midnightblue" stroke="midnightblue" points="257.534,-82.9878 267.789,-80.3269 258.113,-76.0118 257.534,-82.9878"/>
</g>
<!-- Node4 -->
<g id="node7" class="node"><title>Node4</title>
<a xlink:href="a00001.html#a6826222eba46dd56dbd5841cdc300efa" target="_top" xlink:title="dBug">
<polygon fill="white" stroke="black" points="394.5,-176.5 394.5,-197.5 433.5,-197.5 433.5,-176.5 394.5,-176.5"/>
<text text-anchor="middle" x="414" y="-184.5" font-family="Helvetica,sans-Serif" font-size="10.00">dBug</text>
</a>
</g>
<!-- Node3&#45;&gt;Node4 -->
<g id="edge6" class="edge"><title>Node3&#45;&gt;Node4</title>
<path fill="none" stroke="midnightblue" d="M311.636,-102.221C323.743,-120.87 344.237,-148.927 368,-167 375.763,-172.904 385.538,-177.47 394.079,-180.739"/>
<polygon fill="midnightblue" stroke="midnightblue" points="314.536,-100.259 306.241,-93.6683 308.616,-103.994 314.536,-100.259"/>
</g>
<!-- Node5 -->
<g id="node9" class="node"><title>Node5</title>
<a xlink:href="a00001.html#a86ff35452ee612d9e9e9b147e5544acc" target="_top" xlink:title="varIsArray">
<polygon fill="white" stroke="black" points="384.5,-136.5 384.5,-157.5 443.5,-157.5 443.5,-136.5 384.5,-136.5"/>
<text text-anchor="middle" x="414" y="-144.5" font-family="Helvetica,sans-Serif" font-size="10.00">varIsArray</text>
</a>
</g>
<!-- Node3&#45;&gt;Node5 -->
<g id="edge8" class="edge"><title>Node3&#45;&gt;Node5</title>
<path fill="none" stroke="midnightblue" d="M335.541,-98.9172C345.808,-105.222 357.169,-112.192 368,-118 380.126,-124.502 394.806,-130.597 404.269,-136.426"/>
<polygon fill="midnightblue" stroke="midnightblue" points="337.198,-95.8278 326.841,-93.5945 333.545,-101.799 337.198,-95.8278"/>
</g>
<!-- Node6 -->
<g id="node13" class="node"><title>Node6</title>
<a xlink:href="a00001.html#a91a251e46645521ab0c05a9b787624f6" target="_top" xlink:title="function used to render exceptions">
<polygon fill="white" stroke="black" points="374,-96.5 374,-117.5 454,-117.5 454,-96.5 374,-96.5"/>
<text text-anchor="middle" x="414" y="-104.5" font-family="Helvetica,sans-Serif" font-size="10.00">varIsException</text>
</a>
</g>
<!-- Node3&#45;&gt;Node6 -->
<g id="edge14" class="edge"><title>Node3&#45;&gt;Node6</title>
<path fill="none" stroke="midnightblue" d="M342.083,-91.8596C352.396,-94.0308 363.41,-96.3495 373.64,-98.5031"/>
<polygon fill="midnightblue" stroke="midnightblue" points="342.565,-88.3845 332.059,-89.7492 341.123,-95.2343 342.565,-88.3845"/>
</g>
<!-- Node8 -->
<g id="node17" class="node"><title>Node8</title>
<a xlink:href="a00001.html#a443a941157b2ed03d6a24ae70ece785d" target="_top" xlink:title="checks wheither variable is object of special type (using varIs*Object), and renders it if it is gene...">
<polygon fill="white" stroke="black" points="630.5,-48.5 630.5,-69.5 695.5,-69.5 695.5,-48.5 630.5,-48.5"/>
<text text-anchor="middle" x="663" y="-56.5" font-family="Helvetica,sans-Serif" font-size="10.00">varIsObject</text>
</a>
</g>
<!-- Node3&#45;&gt;Node8 -->
<g id="edge26" class="edge"><title>Node3&#45;&gt;Node8</title>
<path fill="none" stroke="midnightblue" d="M342.461,-75.6636C415.754,-67.7108 564.467,-58.0314 630.337,-57.0892"/>
<polygon fill="midnightblue" stroke="midnightblue" points="341.757,-72.2209 332.214,-76.8232 342.544,-79.1765 341.757,-72.2209"/>
</g>
<!-- Node9 -->
<g id="node20" class="node"><title>Node9</title>
<a xlink:href="a00001.html#a642e715a1977cf46d40d840b5112465d" target="_top" xlink:title="if variable is an image/gd resource type">
<polygon fill="white" stroke="black" points="368,-0.5 368,-21.5 460,-21.5 460,-0.5 368,-0.5"/>
<text text-anchor="middle" x="414" y="-8.5" font-family="Helvetica,sans-Serif" font-size="10.00">varIsGDResource</text>
</a>
</g>
<!-- Node3&#45;&gt;Node9 -->
<g id="edge22" class="edge"><title>Node3&#45;&gt;Node9</title>
<path fill="none" stroke="midnightblue" d="M322.649,-66.4419C335.684,-57.1425 352.505,-45.5278 368,-36 376.052,-31.0486 385.154,-25.9942 393.123,-21.7377"/>
<polygon fill="midnightblue" stroke="midnightblue" points="320.364,-63.7739 314.292,-72.4559 324.453,-69.4556 320.364,-63.7739"/>
</g>
<!-- Node5&#45;&gt;Node3 -->
<g id="edge10" class="edge"><title>Node5&#45;&gt;Node3</title>
<path fill="none" stroke="midnightblue" d="M375.328,-139.727C372.827,-138.521 370.365,-137.268 368,-136 344.951,-123.64 319.498,-106.013 307.302,-93.846"/>
<polygon fill="midnightblue" stroke="midnightblue" points="373.901,-142.923 384.456,-143.843 376.778,-136.542 373.901,-142.923"/>
</g>
<!-- Node7 -->
<g id="node15" class="node"><title>Node7</title>
<a xlink:href="a00001.html#a783baa8ff544bb8278ac32bce66be5c4" target="_top" xlink:title="varIsSpecialObject">
<polygon fill="white" stroke="black" points="496.5,-96.5 496.5,-117.5 593.5,-117.5 593.5,-96.5 496.5,-96.5"/>
<text text-anchor="middle" x="545" y="-104.5" font-family="Helvetica,sans-Serif" font-size="10.00">varIsSpecialObject</text>
</a>
</g>
<!-- Node6&#45;&gt;Node7 -->
<g id="edge16" class="edge"><title>Node6&#45;&gt;Node7</title>
<path fill="none" stroke="midnightblue" d="M464.333,-107C474.879,-107 485.98,-107 496.459,-107"/>
<polygon fill="midnightblue" stroke="midnightblue" points="464.016,-103.5 454.016,-107 464.016,-110.5 464.016,-103.5"/>
</g>
<!-- Node7&#45;&gt;Node8 -->
<g id="edge18" class="edge"><title>Node7&#45;&gt;Node8</title>
<path fill="none" stroke="midnightblue" d="M580.342,-92.6238C598.608,-85.1934 620.5,-76.288 637.165,-69.5092"/>
<polygon fill="midnightblue" stroke="midnightblue" points="578.84,-89.4561 570.896,-96.4662 581.477,-95.9402 578.84,-89.4561"/>
</g>
<!-- Node8&#45;&gt;Node3 -->
<g id="edge20" class="edge"><title>Node8&#45;&gt;Node3</title>
<path fill="none" stroke="midnightblue" d="M620.036,-66.3908C546.4,-74.3515 397.705,-84.0148 332.214,-84.9171"/>
<polygon fill="midnightblue" stroke="midnightblue" points="620.791,-69.8279 630.337,-65.2299 620.007,-62.872 620.791,-69.8279"/>
</g>
<!-- Node9&#45;&gt;Node2 -->
<g id="edge24" class="edge"><title>Node9&#45;&gt;Node2</title>
<path fill="none" stroke="midnightblue" d="M357.631,-19.4171C318.215,-25.3027 266.595,-33.0107 231.748,-38.2141"/>
<polygon fill="midnightblue" stroke="midnightblue" points="358.255,-22.8629 367.628,-17.9243 357.221,-15.9396 358.255,-22.8629"/>
</g>
</g>
</svg>
        <g id="navigator" transform="translate(0 0)" fill="#404254">
                <rect fill="#f2f5e9" fill-opacity="0.5" stroke="#606060" stroke-width=".5" x="0" y="0" width="60" height="60"/>
                <use id="zoomplus" xlink:href="#zoomPlus" x="17" y="9" onmousedown="handleZoom(evt,'in')"/>
                <use id="zoomminus" xlink:href="#zoomMin" x="42" y="9" onmousedown="handleZoom(evt,'out')"/>
                <use id="reset" xlink:href="#resetDef" x="30" y="36" onmousedown="handleReset()"/>
                <g id="arrowUp" xlink:href="#dirArrow" transform="translate(30 24)" onmousedown="handlePan(0,-1)">
                  <use xlink:href="#rim" fill="#404040">
                        <set attributeName="fill" to="#808080" begin="arrowUp.mouseover" end="arrowUp.mouseout"/>
                  </use>
                  <path fill="none" stroke="white" stroke-width="1.5" d="M0,-3.0v7 M-2.5,-0.5L0,-3.0L2.5,-0.5"/>
                </g>
                <g id="arrowRight" xlink:href="#dirArrow" transform="rotate(90) translate(36 -43)" onmousedown="handlePan(1,0)">
                  <use xlink:href="#rim" fill="#404040">
                        <set attributeName="fill" to="#808080" begin="arrowRight.mouseover" end="arrowRight.mouseout"/>
                  </use>
                  <path fill="none" stroke="white" stroke-width="1.5" d="M0,-3.0v7 M-2.5,-0.5L0,-3.0L2.5,-0.5"/>
                </g>
                <g id="arrowDown" xlink:href="#dirArrow" transform="rotate(180) translate(-30 -48)" onmousedown="handlePan(0,1)">
                  <use xlink:href="#rim" fill="#404040">
                        <set attributeName="fill" to="#808080" begin="arrowDown.mouseover" end="arrowDown.mouseout"/>
                  </use>
                  <path fill="none" stroke="white" stroke-width="1.5" d="M0,-3.0v7 M-2.5,-0.5L0,-3.0L2.5,-0.5"/>
                </g>
                <g id="arrowLeft" xlink:href="#dirArrow" transform="rotate(270) translate(-36 17)" onmousedown="handlePan(-1,0)">
                  <use xlink:href="#rim" fill="#404040">
                        <set attributeName="fill" to="#808080" begin="arrowLeft.mouseover" end="arrowLeft.mouseout"/>
                  </use>
                  <path fill="none" stroke="white" stroke-width="1.5" d="M0,-3.0v7 M-2.5,-0.5L0,-3.0L2.5,-0.5"/>
                </g>
        </g>
        <svg viewBox="0 0 15 15" width="100%" height="30px" preserveAspectRatio="xMaxYMin meet">
         <g id="arrow_out" transform="scale(0.3 0.3)">
          <a xlink:href="a00001_aaa52412f9f4f725e15aafa3fcd678b1d_icgraph_org.svg" target="_base">
           <rect id="button" ry="5" rx="5" y="6" x="6" height="38" width="38"
                fill="#f2f5e9" fill-opacity="0.5" stroke="#606060" stroke-width="1.0"/>
           <path id="arrow"
             d="M 11.500037,31.436501 C 11.940474,20.09759 22.043105,11.32322 32.158766,21.979434 L 37.068811,17.246167 C 37.068811,17.246167 37.088388,32 37.088388,32 L 22.160133,31.978069 C 22.160133,31.978069 26.997745,27.140456 26.997745,27.140456 C 18.528582,18.264221 13.291696,25.230495 11.500037,31.436501 z"
             style="fill:#404040;"/>
          </a>
         </g>
        </svg>
</svg>
