<?xml version="1.0" encoding="UTF-8" standalone="no"?>
<!DOCTYPE svg PUBLIC "-//W3C//DTD SVG 1.1//EN"
 "http://www.w3.org/Graphics/SVG/1.1/DTD/svg11.dtd">
<!-- Generated by graphviz version 2.26.3 (20100126.1600)
 -->
<!-- Title: varIsNULL Pages: 1 -->
<svg width="462pt" height="70pt"
 viewBox="0.00 0.00 462.00 70.00" xmlns="http://www.w3.org/2000/svg" xmlns:xlink="http://www.w3.org/1999/xlink">
<g id="graph1" class="graph" transform="scale(1 1) rotate(0) translate(4 66)">
<title>varIsNULL</title>
<polygon fill="white" stroke="white" points="-4,5 -4,-66 459,-66 459,5 -4,5"/>
<!-- Node1 -->
<g id="node1" class="node"><title>Node1</title>
<polygon fill="#bfbfbf" stroke="black" points="0,-20.5 0,-41.5 60,-41.5 60,-20.5 0,-20.5"/>
<text text-anchor="middle" x="30" y="-28.5" font-family="Helvetica,sans-Serif" font-size="10.00">varIsNULL</text>
</g>
<!-- Node2 -->
<g id="node3" class="node"><title>Node2</title>
<a xlink:href="a00001.html#a04aa495573c880043c46c3bfc669bbe3" target="_top" xlink:title="creates the main table header">
<polygon fill="white" stroke="black" points="96.5,-20.5 96.5,-41.5 191.5,-41.5 191.5,-20.5 96.5,-20.5"/>
<text text-anchor="middle" x="144" y="-28.5" font-family="Helvetica,sans-Serif" font-size="10.00">makeTableHeader</text>
</a>
</g>
<!-- Node1&#45;&gt;Node2 -->
<g id="edge2" class="edge"><title>Node1&#45;&gt;Node2</title>
<path fill="none" stroke="midnightblue" d="M60.2506,-31C68.3022,-31 77.2748,-31 86.2715,-31"/>
<polygon fill="midnightblue" stroke="midnightblue" points="86.3916,-34.5001 96.3916,-31 86.3916,-27.5001 86.3916,-34.5001"/>
</g>
<!-- Node3 -->
<g id="node5" class="node"><title>Node3</title>
<a xlink:href="a00001.html#a742973a203c412611192053dc0cd48af" target="_top" xlink:title="initializeHeader">
<polygon fill="white" stroke="black" points="235.5,-40.5 235.5,-61.5 318.5,-61.5 318.5,-40.5 235.5,-40.5"/>
<text text-anchor="middle" x="277" y="-48.5" font-family="Helvetica,sans-Serif" font-size="10.00">initializeHeader</text>
</a>
</g>
<!-- Node2&#45;&gt;Node3 -->
<g id="edge4" class="edge"><title>Node2&#45;&gt;Node3</title>
<path fill="none" stroke="midnightblue" d="M191.64,-38.164C202.597,-39.8116 214.299,-41.5713 225.414,-43.2428"/>
<polygon fill="midnightblue" stroke="midnightblue" points="225.01,-46.7213 235.42,-44.7473 226.051,-39.7991 225.01,-46.7213"/>
</g>
<!-- Node5 -->
<g id="node9" class="node"><title>Node5</title>
<a xlink:href="a00001.html#a3396d3c6336b500d49e3a1a0288dc035" target="_top" xlink:title="draws the main table header">
<polygon fill="white" stroke="black" points="228,-0.5 228,-21.5 326,-21.5 326,-0.5 228,-0.5"/>
<text text-anchor="middle" x="277" y="-8.5" font-family="Helvetica,sans-Serif" font-size="10.00">renderTableHeader</text>
</a>
</g>
<!-- Node2&#45;&gt;Node5 -->
<g id="edge8" class="edge"><title>Node2&#45;&gt;Node5</title>
<path fill="none" stroke="midnightblue" d="M191.64,-23.836C200.105,-22.5632 209.014,-21.2235 217.754,-19.9092"/>
<polygon fill="midnightblue" stroke="midnightblue" points="218.531,-23.3318 227.899,-18.3836 217.49,-16.4096 218.531,-23.3318"/>
</g>
<!-- Node4 -->
<g id="node7" class="node"><title>Node4</title>
<a xlink:href="a00001.html#a20af85a4f4041ed681b095e1427b2a1d" target="_top" xlink:title="getVariableName">
<polygon fill="white" stroke="black" points="362.5,-40.5 362.5,-61.5 453.5,-61.5 453.5,-40.5 362.5,-40.5"/>
<text text-anchor="middle" x="408" y="-48.5" font-family="Helvetica,sans-Serif" font-size="10.00">getVariableName</text>
</a>
</g>
<!-- Node3&#45;&gt;Node4 -->
<g id="edge6" class="edge"><title>Node3&#45;&gt;Node4</title>
<path fill="none" stroke="midnightblue" d="M318.809,-51C329.358,-51 340.854,-51 351.977,-51"/>
<polygon fill="midnightblue" stroke="midnightblue" points="352.05,-54.5001 362.05,-51 352.05,-47.5001 352.05,-54.5001"/>
</g>
</g>
</svg>
