<?xml version="1.0" encoding="UTF-8" standalone="no"?>
<!DOCTYPE svg PUBLIC "-//W3C//DTD SVG 1.1//EN"
 "http://www.w3.org/Graphics/SVG/1.1/DTD/svg11.dtd">
<!-- Generated by graphviz version 2.26.3 (20100126.1600)
 -->
<!-- Title: error Pages: 1 -->
<!--zoomable 190 -->
<svg id="main" version="1.1" xmlns="http://www.w3.org/2000/svg" xmlns:xlink="http://www.w3.org/1999/xlink" xml:space="preserve" onload="init(evt)">
        <defs>
                <circle id="rim" cx="0" cy="0" r="7"/>
                <circle id="rim2" cx="0" cy="0" r="3.5"/>
                <g id="zoomPlus">
                        <use xlink:href="#rim" fill="#404040">
                                <set attributeName="fill" to="#808080" begin="zoomplus.mouseover" end="zoomplus.mouseout"/>
                        </use>
                        <path d="M-4,0h8M0,-4v8" fill="none" stroke="white" stroke-width="1.5" pointer-events="none"/>
                </g>
                <g id="zoomMin">
                        <use xlink:href="#rim" fill="#404040">
                                <set attributeName="fill" to="#808080" begin="zoomminus.mouseover" end="zoomminus.mouseout"/>
                        </use>
                        <path d="M-4,0h8" fill="none" stroke="white" stroke-width="1.5" pointer-events="none"/>
                </g>
                <g id="dirArrow">
                        <path fill="none" stroke="white" stroke-width="1.5" d="M0,-3.0v7 M-2.5,-0.5L0,-3.0L2.5,-0.5"/>
                </g>
               <g id="resetDef">
                       <use xlink:href="#rim2" fill="#404040">
                               <set attributeName="fill" to="#808080" begin="reset.mouseover" end="reset.mouseout"/>
                       </use>
               </g>
        </defs>

<script type="text/javascript">
var viewWidth = 542;
var viewHeight = 190;
var sectionId = 'dynsection-5';
</script>
<script xlink:href="svgpan.js"/>
<svg id="graph" class="graph">
<g id="viewport">
<title>error</title>
<polygon fill="white" stroke="white" points="-4,5 -4,-186 539,-186 539,5 -4,5"/>
<!-- Node1 -->
<g id="node1" class="node"><title>Node1</title>
<polygon fill="#bfbfbf" stroke="black" points="0,-20.5 0,-41.5 36,-41.5 36,-20.5 0,-20.5"/>
<text text-anchor="middle" x="18" y="-28.5" font-family="Helvetica,sans-Serif" font-size="10.00">error</text>
</g>
<!-- Node2 -->
<g id="node3" class="node"><title>Node2</title>
<a xlink:href="a00001.html#a7538f8f3d434a3152a400f7478ae6454" target="_top" xlink:title="if variable is an xml resource type">
<polygon fill="white" stroke="black" points="72.5,-20.5 72.5,-41.5 165.5,-41.5 165.5,-20.5 72.5,-20.5"/>
<text text-anchor="middle" x="119" y="-28.5" font-family="Helvetica,sans-Serif" font-size="10.00">varIsXmlResource</text>
</a>
</g>
<!-- Node1&#45;&gt;Node2 -->
<g id="edge2" class="edge"><title>Node1&#45;&gt;Node2</title>
<path fill="none" stroke="midnightblue" d="M46.1507,-31C54.3322,-31 63.4941,-31 72.4863,-31"/>
<polygon fill="midnightblue" stroke="midnightblue" points="46.0568,-27.5001 36.0568,-31 46.0567,-34.5001 46.0568,-27.5001"/>
</g>
<!-- Node3 -->
<g id="node5" class="node"><title>Node3</title>
<a xlink:href="a00001.html#a4ab1e15fa34f8b98071b0eb36883777e" target="_top" xlink:title="shows info about different resources, uses customized rendering founctions when needed">
<polygon fill="white" stroke="black" points="202.5,-40.5 202.5,-61.5 279.5,-61.5 279.5,-40.5 202.5,-40.5"/>
<text text-anchor="middle" x="241" y="-48.5" font-family="Helvetica,sans-Serif" font-size="10.00">varIsResource</text>
</a>
</g>
<!-- Node2&#45;&gt;Node3 -->
<g id="edge4" class="edge"><title>Node2&#45;&gt;Node3</title>
<path fill="none" stroke="midnightblue" d="M175.876,-40.324C184.866,-41.7977 193.976,-43.2911 202.419,-44.6753"/>
<polygon fill="midnightblue" stroke="midnightblue" points="176.254,-36.8393 165.819,-38.6753 175.122,-43.7471 176.254,-36.8393"/>
</g>
<!-- Node10 -->
<g id="node23" class="node"><title>Node10</title>
<a xlink:href="a00001.html#aae74585f47656ea965da93f30991825e" target="_top" xlink:title="if variable is an xml type remember, that you must force type to xml to use this">
<polygon fill="white" stroke="black" points="215,-0.5 215,-21.5 267,-21.5 267,-0.5 215,-0.5"/>
<text text-anchor="middle" x="241" y="-8.5" font-family="Helvetica,sans-Serif" font-size="10.00">varIsXml</text>
</a>
</g>
<!-- Node2&#45;&gt;Node10 -->
<g id="edge26" class="edge"><title>Node2&#45;&gt;Node10</title>
<path fill="none" stroke="midnightblue" d="M175.715,-21.7024C189.43,-19.454 203.436,-17.158 214.94,-15.2721"/>
<polygon fill="midnightblue" stroke="midnightblue" points="175.122,-18.2529 165.819,-23.3247 176.254,-25.1607 175.122,-18.2529"/>
</g>
<!-- Node4 -->
<g id="node7" class="node"><title>Node4</title>
<a xlink:href="a00001.html#aaecea663190c6ce2edd146c3133f257d" target="_top" xlink:title="check variable type andd process the value in right way">
<polygon fill="white" stroke="black" points="316,-80.5 316,-101.5 380,-101.5 380,-80.5 316,-80.5"/>
<text text-anchor="middle" x="348" y="-88.5" font-family="Helvetica,sans-Serif" font-size="10.00">checkType</text>
</a>
</g>
<!-- Node3&#45;&gt;Node4 -->
<g id="edge6" class="edge"><title>Node3&#45;&gt;Node4</title>
<path fill="none" stroke="midnightblue" d="M278.629,-65.067C292.135,-70.1158 307.124,-75.7192 319.703,-80.4218"/>
<polygon fill="midnightblue" stroke="midnightblue" points="279.705,-61.7328 269.113,-61.5095 277.254,-68.2896 279.705,-61.7328"/>
</g>
<!-- Node5 -->
<g id="node9" class="node"><title>Node5</title>
<a xlink:href="a00001.html#a6826222eba46dd56dbd5841cdc300efa" target="_top" xlink:title="dBug">
<polygon fill="white" stroke="black" points="455.5,-160.5 455.5,-181.5 494.5,-181.5 494.5,-160.5 455.5,-160.5"/>
<text text-anchor="middle" x="475" y="-168.5" font-family="Helvetica,sans-Serif" font-size="10.00">dBug</text>
</a>
</g>
<!-- Node4&#45;&gt;Node5 -->
<g id="edge8" class="edge"><title>Node4&#45;&gt;Node5</title>
<path fill="none" stroke="midnightblue" d="M364.815,-109.311C377.731,-122.455 396.594,-139.762 416,-151 428.261,-158.1 443.423,-163.171 455.307,-166.43"/>
<polygon fill="midnightblue" stroke="midnightblue" points="367.031,-106.565 357.59,-101.757 361.973,-111.403 367.031,-106.565"/>
</g>
<!-- Node6 -->
<g id="node11" class="node"><title>Node6</title>
<a xlink:href="a00001.html#a86ff35452ee612d9e9e9b147e5544acc" target="_top" xlink:title="varIsArray">
<polygon fill="white" stroke="black" points="445.5,-120.5 445.5,-141.5 504.5,-141.5 504.5,-120.5 445.5,-120.5"/>
<text text-anchor="middle" x="475" y="-128.5" font-family="Helvetica,sans-Serif" font-size="10.00">varIsArray</text>
</a>
</g>
<!-- Node4&#45;&gt;Node6 -->
<g id="edge10" class="edge"><title>Node4&#45;&gt;Node6</title>
<path fill="none" stroke="midnightblue" d="M389.85,-97.7926C412.658,-104.186 439.699,-113.208 457.09,-120.488"/>
<polygon fill="midnightblue" stroke="midnightblue" points="390.614,-94.3737 380.047,-95.1413 388.787,-101.131 390.614,-94.3737"/>
</g>
<!-- Node7 -->
<g id="node14" class="node"><title>Node7</title>
<a xlink:href="a00001.html#aaa52412f9f4f725e15aafa3fcd678b1d" target="_top" xlink:title="shows information about curl easy handles">
<polygon fill="white" stroke="black" points="416.5,-40.5 416.5,-61.5 533.5,-61.5 533.5,-40.5 416.5,-40.5"/>
<text text-anchor="middle" x="475" y="-48.5" font-family="Helvetica,sans-Serif" font-size="10.00">varIsCurlEasyResource</text>
</a>
</g>
<!-- Node4&#45;&gt;Node7 -->
<g id="edge14" class="edge"><title>Node4&#45;&gt;Node7</title>
<path fill="none" stroke="midnightblue" d="M389.661,-77.8783C406.521,-72.5681 425.72,-66.5213 441.632,-61.5095"/>
<polygon fill="midnightblue" stroke="midnightblue" points="388.534,-74.5638 380.047,-80.9063 390.637,-81.2405 388.534,-74.5638"/>
</g>
<!-- Node8 -->
<g id="node17" class="node"><title>Node8</title>
<a xlink:href="a00001.html#a642e715a1977cf46d40d840b5112465d" target="_top" xlink:title="if variable is an image/gd resource type">
<polygon fill="white" stroke="black" points="429,-0.5 429,-21.5 521,-21.5 521,-0.5 429,-0.5"/>
<text text-anchor="middle" x="475" y="-8.5" font-family="Helvetica,sans-Serif" font-size="10.00">varIsGDResource</text>
</a>
</g>
<!-- Node4&#45;&gt;Node8 -->
<g id="edge18" class="edge"><title>Node4&#45;&gt;Node8</title>
<path fill="none" stroke="midnightblue" d="M364.815,-72.6886C377.731,-59.5451 396.594,-42.2381 416,-31 422.364,-27.3144 429.511,-24.1756 436.574,-21.5533"/>
<polygon fill="midnightblue" stroke="midnightblue" points="361.973,-70.5969 357.59,-80.2427 367.031,-75.4353 361.973,-70.5969"/>
</g>
<!-- Node9 -->
<g id="node20" class="node"><title>Node9</title>
<a xlink:href="a00001.html#a443a941157b2ed03d6a24ae70ece785d" target="_top" xlink:title="checks wheither variable is object of special type (using varIs*Object), and renders it if it is gene...">
<polygon fill="white" stroke="black" points="442.5,-80.5 442.5,-101.5 507.5,-101.5 507.5,-80.5 442.5,-80.5"/>
<text text-anchor="middle" x="475" y="-88.5" font-family="Helvetica,sans-Serif" font-size="10.00">varIsObject</text>
</a>
</g>
<!-- Node4&#45;&gt;Node9 -->
<g id="edge22" class="edge"><title>Node4&#45;&gt;Node9</title>
<path fill="none" stroke="midnightblue" d="M390.216,-84.599C407.099,-84.0252 426.253,-84.159 442.078,-85.0002"/>
<polygon fill="midnightblue" stroke="midnightblue" points="389.883,-81.1101 380.047,-85.0476 390.192,-88.1033 389.883,-81.1101"/>
</g>
<!-- Node6&#45;&gt;Node4 -->
<g id="edge12" class="edge"><title>Node6&#45;&gt;Node4</title>
<path fill="none" stroke="midnightblue" d="M435.478,-124.855C412.212,-118.436 383.914,-109.047 365.927,-101.519"/>
<polygon fill="midnightblue" stroke="midnightblue" points="434.863,-128.313 445.426,-127.493 436.657,-121.547 434.863,-128.313"/>
</g>
<!-- Node7&#45;&gt;Node3 -->
<g id="edge16" class="edge"><title>Node7&#45;&gt;Node3</title>
<path fill="none" stroke="midnightblue" d="M405.857,-51C364.647,-51 313.865,-51 279.64,-51"/>
<polygon fill="midnightblue" stroke="midnightblue" points="406.112,-54.5001 416.112,-51 406.112,-47.5001 406.112,-54.5001"/>
</g>
<!-- Node8&#45;&gt;Node3 -->
<g id="edge20" class="edge"><title>Node8&#45;&gt;Node3</title>
<path fill="none" stroke="midnightblue" d="M418.616,-20.6383C375.605,-27.9905 317.496,-37.9238 279.64,-44.3948"/>
<polygon fill="midnightblue" stroke="midnightblue" points="419.384,-24.0579 428.651,-18.9229 418.204,-17.158 419.384,-24.0579"/>
</g>
<!-- Node9&#45;&gt;Node4 -->
<g id="edge24" class="edge"><title>Node9&#45;&gt;Node4</title>
<path fill="none" stroke="midnightblue" d="M431.844,-97.4322C414.879,-97.9797 395.747,-97.8198 380.047,-96.9524"/>
<polygon fill="midnightblue" stroke="midnightblue" points="432.234,-100.919 442.078,-96.9998 431.939,-93.9251 432.234,-100.919"/>
</g>
</g>
</svg>
        <g id="navigator" transform="translate(0 0)" fill="#404254">
                <rect fill="#f2f5e9" fill-opacity="0.5" stroke="#606060" stroke-width=".5" x="0" y="0" width="60" height="60"/>
                <use id="zoomplus" xlink:href="#zoomPlus" x="17" y="9" onmousedown="handleZoom(evt,'in')"/>
                <use id="zoomminus" xlink:href="#zoomMin" x="42" y="9" onmousedown="handleZoom(evt,'out')"/>
                <use id="reset" xlink:href="#resetDef" x="30" y="36" onmousedown="handleReset()"/>
                <g id="arrowUp" xlink:href="#dirArrow" transform="translate(30 24)" onmousedown="handlePan(0,-1)">
                  <use xlink:href="#rim" fill="#404040">
                        <set attributeName="fill" to="#808080" begin="arrowUp.mouseover" end="arrowUp.mouseout"/>
                  </use>
                  <path fill="none" stroke="white" stroke-width="1.5" d="M0,-3.0v7 M-2.5,-0.5L0,-3.0L2.5,-0.5"/>
                </g>
                <g id="arrowRight" xlink:href="#dirArrow" transform="rotate(90) translate(36 -43)" onmousedown="handlePan(1,0)">
                  <use xlink:href="#rim" fill="#404040">
                        <set attributeName="fill" to="#808080" begin="arrowRight.mouseover" end="arrowRight.mouseout"/>
                  </use>
                  <path fill="none" stroke="white" stroke-width="1.5" d="M0,-3.0v7 M-2.5,-0.5L0,-3.0L2.5,-0.5"/>
                </g>
                <g id="arrowDown" xlink:href="#dirArrow" transform="rotate(180) translate(-30 -48)" onmousedown="handlePan(0,1)">
                  <use xlink:href="#rim" fill="#404040">
                        <set attributeName="fill" to="#808080" begin="arrowDown.mouseover" end="arrowDown.mouseout"/>
                  </use>
                  <path fill="none" stroke="white" stroke-width="1.5" d="M0,-3.0v7 M-2.5,-0.5L0,-3.0L2.5,-0.5"/>
                </g>
                <g id="arrowLeft" xlink:href="#dirArrow" transform="rotate(270) translate(-36 17)" onmousedown="handlePan(-1,0)">
                  <use xlink:href="#rim" fill="#404040">
                        <set attributeName="fill" to="#808080" begin="arrowLeft.mouseover" end="arrowLeft.mouseout"/>
                  </use>
                  <path fill="none" stroke="white" stroke-width="1.5" d="M0,-3.0v7 M-2.5,-0.5L0,-3.0L2.5,-0.5"/>
                </g>
        </g>
        <svg viewBox="0 0 15 15" width="100%" height="30px" preserveAspectRatio="xMaxYMin meet">
         <g id="arrow_out" transform="scale(0.3 0.3)">
          <a xlink:href="a00001_a545636ab6c62d4ba28f561d864d59a66_icgraph_org.svg" target="_base">
           <rect id="button" ry="5" rx="5" y="6" x="6" height="38" width="38"
                fill="#f2f5e9" fill-opacity="0.5" stroke="#606060" stroke-width="1.0"/>
           <path id="arrow"
             d="M 11.500037,31.436501 C 11.940474,20.09759 22.043105,11.32322 32.158766,21.979434 L 37.068811,17.246167 C 37.068811,17.246167 37.088388,32 37.088388,32 L 22.160133,31.978069 C 22.160133,31.978069 26.997745,27.140456 26.997745,27.140456 C 18.528582,18.264221 13.291696,25.230495 11.500037,31.436501 z"
             style="fill:#404040;"/>
          </a>
         </g>
        </svg>
</svg>
