<?xml version="1.0" encoding="UTF-8" standalone="no"?>
<!DOCTYPE svg PUBLIC "-//W3C//DTD SVG 1.1//EN"
 "http://www.w3.org/Graphics/SVG/1.1/DTD/svg11.dtd">
<!-- Generated by graphviz version 2.26.3 (20100126.1600)
 -->
<!-- Title: varIsObject Pages: 1 -->
<svg width="462pt" height="249pt"
 viewBox="0.00 0.00 462.00 249.41" xmlns="http://www.w3.org/2000/svg" xmlns:xlink="http://www.w3.org/1999/xlink">
<g id="graph1" class="graph" transform="scale(1 1) rotate(0) translate(4 245.406)">
<title>varIsObject</title>
<polygon fill="white" stroke="white" points="-4,5 -4,-245.406 459,-245.406 459,5 -4,5"/>
<!-- Node1 -->
<g id="node1" class="node"><title>Node1</title>
<polygon fill="#bfbfbf" stroke="black" points="0.5,-119.906 0.5,-140.906 65.5,-140.906 65.5,-119.906 0.5,-119.906"/>
<text text-anchor="middle" x="33" y="-127.906" font-family="Helvetica,sans-Serif" font-size="10.00">varIsObject</text>
</g>
<!-- Node2 -->
<g id="node3" class="node"><title>Node2</title>
<a xlink:href="a00001.html#aaecea663190c6ce2edd146c3133f257d" target="_top" xlink:title="check variable type andd process the value in right way">
<polygon fill="white" stroke="black" points="102,-119.906 102,-140.906 166,-140.906 166,-119.906 102,-119.906"/>
<text text-anchor="middle" x="134" y="-127.906" font-family="Helvetica,sans-Serif" font-size="10.00">checkType</text>
</a>
</g>
<!-- Node1&#45;&gt;Node2 -->
<g id="edge2" class="edge"><title>Node1&#45;&gt;Node2</title>
<path fill="none" stroke="midnightblue" d="M75.624,-123.729C84.4214,-123.564 93.5457,-123.678 101.893,-124.071"/>
<polygon fill="midnightblue" stroke="midnightblue" points="75.3963,-120.235 65.513,-124.052 75.6195,-127.231 75.3963,-120.235"/>
</g>
<!-- Node2&#45;&gt;Node1 -->
<g id="edge26" class="edge"><title>Node2&#45;&gt;Node1</title>
<path fill="none" stroke="midnightblue" d="M91.8033,-137.074C83.0168,-137.249 73.8855,-137.144 65.513,-136.76"/>
<polygon fill="midnightblue" stroke="midnightblue" points="92.0143,-140.569 101.893,-136.741 91.7833,-133.573 92.0143,-140.569"/>
</g>
<!-- Node3 -->
<g id="node5" class="node"><title>Node3</title>
<a xlink:href="a00001.html#a6826222eba46dd56dbd5841cdc300efa" target="_top" xlink:title="dBug">
<polygon fill="white" stroke="black" points="241.5,-219.906 241.5,-240.906 280.5,-240.906 280.5,-219.906 241.5,-219.906"/>
<text text-anchor="middle" x="261" y="-227.906" font-family="Helvetica,sans-Serif" font-size="10.00">dBug</text>
</a>
</g>
<!-- Node2&#45;&gt;Node3 -->
<g id="edge4" class="edge"><title>Node2&#45;&gt;Node3</title>
<path fill="none" stroke="midnightblue" d="M145.897,-149.646C157.974,-167.7 178.243,-194.273 202,-210.406 213.9,-218.487 229.36,-223.57 241.469,-226.588"/>
<polygon fill="midnightblue" stroke="midnightblue" points="148.725,-147.574 140.353,-141.081 142.849,-151.378 148.725,-147.574"/>
</g>
<!-- Node4 -->
<g id="node7" class="node"><title>Node4</title>
<a xlink:href="a00001.html#a86ff35452ee612d9e9e9b147e5544acc" target="_top" xlink:title="varIsArray">
<polygon fill="white" stroke="black" points="231.5,-179.906 231.5,-200.906 290.5,-200.906 290.5,-179.906 231.5,-179.906"/>
<text text-anchor="middle" x="261" y="-187.906" font-family="Helvetica,sans-Serif" font-size="10.00">varIsArray</text>
</a>
</g>
<!-- Node2&#45;&gt;Node4 -->
<g id="edge6" class="edge"><title>Node2&#45;&gt;Node4</title>
<path fill="none" stroke="midnightblue" d="M171.984,-145.871C181.575,-151.183 191.996,-156.827 202,-161.406 217.341,-168.428 235.894,-174.319 248.048,-179.886"/>
<polygon fill="midnightblue" stroke="midnightblue" points="173.524,-142.723 163.083,-140.926 170.124,-148.842 173.524,-142.723"/>
</g>
<!-- Node5 -->
<g id="node10" class="node"><title>Node5</title>
<a xlink:href="a00001.html#aaa52412f9f4f725e15aafa3fcd678b1d" target="_top" xlink:title="shows information about curl easy handles">
<polygon fill="white" stroke="black" points="202.5,-139.906 202.5,-160.906 319.5,-160.906 319.5,-139.906 202.5,-139.906"/>
<text text-anchor="middle" x="261" y="-147.906" font-family="Helvetica,sans-Serif" font-size="10.00">varIsCurlEasyResource</text>
</a>
</g>
<!-- Node2&#45;&gt;Node5 -->
<g id="edge10" class="edge"><title>Node2&#45;&gt;Node5</title>
<path fill="none" stroke="midnightblue" d="M175.983,-137.017C184.399,-138.343 193.388,-139.758 202.252,-141.154"/>
<polygon fill="midnightblue" stroke="midnightblue" points="176.47,-133.551 166.047,-135.453 175.381,-140.466 176.47,-133.551"/>
</g>
<!-- Node7 -->
<g id="node15" class="node"><title>Node7</title>
<a xlink:href="a00001.html#a91a251e46645521ab0c05a9b787624f6" target="_top" xlink:title="function used to render exceptions">
<polygon fill="white" stroke="black" points="221,-21.9059 221,-42.9059 301,-42.9059 301,-21.9059 221,-21.9059"/>
<text text-anchor="middle" x="261" y="-29.9059" font-family="Helvetica,sans-Serif" font-size="10.00">varIsException</text>
</a>
</g>
<!-- Node2&#45;&gt;Node7 -->
<g id="edge16" class="edge"><title>Node2&#45;&gt;Node7</title>
<path fill="none" stroke="midnightblue" d="M147.903,-111.487C160.537,-95.3719 180.451,-72.4929 202,-57.4059 210.293,-51.5997 220.145,-46.7624 229.4,-42.9388"/>
<polygon fill="midnightblue" stroke="midnightblue" points="144.955,-109.58 141.668,-119.652 150.519,-113.828 144.955,-109.58"/>
</g>
<!-- Node9 -->
<g id="node20" class="node"><title>Node9</title>
<a xlink:href="a00001.html#a642e715a1977cf46d40d840b5112465d" target="_top" xlink:title="if variable is an image/gd resource type">
<polygon fill="white" stroke="black" points="215,-99.9059 215,-120.906 307,-120.906 307,-99.9059 215,-99.9059"/>
<text text-anchor="middle" x="261" y="-107.906" font-family="Helvetica,sans-Serif" font-size="10.00">varIsGDResource</text>
</a>
</g>
<!-- Node2&#45;&gt;Node9 -->
<g id="edge22" class="edge"><title>Node2&#45;&gt;Node9</title>
<path fill="none" stroke="midnightblue" d="M176.076,-123.78C188.413,-121.837 201.973,-119.701 214.566,-117.718"/>
<polygon fill="midnightblue" stroke="midnightblue" points="175.381,-120.346 166.047,-125.359 176.47,-127.261 175.381,-120.346"/>
</g>
<!-- Node4&#45;&gt;Node2 -->
<g id="edge8" class="edge"><title>Node4&#45;&gt;Node2</title>
<path fill="none" stroke="midnightblue" d="M221.786,-187.234C215.092,-184.963 208.277,-182.279 202,-179.406 178.836,-168.803 153.435,-152.492 141.276,-140.912"/>
<polygon fill="midnightblue" stroke="midnightblue" points="220.842,-190.605 231.43,-190.239 222.924,-183.922 220.842,-190.605"/>
</g>
<!-- Node6 -->
<g id="node12" class="node"><title>Node6</title>
<a xlink:href="a00001.html#a4ab1e15fa34f8b98071b0eb36883777e" target="_top" xlink:title="shows info about different resources, uses customized rendering founctions when needed">
<polygon fill="white" stroke="black" points="366.5,-99.9059 366.5,-120.906 443.5,-120.906 443.5,-99.9059 366.5,-99.9059"/>
<text text-anchor="middle" x="405" y="-107.906" font-family="Helvetica,sans-Serif" font-size="10.00">varIsResource</text>
</a>
</g>
<!-- Node5&#45;&gt;Node6 -->
<g id="edge12" class="edge"><title>Node5&#45;&gt;Node6</title>
<path fill="none" stroke="midnightblue" d="M308.486,-137.215C327.456,-131.946 349.003,-125.961 366.918,-120.984"/>
<polygon fill="midnightblue" stroke="midnightblue" points="307.533,-133.848 298.834,-139.896 309.406,-140.592 307.533,-133.848"/>
</g>
<!-- Node6&#45;&gt;Node2 -->
<g id="edge14" class="edge"><title>Node6&#45;&gt;Node2</title>
<path fill="none" stroke="midnightblue" d="M361.88,-97.2956C320.262,-86.7006 255.821,-75.7499 202,-90.4059 181.12,-96.0918 160.111,-109.996 147.086,-119.808"/>
<polygon fill="midnightblue" stroke="midnightblue" points="361.127,-100.717 371.69,-99.8945 362.919,-93.9503 361.127,-100.717"/>
</g>
<!-- Node8 -->
<g id="node17" class="node"><title>Node8</title>
<a xlink:href="a00001.html#a783baa8ff544bb8278ac32bce66be5c4" target="_top" xlink:title="varIsSpecialObject">
<polygon fill="white" stroke="black" points="356.5,-2.9059 356.5,-23.9059 453.5,-23.9059 453.5,-2.9059 356.5,-2.9059"/>
<text text-anchor="middle" x="405" y="-10.9059" font-family="Helvetica,sans-Serif" font-size="10.00">varIsSpecialObject</text>
</a>
</g>
<!-- Node7&#45;&gt;Node8 -->
<g id="edge18" class="edge"><title>Node7&#45;&gt;Node8</title>
<path fill="none" stroke="midnightblue" d="M311.04,-25.8035C325.741,-23.8637 341.792,-21.7458 356.402,-19.8181"/>
<polygon fill="midnightblue" stroke="midnightblue" points="310.568,-22.3352 301.112,-27.1133 311.484,-29.2751 310.568,-22.3352"/>
</g>
<!-- Node8&#45;&gt;Node1 -->
<g id="edge20" class="edge"><title>Node8&#45;&gt;Node1</title>
<path fill="none" stroke="midnightblue" d="M346.016,-3.77842C304.726,0.731416 248.799,2.31558 202,-12.4059 133.046,-34.0964 67.6875,-95.0257 43.1822,-119.765"/>
<polygon fill="midnightblue" stroke="midnightblue" points="345.842,-7.28212 356.183,-4.97987 346.663,-0.330488 345.842,-7.28212"/>
</g>
<!-- Node9&#45;&gt;Node6 -->
<g id="edge24" class="edge"><title>Node9&#45;&gt;Node6</title>
<path fill="none" stroke="midnightblue" d="M317.403,-110.406C333.828,-110.406 351.391,-110.406 366.446,-110.406"/>
<polygon fill="midnightblue" stroke="midnightblue" points="317.355,-106.906 307.355,-110.406 317.355,-113.906 317.355,-106.906"/>
</g>
</g>
</svg>
