<?xml version="1.0" encoding="UTF-8" standalone="no"?>
<!DOCTYPE svg PUBLIC "-//W3C//DTD SVG 1.1//EN"
 "http://www.w3.org/Graphics/SVG/1.1/DTD/svg11.dtd">
<!-- Generated by graphviz version 2.26.3 (20100126.1600)
 -->
<!-- Title: renderDBData Pages: 1 -->
<svg width="480pt" height="70pt"
 viewBox="0.00 0.00 480.00 70.00" xmlns="http://www.w3.org/2000/svg" xmlns:xlink="http://www.w3.org/1999/xlink">
<g id="graph1" class="graph" transform="scale(1 1) rotate(0) translate(4 66)">
<title>renderDBData</title>
<polygon fill="white" stroke="white" points="-4,5 -4,-66 477,-66 477,5 -4,5"/>
<!-- Node1 -->
<g id="node1" class="node"><title>Node1</title>
<polygon fill="#bfbfbf" stroke="black" points="0.5,-20.5 0.5,-41.5 77.5,-41.5 77.5,-20.5 0.5,-20.5"/>
<text text-anchor="middle" x="39" y="-28.5" font-family="Helvetica,sans-Serif" font-size="10.00">renderDBData</text>
</g>
<!-- Node2 -->
<g id="node3" class="node"><title>Node2</title>
<a xlink:href="a00001.html#a04aa495573c880043c46c3bfc669bbe3" target="_top" xlink:title="creates the main table header">
<polygon fill="white" stroke="black" points="114.5,-20.5 114.5,-41.5 209.5,-41.5 209.5,-20.5 114.5,-20.5"/>
<text text-anchor="middle" x="162" y="-28.5" font-family="Helvetica,sans-Serif" font-size="10.00">makeTableHeader</text>
</a>
</g>
<!-- Node1&#45;&gt;Node2 -->
<g id="edge2" class="edge"><title>Node1&#45;&gt;Node2</title>
<path fill="none" stroke="midnightblue" d="M77.5805,-31C86.0778,-31 95.2562,-31 104.323,-31"/>
<polygon fill="midnightblue" stroke="midnightblue" points="104.471,-34.5001 114.471,-31 104.471,-27.5001 104.471,-34.5001"/>
</g>
<!-- Node3 -->
<g id="node5" class="node"><title>Node3</title>
<a xlink:href="a00001.html#a742973a203c412611192053dc0cd48af" target="_top" xlink:title="initializeHeader">
<polygon fill="white" stroke="black" points="253.5,-40.5 253.5,-61.5 336.5,-61.5 336.5,-40.5 253.5,-40.5"/>
<text text-anchor="middle" x="295" y="-48.5" font-family="Helvetica,sans-Serif" font-size="10.00">initializeHeader</text>
</a>
</g>
<!-- Node2&#45;&gt;Node3 -->
<g id="edge4" class="edge"><title>Node2&#45;&gt;Node3</title>
<path fill="none" stroke="midnightblue" d="M209.64,-38.164C220.597,-39.8116 232.299,-41.5713 243.414,-43.2428"/>
<polygon fill="midnightblue" stroke="midnightblue" points="243.01,-46.7213 253.42,-44.7473 244.051,-39.7991 243.01,-46.7213"/>
</g>
<!-- Node5 -->
<g id="node9" class="node"><title>Node5</title>
<a xlink:href="a00001.html#a3396d3c6336b500d49e3a1a0288dc035" target="_top" xlink:title="draws the main table header">
<polygon fill="white" stroke="black" points="246,-0.5 246,-21.5 344,-21.5 344,-0.5 246,-0.5"/>
<text text-anchor="middle" x="295" y="-8.5" font-family="Helvetica,sans-Serif" font-size="10.00">renderTableHeader</text>
</a>
</g>
<!-- Node2&#45;&gt;Node5 -->
<g id="edge8" class="edge"><title>Node2&#45;&gt;Node5</title>
<path fill="none" stroke="midnightblue" d="M209.64,-23.836C218.105,-22.5632 227.014,-21.2235 235.754,-19.9092"/>
<polygon fill="midnightblue" stroke="midnightblue" points="236.531,-23.3318 245.899,-18.3836 235.49,-16.4096 236.531,-23.3318"/>
</g>
<!-- Node4 -->
<g id="node7" class="node"><title>Node4</title>
<a xlink:href="a00001.html#a20af85a4f4041ed681b095e1427b2a1d" target="_top" xlink:title="getVariableName">
<polygon fill="white" stroke="black" points="380.5,-40.5 380.5,-61.5 471.5,-61.5 471.5,-40.5 380.5,-40.5"/>
<text text-anchor="middle" x="426" y="-48.5" font-family="Helvetica,sans-Serif" font-size="10.00">getVariableName</text>
</a>
</g>
<!-- Node3&#45;&gt;Node4 -->
<g id="edge6" class="edge"><title>Node3&#45;&gt;Node4</title>
<path fill="none" stroke="midnightblue" d="M336.809,-51C347.358,-51 358.854,-51 369.977,-51"/>
<polygon fill="midnightblue" stroke="midnightblue" points="370.05,-54.5001 380.05,-51 370.05,-47.5001 370.05,-54.5001"/>
</g>
</g>
</svg>
