<?xml version="1.0" encoding="UTF-8" standalone="no"?>
<!DOCTYPE svg PUBLIC "-//W3C//DTD SVG 1.1//EN"
 "http://www.w3.org/Graphics/SVG/1.1/DTD/svg11.dtd">
<!-- Generated by graphviz version 2.26.3 (20100126.1600)
 -->
<!-- Title: makeTableHeader Pages: 1 -->
<svg width="366pt" height="70pt"
 viewBox="0.00 0.00 366.00 70.00" xmlns="http://www.w3.org/2000/svg" xmlns:xlink="http://www.w3.org/1999/xlink">
<g id="graph1" class="graph" transform="scale(1 1) rotate(0) translate(4 66)">
<title>makeTableHeader</title>
<polygon fill="white" stroke="white" points="-4,5 -4,-66 363,-66 363,5 -4,5"/>
<!-- Node1 -->
<g id="node1" class="node"><title>Node1</title>
<polygon fill="#bfbfbf" stroke="black" points="0.5,-20.5 0.5,-41.5 95.5,-41.5 95.5,-20.5 0.5,-20.5"/>
<text text-anchor="middle" x="48" y="-28.5" font-family="Helvetica,sans-Serif" font-size="10.00">makeTableHeader</text>
</g>
<!-- Node2 -->
<g id="node3" class="node"><title>Node2</title>
<a xlink:href="a00001.html#a742973a203c412611192053dc0cd48af" target="_top" xlink:title="initializeHeader">
<polygon fill="white" stroke="black" points="139.5,-40.5 139.5,-61.5 222.5,-61.5 222.5,-40.5 139.5,-40.5"/>
<text text-anchor="middle" x="181" y="-48.5" font-family="Helvetica,sans-Serif" font-size="10.00">initializeHeader</text>
</a>
</g>
<!-- Node1&#45;&gt;Node2 -->
<g id="edge2" class="edge"><title>Node1&#45;&gt;Node2</title>
<path fill="none" stroke="midnightblue" d="M95.6404,-38.164C106.597,-39.8116 118.299,-41.5713 129.414,-43.2428"/>
<polygon fill="midnightblue" stroke="midnightblue" points="129.01,-46.7213 139.42,-44.7473 130.051,-39.7991 129.01,-46.7213"/>
</g>
<!-- Node4 -->
<g id="node7" class="node"><title>Node4</title>
<a xlink:href="a00001.html#a3396d3c6336b500d49e3a1a0288dc035" target="_top" xlink:title="draws the main table header">
<polygon fill="white" stroke="black" points="132,-0.5 132,-21.5 230,-21.5 230,-0.5 132,-0.5"/>
<text text-anchor="middle" x="181" y="-8.5" font-family="Helvetica,sans-Serif" font-size="10.00">renderTableHeader</text>
</a>
</g>
<!-- Node1&#45;&gt;Node4 -->
<g id="edge6" class="edge"><title>Node1&#45;&gt;Node4</title>
<path fill="none" stroke="midnightblue" d="M95.6404,-23.836C104.105,-22.5632 113.014,-21.2235 121.754,-19.9092"/>
<polygon fill="midnightblue" stroke="midnightblue" points="122.531,-23.3318 131.899,-18.3836 121.49,-16.4096 122.531,-23.3318"/>
</g>
<!-- Node3 -->
<g id="node5" class="node"><title>Node3</title>
<a xlink:href="a00001.html#a20af85a4f4041ed681b095e1427b2a1d" target="_top" xlink:title="getVariableName">
<polygon fill="white" stroke="black" points="266.5,-40.5 266.5,-61.5 357.5,-61.5 357.5,-40.5 266.5,-40.5"/>
<text text-anchor="middle" x="312" y="-48.5" font-family="Helvetica,sans-Serif" font-size="10.00">getVariableName</text>
</a>
</g>
<!-- Node2&#45;&gt;Node3 -->
<g id="edge4" class="edge"><title>Node2&#45;&gt;Node3</title>
<path fill="none" stroke="midnightblue" d="M222.809,-51C233.358,-51 244.854,-51 255.977,-51"/>
<polygon fill="midnightblue" stroke="midnightblue" points="256.05,-54.5001 266.05,-51 256.05,-47.5001 256.05,-54.5001"/>
</g>
</g>
</svg>
