<?xml version="1.0" encoding="UTF-8" standalone="no"?>
<!DOCTYPE svg PUBLIC "-//W3C//DTD SVG 1.1//EN"
 "http://www.w3.org/Graphics/SVG/1.1/DTD/svg11.dtd">
<!-- Generated by graphviz version 2.26.3 (20100126.1600)
 -->
<!-- Title: varIsArray Pages: 1 -->
<!--zoomable 668 -->
<svg id="main" version="1.1" xmlns="http://www.w3.org/2000/svg" xmlns:xlink="http://www.w3.org/1999/xlink" xml:space="preserve" onload="init(evt)">
        <defs>
                <circle id="rim" cx="0" cy="0" r="7"/>
                <circle id="rim2" cx="0" cy="0" r="3.5"/>
                <g id="zoomPlus">
                        <use xlink:href="#rim" fill="#404040">
                                <set attributeName="fill" to="#808080" begin="zoomplus.mouseover" end="zoomplus.mouseout"/>
                        </use>
                        <path d="M-4,0h8M0,-4v8" fill="none" stroke="white" stroke-width="1.5" pointer-events="none"/>
                </g>
                <g id="zoomMin">
                        <use xlink:href="#rim" fill="#404040">
                                <set attributeName="fill" to="#808080" begin="zoomminus.mouseover" end="zoomminus.mouseout"/>
                        </use>
                        <path d="M-4,0h8" fill="none" stroke="white" stroke-width="1.5" pointer-events="none"/>
                </g>
                <g id="dirArrow">
                        <path fill="none" stroke="white" stroke-width="1.5" d="M0,-3.0v7 M-2.5,-0.5L0,-3.0L2.5,-0.5"/>
                </g>
               <g id="resetDef">
                       <use xlink:href="#rim2" fill="#404040">
                               <set attributeName="fill" to="#808080" begin="reset.mouseover" end="reset.mouseout"/>
                       </use>
               </g>
        </defs>

<script type="text/javascript">
var viewWidth = 1096;
var viewHeight = 668;
var sectionId = 'dynsection-16';
</script>
<script xlink:href="svgpan.js"/>
<svg id="graph" class="graph">
<g id="viewport">
<title>varIsArray</title>
<polygon fill="white" stroke="white" points="-4,5 -4,-664.275 1093,-664.275 1093,5 -4,5"/>
<!-- Node1 -->
<g id="node1" class="node"><title>Node1</title>
<polygon fill="#bfbfbf" stroke="black" points="0.5,-378.5 0.5,-399.5 59.5,-399.5 59.5,-378.5 0.5,-378.5"/>
<text text-anchor="middle" x="30" y="-386.5" font-family="Helvetica,sans-Serif" font-size="10.00">varIsArray</text>
</g>
<!-- Node2 -->
<g id="node3" class="node"><title>Node2</title>
<a xlink:href="a00001.html#aaecea663190c6ce2edd146c3133f257d" target="_top" xlink:title="check variable type andd process the value in right way">
<polygon fill="white" stroke="black" points="96,-378.5 96,-399.5 160,-399.5 160,-378.5 96,-378.5"/>
<text text-anchor="middle" x="128" y="-386.5" font-family="Helvetica,sans-Serif" font-size="10.00">checkType</text>
</a>
</g>
<!-- Node1&#45;&gt;Node2 -->
<g id="edge2" class="edge"><title>Node1&#45;&gt;Node2</title>
<path fill="none" stroke="midnightblue" d="M59.6692,-382.74C67.8484,-382.304 76.8835,-382.159 85.6313,-382.305"/>
<polygon fill="midnightblue" stroke="midnightblue" points="85.5983,-385.806 95.7001,-382.611 85.811,-378.809 85.5983,-385.806"/>
</g>
<!-- Node8 -->
<g id="node16" class="node"><title>Node8</title>
<a xlink:href="a00001.html#a04aa495573c880043c46c3bfc669bbe3" target="_top" xlink:title="creates the main table header">
<polygon fill="white" stroke="black" points="730.5,-378.5 730.5,-399.5 825.5,-399.5 825.5,-378.5 730.5,-378.5"/>
<text text-anchor="middle" x="778" y="-386.5" font-family="Helvetica,sans-Serif" font-size="10.00">makeTableHeader</text>
</a>
</g>
<!-- Node1&#45;&gt;Node8 -->
<g id="edge98" class="edge"><title>Node1&#45;&gt;Node8</title>
<path fill="none" stroke="midnightblue" d="M32.2838,-399.624C43.7349,-449.728 99.6748,-660 232,-660 232,-660 232,-660 497,-660 588.147,-660 626.642,-664.405 694,-603 751.943,-550.178 770.422,-452.41 775.885,-409.78"/>
<polygon fill="midnightblue" stroke="midnightblue" points="779.373,-410.082 777.056,-399.744 772.42,-409.271 779.373,-410.082"/>
</g>
<!-- Node16 -->
<g id="node36" class="node"><title>Node16</title>
<a xlink:href="a00001.html#a0cff4870612d64738cd84a47dbb36b1d" target="_top" xlink:title="creates the table row header">
<polygon fill="white" stroke="black" points="601.5,-338.5 601.5,-359.5 684.5,-359.5 684.5,-338.5 601.5,-338.5"/>
<text text-anchor="middle" x="643" y="-346.5" font-family="Helvetica,sans-Serif" font-size="10.00">makeTDHeader</text>
</a>
</g>
<!-- Node1&#45;&gt;Node16 -->
<g id="edge100" class="edge"><title>Node1&#45;&gt;Node16</title>
<path fill="none" stroke="midnightblue" d="M34.2115,-399.769C49.3201,-436.688 104.793,-558.319 196,-603 224.737,-617.078 236.585,-609.089 268,-603 403.471,-576.742 462.749,-588.716 556,-487 593.053,-446.583 554.762,-409.246 592,-369 593.221,-367.68 594.54,-366.446 595.936,-365.293"/>
<polygon fill="midnightblue" stroke="midnightblue" points="598.226,-367.974 604.621,-359.526 594.354,-362.142 598.226,-367.974"/>
</g>
<!-- Node17 -->
<g id="node39" class="node"><title>Node17</title>
<a xlink:href="a00001.html#aaa2a0a3c482abd677b2bc2fa137e6c91" target="_top" xlink:title="closes table row">
<polygon fill="white" stroke="black" points="607.5,-221.5 607.5,-242.5 678.5,-242.5 678.5,-221.5 607.5,-221.5"/>
<text text-anchor="middle" x="643" y="-229.5" font-family="Helvetica,sans-Serif" font-size="10.00">closeTDRow</text>
</a>
</g>
<!-- Node1&#45;&gt;Node17 -->
<g id="edge96" class="edge"><title>Node1&#45;&gt;Node17</title>
<path fill="none" stroke="midnightblue" d="M30.3924,-378.19C33.2941,-315.364 56.5956,-0 232,-0 232,-0 232,-0 353,-0 488.918,-0 597.634,-157.314 631.784,-212.86"/>
<polygon fill="midnightblue" stroke="midnightblue" points="628.791,-214.674 636.953,-221.429 634.785,-211.058 628.791,-214.674"/>
</g>
<!-- Node2&#45;&gt;Node1 -->
<g id="edge4" class="edge"><title>Node2&#45;&gt;Node1</title>
<path fill="none" stroke="midnightblue" d="M95.7001,-395.389C87.4428,-395.759 78.4669,-395.845 69.8785,-395.645"/>
<polygon fill="midnightblue" stroke="midnightblue" points="69.7941,-392.139 59.6692,-395.26 69.53,-399.134 69.7941,-392.139"/>
</g>
<!-- Node3 -->
<g id="node6" class="node"><title>Node3</title>
<a xlink:href="a00001.html#a5ebd24b62872515b28e27182857bfe7f" target="_top" xlink:title="renders boolean variable">
<polygon fill="white" stroke="black" points="196.5,-572.5 196.5,-593.5 267.5,-593.5 267.5,-572.5 196.5,-572.5"/>
<text text-anchor="middle" x="232" y="-580.5" font-family="Helvetica,sans-Serif" font-size="10.00">varIsBoolean</text>
</a>
</g>
<!-- Node2&#45;&gt;Node3 -->
<g id="edge6" class="edge"><title>Node2&#45;&gt;Node3</title>
<path fill="none" stroke="midnightblue" d="M129.594,-399.7C134.464,-429.082 151.612,-512.199 196,-563 197,-564.144 198.081,-565.236 199.225,-566.277"/>
<polygon fill="midnightblue" stroke="midnightblue" points="197.337,-569.235 207.446,-572.407 201.522,-563.624 197.337,-569.235"/>
</g>
<!-- Node7 -->
<g id="node14" class="node"><title>Node7</title>
<a xlink:href="a00001.html#acd3532d31c3c50577b2abd56624b3757" target="_top" xlink:title="renders NULL as red&#45;pink rectangle">
<polygon fill="white" stroke="black" points="323,-495.5 323,-516.5 383,-516.5 383,-495.5 323,-495.5"/>
<text text-anchor="middle" x="353" y="-503.5" font-family="Helvetica,sans-Serif" font-size="10.00">varIsNULL</text>
</a>
</g>
<!-- Node2&#45;&gt;Node7 -->
<g id="edge14" class="edge"><title>Node2&#45;&gt;Node7</title>
<path fill="none" stroke="midnightblue" d="M132.559,-399.528C141.575,-418.971 163.65,-460.318 196,-480 231.355,-501.51 279.086,-506.75 312.607,-507.395"/>
<polygon fill="midnightblue" stroke="midnightblue" points="312.937,-510.897 322.958,-507.458 312.979,-503.897 312.937,-510.897"/>
</g>
<!-- Node10 -->
<g id="node21" class="node"><title>Node10</title>
<a xlink:href="a00001.html#a44eb38e42426f01840a0d12fe6a6a05f" target="_top" xlink:title="renders numeric types : integers and doubles">
<polygon fill="white" stroke="black" points="196,-532.5 196,-553.5 268,-553.5 268,-532.5 196,-532.5"/>
<text text-anchor="middle" x="232" y="-540.5" font-family="Helvetica,sans-Serif" font-size="10.00">varIsNumeric</text>
</a>
</g>
<!-- Node2&#45;&gt;Node10 -->
<g id="edge22" class="edge"><title>Node2&#45;&gt;Node10</title>
<path fill="none" stroke="midnightblue" d="M131.646,-399.727C140.042,-423.249 162.611,-480.272 196,-518 198.648,-520.992 201.723,-523.808 204.94,-526.394"/>
<polygon fill="midnightblue" stroke="midnightblue" points="202.922,-529.255 213.064,-532.321 207.048,-523.599 202.922,-529.255"/>
</g>
<!-- Node11 -->
<g id="node24" class="node"><title>Node11</title>
<a xlink:href="a00001.html#a443a941157b2ed03d6a24ae70ece785d" target="_top" xlink:title="checks wheither variable is object of special type (using varIs*Object), and renders it if it is gene...">
<polygon fill="white" stroke="black" points="199.5,-378.5 199.5,-399.5 264.5,-399.5 264.5,-378.5 199.5,-378.5"/>
<text text-anchor="middle" x="232" y="-386.5" font-family="Helvetica,sans-Serif" font-size="10.00">varIsObject</text>
</a>
</g>
<!-- Node2&#45;&gt;Node11 -->
<g id="edge26" class="edge"><title>Node2&#45;&gt;Node11</title>
<path fill="none" stroke="midnightblue" d="M160.052,-382.712C169.169,-382.269 179.249,-382.145 188.908,-382.339"/>
<polygon fill="midnightblue" stroke="midnightblue" points="189.047,-385.845 199.156,-382.675 189.276,-378.849 189.047,-385.845"/>
</g>
<!-- Node18 -->
<g id="node45" class="node"><title>Node18</title>
<a xlink:href="a00001.html#a4ab1e15fa34f8b98071b0eb36883777e" target="_top" xlink:title="shows info about different resources, uses customized rendering founctions when needed">
<polygon fill="white" stroke="black" points="314.5,-142.5 314.5,-163.5 391.5,-163.5 391.5,-142.5 314.5,-142.5"/>
<text text-anchor="middle" x="353" y="-150.5" font-family="Helvetica,sans-Serif" font-size="10.00">varIsResource</text>
</a>
</g>
<!-- Node2&#45;&gt;Node18 -->
<g id="edge54" class="edge"><title>Node2&#45;&gt;Node18</title>
<path fill="none" stroke="midnightblue" d="M129.958,-378.294C137.292,-339.375 164.346,-206.256 196,-179 225.504,-153.595 270.1,-148.281 304.232,-148.638"/>
<polygon fill="midnightblue" stroke="midnightblue" points="304.37,-152.142 314.461,-148.914 304.559,-145.145 304.37,-152.142"/>
</g>
<!-- Node23 -->
<g id="node66" class="node"><title>Node23</title>
<a xlink:href="a00001.html#a1dce801bff273c92008ec238b5480928" target="_top" xlink:title="renders string either as primitive type (if it is short (less than $embeddedStringMaxLength chars) an...">
<polygon fill="white" stroke="black" points="466,-456.5 466,-477.5 528,-477.5 528,-456.5 466,-456.5"/>
<text text-anchor="middle" x="497" y="-464.5" font-family="Helvetica,sans-Serif" font-size="10.00">varIsString</text>
</a>
</g>
<!-- Node2&#45;&gt;Node23 -->
<g id="edge86" class="edge"><title>Node2&#45;&gt;Node23</title>
<path fill="none" stroke="midnightblue" d="M157.508,-399.509C192.161,-411.468 251.575,-430.79 304,-442 355.864,-453.09 416.689,-459.979 455.986,-463.65"/>
<polygon fill="midnightblue" stroke="midnightblue" points="455.708,-467.139 465.984,-464.557 456.341,-460.168 455.708,-467.139"/>
</g>
<!-- Node4 -->
<g id="node8" class="node"><title>Node4</title>
<a xlink:href="a00001.html#adbad9cee60e948aa3802a45be355a1f3" target="_top" xlink:title="renders table of 2 cells in 1 row [type][value]">
<polygon fill="white" stroke="black" points="592.5,-572.5 592.5,-593.5 693.5,-593.5 693.5,-572.5 592.5,-572.5"/>
<text text-anchor="middle" x="643" y="-580.5" font-family="Helvetica,sans-Serif" font-size="10.00">renderPrimitiveType</text>
</a>
</g>
<!-- Node3&#45;&gt;Node4 -->
<g id="edge8" class="edge"><title>Node3&#45;&gt;Node4</title>
<path fill="none" stroke="midnightblue" d="M267.523,-587.074C327.192,-593.324 451.298,-603.779 556,-596 564.429,-595.374 573.279,-594.411 581.975,-593.286"/>
<polygon fill="midnightblue" stroke="midnightblue" points="582.646,-596.727 592.078,-591.901 581.695,-589.791 582.646,-596.727"/>
</g>
<!-- Node5 -->
<g id="node10" class="node"><title>Node5</title>
<a xlink:href="a00001.html#a742973a203c412611192053dc0cd48af" target="_top" xlink:title="initializeHeader">
<polygon fill="white" stroke="black" points="869.5,-456.5 869.5,-477.5 952.5,-477.5 952.5,-456.5 869.5,-456.5"/>
<text text-anchor="middle" x="911" y="-464.5" font-family="Helvetica,sans-Serif" font-size="10.00">initializeHeader</text>
</a>
</g>
<!-- Node4&#45;&gt;Node5 -->
<g id="edge10" class="edge"><title>Node4&#45;&gt;Node5</title>
<path fill="none" stroke="midnightblue" d="M667.732,-572.295C716.018,-551.395 822.873,-505.145 877.469,-481.513"/>
<polygon fill="midnightblue" stroke="midnightblue" points="878.928,-484.696 886.714,-477.512 876.147,-478.272 878.928,-484.696"/>
</g>
<!-- Node6 -->
<g id="node12" class="node"><title>Node6</title>
<a xlink:href="a00001.html#a20af85a4f4041ed681b095e1427b2a1d" target="_top" xlink:title="getVariableName">
<polygon fill="white" stroke="black" points="996.5,-456.5 996.5,-477.5 1087.5,-477.5 1087.5,-456.5 996.5,-456.5"/>
<text text-anchor="middle" x="1042" y="-464.5" font-family="Helvetica,sans-Serif" font-size="10.00">getVariableName</text>
</a>
</g>
<!-- Node5&#45;&gt;Node6 -->
<g id="edge12" class="edge"><title>Node5&#45;&gt;Node6</title>
<path fill="none" stroke="midnightblue" d="M952.809,-467C963.358,-467 974.854,-467 985.977,-467"/>
<polygon fill="midnightblue" stroke="midnightblue" points="986.05,-470.5 996.05,-467 986.05,-463.5 986.05,-470.5"/>
</g>
<!-- Node7&#45;&gt;Node8 -->
<g id="edge16" class="edge"><title>Node7&#45;&gt;Node8</title>
<path fill="none" stroke="midnightblue" d="M383.049,-508.752C444.716,-513.094 588.622,-516.447 694,-466 722.522,-452.346 748.175,-425.723 763.422,-407.65"/>
<polygon fill="midnightblue" stroke="midnightblue" points="766.417,-409.516 770.038,-399.559 760.998,-405.085 766.417,-409.516"/>
</g>
<!-- Node8&#45;&gt;Node5 -->
<g id="edge18" class="edge"><title>Node8&#45;&gt;Node5</title>
<path fill="none" stroke="midnightblue" d="M795.937,-399.519C818.644,-412.836 857.96,-435.894 884.225,-451.297"/>
<polygon fill="midnightblue" stroke="midnightblue" points="882.526,-454.358 892.922,-456.398 886.067,-448.32 882.526,-454.358"/>
</g>
<!-- Node9 -->
<g id="node19" class="node"><title>Node9</title>
<a xlink:href="a00001.html#a3396d3c6336b500d49e3a1a0288dc035" target="_top" xlink:title="draws the main table header">
<polygon fill="white" stroke="black" points="862,-378.5 862,-399.5 960,-399.5 960,-378.5 862,-378.5"/>
<text text-anchor="middle" x="911" y="-386.5" font-family="Helvetica,sans-Serif" font-size="10.00">renderTableHeader</text>
</a>
</g>
<!-- Node8&#45;&gt;Node9 -->
<g id="edge20" class="edge"><title>Node8&#45;&gt;Node9</title>
<path fill="none" stroke="midnightblue" d="M825.64,-389C834.105,-389 843.014,-389 851.754,-389"/>
<polygon fill="midnightblue" stroke="midnightblue" points="851.899,-392.5 861.899,-389 851.899,-385.5 851.899,-392.5"/>
</g>
<!-- Node10&#45;&gt;Node4 -->
<g id="edge24" class="edge"><title>Node10&#45;&gt;Node4</title>
<path fill="none" stroke="midnightblue" d="M268.113,-546.515C338.677,-553.382 495.528,-568.647 582.313,-577.094"/>
<polygon fill="midnightblue" stroke="midnightblue" points="581.99,-580.579 592.282,-578.064 582.668,-573.612 581.99,-580.579"/>
</g>
<!-- Node11&#45;&gt;Node2 -->
<g id="edge52" class="edge"><title>Node11&#45;&gt;Node2</title>
<path fill="none" stroke="midnightblue" d="M199.156,-395.325C189.985,-395.75 179.89,-395.856 170.257,-395.644"/>
<polygon fill="midnightblue" stroke="midnightblue" points="170.168,-392.138 160.052,-395.288 169.924,-399.134 170.168,-392.138"/>
</g>
<!-- Node11&#45;&gt;Node8 -->
<g id="edge46" class="edge"><title>Node11&#45;&gt;Node8</title>
<path fill="none" stroke="midnightblue" d="M262.802,-399.534C275.411,-403.324 290.246,-407.125 304,-409 475.745,-432.41 521.849,-429.212 694,-409 706.446,-407.539 719.721,-404.899 731.955,-402.007"/>
<polygon fill="midnightblue" stroke="midnightblue" points="733.079,-405.335 741.947,-399.538 731.399,-398.539 733.079,-405.335"/>
</g>
<!-- Node12 -->
<g id="node26" class="node"><title>Node12</title>
<a xlink:href="a00001.html#a783baa8ff544bb8278ac32bce66be5c4" target="_top" xlink:title="varIsSpecialObject">
<polygon fill="white" stroke="black" points="304.5,-378.5 304.5,-399.5 401.5,-399.5 401.5,-378.5 304.5,-378.5"/>
<text text-anchor="middle" x="353" y="-386.5" font-family="Helvetica,sans-Serif" font-size="10.00">varIsSpecialObject</text>
</a>
</g>
<!-- Node11&#45;&gt;Node12 -->
<g id="edge28" class="edge"><title>Node11&#45;&gt;Node12</title>
<path fill="none" stroke="midnightblue" d="M264.744,-389C273.878,-389 284.089,-389 294.235,-389"/>
<polygon fill="midnightblue" stroke="midnightblue" points="294.317,-392.5 304.317,-389 294.317,-385.5 294.317,-392.5"/>
</g>
<!-- Node11&#45;&gt;Node16 -->
<g id="edge48" class="edge"><title>Node11&#45;&gt;Node16</title>
<path fill="none" stroke="midnightblue" d="M264.288,-378.459C276.589,-374.86 290.819,-371.194 304,-369 404.746,-352.231 524.375,-348.999 591.199,-348.661"/>
<polygon fill="midnightblue" stroke="midnightblue" points="591.47,-352.161 601.46,-348.63 591.449,-345.161 591.47,-352.161"/>
</g>
<!-- Node11&#45;&gt;Node17 -->
<g id="edge50" class="edge"><title>Node11&#45;&gt;Node17</title>
<path fill="none" stroke="midnightblue" d="M243.369,-378.268C272.77,-351.262 354.844,-280.54 438,-251 490.429,-232.375 554.895,-229.376 597.374,-229.885"/>
<polygon fill="midnightblue" stroke="midnightblue" points="597.35,-233.385 607.414,-230.076 597.483,-226.387 597.35,-233.385"/>
</g>
<!-- Node13 -->
<g id="node28" class="node"><title>Node13</title>
<a xlink:href="a00001.html#aff5b4a4ce77391ef5bc5f2637ac683b1" target="_top" xlink:title="renders either PDO or SQLite3 statement objects">
<polygon fill="white" stroke="black" points="458,-378.5 458,-399.5 536,-399.5 536,-378.5 458,-378.5"/>
<text text-anchor="middle" x="497" y="-386.5" font-family="Helvetica,sans-Serif" font-size="10.00">varIsDBObject</text>
</a>
</g>
<!-- Node12&#45;&gt;Node13 -->
<g id="edge30" class="edge"><title>Node12&#45;&gt;Node13</title>
<path fill="none" stroke="midnightblue" d="M401.752,-389C416.602,-389 432.93,-389 447.808,-389"/>
<polygon fill="midnightblue" stroke="midnightblue" points="447.842,-392.5 457.842,-389 447.842,-385.5 447.842,-392.5"/>
</g>
<!-- Node15 -->
<g id="node33" class="node"><title>Node15</title>
<a xlink:href="a00001.html#a91a251e46645521ab0c05a9b787624f6" target="_top" xlink:title="function used to render exceptions">
<polygon fill="white" stroke="black" points="457,-300.5 457,-321.5 537,-321.5 537,-300.5 457,-300.5"/>
<text text-anchor="middle" x="497" y="-308.5" font-family="Helvetica,sans-Serif" font-size="10.00">varIsException</text>
</a>
</g>
<!-- Node12&#45;&gt;Node15 -->
<g id="edge36" class="edge"><title>Node12&#45;&gt;Node15</title>
<path fill="none" stroke="midnightblue" d="M372.42,-378.481C397.113,-365.106 439.945,-341.905 468.382,-326.501"/>
<polygon fill="midnightblue" stroke="midnightblue" points="470.301,-329.442 477.427,-321.602 466.967,-323.287 470.301,-329.442"/>
</g>
<!-- Node14 -->
<g id="node30" class="node"><title>Node14</title>
<a xlink:href="a00001.html#ab4bab40a2bcac12276e3e7f2739f1761" target="_top" xlink:title="renders database data">
<polygon fill="white" stroke="black" points="604.5,-378.5 604.5,-399.5 681.5,-399.5 681.5,-378.5 604.5,-378.5"/>
<text text-anchor="middle" x="643" y="-386.5" font-family="Helvetica,sans-Serif" font-size="10.00">renderDBData</text>
</a>
</g>
<!-- Node13&#45;&gt;Node14 -->
<g id="edge32" class="edge"><title>Node13&#45;&gt;Node14</title>
<path fill="none" stroke="midnightblue" d="M536.125,-389C553.943,-389 575.219,-389 594.08,-389"/>
<polygon fill="midnightblue" stroke="midnightblue" points="594.273,-392.5 604.273,-389 594.273,-385.5 594.273,-392.5"/>
</g>
<!-- Node14&#45;&gt;Node8 -->
<g id="edge34" class="edge"><title>Node14&#45;&gt;Node8</title>
<path fill="none" stroke="midnightblue" d="M681.686,-389C693.613,-389 707.017,-389 719.95,-389"/>
<polygon fill="midnightblue" stroke="midnightblue" points="720.183,-392.5 730.183,-389 720.183,-385.5 720.183,-392.5"/>
</g>
<!-- Node15&#45;&gt;Node2 -->
<g id="edge42" class="edge"><title>Node15&#45;&gt;Node2</title>
<path fill="none" stroke="midnightblue" d="M456.812,-317.485C398.848,-327.122 288.571,-346.522 196,-369 187.577,-371.045 178.641,-373.479 170.112,-375.933"/>
<polygon fill="midnightblue" stroke="midnightblue" points="168.952,-372.626 160.342,-378.801 170.923,-379.342 168.952,-372.626"/>
</g>
<!-- Node15&#45;&gt;Node8 -->
<g id="edge38" class="edge"><title>Node15&#45;&gt;Node8</title>
<path fill="none" stroke="midnightblue" d="M537.219,-308.632C578.013,-307.603 642.328,-309.805 694,-329 719.179,-338.353 743.667,-357.32 759.643,-371.438"/>
<polygon fill="midnightblue" stroke="midnightblue" points="757.43,-374.156 767.18,-378.302 762.143,-368.981 757.43,-374.156"/>
</g>
<!-- Node15&#45;&gt;Node16 -->
<g id="edge40" class="edge"><title>Node15&#45;&gt;Node16</title>
<path fill="none" stroke="midnightblue" d="M537.282,-321.484C554.445,-325.951 574.65,-331.21 592.774,-335.928"/>
<polygon fill="midnightblue" stroke="midnightblue" points="592.037,-339.352 602.597,-338.484 593.801,-332.578 592.037,-339.352"/>
</g>
<!-- Node15&#45;&gt;Node17 -->
<g id="edge44" class="edge"><title>Node15&#45;&gt;Node17</title>
<path fill="none" stroke="midnightblue" d="M533.194,-300.45C540.88,-297.737 548.833,-294.563 556,-291 579.796,-279.169 604.67,-261.708 621.696,-248.85"/>
<polygon fill="midnightblue" stroke="midnightblue" points="624.037,-251.465 629.837,-242.599 619.774,-245.913 624.037,-251.465"/>
</g>
<!-- Node18&#45;&gt;Node8 -->
<g id="edge56" class="edge"><title>Node18&#45;&gt;Node8</title>
<path fill="none" stroke="midnightblue" d="M362.411,-142.308C376.847,-126.811 406.151,-98.782 438,-88 545.81,-51.5027 604.898,-24.1775 694,-95 737.913,-129.904 766.571,-307.557 775.233,-368.471"/>
<polygon fill="midnightblue" stroke="midnightblue" points="771.773,-369.003 776.616,-378.426 778.706,-368.039 771.773,-369.003"/>
</g>
<!-- Node18&#45;&gt;Node17 -->
<g id="edge84" class="edge"><title>Node18&#45;&gt;Node17</title>
<path fill="none" stroke="midnightblue" d="M379.031,-142.412C419.021,-127.865 497.117,-106.357 556,-133 591.911,-149.249 618.887,-188.458 632.692,-212.369"/>
<polygon fill="midnightblue" stroke="midnightblue" points="629.724,-214.235 637.636,-221.281 635.845,-210.839 629.724,-214.235"/>
</g>
<!-- Node19 -->
<g id="node48" class="node"><title>Node19</title>
<a xlink:href="a00001.html#a14955ad355cef1e5d7898fb57023c999" target="_top" xlink:title="renders database resource (fetch result) into table or ... smth else">
<polygon fill="white" stroke="black" points="597.5,-104.5 597.5,-125.5 688.5,-125.5 688.5,-104.5 597.5,-104.5"/>
<text text-anchor="middle" x="643" y="-112.5" font-family="Helvetica,sans-Serif" font-size="10.00">varIsDBResource</text>
</a>
</g>
<!-- Node18&#45;&gt;Node19 -->
<g id="edge58" class="edge"><title>Node18&#45;&gt;Node19</title>
<path fill="none" stroke="midnightblue" d="M365.161,-142.284C380.758,-129.327 409.243,-108.231 438,-100 490.137,-85.077 552.616,-93.1575 594.784,-102.189"/>
<polygon fill="midnightblue" stroke="midnightblue" points="594.26,-105.658 604.784,-104.43 595.791,-98.8279 594.26,-105.658"/>
</g>
<!-- Node20 -->
<g id="node51" class="node"><title>Node20</title>
<a xlink:href="a00001.html#a642e715a1977cf46d40d840b5112465d" target="_top" xlink:title="if variable is an image/gd resource type">
<polygon fill="white" stroke="black" points="451,-260.5 451,-281.5 543,-281.5 543,-260.5 451,-260.5"/>
<text text-anchor="middle" x="497" y="-268.5" font-family="Helvetica,sans-Serif" font-size="10.00">varIsGDResource</text>
</a>
</g>
<!-- Node18&#45;&gt;Node20 -->
<g id="edge62" class="edge"><title>Node18&#45;&gt;Node20</title>
<path fill="none" stroke="midnightblue" d="M366.033,-163.68C391.093,-184.215 446.178,-229.354 476.309,-254.045"/>
<polygon fill="midnightblue" stroke="midnightblue" points="474.147,-256.798 484.1,-260.429 478.584,-251.384 474.147,-256.798"/>
</g>
<!-- Node21 -->
<g id="node57" class="node"><title>Node21</title>
<a xlink:href="a00001.html#a7538f8f3d434a3152a400f7478ae6454" target="_top" xlink:title="if variable is an xml resource type">
<polygon fill="white" stroke="black" points="450.5,-142.5 450.5,-163.5 543.5,-163.5 543.5,-142.5 450.5,-142.5"/>
<text text-anchor="middle" x="497" y="-150.5" font-family="Helvetica,sans-Serif" font-size="10.00">varIsXmlResource</text>
</a>
</g>
<!-- Node18&#45;&gt;Node21 -->
<g id="edge72" class="edge"><title>Node18&#45;&gt;Node21</title>
<path fill="none" stroke="midnightblue" d="M391.589,-153C406.419,-153 423.679,-153 439.886,-153"/>
<polygon fill="midnightblue" stroke="midnightblue" points="440.348,-156.5 450.348,-153 440.348,-149.5 440.348,-156.5"/>
</g>
<!-- Node22 -->
<g id="node59" class="node"><title>Node22</title>
<a xlink:href="a00001.html#aaa52412f9f4f725e15aafa3fcd678b1d" target="_top" xlink:title="shows information about curl easy handles">
<polygon fill="white" stroke="black" points="438.5,-182.5 438.5,-203.5 555.5,-203.5 555.5,-182.5 438.5,-182.5"/>
<text text-anchor="middle" x="497" y="-190.5" font-family="Helvetica,sans-Serif" font-size="10.00">varIsCurlEasyResource</text>
</a>
</g>
<!-- Node18&#45;&gt;Node22 -->
<g id="edge74" class="edge"><title>Node18&#45;&gt;Node22</title>
<path fill="none" stroke="midnightblue" d="M390.834,-163.51C408.716,-168.477 430.259,-174.461 449.252,-179.737"/>
<polygon fill="midnightblue" stroke="midnightblue" points="448.346,-183.118 458.918,-182.422 450.22,-176.373 448.346,-183.118"/>
</g>
<!-- Node19&#45;&gt;Node8 -->
<g id="edge60" class="edge"><title>Node19&#45;&gt;Node8</title>
<path fill="none" stroke="midnightblue" d="M653.082,-125.609C664.221,-137.754 682.145,-158.612 694,-179 731.905,-244.19 760.211,-329.751 771.988,-368.434"/>
<polygon fill="midnightblue" stroke="midnightblue" points="768.767,-369.877 774.986,-378.454 775.473,-367.871 768.767,-369.877"/>
</g>
<!-- Node20&#45;&gt;Node2 -->
<g id="edge68" class="edge"><title>Node20&#45;&gt;Node2</title>
<path fill="none" stroke="midnightblue" d="M450.848,-278.819C390.65,-289.941 282.782,-313.059 196,-349 180.624,-355.368 164.525,-364.702 151.853,-372.752"/>
<polygon fill="midnightblue" stroke="midnightblue" points="149.762,-369.937 143.291,-378.326 153.581,-375.804 149.762,-369.937"/>
</g>
<!-- Node20&#45;&gt;Node8 -->
<g id="edge64" class="edge"><title>Node20&#45;&gt;Node8</title>
<path fill="none" stroke="midnightblue" d="M543.301,-271.179C584.895,-273.098 646.546,-280.406 694,-305 724.011,-320.554 750.025,-350.623 764.859,-370.245"/>
<polygon fill="midnightblue" stroke="midnightblue" points="762.128,-372.439 770.862,-378.436 767.774,-368.301 762.128,-372.439"/>
</g>
<!-- Node20&#45;&gt;Node16 -->
<g id="edge66" class="edge"><title>Node20&#45;&gt;Node16</title>
<path fill="none" stroke="midnightblue" d="M533.172,-281.593C540.86,-284.303 548.819,-287.465 556,-291 579.578,-302.606 604.31,-319.633 621.352,-332.239"/>
<polygon fill="midnightblue" stroke="midnightblue" points="619.419,-335.164 629.516,-338.375 623.625,-329.569 619.419,-335.164"/>
</g>
<!-- Node20&#45;&gt;Node17 -->
<g id="edge70" class="edge"><title>Node20&#45;&gt;Node17</title>
<path fill="none" stroke="midnightblue" d="M536.51,-260.446C555.351,-255.413 577.993,-249.365 597.546,-244.142"/>
<polygon fill="midnightblue" stroke="midnightblue" points="598.694,-247.458 607.452,-241.496 596.888,-240.695 598.694,-247.458"/>
</g>
<!-- Node22&#45;&gt;Node2 -->
<g id="edge80" class="edge"><title>Node22&#45;&gt;Node2</title>
<path fill="none" stroke="midnightblue" d="M459.46,-203.586C400.08,-221.44 282.369,-261.42 196,-320 175.289,-334.048 155.681,-355.076 142.891,-370.224"/>
<polygon fill="midnightblue" stroke="midnightblue" points="139.842,-368.421 136.191,-378.367 145.248,-372.868 139.842,-368.421"/>
</g>
<!-- Node22&#45;&gt;Node8 -->
<g id="edge76" class="edge"><title>Node22&#45;&gt;Node8</title>
<path fill="none" stroke="midnightblue" d="M555.645,-184.274C597.818,-181.192 654.062,-183.972 694,-212 747.469,-249.523 767.988,-330.356 774.903,-368.403"/>
<polygon fill="midnightblue" stroke="midnightblue" points="771.463,-369.055 776.572,-378.337 778.366,-367.895 771.463,-369.055"/>
</g>
<!-- Node22&#45;&gt;Node16 -->
<g id="edge78" class="edge"><title>Node22&#45;&gt;Node16</title>
<path fill="none" stroke="midnightblue" d="M508.539,-203.895C520.601,-215.387 539.97,-234.133 556,-251 581.783,-278.128 610.353,-310.857 627.483,-330.788"/>
<polygon fill="midnightblue" stroke="midnightblue" points="624.919,-333.174 634.083,-338.492 630.235,-328.621 624.919,-333.174"/>
</g>
<!-- Node22&#45;&gt;Node17 -->
<g id="edge82" class="edge"><title>Node22&#45;&gt;Node17</title>
<path fill="none" stroke="midnightblue" d="M536.51,-203.554C555.351,-208.587 577.993,-214.635 597.546,-219.858"/>
<polygon fill="midnightblue" stroke="midnightblue" points="596.888,-223.305 607.452,-222.504 598.694,-216.542 596.888,-223.305"/>
</g>
<!-- Node23&#45;&gt;Node4 -->
<g id="edge90" class="edge"><title>Node23&#45;&gt;Node4</title>
<path fill="none" stroke="midnightblue" d="M510.474,-477.705C535.897,-497.904 591.125,-541.784 621.65,-566.037"/>
<polygon fill="midnightblue" stroke="midnightblue" points="619.552,-568.84 629.559,-572.321 623.907,-563.36 619.552,-568.84"/>
</g>
<!-- Node23&#45;&gt;Node8 -->
<g id="edge88" class="edge"><title>Node23&#45;&gt;Node8</title>
<path fill="none" stroke="midnightblue" d="M528.338,-467.167C568.038,-466.455 638.025,-462.087 694,-442 717.28,-433.646 740.843,-418.014 757.064,-405.884"/>
<polygon fill="midnightblue" stroke="midnightblue" points="759.477,-408.443 765.271,-399.573 755.21,-402.894 759.477,-408.443"/>
</g>
<!-- Node23&#45;&gt;Node16 -->
<g id="edge92" class="edge"><title>Node23&#45;&gt;Node16</title>
<path fill="none" stroke="midnightblue" d="M508.515,-456.083C520.559,-444.573 539.913,-425.812 556,-409 572.536,-391.719 572.339,-382.62 592,-369 594.658,-367.159 597.51,-365.453 600.457,-363.881"/>
<polygon fill="midnightblue" stroke="midnightblue" points="601.977,-367.034 609.485,-359.558 598.954,-360.72 601.977,-367.034"/>
</g>
<!-- Node23&#45;&gt;Node17 -->
<g id="edge94" class="edge"><title>Node23&#45;&gt;Node17</title>
<path fill="none" stroke="midnightblue" d="M510.616,-456.196C523.595,-445.351 543.029,-427.622 556,-409 578.285,-377.006 574.92,-364.049 592,-329 605.262,-301.786 621.741,-270.928 632.314,-251.47"/>
<polygon fill="midnightblue" stroke="midnightblue" points="635.406,-253.11 637.123,-242.656 629.261,-249.757 635.406,-253.11"/>
</g>
</g>
</svg>
        <g id="navigator" transform="translate(0 0)" fill="#404254">
                <rect fill="#f2f5e9" fill-opacity="0.5" stroke="#606060" stroke-width=".5" x="0" y="0" width="60" height="60"/>
                <use id="zoomplus" xlink:href="#zoomPlus" x="17" y="9" onmousedown="handleZoom(evt,'in')"/>
                <use id="zoomminus" xlink:href="#zoomMin" x="42" y="9" onmousedown="handleZoom(evt,'out')"/>
                <use id="reset" xlink:href="#resetDef" x="30" y="36" onmousedown="handleReset()"/>
                <g id="arrowUp" xlink:href="#dirArrow" transform="translate(30 24)" onmousedown="handlePan(0,-1)">
                  <use xlink:href="#rim" fill="#404040">
                        <set attributeName="fill" to="#808080" begin="arrowUp.mouseover" end="arrowUp.mouseout"/>
                  </use>
                  <path fill="none" stroke="white" stroke-width="1.5" d="M0,-3.0v7 M-2.5,-0.5L0,-3.0L2.5,-0.5"/>
                </g>
                <g id="arrowRight" xlink:href="#dirArrow" transform="rotate(90) translate(36 -43)" onmousedown="handlePan(1,0)">
                  <use xlink:href="#rim" fill="#404040">
                        <set attributeName="fill" to="#808080" begin="arrowRight.mouseover" end="arrowRight.mouseout"/>
                  </use>
                  <path fill="none" stroke="white" stroke-width="1.5" d="M0,-3.0v7 M-2.5,-0.5L0,-3.0L2.5,-0.5"/>
                </g>
                <g id="arrowDown" xlink:href="#dirArrow" transform="rotate(180) translate(-30 -48)" onmousedown="handlePan(0,1)">
                  <use xlink:href="#rim" fill="#404040">
                        <set attributeName="fill" to="#808080" begin="arrowDown.mouseover" end="arrowDown.mouseout"/>
                  </use>
                  <path fill="none" stroke="white" stroke-width="1.5" d="M0,-3.0v7 M-2.5,-0.5L0,-3.0L2.5,-0.5"/>
                </g>
                <g id="arrowLeft" xlink:href="#dirArrow" transform="rotate(270) translate(-36 17)" onmousedown="handlePan(-1,0)">
                  <use xlink:href="#rim" fill="#404040">
                        <set attributeName="fill" to="#808080" begin="arrowLeft.mouseover" end="arrowLeft.mouseout"/>
                  </use>
                  <path fill="none" stroke="white" stroke-width="1.5" d="M0,-3.0v7 M-2.5,-0.5L0,-3.0L2.5,-0.5"/>
                </g>
        </g>
        <svg viewBox="0 0 15 15" width="100%" height="30px" preserveAspectRatio="xMaxYMin meet">
         <g id="arrow_out" transform="scale(0.3 0.3)">
          <a xlink:href="a00001_a86ff35452ee612d9e9e9b147e5544acc_cgraph_org.svg" target="_base">
           <rect id="button" ry="5" rx="5" y="6" x="6" height="38" width="38"
                fill="#f2f5e9" fill-opacity="0.5" stroke="#606060" stroke-width="1.0"/>
           <path id="arrow"
             d="M 11.500037,31.436501 C 11.940474,20.09759 22.043105,11.32322 32.158766,21.979434 L 37.068811,17.246167 C 37.068811,17.246167 37.088388,32 37.088388,32 L 22.160133,31.978069 C 22.160133,31.978069 26.997745,27.140456 26.997745,27.140456 C 18.528582,18.264221 13.291696,25.230495 11.500037,31.436501 z"
             style="fill:#404040;"/>
          </a>
         </g>
        </svg>
</svg>
