<?xml version="1.0" encoding="UTF-8" standalone="no"?>
<!DOCTYPE svg PUBLIC "-//W3C//DTD SVG 1.1//EN"
 "http://www.w3.org/Graphics/SVG/1.1/DTD/svg11.dtd">
<!-- Generated by graphviz version 2.26.3 (20100126.1600)
 -->
<!-- Title: varIsDBObject Pages: 1 -->
<svg width="690pt" height="228pt"
 viewBox="0.00 0.00 690.00 228.00" xmlns="http://www.w3.org/2000/svg" xmlns:xlink="http://www.w3.org/1999/xlink">
<g id="graph1" class="graph" transform="scale(1 1) rotate(0) translate(4 224)">
<title>varIsDBObject</title>
<polygon fill="white" stroke="white" points="-4,5 -4,-224 687,-224 687,5 -4,5"/>
<!-- Node1 -->
<g id="node1" class="node"><title>Node1</title>
<polygon fill="#bfbfbf" stroke="black" points="0,-58.5 0,-79.5 78,-79.5 78,-58.5 0,-58.5"/>
<text text-anchor="middle" x="39" y="-66.5" font-family="Helvetica,sans-Serif" font-size="10.00">varIsDBObject</text>
</g>
<!-- Node2 -->
<g id="node3" class="node"><title>Node2</title>
<a xlink:href="a00001.html#a783baa8ff544bb8278ac32bce66be5c4" target="_top" xlink:title="varIsSpecialObject">
<polygon fill="white" stroke="black" points="114.5,-58.5 114.5,-79.5 211.5,-79.5 211.5,-58.5 114.5,-58.5"/>
<text text-anchor="middle" x="163" y="-66.5" font-family="Helvetica,sans-Serif" font-size="10.00">varIsSpecialObject</text>
</a>
</g>
<!-- Node1&#45;&gt;Node2 -->
<g id="edge2" class="edge"><title>Node1&#45;&gt;Node2</title>
<path fill="none" stroke="midnightblue" d="M88.4598,-69C97.016,-69 105.905,-69 114.437,-69"/>
<polygon fill="midnightblue" stroke="midnightblue" points="88.2344,-65.5001 78.2344,-69 88.2343,-72.5001 88.2344,-65.5001"/>
</g>
<!-- Node3 -->
<g id="node5" class="node"><title>Node3</title>
<a xlink:href="a00001.html#a443a941157b2ed03d6a24ae70ece785d" target="_top" xlink:title="checks wheither variable is object of special type (using varIs*Object), and renders it if it is gene...">
<polygon fill="white" stroke="black" points="248.5,-98.5 248.5,-119.5 313.5,-119.5 313.5,-98.5 248.5,-98.5"/>
<text text-anchor="middle" x="281" y="-106.5" font-family="Helvetica,sans-Serif" font-size="10.00">varIsObject</text>
</a>
</g>
<!-- Node2&#45;&gt;Node3 -->
<g id="edge4" class="edge"><title>Node2&#45;&gt;Node3</title>
<path fill="none" stroke="midnightblue" d="M203.632,-82.7735C218.749,-87.8978 235.652,-93.6279 249.794,-98.4218"/>
<polygon fill="midnightblue" stroke="midnightblue" points="204.597,-79.4053 194.003,-79.5095 202.35,-86.0347 204.597,-79.4053"/>
</g>
<!-- Node4 -->
<g id="node7" class="node"><title>Node4</title>
<a xlink:href="a00001.html#aaecea663190c6ce2edd146c3133f257d" target="_top" xlink:title="check variable type andd process the value in right way">
<polygon fill="white" stroke="black" points="350,-98.5 350,-119.5 414,-119.5 414,-98.5 350,-98.5"/>
<text text-anchor="middle" x="382" y="-106.5" font-family="Helvetica,sans-Serif" font-size="10.00">checkType</text>
</a>
</g>
<!-- Node3&#45;&gt;Node4 -->
<g id="edge6" class="edge"><title>Node3&#45;&gt;Node4</title>
<path fill="none" stroke="midnightblue" d="M323.624,-102.324C332.421,-102.158 341.546,-102.272 349.893,-102.665"/>
<polygon fill="midnightblue" stroke="midnightblue" points="323.396,-98.8289 313.513,-102.646 323.619,-105.825 323.396,-98.8289"/>
</g>
<!-- Node4&#45;&gt;Node3 -->
<g id="edge28" class="edge"><title>Node4&#45;&gt;Node3</title>
<path fill="none" stroke="midnightblue" d="M339.803,-115.668C331.017,-115.843 321.886,-115.738 313.513,-115.354"/>
<polygon fill="midnightblue" stroke="midnightblue" points="340.014,-119.163 349.893,-115.335 339.783,-112.167 340.014,-119.163"/>
</g>
<!-- Node5 -->
<g id="node9" class="node"><title>Node5</title>
<a xlink:href="a00001.html#a6826222eba46dd56dbd5841cdc300efa" target="_top" xlink:title="dBug">
<polygon fill="white" stroke="black" points="489.5,-198.5 489.5,-219.5 528.5,-219.5 528.5,-198.5 489.5,-198.5"/>
<text text-anchor="middle" x="509" y="-206.5" font-family="Helvetica,sans-Serif" font-size="10.00">dBug</text>
</a>
</g>
<!-- Node4&#45;&gt;Node5 -->
<g id="edge8" class="edge"><title>Node4&#45;&gt;Node5</title>
<path fill="none" stroke="midnightblue" d="M393.897,-128.24C405.974,-146.294 426.243,-172.867 450,-189 461.9,-197.081 477.36,-202.164 489.469,-205.182"/>
<polygon fill="midnightblue" stroke="midnightblue" points="396.725,-126.168 388.353,-119.676 390.849,-129.972 396.725,-126.168"/>
</g>
<!-- Node6 -->
<g id="node11" class="node"><title>Node6</title>
<a xlink:href="a00001.html#a86ff35452ee612d9e9e9b147e5544acc" target="_top" xlink:title="varIsArray">
<polygon fill="white" stroke="black" points="479.5,-158.5 479.5,-179.5 538.5,-179.5 538.5,-158.5 479.5,-158.5"/>
<text text-anchor="middle" x="509" y="-166.5" font-family="Helvetica,sans-Serif" font-size="10.00">varIsArray</text>
</a>
</g>
<!-- Node4&#45;&gt;Node6 -->
<g id="edge10" class="edge"><title>Node4&#45;&gt;Node6</title>
<path fill="none" stroke="midnightblue" d="M419.984,-124.465C429.575,-129.777 439.996,-135.421 450,-140 465.341,-147.022 483.894,-152.913 496.048,-158.48"/>
<polygon fill="midnightblue" stroke="midnightblue" points="421.524,-121.317 411.083,-119.521 418.124,-127.437 421.524,-121.317"/>
</g>
<!-- Node7 -->
<g id="node14" class="node"><title>Node7</title>
<a xlink:href="a00001.html#aaa52412f9f4f725e15aafa3fcd678b1d" target="_top" xlink:title="shows information about curl easy handles">
<polygon fill="white" stroke="black" points="450.5,-118.5 450.5,-139.5 567.5,-139.5 567.5,-118.5 450.5,-118.5"/>
<text text-anchor="middle" x="509" y="-126.5" font-family="Helvetica,sans-Serif" font-size="10.00">varIsCurlEasyResource</text>
</a>
</g>
<!-- Node4&#45;&gt;Node7 -->
<g id="edge14" class="edge"><title>Node4&#45;&gt;Node7</title>
<path fill="none" stroke="midnightblue" d="M423.983,-115.612C432.399,-116.937 441.388,-118.352 450.252,-119.748"/>
<polygon fill="midnightblue" stroke="midnightblue" points="424.47,-112.145 414.047,-114.047 423.381,-119.06 424.47,-112.145"/>
</g>
<!-- Node9 -->
<g id="node19" class="node"><title>Node9</title>
<a xlink:href="a00001.html#a91a251e46645521ab0c05a9b787624f6" target="_top" xlink:title="function used to render exceptions">
<polygon fill="white" stroke="black" points="469,-0.5 469,-21.5 549,-21.5 549,-0.5 469,-0.5"/>
<text text-anchor="middle" x="509" y="-8.5" font-family="Helvetica,sans-Serif" font-size="10.00">varIsException</text>
</a>
</g>
<!-- Node4&#45;&gt;Node9 -->
<g id="edge20" class="edge"><title>Node4&#45;&gt;Node9</title>
<path fill="none" stroke="midnightblue" d="M395.903,-90.0815C408.537,-73.966 428.451,-51.087 450,-36 458.293,-30.1938 468.145,-25.3565 477.4,-21.5329"/>
<polygon fill="midnightblue" stroke="midnightblue" points="392.955,-88.1743 389.668,-98.2464 398.519,-92.4225 392.955,-88.1743"/>
</g>
<!-- Node10 -->
<g id="node22" class="node"><title>Node10</title>
<a xlink:href="a00001.html#a642e715a1977cf46d40d840b5112465d" target="_top" xlink:title="if variable is an image/gd resource type">
<polygon fill="white" stroke="black" points="463,-78.5 463,-99.5 555,-99.5 555,-78.5 463,-78.5"/>
<text text-anchor="middle" x="509" y="-86.5" font-family="Helvetica,sans-Serif" font-size="10.00">varIsGDResource</text>
</a>
</g>
<!-- Node4&#45;&gt;Node10 -->
<g id="edge24" class="edge"><title>Node4&#45;&gt;Node10</title>
<path fill="none" stroke="midnightblue" d="M424.076,-102.374C436.413,-100.431 449.973,-98.2956 462.566,-96.3124"/>
<polygon fill="midnightblue" stroke="midnightblue" points="423.381,-98.94 414.047,-103.953 424.47,-105.855 423.381,-98.94"/>
</g>
<!-- Node6&#45;&gt;Node4 -->
<g id="edge12" class="edge"><title>Node6&#45;&gt;Node4</title>
<path fill="none" stroke="midnightblue" d="M469.786,-165.828C463.092,-163.557 456.277,-160.873 450,-158 426.836,-147.397 401.435,-131.086 389.276,-119.506"/>
<polygon fill="midnightblue" stroke="midnightblue" points="468.842,-169.199 479.43,-168.833 470.924,-162.516 468.842,-169.199"/>
</g>
<!-- Node8 -->
<g id="node16" class="node"><title>Node8</title>
<a xlink:href="a00001.html#a4ab1e15fa34f8b98071b0eb36883777e" target="_top" xlink:title="shows info about different resources, uses customized rendering founctions when needed">
<polygon fill="white" stroke="black" points="604.5,-78.5 604.5,-99.5 681.5,-99.5 681.5,-78.5 604.5,-78.5"/>
<text text-anchor="middle" x="643" y="-86.5" font-family="Helvetica,sans-Serif" font-size="10.00">varIsResource</text>
</a>
</g>
<!-- Node7&#45;&gt;Node8 -->
<g id="edge16" class="edge"><title>Node7&#45;&gt;Node8</title>
<path fill="none" stroke="midnightblue" d="M554.163,-115.519C571.575,-110.321 591.197,-104.463 607.563,-99.5782"/>
<polygon fill="midnightblue" stroke="midnightblue" points="552.788,-112.276 544.207,-118.49 554.79,-118.984 552.788,-112.276"/>
</g>
<!-- Node8&#45;&gt;Node4 -->
<g id="edge18" class="edge"><title>Node8&#45;&gt;Node4</title>
<path fill="none" stroke="midnightblue" d="M600.463,-75.8032C560.867,-65.5687 500.531,-55.24 450,-69 429.12,-74.6859 408.111,-88.5901 395.086,-98.4022"/>
<polygon fill="midnightblue" stroke="midnightblue" points="599.745,-79.2346 610.312,-78.4578 601.567,-72.4758 599.745,-79.2346"/>
</g>
<!-- Node9&#45;&gt;Node2 -->
<g id="edge22" class="edge"><title>Node9&#45;&gt;Node2</title>
<path fill="none" stroke="midnightblue" d="M458.576,-19.4526C392.445,-30.5382 277.175,-49.8609 211.84,-60.813"/>
<polygon fill="midnightblue" stroke="midnightblue" points="459.469,-22.8519 468.752,-17.7467 458.311,-15.9482 459.469,-22.8519"/>
</g>
<!-- Node10&#45;&gt;Node8 -->
<g id="edge26" class="edge"><title>Node10&#45;&gt;Node8</title>
<path fill="none" stroke="midnightblue" d="M565.469,-89C578.576,-89 592.235,-89 604.371,-89"/>
<polygon fill="midnightblue" stroke="midnightblue" points="565.115,-85.5001 555.115,-89 565.115,-92.5001 565.115,-85.5001"/>
</g>
</g>
</svg>
