<?xml version="1.0" encoding="UTF-8" standalone="no"?>
<!DOCTYPE svg PUBLIC "-//W3C//DTD SVG 1.1//EN"
 "http://www.w3.org/Graphics/SVG/1.1/DTD/svg11.dtd">
<!-- Generated by graphviz version 2.26.3 (20100126.1600)
 -->
<!-- Title: xmlEndElement Pages: 1 -->
<svg width="214pt" height="70pt"
 viewBox="0.00 0.00 214.00 70.00" xmlns="http://www.w3.org/2000/svg" xmlns:xlink="http://www.w3.org/1999/xlink">
<g id="graph1" class="graph" transform="scale(1 1) rotate(0) translate(4 66)">
<title>xmlEndElement</title>
<polygon fill="white" stroke="white" points="-4,5 -4,-66 211,-66 211,5 -4,5"/>
<!-- Node1 -->
<g id="node1" class="node"><title>Node1</title>
<polygon fill="#bfbfbf" stroke="black" points="0,-20.5 0,-41.5 86,-41.5 86,-20.5 0,-20.5"/>
<text text-anchor="middle" x="43" y="-28.5" font-family="Helvetica,sans-Serif" font-size="10.00">xmlEndElement</text>
</g>
<!-- Node2 -->
<g id="node3" class="node"><title>Node2</title>
<a xlink:href="a00001.html#aaa2a0a3c482abd677b2bc2fa137e6c91" target="_top" xlink:title="closes table row">
<polygon fill="white" stroke="black" points="128.5,-40.5 128.5,-61.5 199.5,-61.5 199.5,-40.5 128.5,-40.5"/>
<text text-anchor="middle" x="164" y="-48.5" font-family="Helvetica,sans-Serif" font-size="10.00">closeTDRow</text>
</a>
</g>
<!-- Node1&#45;&gt;Node2 -->
<g id="edge2" class="edge"><title>Node1&#45;&gt;Node2</title>
<path fill="none" stroke="midnightblue" d="M86.0008,-38.1076C96.5019,-39.8433 107.773,-41.7062 118.391,-43.4613"/>
<polygon fill="midnightblue" stroke="midnightblue" points="117.888,-46.9256 128.325,-45.1033 119.03,-40.0193 117.888,-46.9256"/>
</g>
<!-- Node3 -->
<g id="node5" class="node"><title>Node3</title>
<a xlink:href="a00001.html#a0cff4870612d64738cd84a47dbb36b1d" target="_top" xlink:title="creates the table row header">
<polygon fill="white" stroke="black" points="122.5,-0.5 122.5,-21.5 205.5,-21.5 205.5,-0.5 122.5,-0.5"/>
<text text-anchor="middle" x="164" y="-8.5" font-family="Helvetica,sans-Serif" font-size="10.00">makeTDHeader</text>
</a>
</g>
<!-- Node1&#45;&gt;Node3 -->
<g id="edge4" class="edge"><title>Node1&#45;&gt;Node3</title>
<path fill="none" stroke="midnightblue" d="M86.0008,-23.8924C94.496,-22.4883 103.495,-21.0009 112.244,-19.5546"/>
<polygon fill="midnightblue" stroke="midnightblue" points="113.061,-22.9673 122.356,-17.8833 111.919,-16.061 113.061,-22.9673"/>
</g>
</g>
</svg>
