<?xml version="1.0" encoding="UTF-8" standalone="no"?>
<!DOCTYPE svg PUBLIC "-//W3C//DTD SVG 1.1//EN"
 "http://www.w3.org/Graphics/SVG/1.1/DTD/svg11.dtd">
<!-- Generated by graphviz version 2.26.3 (20100126.1600)
 -->
<!-- Title: varIsObject Pages: 1 -->
<!--zoomable 671 -->
<svg id="main" version="1.1" xmlns="http://www.w3.org/2000/svg" xmlns:xlink="http://www.w3.org/1999/xlink" xml:space="preserve" onload="init(evt)">
        <defs>
                <circle id="rim" cx="0" cy="0" r="7"/>
                <circle id="rim2" cx="0" cy="0" r="3.5"/>
                <g id="zoomPlus">
                        <use xlink:href="#rim" fill="#404040">
                                <set attributeName="fill" to="#808080" begin="zoomplus.mouseover" end="zoomplus.mouseout"/>
                        </use>
                        <path d="M-4,0h8M0,-4v8" fill="none" stroke="white" stroke-width="1.5" pointer-events="none"/>
                </g>
                <g id="zoomMin">
                        <use xlink:href="#rim" fill="#404040">
                                <set attributeName="fill" to="#808080" begin="zoomminus.mouseover" end="zoomminus.mouseout"/>
                        </use>
                        <path d="M-4,0h8" fill="none" stroke="white" stroke-width="1.5" pointer-events="none"/>
                </g>
                <g id="dirArrow">
                        <path fill="none" stroke="white" stroke-width="1.5" d="M0,-3.0v7 M-2.5,-0.5L0,-3.0L2.5,-0.5"/>
                </g>
               <g id="resetDef">
                       <use xlink:href="#rim2" fill="#404040">
                               <set attributeName="fill" to="#808080" begin="reset.mouseover" end="reset.mouseout"/>
                       </use>
               </g>
        </defs>

<script type="text/javascript">
var viewWidth = 1106;
var viewHeight = 671;
var sectionId = 'dynsection-34';
</script>
<script xlink:href="svgpan.js"/>
<svg id="graph" class="graph">
<g id="viewport">
<title>varIsObject</title>
<polygon fill="white" stroke="white" points="-4,5 -4,-666.687 1103,-666.687 1103,5 -4,5"/>
<!-- Node1 -->
<g id="node1" class="node"><title>Node1</title>
<polygon fill="#bfbfbf" stroke="black" points="0.5,-222.187 0.5,-243.187 65.5,-243.187 65.5,-222.187 0.5,-222.187"/>
<text text-anchor="middle" x="33" y="-230.187" font-family="Helvetica,sans-Serif" font-size="10.00">varIsObject</text>
</g>
<!-- Node2 -->
<g id="node3" class="node"><title>Node2</title>
<a xlink:href="a00001.html#aaecea663190c6ce2edd146c3133f257d" target="_top" xlink:title="check variable type andd process the value in right way">
<polygon fill="white" stroke="black" points="359,-268.187 359,-289.187 423,-289.187 423,-268.187 359,-268.187"/>
<text text-anchor="middle" x="391" y="-276.187" font-family="Helvetica,sans-Serif" font-size="10.00">checkType</text>
</a>
</g>
<!-- Node1&#45;&gt;Node2 -->
<g id="edge2" class="edge"><title>Node1&#45;&gt;Node2</title>
<path fill="none" stroke="midnightblue" d="M65.7192,-232.794C130.786,-237.775 276.366,-256.33 348.632,-268.693"/>
<polygon fill="midnightblue" stroke="midnightblue" points="348.289,-272.186 358.744,-270.469 349.501,-265.292 348.289,-272.186"/>
</g>
<!-- Node4 -->
<g id="node8" class="node"><title>Node4</title>
<a xlink:href="a00001.html#aaa2a0a3c482abd677b2bc2fa137e6c91" target="_top" xlink:title="closes table row">
<polygon fill="white" stroke="black" points="749.5,-460.187 749.5,-481.187 820.5,-481.187 820.5,-460.187 749.5,-460.187"/>
<text text-anchor="middle" x="785" y="-468.187" font-family="Helvetica,sans-Serif" font-size="10.00">closeTDRow</text>
</a>
</g>
<!-- Node1&#45;&gt;Node4 -->
<g id="edge78" class="edge"><title>Node1&#45;&gt;Node4</title>
<path fill="none" stroke="midnightblue" d="M33.7614,-243.316C39.1261,-309.532 77.0632,-662.687 276,-662.687 276,-662.687 276,-662.687 505,-662.687 598.199,-662.687 629.912,-644.327 698,-580.687 723.848,-556.528 711.381,-536.892 734,-509.687 741.055,-501.201 750.28,-493.446 758.942,-487.126"/>
<polygon fill="midnightblue" stroke="midnightblue" points="761.099,-489.889 767.316,-481.31 757.106,-484.14 761.099,-489.889"/>
</g>
<!-- Node5 -->
<g id="node10" class="node"><title>Node5</title>
<a xlink:href="a00001.html#a04aa495573c880043c46c3bfc669bbe3" target="_top" xlink:title="creates the main table header">
<polygon fill="white" stroke="black" points="737.5,-263.187 737.5,-284.187 832.5,-284.187 832.5,-263.187 737.5,-263.187"/>
<text text-anchor="middle" x="785" y="-271.187" font-family="Helvetica,sans-Serif" font-size="10.00">makeTableHeader</text>
</a>
</g>
<!-- Node1&#45;&gt;Node5 -->
<g id="edge80" class="edge"><title>Node1&#45;&gt;Node5</title>
<path fill="none" stroke="midnightblue" d="M34.403,-222.082C38.7969,-193.036 54.9272,-111.389 102,-66.6866 161.53,-10.154 193.904,-4.68655 276,-4.68655 276,-4.68655 276,-4.68655 505,-4.68655 592.099,-4.68655 631.12,17.1104 698,-38.6866 764.814,-94.4288 780.332,-206.515 783.924,-252.879"/>
<polygon fill="midnightblue" stroke="midnightblue" points="780.437,-253.192 784.591,-262.938 787.421,-252.729 780.437,-253.192"/>
</g>
<!-- Node9 -->
<g id="node18" class="node"><title>Node9</title>
<a xlink:href="a00001.html#a0cff4870612d64738cd84a47dbb36b1d" target="_top" xlink:title="creates the table row header">
<polygon fill="white" stroke="black" points="743.5,-322.187 743.5,-343.187 826.5,-343.187 826.5,-322.187 743.5,-322.187"/>
<text text-anchor="middle" x="785" y="-330.187" font-family="Helvetica,sans-Serif" font-size="10.00">makeTDHeader</text>
</a>
</g>
<!-- Node1&#45;&gt;Node9 -->
<g id="edge82" class="edge"><title>Node1&#45;&gt;Node9</title>
<path fill="none" stroke="midnightblue" d="M41.8771,-221.755C71.2521,-186.903 169.511,-80.6866 276,-80.6866 276,-80.6866 276,-80.6866 391,-80.6866 535.204,-80.6866 596.431,-83.322 698,-185.687 733.637,-221.603 704.608,-252.503 734,-293.687 740.216,-302.396 748.942,-310.058 757.421,-316.233"/>
<polygon fill="midnightblue" stroke="midnightblue" points="755.484,-319.148 765.716,-321.896 759.431,-313.367 755.484,-319.148"/>
</g>
<!-- Node20 -->
<g id="node62" class="node"><title>Node20</title>
<a xlink:href="a00001.html#a783baa8ff544bb8278ac32bce66be5c4" target="_top" xlink:title="varIsSpecialObject">
<polygon fill="white" stroke="black" points="102.5,-194.187 102.5,-215.187 199.5,-215.187 199.5,-194.187 102.5,-194.187"/>
<text text-anchor="middle" x="151" y="-202.187" font-family="Helvetica,sans-Serif" font-size="10.00">varIsSpecialObject</text>
</a>
</g>
<!-- Node1&#45;&gt;Node20 -->
<g id="edge84" class="edge"><title>Node1&#45;&gt;Node20</title>
<path fill="none" stroke="midnightblue" d="M65.5564,-224.961C75.1718,-222.68 85.9688,-220.118 96.5679,-217.603"/>
<polygon fill="midnightblue" stroke="midnightblue" points="97.7026,-220.931 106.624,-215.216 96.0864,-214.12 97.7026,-220.931"/>
</g>
<!-- Node2&#45;&gt;Node1 -->
<g id="edge34" class="edge"><title>Node2&#45;&gt;Node1</title>
<path fill="none" stroke="midnightblue" d="M358.744,-278.615C294.061,-273.698 148.5,-255.161 75.8852,-242.769"/>
<polygon fill="midnightblue" stroke="midnightblue" points="76.1732,-239.266 65.7192,-240.987 74.9649,-246.161 76.1732,-239.266"/>
</g>
<!-- Node3 -->
<g id="node5" class="node"><title>Node3</title>
<a xlink:href="a00001.html#a86ff35452ee612d9e9e9b147e5544acc" target="_top" xlink:title="varIsArray">
<polygon fill="white" stroke="black" points="609.5,-223.187 609.5,-244.187 668.5,-244.187 668.5,-223.187 609.5,-223.187"/>
<text text-anchor="middle" x="639" y="-231.187" font-family="Helvetica,sans-Serif" font-size="10.00">varIsArray</text>
</a>
</g>
<!-- Node2&#45;&gt;Node3 -->
<g id="edge4" class="edge"><title>Node2&#45;&gt;Node3</title>
<path fill="none" stroke="midnightblue" d="M423.167,-268.133C468.223,-257.389 550.078,-242.401 599.003,-235.822"/>
<polygon fill="midnightblue" stroke="midnightblue" points="599.739,-239.257 609.213,-234.515 598.849,-232.313 599.739,-239.257"/>
</g>
<!-- Node10 -->
<g id="node20" class="node"><title>Node10</title>
<a xlink:href="a00001.html#a5ebd24b62872515b28e27182857bfe7f" target="_top" xlink:title="renders boolean variable">
<polygon fill="white" stroke="black" points="469.5,-514.187 469.5,-535.187 540.5,-535.187 540.5,-514.187 469.5,-514.187"/>
<text text-anchor="middle" x="505" y="-522.187" font-family="Helvetica,sans-Serif" font-size="10.00">varIsBoolean</text>
</a>
</g>
<!-- Node2&#45;&gt;Node10 -->
<g id="edge20" class="edge"><title>Node2&#45;&gt;Node10</title>
<path fill="none" stroke="midnightblue" d="M394.123,-289.586C402.984,-319.703 429.988,-406.158 466,-471.687 472.639,-483.766 481.683,-496.233 489.39,-506.038"/>
<polygon fill="midnightblue" stroke="midnightblue" points="486.723,-508.306 495.726,-513.893 492.172,-503.912 486.723,-508.306"/>
</g>
<!-- Node12 -->
<g id="node25" class="node"><title>Node12</title>
<a xlink:href="a00001.html#acd3532d31c3c50577b2abd56624b3757" target="_top" xlink:title="renders NULL as red&#45;pink rectangle">
<polygon fill="white" stroke="black" points="475,-147.187 475,-168.187 535,-168.187 535,-147.187 475,-147.187"/>
<text text-anchor="middle" x="505" y="-155.187" font-family="Helvetica,sans-Serif" font-size="10.00">varIsNULL</text>
</a>
</g>
<!-- Node2&#45;&gt;Node12 -->
<g id="edge26" class="edge"><title>Node2&#45;&gt;Node12</title>
<path fill="none" stroke="midnightblue" d="M401.117,-267.949C420.687,-247.177 463.914,-201.296 487.982,-175.75"/>
<polygon fill="midnightblue" stroke="midnightblue" points="490.759,-177.906 495.069,-168.228 485.664,-173.106 490.759,-177.906"/>
</g>
<!-- Node13 -->
<g id="node28" class="node"><title>Node13</title>
<a xlink:href="a00001.html#a44eb38e42426f01840a0d12fe6a6a05f" target="_top" xlink:title="renders numeric types : integers and doubles">
<polygon fill="white" stroke="black" points="469,-568.187 469,-589.187 541,-589.187 541,-568.187 469,-568.187"/>
<text text-anchor="middle" x="505" y="-576.187" font-family="Helvetica,sans-Serif" font-size="10.00">varIsNumeric</text>
</a>
</g>
<!-- Node2&#45;&gt;Node13 -->
<g id="edge30" class="edge"><title>Node2&#45;&gt;Node13</title>
<path fill="none" stroke="midnightblue" d="M391.814,-289.201C395.144,-326.755 410.314,-456.71 466,-544.687 469.938,-550.908 475.352,-556.631 480.894,-561.537"/>
<polygon fill="midnightblue" stroke="midnightblue" points="478.985,-564.497 488.947,-568.103 483.409,-559.071 478.985,-564.497"/>
</g>
<!-- Node14 -->
<g id="node32" class="node"><title>Node14</title>
<a xlink:href="a00001.html#a4ab1e15fa34f8b98071b0eb36883777e" target="_top" xlink:title="shows info about different resources, uses customized rendering founctions when needed">
<polygon fill="white" stroke="black" points="466.5,-341.187 466.5,-362.187 543.5,-362.187 543.5,-341.187 466.5,-341.187"/>
<text text-anchor="middle" x="505" y="-349.187" font-family="Helvetica,sans-Serif" font-size="10.00">varIsResource</text>
</a>
</g>
<!-- Node2&#45;&gt;Node14 -->
<g id="edge36" class="edge"><title>Node2&#45;&gt;Node14</title>
<path fill="none" stroke="midnightblue" d="M407.821,-289.458C426.874,-301.658 458.111,-321.661 480.015,-335.687"/>
<polygon fill="midnightblue" stroke="midnightblue" points="478.172,-338.663 488.481,-341.108 481.947,-332.768 478.172,-338.663"/>
</g>
<!-- Node19 -->
<g id="node53" class="node"><title>Node19</title>
<a xlink:href="a00001.html#a1dce801bff273c92008ec238b5480928" target="_top" xlink:title="renders string either as primitive type (if it is short (less than $embeddedStringMaxLength chars) an...">
<polygon fill="white" stroke="black" points="608,-499.187 608,-520.187 670,-520.187 670,-499.187 608,-499.187"/>
<text text-anchor="middle" x="639" y="-507.187" font-family="Helvetica,sans-Serif" font-size="10.00">varIsString</text>
</a>
</g>
<!-- Node2&#45;&gt;Node19 -->
<g id="edge68" class="edge"><title>Node2&#45;&gt;Node19</title>
<path fill="none" stroke="midnightblue" d="M395.463,-289.46C405.415,-312.526 431.31,-367.526 466,-403.687 506.181,-445.57 566.309,-477.451 604.059,-494.854"/>
<polygon fill="midnightblue" stroke="midnightblue" points="603.059,-498.243 613.613,-499.17 605.941,-491.864 603.059,-498.243"/>
</g>
<!-- Node3&#45;&gt;Node2 -->
<g id="edge6" class="edge"><title>Node3&#45;&gt;Node2</title>
<path fill="none" stroke="midnightblue" d="M609.213,-243.668C565.404,-254.278 483.389,-269.377 433.338,-276.233"/>
<polygon fill="midnightblue" stroke="midnightblue" points="432.628,-272.796 423.167,-277.567 433.538,-279.737 432.628,-272.796"/>
</g>
<!-- Node3&#45;&gt;Node4 -->
<g id="edge8" class="edge"><title>Node3&#45;&gt;Node4</title>
<path fill="none" stroke="midnightblue" d="M668.804,-238.316C679.146,-241.23 690.114,-245.972 698,-253.687 731.467,-286.427 716.705,-309.179 734,-352.687 747.86,-387.553 765.511,-427.516 775.996,-450.844"/>
<polygon fill="midnightblue" stroke="midnightblue" points="772.841,-452.362 780.145,-460.037 779.222,-449.483 772.841,-452.362"/>
</g>
<!-- Node3&#45;&gt;Node5 -->
<g id="edge10" class="edge"><title>Node3&#45;&gt;Node5</title>
<path fill="none" stroke="midnightblue" d="M668.545,-241.781C688.143,-247.15 714.309,-254.319 736.874,-260.501"/>
<polygon fill="midnightblue" stroke="midnightblue" points="736.053,-263.905 746.622,-263.172 737.903,-257.154 736.053,-263.905"/>
</g>
<!-- Node3&#45;&gt;Node9 -->
<g id="edge18" class="edge"><title>Node3&#45;&gt;Node9</title>
<path fill="none" stroke="midnightblue" d="M668.566,-240.476C678.427,-243.559 689.148,-247.857 698,-253.687 717.975,-266.842 716.425,-277.464 734,-293.687 742.565,-301.593 752.644,-309.548 761.569,-316.192"/>
<polygon fill="midnightblue" stroke="midnightblue" points="759.546,-319.049 769.686,-322.117 763.672,-313.395 759.546,-319.049"/>
</g>
<!-- Node6 -->
<g id="node12" class="node"><title>Node6</title>
<a xlink:href="a00001.html#a742973a203c412611192053dc0cd48af" target="_top" xlink:title="initializeHeader">
<polygon fill="white" stroke="black" points="879.5,-411.187 879.5,-432.187 962.5,-432.187 962.5,-411.187 879.5,-411.187"/>
<text text-anchor="middle" x="921" y="-419.187" font-family="Helvetica,sans-Serif" font-size="10.00">initializeHeader</text>
</a>
</g>
<!-- Node5&#45;&gt;Node6 -->
<g id="edge12" class="edge"><title>Node5&#45;&gt;Node6</title>
<path fill="none" stroke="midnightblue" d="M801.013,-284.329C811.51,-291.678 825.23,-302.018 836,-312.687 864.92,-341.334 892.834,-379.874 908.378,-402.619"/>
<polygon fill="midnightblue" stroke="midnightblue" points="905.574,-404.721 914.069,-411.054 911.377,-400.806 905.574,-404.721"/>
</g>
<!-- Node8 -->
<g id="node16" class="node"><title>Node8</title>
<a xlink:href="a00001.html#a3396d3c6336b500d49e3a1a0288dc035" target="_top" xlink:title="draws the main table header">
<polygon fill="white" stroke="black" points="872,-263.187 872,-284.187 970,-284.187 970,-263.187 872,-263.187"/>
<text text-anchor="middle" x="921" y="-271.187" font-family="Helvetica,sans-Serif" font-size="10.00">renderTableHeader</text>
</a>
</g>
<!-- Node5&#45;&gt;Node8 -->
<g id="edge16" class="edge"><title>Node5&#45;&gt;Node8</title>
<path fill="none" stroke="midnightblue" d="M832.566,-273.687C842.003,-273.687 852.019,-273.687 861.789,-273.687"/>
<polygon fill="midnightblue" stroke="midnightblue" points="861.847,-277.187 871.847,-273.687 861.847,-270.187 861.847,-277.187"/>
</g>
<!-- Node7 -->
<g id="node14" class="node"><title>Node7</title>
<a xlink:href="a00001.html#a20af85a4f4041ed681b095e1427b2a1d" target="_top" xlink:title="getVariableName">
<polygon fill="white" stroke="black" points="1006.5,-411.187 1006.5,-432.187 1097.5,-432.187 1097.5,-411.187 1006.5,-411.187"/>
<text text-anchor="middle" x="1052" y="-419.187" font-family="Helvetica,sans-Serif" font-size="10.00">getVariableName</text>
</a>
</g>
<!-- Node6&#45;&gt;Node7 -->
<g id="edge14" class="edge"><title>Node6&#45;&gt;Node7</title>
<path fill="none" stroke="midnightblue" d="M962.809,-421.687C973.358,-421.687 984.854,-421.687 995.977,-421.687"/>
<polygon fill="midnightblue" stroke="midnightblue" points="996.05,-425.187 1006.05,-421.687 996.05,-418.187 996.05,-425.187"/>
</g>
<!-- Node11 -->
<g id="node22" class="node"><title>Node11</title>
<a xlink:href="a00001.html#adbad9cee60e948aa3802a45be355a1f3" target="_top" xlink:title="renders table of 2 cells in 1 row [type][value]">
<polygon fill="white" stroke="black" points="734.5,-519.187 734.5,-540.187 835.5,-540.187 835.5,-519.187 734.5,-519.187"/>
<text text-anchor="middle" x="785" y="-527.187" font-family="Helvetica,sans-Serif" font-size="10.00">renderPrimitiveType</text>
</a>
</g>
<!-- Node10&#45;&gt;Node11 -->
<g id="edge22" class="edge"><title>Node10&#45;&gt;Node11</title>
<path fill="none" stroke="midnightblue" d="M540.836,-527.563C553.232,-528.428 567.218,-529.261 580,-529.687 628.532,-531.302 683.562,-531.196 724.378,-530.744"/>
<polygon fill="midnightblue" stroke="midnightblue" points="724.48,-534.243 734.437,-530.622 724.395,-527.244 724.48,-534.243"/>
</g>
<!-- Node11&#45;&gt;Node6 -->
<g id="edge24" class="edge"><title>Node11&#45;&gt;Node6</title>
<path fill="none" stroke="midnightblue" d="M799.375,-518.87C809.639,-511.103 823.743,-500.345 836,-490.687 858.196,-473.197 883.279,-452.75 900.41,-438.679"/>
<polygon fill="midnightblue" stroke="midnightblue" points="902.635,-441.381 908.134,-432.325 898.188,-435.976 902.635,-441.381"/>
</g>
<!-- Node12&#45;&gt;Node5 -->
<g id="edge28" class="edge"><title>Node12&#45;&gt;Node5</title>
<path fill="none" stroke="midnightblue" d="M535.255,-155.108C574.876,-153.065 645.466,-154.089 698,-180.687 731.311,-197.552 758.533,-232.636 773.203,-254.563"/>
<polygon fill="midnightblue" stroke="midnightblue" points="770.332,-256.569 778.703,-263.064 776.209,-252.767 770.332,-256.569"/>
</g>
<!-- Node13&#45;&gt;Node11 -->
<g id="edge32" class="edge"><title>Node13&#45;&gt;Node11</title>
<path fill="none" stroke="midnightblue" d="M541.032,-572.381C587.335,-564.278 668.398,-550.092 724.297,-540.31"/>
<polygon fill="midnightblue" stroke="midnightblue" points="725.18,-543.708 734.427,-538.537 723.973,-536.813 725.18,-543.708"/>
</g>
<!-- Node14&#45;&gt;Node4 -->
<g id="edge66" class="edge"><title>Node14&#45;&gt;Node4</title>
<path fill="none" stroke="midnightblue" d="M509.454,-362.496C518.882,-383.822 543.064,-431.033 580,-451.687 629.243,-479.222 695.697,-480.025 739.417,-476.593"/>
<polygon fill="midnightblue" stroke="midnightblue" points="739.823,-480.07 749.473,-475.697 739.202,-473.098 739.823,-480.07"/>
</g>
<!-- Node14&#45;&gt;Node5 -->
<g id="edge38" class="edge"><title>Node14&#45;&gt;Node5</title>
<path fill="none" stroke="midnightblue" d="M542.762,-341.167C593.071,-327.153 682.108,-302.349 737.089,-287.033"/>
<polygon fill="midnightblue" stroke="midnightblue" points="738.248,-290.344 746.942,-284.288 736.37,-283.6 738.248,-290.344"/>
</g>
<!-- Node15 -->
<g id="node35" class="node"><title>Node15</title>
<a xlink:href="a00001.html#a14955ad355cef1e5d7898fb57023c999" target="_top" xlink:title="renders database resource (fetch result) into table or ... smth else">
<polygon fill="white" stroke="black" points="593.5,-263.187 593.5,-284.187 684.5,-284.187 684.5,-263.187 593.5,-263.187"/>
<text text-anchor="middle" x="639" y="-271.187" font-family="Helvetica,sans-Serif" font-size="10.00">varIsDBResource</text>
</a>
</g>
<!-- Node14&#45;&gt;Node15 -->
<g id="edge40" class="edge"><title>Node14&#45;&gt;Node15</title>
<path fill="none" stroke="midnightblue" d="M518.245,-340.999C532.799,-329.58 557.154,-311.406 580,-298.687 586.682,-294.966 594.031,-291.441 601.206,-288.275"/>
<polygon fill="midnightblue" stroke="midnightblue" points="602.969,-291.328 610.803,-284.194 600.231,-284.886 602.969,-291.328"/>
</g>
<!-- Node16 -->
<g id="node38" class="node"><title>Node16</title>
<a xlink:href="a00001.html#a642e715a1977cf46d40d840b5112465d" target="_top" xlink:title="if variable is an image/gd resource type">
<polygon fill="white" stroke="black" points="593,-421.187 593,-442.187 685,-442.187 685,-421.187 593,-421.187"/>
<text text-anchor="middle" x="639" y="-429.187" font-family="Helvetica,sans-Serif" font-size="10.00">varIsGDResource</text>
</a>
</g>
<!-- Node14&#45;&gt;Node16 -->
<g id="edge44" class="edge"><title>Node14&#45;&gt;Node16</title>
<path fill="none" stroke="midnightblue" d="M515.799,-362.379C529.633,-375.565 554.841,-397.917 580,-411.687 583.736,-413.731 587.718,-415.62 591.783,-417.353"/>
<polygon fill="midnightblue" stroke="midnightblue" points="590.752,-420.708 601.339,-421.111 593.314,-414.194 590.752,-420.708"/>
</g>
<!-- Node17 -->
<g id="node44" class="node"><title>Node17</title>
<a xlink:href="a00001.html#a7538f8f3d434a3152a400f7478ae6454" target="_top" xlink:title="if variable is an xml resource type">
<polygon fill="white" stroke="black" points="592.5,-381.187 592.5,-402.187 685.5,-402.187 685.5,-381.187 592.5,-381.187"/>
<text text-anchor="middle" x="639" y="-389.187" font-family="Helvetica,sans-Serif" font-size="10.00">varIsXmlResource</text>
</a>
</g>
<!-- Node14&#45;&gt;Node17 -->
<g id="edge54" class="edge"><title>Node14&#45;&gt;Node17</title>
<path fill="none" stroke="midnightblue" d="M540.207,-362.196C556.542,-367.072 576.159,-372.928 593.592,-378.132"/>
<polygon fill="midnightblue" stroke="midnightblue" points="592.98,-381.602 603.563,-381.108 594.982,-374.894 592.98,-381.602"/>
</g>
<!-- Node18 -->
<g id="node46" class="node"><title>Node18</title>
<a xlink:href="a00001.html#aaa52412f9f4f725e15aafa3fcd678b1d" target="_top" xlink:title="shows information about curl easy handles">
<polygon fill="white" stroke="black" points="580.5,-341.187 580.5,-362.187 697.5,-362.187 697.5,-341.187 580.5,-341.187"/>
<text text-anchor="middle" x="639" y="-349.187" font-family="Helvetica,sans-Serif" font-size="10.00">varIsCurlEasyResource</text>
</a>
</g>
<!-- Node14&#45;&gt;Node18 -->
<g id="edge56" class="edge"><title>Node14&#45;&gt;Node18</title>
<path fill="none" stroke="midnightblue" d="M543.758,-351.687C552.07,-351.687 561.091,-351.687 570.158,-351.687"/>
<polygon fill="midnightblue" stroke="midnightblue" points="570.378,-355.187 580.378,-351.687 570.378,-348.187 570.378,-355.187"/>
</g>
<!-- Node15&#45;&gt;Node5 -->
<g id="edge42" class="edge"><title>Node15&#45;&gt;Node5</title>
<path fill="none" stroke="midnightblue" d="M684.795,-273.687C698.253,-273.687 713.152,-273.687 727.255,-273.687"/>
<polygon fill="midnightblue" stroke="midnightblue" points="727.352,-277.187 737.352,-273.687 727.352,-270.187 727.352,-277.187"/>
</g>
<!-- Node16&#45;&gt;Node2 -->
<g id="edge46" class="edge"><title>Node16&#45;&gt;Node2</title>
<path fill="none" stroke="midnightblue" d="M592.755,-423.064C555.9,-414.53 504.304,-398.732 466,-371.687 437.935,-351.871 414.79,-318.766 401.947,-297.863"/>
<polygon fill="midnightblue" stroke="midnightblue" points="404.917,-296.008 396.791,-289.209 398.903,-299.591 404.917,-296.008"/>
</g>
<!-- Node16&#45;&gt;Node4 -->
<g id="edge48" class="edge"><title>Node16&#45;&gt;Node4</title>
<path fill="none" stroke="midnightblue" d="M678.51,-442.241C697.351,-447.274 719.993,-453.322 739.546,-458.545"/>
<polygon fill="midnightblue" stroke="midnightblue" points="738.888,-461.992 749.452,-461.191 740.694,-455.229 738.888,-461.992"/>
</g>
<!-- Node16&#45;&gt;Node5 -->
<g id="edge50" class="edge"><title>Node16&#45;&gt;Node5</title>
<path fill="none" stroke="midnightblue" d="M684.323,-421.172C689.344,-418.658 694.057,-415.544 698,-411.687 731.467,-378.946 706.29,-350.425 734,-312.687 740.432,-303.927 749.362,-296.182 757.955,-289.951"/>
<polygon fill="midnightblue" stroke="midnightblue" points="760.039,-292.766 766.33,-284.241 756.096,-286.982 760.039,-292.766"/>
</g>
<!-- Node16&#45;&gt;Node9 -->
<g id="edge52" class="edge"><title>Node16&#45;&gt;Node9</title>
<path fill="none" stroke="midnightblue" d="M677.78,-421.09C684.738,-418.484 691.755,-415.363 698,-411.687 726.054,-395.172 752.935,-368.554 769.207,-350.842"/>
<polygon fill="midnightblue" stroke="midnightblue" points="771.816,-353.175 775.903,-343.399 766.612,-348.493 771.816,-353.175"/>
</g>
<!-- Node18&#45;&gt;Node2 -->
<g id="edge58" class="edge"><title>Node18&#45;&gt;Node2</title>
<path fill="none" stroke="midnightblue" d="M603.279,-341.172C558.187,-327.899 480.743,-305.103 432.904,-291.021"/>
<polygon fill="midnightblue" stroke="midnightblue" points="433.749,-287.621 423.167,-288.155 431.772,-294.337 433.749,-287.621"/>
</g>
<!-- Node18&#45;&gt;Node4 -->
<g id="edge60" class="edge"><title>Node18&#45;&gt;Node4</title>
<path fill="none" stroke="midnightblue" d="M679.374,-362.201C685.88,-364.774 692.332,-367.905 698,-371.687 730.144,-393.131 757.738,-429.364 772.798,-451.543"/>
<polygon fill="midnightblue" stroke="midnightblue" points="770.024,-453.694 778.461,-460.103 775.863,-449.832 770.024,-453.694"/>
</g>
<!-- Node18&#45;&gt;Node5 -->
<g id="edge62" class="edge"><title>Node18&#45;&gt;Node5</title>
<path fill="none" stroke="midnightblue" d="M666.108,-341.175C676.263,-336.985 687.805,-331.916 698,-326.687 719.643,-315.584 743.141,-301.114 760.254,-290.099"/>
<polygon fill="midnightblue" stroke="midnightblue" points="762.577,-292.764 769.053,-284.379 758.761,-286.896 762.577,-292.764"/>
</g>
<!-- Node18&#45;&gt;Node9 -->
<g id="edge64" class="edge"><title>Node18&#45;&gt;Node9</title>
<path fill="none" stroke="midnightblue" d="M697.543,-344.068C709.204,-342.55 721.379,-340.966 732.811,-339.478"/>
<polygon fill="midnightblue" stroke="midnightblue" points="733.6,-342.905 743.064,-338.144 732.696,-335.964 733.6,-342.905"/>
</g>
<!-- Node19&#45;&gt;Node4 -->
<g id="edge76" class="edge"><title>Node19&#45;&gt;Node4</title>
<path fill="none" stroke="midnightblue" d="M670.321,-501.32C690.538,-495.92 717.17,-488.806 739.68,-482.793"/>
<polygon fill="midnightblue" stroke="midnightblue" points="740.61,-486.167 749.368,-480.205 738.804,-479.404 740.61,-486.167"/>
</g>
<!-- Node19&#45;&gt;Node5 -->
<g id="edge70" class="edge"><title>Node19&#45;&gt;Node5</title>
<path fill="none" stroke="midnightblue" d="M653.587,-499.135C667.087,-488.605 686.723,-471.215 698,-451.687 729.913,-396.423 698.724,-365.867 734,-312.687 739.915,-303.77 748.566,-296.056 757.068,-289.897"/>
<polygon fill="midnightblue" stroke="midnightblue" points="759.08,-292.762 765.415,-284.27 755.167,-286.958 759.08,-292.762"/>
</g>
<!-- Node19&#45;&gt;Node9 -->
<g id="edge74" class="edge"><title>Node19&#45;&gt;Node9</title>
<path fill="none" stroke="midnightblue" d="M650.869,-499.091C663.201,-487.843 682.786,-469.293 698,-451.687 726.805,-418.351 756.211,-376.038 772.384,-351.895"/>
<polygon fill="midnightblue" stroke="midnightblue" points="775.473,-353.57 778.093,-343.304 769.643,-349.696 775.473,-353.57"/>
</g>
<!-- Node19&#45;&gt;Node11 -->
<g id="edge72" class="edge"><title>Node19&#45;&gt;Node11</title>
<path fill="none" stroke="midnightblue" d="M670.321,-513.977C686.159,-516.147 705.934,-518.856 724.579,-521.41"/>
<polygon fill="midnightblue" stroke="midnightblue" points="724.111,-524.878 734.494,-522.768 725.061,-517.943 724.111,-524.878"/>
</g>
<!-- Node21 -->
<g id="node64" class="node"><title>Node21</title>
<a xlink:href="a00001.html#aff5b4a4ce77391ef5bc5f2637ac683b1" target="_top" xlink:title="renders either PDO or SQLite3 statement objects">
<polygon fill="white" stroke="black" points="237,-131.187 237,-152.187 315,-152.187 315,-131.187 237,-131.187"/>
<text text-anchor="middle" x="276" y="-139.187" font-family="Helvetica,sans-Serif" font-size="10.00">varIsDBObject</text>
</a>
</g>
<!-- Node20&#45;&gt;Node21 -->
<g id="edge86" class="edge"><title>Node20&#45;&gt;Node21</title>
<path fill="none" stroke="midnightblue" d="M171.922,-194.142C192.202,-183.921 223.171,-168.312 246.059,-156.777"/>
<polygon fill="midnightblue" stroke="midnightblue" points="247.655,-159.892 255.01,-152.266 244.504,-153.641 247.655,-159.892"/>
</g>
<!-- Node23 -->
<g id="node69" class="node"><title>Node23</title>
<a xlink:href="a00001.html#a91a251e46645521ab0c05a9b787624f6" target="_top" xlink:title="function used to render exceptions">
<polygon fill="white" stroke="black" points="236,-194.187 236,-215.187 316,-215.187 316,-194.187 236,-194.187"/>
<text text-anchor="middle" x="276" y="-202.187" font-family="Helvetica,sans-Serif" font-size="10.00">varIsException</text>
</a>
</g>
<!-- Node20&#45;&gt;Node23 -->
<g id="edge92" class="edge"><title>Node20&#45;&gt;Node23</title>
<path fill="none" stroke="midnightblue" d="M199.686,-204.687C208.166,-204.687 217.003,-204.687 225.53,-204.687"/>
<polygon fill="midnightblue" stroke="midnightblue" points="225.732,-208.187 235.732,-204.687 225.731,-201.187 225.732,-208.187"/>
</g>
<!-- Node22 -->
<g id="node66" class="node"><title>Node22</title>
<a xlink:href="a00001.html#ab4bab40a2bcac12276e3e7f2739f1761" target="_top" xlink:title="renders database data">
<polygon fill="white" stroke="black" points="352.5,-109.187 352.5,-130.187 429.5,-130.187 429.5,-109.187 352.5,-109.187"/>
<text text-anchor="middle" x="391" y="-117.187" font-family="Helvetica,sans-Serif" font-size="10.00">renderDBData</text>
</a>
</g>
<!-- Node21&#45;&gt;Node22 -->
<g id="edge88" class="edge"><title>Node21&#45;&gt;Node22</title>
<path fill="none" stroke="midnightblue" d="M315.255,-134.177C323.954,-132.513 333.274,-130.73 342.298,-129.003"/>
<polygon fill="midnightblue" stroke="midnightblue" points="343.147,-132.405 352.312,-127.088 341.832,-125.529 343.147,-132.405"/>
</g>
<!-- Node22&#45;&gt;Node5 -->
<g id="edge90" class="edge"><title>Node22&#45;&gt;Node5</title>
<path fill="none" stroke="midnightblue" d="M408.011,-109.079C457.418,-79.7611 603.396,-3.82793 698,-66.6866 762.218,-109.356 779.137,-209.651 783.512,-253.06"/>
<polygon fill="midnightblue" stroke="midnightblue" points="780.026,-253.374 784.392,-263.028 786.999,-252.759 780.026,-253.374"/>
</g>
<!-- Node23&#45;&gt;Node2 -->
<g id="edge94" class="edge"><title>Node23&#45;&gt;Node2</title>
<path fill="none" stroke="midnightblue" d="M292.477,-215.289C311.691,-227.653 343.657,-248.222 365.949,-262.567"/>
<polygon fill="midnightblue" stroke="midnightblue" points="364.25,-265.636 374.554,-268.104 368.038,-259.749 364.25,-265.636"/>
</g>
<!-- Node23&#45;&gt;Node4 -->
<g id="edge96" class="edge"><title>Node23&#45;&gt;Node4</title>
<path fill="none" stroke="midnightblue" d="M277.185,-215.532C283.695,-269.177 320.334,-507.213 466,-598.687 557.102,-655.895 604.04,-582.068 698,-529.687 720.94,-516.898 745.582,-499.842 762.763,-487.358"/>
<polygon fill="midnightblue" stroke="midnightblue" points="765.032,-490.035 771.019,-481.294 760.888,-484.393 765.032,-490.035"/>
</g>
<!-- Node23&#45;&gt;Node5 -->
<g id="edge98" class="edge"><title>Node23&#45;&gt;Node5</title>
<path fill="none" stroke="midnightblue" d="M296.173,-194.077C360.034,-162.079 561.589,-73.403 698,-151.687 738.592,-174.982 765.098,-225.787 777.269,-253.932"/>
<polygon fill="midnightblue" stroke="midnightblue" points="774.041,-255.286 781.104,-263.183 780.508,-252.605 774.041,-255.286"/>
</g>
<!-- Node23&#45;&gt;Node9 -->
<g id="edge100" class="edge"><title>Node23&#45;&gt;Node9</title>
<path fill="none" stroke="midnightblue" d="M316.17,-200.266C409.216,-190.85 636.279,-172.839 698,-213.687 730.514,-235.205 709.776,-263.135 734,-293.687 740.752,-302.202 749.759,-309.888 758.323,-316.142"/>
<polygon fill="midnightblue" stroke="midnightblue" points="756.425,-319.085 766.64,-321.895 760.407,-313.328 756.425,-319.085"/>
</g>
</g>
</svg>
        <g id="navigator" transform="translate(0 0)" fill="#404254">
                <rect fill="#f2f5e9" fill-opacity="0.5" stroke="#606060" stroke-width=".5" x="0" y="0" width="60" height="60"/>
                <use id="zoomplus" xlink:href="#zoomPlus" x="17" y="9" onmousedown="handleZoom(evt,'in')"/>
                <use id="zoomminus" xlink:href="#zoomMin" x="42" y="9" onmousedown="handleZoom(evt,'out')"/>
                <use id="reset" xlink:href="#resetDef" x="30" y="36" onmousedown="handleReset()"/>
                <g id="arrowUp" xlink:href="#dirArrow" transform="translate(30 24)" onmousedown="handlePan(0,-1)">
                  <use xlink:href="#rim" fill="#404040">
                        <set attributeName="fill" to="#808080" begin="arrowUp.mouseover" end="arrowUp.mouseout"/>
                  </use>
                  <path fill="none" stroke="white" stroke-width="1.5" d="M0,-3.0v7 M-2.5,-0.5L0,-3.0L2.5,-0.5"/>
                </g>
                <g id="arrowRight" xlink:href="#dirArrow" transform="rotate(90) translate(36 -43)" onmousedown="handlePan(1,0)">
                  <use xlink:href="#rim" fill="#404040">
                        <set attributeName="fill" to="#808080" begin="arrowRight.mouseover" end="arrowRight.mouseout"/>
                  </use>
                  <path fill="none" stroke="white" stroke-width="1.5" d="M0,-3.0v7 M-2.5,-0.5L0,-3.0L2.5,-0.5"/>
                </g>
                <g id="arrowDown" xlink:href="#dirArrow" transform="rotate(180) translate(-30 -48)" onmousedown="handlePan(0,1)">
                  <use xlink:href="#rim" fill="#404040">
                        <set attributeName="fill" to="#808080" begin="arrowDown.mouseover" end="arrowDown.mouseout"/>
                  </use>
                  <path fill="none" stroke="white" stroke-width="1.5" d="M0,-3.0v7 M-2.5,-0.5L0,-3.0L2.5,-0.5"/>
                </g>
                <g id="arrowLeft" xlink:href="#dirArrow" transform="rotate(270) translate(-36 17)" onmousedown="handlePan(-1,0)">
                  <use xlink:href="#rim" fill="#404040">
                        <set attributeName="fill" to="#808080" begin="arrowLeft.mouseover" end="arrowLeft.mouseout"/>
                  </use>
                  <path fill="none" stroke="white" stroke-width="1.5" d="M0,-3.0v7 M-2.5,-0.5L0,-3.0L2.5,-0.5"/>
                </g>
        </g>
        <svg viewBox="0 0 15 15" width="100%" height="30px" preserveAspectRatio="xMaxYMin meet">
         <g id="arrow_out" transform="scale(0.3 0.3)">
          <a xlink:href="a00001_a443a941157b2ed03d6a24ae70ece785d_cgraph_org.svg" target="_base">
           <rect id="button" ry="5" rx="5" y="6" x="6" height="38" width="38"
                fill="#f2f5e9" fill-opacity="0.5" stroke="#606060" stroke-width="1.0"/>
           <path id="arrow"
             d="M 11.500037,31.436501 C 11.940474,20.09759 22.043105,11.32322 32.158766,21.979434 L 37.068811,17.246167 C 37.068811,17.246167 37.088388,32 37.088388,32 L 22.160133,31.978069 C 22.160133,31.978069 26.997745,27.140456 26.997745,27.140456 C 18.528582,18.264221 13.291696,25.230495 11.500037,31.436501 z"
             style="fill:#404040;"/>
          </a>
         </g>
        </svg>
</svg>
