<?xml version="1.0" encoding="UTF-8" standalone="no"?>
<!DOCTYPE svg PUBLIC "-//W3C//DTD SVG 1.1//EN"
 "http://www.w3.org/Graphics/SVG/1.1/DTD/svg11.dtd">
<!-- Generated by graphviz version 2.26.3 (20100126.1600)
 -->
<!-- Title: varIsNumeric Pages: 1 -->
<!--zoomable 287 -->
<svg id="main" version="1.1" xmlns="http://www.w3.org/2000/svg" xmlns:xlink="http://www.w3.org/1999/xlink" xml:space="preserve" onload="init(evt)">
        <defs>
                <circle id="rim" cx="0" cy="0" r="7"/>
                <circle id="rim2" cx="0" cy="0" r="3.5"/>
                <g id="zoomPlus">
                        <use xlink:href="#rim" fill="#404040">
                                <set attributeName="fill" to="#808080" begin="zoomplus.mouseover" end="zoomplus.mouseout"/>
                        </use>
                        <path d="M-4,0h8M0,-4v8" fill="none" stroke="white" stroke-width="1.5" pointer-events="none"/>
                </g>
                <g id="zoomMin">
                        <use xlink:href="#rim" fill="#404040">
                                <set attributeName="fill" to="#808080" begin="zoomminus.mouseover" end="zoomminus.mouseout"/>
                        </use>
                        <path d="M-4,0h8" fill="none" stroke="white" stroke-width="1.5" pointer-events="none"/>
                </g>
                <g id="dirArrow">
                        <path fill="none" stroke="white" stroke-width="1.5" d="M0,-3.0v7 M-2.5,-0.5L0,-3.0L2.5,-0.5"/>
                </g>
               <g id="resetDef">
                       <use xlink:href="#rim2" fill="#404040">
                               <set attributeName="fill" to="#808080" begin="reset.mouseover" end="reset.mouseout"/>
                       </use>
               </g>
        </defs>

<script type="text/javascript">
var viewWidth = 570;
var viewHeight = 287;
var sectionId = 'dynsection-33';
</script>
<script xlink:href="svgpan.js"/>
<svg id="graph" class="graph">
<g id="viewport">
<title>varIsNumeric</title>
<polygon fill="white" stroke="white" points="-4,5 -4,-283.127 567,-283.127 567,5 -4,5"/>
<!-- Node1 -->
<g id="node1" class="node"><title>Node1</title>
<polygon fill="#bfbfbf" stroke="black" points="0,-137.627 0,-158.627 72,-158.627 72,-137.627 0,-137.627"/>
<text text-anchor="middle" x="36" y="-145.627" font-family="Helvetica,sans-Serif" font-size="10.00">varIsNumeric</text>
</g>
<!-- Node2 -->
<g id="node3" class="node"><title>Node2</title>
<a xlink:href="a00001.html#aaecea663190c6ce2edd146c3133f257d" target="_top" xlink:title="check variable type andd process the value in right way">
<polygon fill="white" stroke="black" points="108,-137.627 108,-158.627 172,-158.627 172,-137.627 108,-137.627"/>
<text text-anchor="middle" x="140" y="-145.627" font-family="Helvetica,sans-Serif" font-size="10.00">checkType</text>
</a>
</g>
<!-- Node1&#45;&gt;Node2 -->
<g id="edge2" class="edge"><title>Node1&#45;&gt;Node2</title>
<path fill="none" stroke="midnightblue" d="M82.1029,-148.127C90.7758,-148.127 99.6704,-148.127 107.805,-148.127"/>
<polygon fill="midnightblue" stroke="midnightblue" points="82.0823,-144.627 72.0823,-148.127 82.0822,-151.627 82.0823,-144.627"/>
</g>
<!-- Node3 -->
<g id="node5" class="node"><title>Node3</title>
<a xlink:href="a00001.html#a6826222eba46dd56dbd5841cdc300efa" target="_top" xlink:title="dBug">
<polygon fill="white" stroke="black" points="247.5,-257.627 247.5,-278.627 286.5,-278.627 286.5,-257.627 247.5,-257.627"/>
<text text-anchor="middle" x="267" y="-265.627" font-family="Helvetica,sans-Serif" font-size="10.00">dBug</text>
</a>
</g>
<!-- Node2&#45;&gt;Node3 -->
<g id="edge4" class="edge"><title>Node2&#45;&gt;Node3</title>
<path fill="none" stroke="midnightblue" d="M148.752,-168.138C159.569,-190.655 180.032,-226.855 208,-248.127 219.536,-256.9 235.16,-261.969 247.432,-264.807"/>
<polygon fill="midnightblue" stroke="midnightblue" points="151.837,-166.471 144.468,-158.858 145.481,-169.404 151.837,-166.471"/>
</g>
<!-- Node4 -->
<g id="node7" class="node"><title>Node4</title>
<a xlink:href="a00001.html#a86ff35452ee612d9e9e9b147e5544acc" target="_top" xlink:title="varIsArray">
<polygon fill="white" stroke="black" points="237.5,-217.627 237.5,-238.627 296.5,-238.627 296.5,-217.627 237.5,-217.627"/>
<text text-anchor="middle" x="267" y="-225.627" font-family="Helvetica,sans-Serif" font-size="10.00">varIsArray</text>
</a>
</g>
<!-- Node2&#45;&gt;Node4 -->
<g id="edge6" class="edge"><title>Node2&#45;&gt;Node4</title>
<path fill="none" stroke="midnightblue" d="M164.178,-165.594C176.405,-176.5 192.018,-189.872 208,-199.127 221.852,-207.149 239.407,-212.58 251.754,-217.474"/>
<polygon fill="midnightblue" stroke="midnightblue" points="166.443,-162.925 156.663,-158.852 161.769,-168.135 166.443,-162.925"/>
</g>
<!-- Node5 -->
<g id="node10" class="node"><title>Node5</title>
<a xlink:href="a00001.html#aaa52412f9f4f725e15aafa3fcd678b1d" target="_top" xlink:title="shows information about curl easy handles">
<polygon fill="white" stroke="black" points="208.5,-177.627 208.5,-198.627 325.5,-198.627 325.5,-177.627 208.5,-177.627"/>
<text text-anchor="middle" x="267" y="-185.627" font-family="Helvetica,sans-Serif" font-size="10.00">varIsCurlEasyResource</text>
</a>
</g>
<!-- Node2&#45;&gt;Node5 -->
<g id="edge10" class="edge"><title>Node2&#45;&gt;Node5</title>
<path fill="none" stroke="midnightblue" d="M181.661,-161.249C198.521,-166.559 217.72,-172.606 233.632,-177.617"/>
<polygon fill="midnightblue" stroke="midnightblue" points="182.637,-157.887 172.047,-158.221 180.534,-164.563 182.637,-157.887"/>
</g>
<!-- Node7 -->
<g id="node15" class="node"><title>Node7</title>
<a xlink:href="a00001.html#a91a251e46645521ab0c05a9b787624f6" target="_top" xlink:title="function used to render exceptions">
<polygon fill="white" stroke="black" points="227,-59.627 227,-80.627 307,-80.627 307,-59.627 227,-59.627"/>
<text text-anchor="middle" x="267" y="-67.627" font-family="Helvetica,sans-Serif" font-size="10.00">varIsException</text>
</a>
</g>
<!-- Node2&#45;&gt;Node7 -->
<g id="edge16" class="edge"><title>Node2&#45;&gt;Node7</title>
<path fill="none" stroke="midnightblue" d="M159.675,-130.546C172.747,-119.447 190.641,-105.331 208,-95.127 217.399,-89.6021 228.248,-84.6436 238.059,-80.6275"/>
<polygon fill="midnightblue" stroke="midnightblue" points="157.106,-128.141 151.835,-137.332 161.687,-133.433 157.106,-128.141"/>
</g>
<!-- Node9 -->
<g id="node19" class="node"><title>Node9</title>
<a xlink:href="a00001.html#a443a941157b2ed03d6a24ae70ece785d" target="_top" xlink:title="checks wheither variable is object of special type (using varIs*Object), and renders it if it is gene...">
<polygon fill="white" stroke="black" points="496.5,-11.627 496.5,-32.627 561.5,-32.627 561.5,-11.627 496.5,-11.627"/>
<text text-anchor="middle" x="529" y="-19.627" font-family="Helvetica,sans-Serif" font-size="10.00">varIsObject</text>
</a>
</g>
<!-- Node2&#45;&gt;Node9 -->
<g id="edge28" class="edge"><title>Node2&#45;&gt;Node9</title>
<path fill="none" stroke="midnightblue" d="M145.335,-127.981C154.4,-102.366 175.095,-60.2127 208,-41.127 301.877,13.3235 437.815,1.32731 498.154,-11.5939"/>
<polygon fill="midnightblue" stroke="midnightblue" points="141.996,-126.932 142.249,-137.523 148.656,-129.086 141.996,-126.932"/>
</g>
<!-- Node10 -->
<g id="node22" class="node"><title>Node10</title>
<a xlink:href="a00001.html#a642e715a1977cf46d40d840b5112465d" target="_top" xlink:title="if variable is an image/gd resource type">
<polygon fill="white" stroke="black" points="221,-137.627 221,-158.627 313,-158.627 313,-137.627 221,-137.627"/>
<text text-anchor="middle" x="267" y="-145.627" font-family="Helvetica,sans-Serif" font-size="10.00">varIsGDResource</text>
</a>
</g>
<!-- Node2&#45;&gt;Node10 -->
<g id="edge24" class="edge"><title>Node2&#45;&gt;Node10</title>
<path fill="none" stroke="midnightblue" d="M182.076,-148.127C194.413,-148.127 207.973,-148.127 220.566,-148.127"/>
<polygon fill="midnightblue" stroke="midnightblue" points="182.047,-144.627 172.047,-148.127 182.047,-151.627 182.047,-144.627"/>
</g>
<!-- Node4&#45;&gt;Node2 -->
<g id="edge8" class="edge"><title>Node4&#45;&gt;Node2</title>
<path fill="none" stroke="midnightblue" d="M227.693,-226.095C220.918,-223.689 214.1,-220.659 208,-217.127 181.296,-201.663 155.622,-174.707 145.054,-158.882"/>
<polygon fill="midnightblue" stroke="midnightblue" points="226.91,-229.518 237.499,-229.16 228.998,-222.836 226.91,-229.518"/>
</g>
<!-- Node6 -->
<g id="node12" class="node"><title>Node6</title>
<a xlink:href="a00001.html#a4ab1e15fa34f8b98071b0eb36883777e" target="_top" xlink:title="shows info about different resources, uses customized rendering founctions when needed">
<polygon fill="white" stroke="black" points="372.5,-137.627 372.5,-158.627 449.5,-158.627 449.5,-137.627 372.5,-137.627"/>
<text text-anchor="middle" x="411" y="-145.627" font-family="Helvetica,sans-Serif" font-size="10.00">varIsResource</text>
</a>
</g>
<!-- Node5&#45;&gt;Node6 -->
<g id="edge12" class="edge"><title>Node5&#45;&gt;Node6</title>
<path fill="none" stroke="midnightblue" d="M314.486,-174.936C333.456,-169.667 355.003,-163.682 372.918,-158.705"/>
<polygon fill="midnightblue" stroke="midnightblue" points="313.533,-171.569 304.834,-177.617 315.406,-178.313 313.533,-171.569"/>
</g>
<!-- Node6&#45;&gt;Node2 -->
<g id="edge14" class="edge"><title>Node6&#45;&gt;Node2</title>
<path fill="none" stroke="midnightblue" d="M364.77,-135.207C352.287,-132.28 338.714,-129.603 326,-128.127 273.905,-122.081 259.909,-120.652 208,-128.127 194.967,-130.004 180.95,-133.806 169.047,-137.595"/>
<polygon fill="midnightblue" stroke="midnightblue" points="363.965,-138.613 374.51,-137.589 365.628,-131.813 363.965,-138.613"/>
</g>
<!-- Node8 -->
<g id="node17" class="node"><title>Node8</title>
<a xlink:href="a00001.html#a783baa8ff544bb8278ac32bce66be5c4" target="_top" xlink:title="varIsSpecialObject">
<polygon fill="white" stroke="black" points="362.5,-59.627 362.5,-80.627 459.5,-80.627 459.5,-59.627 362.5,-59.627"/>
<text text-anchor="middle" x="411" y="-67.627" font-family="Helvetica,sans-Serif" font-size="10.00">varIsSpecialObject</text>
</a>
</g>
<!-- Node7&#45;&gt;Node8 -->
<g id="edge18" class="edge"><title>Node7&#45;&gt;Node8</title>
<path fill="none" stroke="midnightblue" d="M317.464,-70.127C332.049,-70.127 347.933,-70.127 362.402,-70.127"/>
<polygon fill="midnightblue" stroke="midnightblue" points="317.112,-66.6271 307.112,-70.127 317.112,-73.6271 317.112,-66.6271"/>
</g>
<!-- Node8&#45;&gt;Node9 -->
<g id="edge20" class="edge"><title>Node8&#45;&gt;Node9</title>
<path fill="none" stroke="midnightblue" d="M446.342,-55.7507C464.608,-48.3204 486.5,-39.4149 503.165,-32.6362"/>
<polygon fill="midnightblue" stroke="midnightblue" points="444.84,-52.5831 436.896,-59.5932 447.477,-59.0672 444.84,-52.5831"/>
</g>
<!-- Node9&#45;&gt;Node2 -->
<g id="edge22" class="edge"><title>Node9&#45;&gt;Node2</title>
<path fill="none" stroke="midnightblue" d="M485.984,-20.7434C420.987,-15.4327 296.009,-8.07966 208,-59.127 176.114,-77.6214 155.694,-117.776 146.211,-137.503"/>
<polygon fill="midnightblue" stroke="midnightblue" points="486.008,-24.2575 496.264,-21.6009 486.59,-17.2817 486.008,-24.2575"/>
</g>
<!-- Node10&#45;&gt;Node6 -->
<g id="edge26" class="edge"><title>Node10&#45;&gt;Node6</title>
<path fill="none" stroke="midnightblue" d="M323.403,-148.127C339.828,-148.127 357.391,-148.127 372.446,-148.127"/>
<polygon fill="midnightblue" stroke="midnightblue" points="323.355,-144.627 313.355,-148.127 323.355,-151.627 323.355,-144.627"/>
</g>
</g>
</svg>
        <g id="navigator" transform="translate(0 0)" fill="#404254">
                <rect fill="#f2f5e9" fill-opacity="0.5" stroke="#606060" stroke-width=".5" x="0" y="0" width="60" height="60"/>
                <use id="zoomplus" xlink:href="#zoomPlus" x="17" y="9" onmousedown="handleZoom(evt,'in')"/>
                <use id="zoomminus" xlink:href="#zoomMin" x="42" y="9" onmousedown="handleZoom(evt,'out')"/>
                <use id="reset" xlink:href="#resetDef" x="30" y="36" onmousedown="handleReset()"/>
                <g id="arrowUp" xlink:href="#dirArrow" transform="translate(30 24)" onmousedown="handlePan(0,-1)">
                  <use xlink:href="#rim" fill="#404040">
                        <set attributeName="fill" to="#808080" begin="arrowUp.mouseover" end="arrowUp.mouseout"/>
                  </use>
                  <path fill="none" stroke="white" stroke-width="1.5" d="M0,-3.0v7 M-2.5,-0.5L0,-3.0L2.5,-0.5"/>
                </g>
                <g id="arrowRight" xlink:href="#dirArrow" transform="rotate(90) translate(36 -43)" onmousedown="handlePan(1,0)">
                  <use xlink:href="#rim" fill="#404040">
                        <set attributeName="fill" to="#808080" begin="arrowRight.mouseover" end="arrowRight.mouseout"/>
                  </use>
                  <path fill="none" stroke="white" stroke-width="1.5" d="M0,-3.0v7 M-2.5,-0.5L0,-3.0L2.5,-0.5"/>
                </g>
                <g id="arrowDown" xlink:href="#dirArrow" transform="rotate(180) translate(-30 -48)" onmousedown="handlePan(0,1)">
                  <use xlink:href="#rim" fill="#404040">
                        <set attributeName="fill" to="#808080" begin="arrowDown.mouseover" end="arrowDown.mouseout"/>
                  </use>
                  <path fill="none" stroke="white" stroke-width="1.5" d="M0,-3.0v7 M-2.5,-0.5L0,-3.0L2.5,-0.5"/>
                </g>
                <g id="arrowLeft" xlink:href="#dirArrow" transform="rotate(270) translate(-36 17)" onmousedown="handlePan(-1,0)">
                  <use xlink:href="#rim" fill="#404040">
                        <set attributeName="fill" to="#808080" begin="arrowLeft.mouseover" end="arrowLeft.mouseout"/>
                  </use>
                  <path fill="none" stroke="white" stroke-width="1.5" d="M0,-3.0v7 M-2.5,-0.5L0,-3.0L2.5,-0.5"/>
                </g>
        </g>
        <svg viewBox="0 0 15 15" width="100%" height="30px" preserveAspectRatio="xMaxYMin meet">
         <g id="arrow_out" transform="scale(0.3 0.3)">
          <a xlink:href="a00001_a44eb38e42426f01840a0d12fe6a6a05f_icgraph_org.svg" target="_base">
           <rect id="button" ry="5" rx="5" y="6" x="6" height="38" width="38"
                fill="#f2f5e9" fill-opacity="0.5" stroke="#606060" stroke-width="1.0"/>
           <path id="arrow"
             d="M 11.500037,31.436501 C 11.940474,20.09759 22.043105,11.32322 32.158766,21.979434 L 37.068811,17.246167 C 37.068811,17.246167 37.088388,32 37.088388,32 L 22.160133,31.978069 C 22.160133,31.978069 26.997745,27.140456 26.997745,27.140456 C 18.528582,18.264221 13.291696,25.230495 11.500037,31.436501 z"
             style="fill:#404040;"/>
          </a>
         </g>
        </svg>
</svg>
