<?xml version="1.0" encoding="UTF-8" standalone="no"?>
<!DOCTYPE svg PUBLIC "-//W3C//DTD SVG 1.1//EN"
 "http://www.w3.org/Graphics/SVG/1.1/DTD/svg11.dtd">
<!-- Generated by graphviz version 2.26.3 (20100126.1600)
 -->
<!-- Title: varIsBoolean Pages: 1 -->
<svg width="466pt" height="30pt"
 viewBox="0.00 0.00 466.00 30.00" xmlns="http://www.w3.org/2000/svg" xmlns:xlink="http://www.w3.org/1999/xlink">
<g id="graph1" class="graph" transform="scale(1 1) rotate(0) translate(4 26)">
<title>varIsBoolean</title>
<polygon fill="white" stroke="white" points="-4,5 -4,-26 463,-26 463,5 -4,5"/>
<!-- Node1 -->
<g id="node1" class="node"><title>Node1</title>
<polygon fill="#bfbfbf" stroke="black" points="0.5,-0.5 0.5,-21.5 71.5,-21.5 71.5,-0.5 0.5,-0.5"/>
<text text-anchor="middle" x="36" y="-8.5" font-family="Helvetica,sans-Serif" font-size="10.00">varIsBoolean</text>
</g>
<!-- Node2 -->
<g id="node3" class="node"><title>Node2</title>
<a xlink:href="a00001.html#adbad9cee60e948aa3802a45be355a1f3" target="_top" xlink:title="renders table of 2 cells in 1 row [type][value]">
<polygon fill="white" stroke="black" points="108.5,-0.5 108.5,-21.5 209.5,-21.5 209.5,-0.5 108.5,-0.5"/>
<text text-anchor="middle" x="159" y="-8.5" font-family="Helvetica,sans-Serif" font-size="10.00">renderPrimitiveType</text>
</a>
</g>
<!-- Node1&#45;&gt;Node2 -->
<g id="edge2" class="edge"><title>Node1&#45;&gt;Node2</title>
<path fill="none" stroke="midnightblue" d="M71.5767,-11C79.9278,-11 89.0594,-11 98.1714,-11"/>
<polygon fill="midnightblue" stroke="midnightblue" points="98.4082,-14.5001 108.408,-11 98.4082,-7.5001 98.4082,-14.5001"/>
</g>
<!-- Node3 -->
<g id="node5" class="node"><title>Node3</title>
<a xlink:href="a00001.html#a742973a203c412611192053dc0cd48af" target="_top" xlink:title="initializeHeader">
<polygon fill="white" stroke="black" points="246.5,-0.5 246.5,-21.5 329.5,-21.5 329.5,-0.5 246.5,-0.5"/>
<text text-anchor="middle" x="288" y="-8.5" font-family="Helvetica,sans-Serif" font-size="10.00">initializeHeader</text>
</a>
</g>
<!-- Node2&#45;&gt;Node3 -->
<g id="edge4" class="edge"><title>Node2&#45;&gt;Node3</title>
<path fill="none" stroke="midnightblue" d="M209.614,-11C218.34,-11 227.422,-11 236.18,-11"/>
<polygon fill="midnightblue" stroke="midnightblue" points="236.271,-14.5001 246.271,-11 236.27,-7.5001 236.271,-14.5001"/>
</g>
<!-- Node4 -->
<g id="node7" class="node"><title>Node4</title>
<a xlink:href="a00001.html#a20af85a4f4041ed681b095e1427b2a1d" target="_top" xlink:title="getVariableName">
<polygon fill="white" stroke="black" points="366.5,-0.5 366.5,-21.5 457.5,-21.5 457.5,-0.5 366.5,-0.5"/>
<text text-anchor="middle" x="412" y="-8.5" font-family="Helvetica,sans-Serif" font-size="10.00">getVariableName</text>
</a>
</g>
<!-- Node3&#45;&gt;Node4 -->
<g id="edge6" class="edge"><title>Node3&#45;&gt;Node4</title>
<path fill="none" stroke="midnightblue" d="M329.635,-11C338.223,-11 347.398,-11 356.391,-11"/>
<polygon fill="midnightblue" stroke="midnightblue" points="356.427,-14.5001 366.427,-11 356.427,-7.5001 356.427,-14.5001"/>
</g>
</g>
</svg>
