<?xml version="1.0" encoding="UTF-8" standalone="no"?>
<!DOCTYPE svg PUBLIC "-//W3C//DTD SVG 1.1//EN"
 "http://www.w3.org/Graphics/SVG/1.1/DTD/svg11.dtd">
<!-- Generated by graphviz version 2.26.3 (20100126.1600)
 -->
<!-- Title: varIsXmlResource Pages: 1 -->
<!--zoomable 246 -->
<svg id="main" version="1.1" xmlns="http://www.w3.org/2000/svg" xmlns:xlink="http://www.w3.org/1999/xlink" xml:space="preserve" onload="init(evt)">
        <defs>
                <circle id="rim" cx="0" cy="0" r="7"/>
                <circle id="rim2" cx="0" cy="0" r="3.5"/>
                <g id="zoomPlus">
                        <use xlink:href="#rim" fill="#404040">
                                <set attributeName="fill" to="#808080" begin="zoomplus.mouseover" end="zoomplus.mouseout"/>
                        </use>
                        <path d="M-4,0h8M0,-4v8" fill="none" stroke="white" stroke-width="1.5" pointer-events="none"/>
                </g>
                <g id="zoomMin">
                        <use xlink:href="#rim" fill="#404040">
                                <set attributeName="fill" to="#808080" begin="zoomminus.mouseover" end="zoomminus.mouseout"/>
                        </use>
                        <path d="M-4,0h8" fill="none" stroke="white" stroke-width="1.5" pointer-events="none"/>
                </g>
                <g id="dirArrow">
                        <path fill="none" stroke="white" stroke-width="1.5" d="M0,-3.0v7 M-2.5,-0.5L0,-3.0L2.5,-0.5"/>
                </g>
               <g id="resetDef">
                       <use xlink:href="#rim2" fill="#404040">
                               <set attributeName="fill" to="#808080" begin="reset.mouseover" end="reset.mouseout"/>
                       </use>
               </g>
        </defs>

<script type="text/javascript">
var viewWidth = 706;
var viewHeight = 246;
var sectionId = 'dynsection-42';
</script>
<script xlink:href="svgpan.js"/>
<svg id="graph" class="graph">
<g id="viewport">
<title>varIsXmlResource</title>
<polygon fill="white" stroke="white" points="-4,5 -4,-242 703,-242 703,5 -4,5"/>
<!-- Node1 -->
<g id="node1" class="node"><title>Node1</title>
<polygon fill="#bfbfbf" stroke="black" points="0.5,-116.5 0.5,-137.5 93.5,-137.5 93.5,-116.5 0.5,-116.5"/>
<text text-anchor="middle" x="47" y="-124.5" font-family="Helvetica,sans-Serif" font-size="10.00">varIsXmlResource</text>
</g>
<!-- Node2 -->
<g id="node3" class="node"><title>Node2</title>
<a xlink:href="a00001.html#a4ab1e15fa34f8b98071b0eb36883777e" target="_top" xlink:title="shows info about different resources, uses customized rendering founctions when needed">
<polygon fill="white" stroke="black" points="130.5,-116.5 130.5,-137.5 207.5,-137.5 207.5,-116.5 130.5,-116.5"/>
<text text-anchor="middle" x="169" y="-124.5" font-family="Helvetica,sans-Serif" font-size="10.00">varIsResource</text>
</a>
</g>
<!-- Node1&#45;&gt;Node2 -->
<g id="edge2" class="edge"><title>Node1&#45;&gt;Node2</title>
<path fill="none" stroke="midnightblue" d="M103.876,-127C112.866,-127 121.976,-127 130.419,-127"/>
<polygon fill="midnightblue" stroke="midnightblue" points="103.82,-123.5 93.8195,-127 103.819,-130.5 103.82,-123.5"/>
</g>
<!-- Node3 -->
<g id="node5" class="node"><title>Node3</title>
<a xlink:href="a00001.html#aaecea663190c6ce2edd146c3133f257d" target="_top" xlink:title="check variable type andd process the value in right way">
<polygon fill="white" stroke="black" points="244,-116.5 244,-137.5 308,-137.5 308,-116.5 244,-116.5"/>
<text text-anchor="middle" x="276" y="-124.5" font-family="Helvetica,sans-Serif" font-size="10.00">checkType</text>
</a>
</g>
<!-- Node2&#45;&gt;Node3 -->
<g id="edge4" class="edge"><title>Node2&#45;&gt;Node3</title>
<path fill="none" stroke="midnightblue" d="M217.823,-127C226.623,-127 235.592,-127 243.77,-127"/>
<polygon fill="midnightblue" stroke="midnightblue" points="217.629,-123.5 207.629,-127 217.629,-130.5 217.629,-123.5"/>
</g>
<!-- Node4 -->
<g id="node7" class="node"><title>Node4</title>
<a xlink:href="a00001.html#a6826222eba46dd56dbd5841cdc300efa" target="_top" xlink:title="dBug">
<polygon fill="white" stroke="black" points="383.5,-176.5 383.5,-197.5 422.5,-197.5 422.5,-176.5 383.5,-176.5"/>
<text text-anchor="middle" x="403" y="-184.5" font-family="Helvetica,sans-Serif" font-size="10.00">dBug</text>
</a>
</g>
<!-- Node3&#45;&gt;Node4 -->
<g id="edge6" class="edge"><title>Node3&#45;&gt;Node4</title>
<path fill="none" stroke="midnightblue" d="M300.562,-143.101C313.207,-150.958 329.068,-160.165 344,-167 356.785,-172.852 371.799,-177.918 383.482,-181.487"/>
<polygon fill="midnightblue" stroke="midnightblue" points="302.304,-140.061 291.983,-137.671 298.561,-145.976 302.304,-140.061"/>
</g>
<!-- Node5 -->
<g id="node9" class="node"><title>Node5</title>
<a xlink:href="a00001.html#a86ff35452ee612d9e9e9b147e5544acc" target="_top" xlink:title="varIsArray">
<polygon fill="white" stroke="black" points="373.5,-136.5 373.5,-157.5 432.5,-157.5 432.5,-136.5 373.5,-136.5"/>
<text text-anchor="middle" x="403" y="-144.5" font-family="Helvetica,sans-Serif" font-size="10.00">varIsArray</text>
</a>
</g>
<!-- Node3&#45;&gt;Node5 -->
<g id="edge8" class="edge"><title>Node3&#45;&gt;Node5</title>
<path fill="none" stroke="midnightblue" d="M318.031,-127.224C336.065,-129.445 356.716,-132.887 373.144,-136.473"/>
<polygon fill="midnightblue" stroke="midnightblue" points="318.378,-123.741 308.047,-126.094 317.59,-130.697 318.378,-123.741"/>
</g>
<!-- Node6 -->
<g id="node12" class="node"><title>Node6</title>
<a xlink:href="a00001.html#aaa52412f9f4f725e15aafa3fcd678b1d" target="_top" xlink:title="shows information about curl easy handles">
<polygon fill="white" stroke="black" points="344.5,-216.5 344.5,-237.5 461.5,-237.5 461.5,-216.5 344.5,-216.5"/>
<text text-anchor="middle" x="403" y="-224.5" font-family="Helvetica,sans-Serif" font-size="10.00">varIsCurlEasyResource</text>
</a>
</g>
<!-- Node3&#45;&gt;Node6 -->
<g id="edge12" class="edge"><title>Node3&#45;&gt;Node6</title>
<path fill="none" stroke="midnightblue" d="M287.897,-146.24C299.974,-164.294 320.243,-190.867 344,-207 349.547,-210.767 355.868,-213.883 362.263,-216.441"/>
<polygon fill="midnightblue" stroke="midnightblue" points="290.725,-144.168 282.353,-137.676 284.849,-147.972 290.725,-144.168"/>
</g>
<!-- Node7 -->
<g id="node15" class="node"><title>Node7</title>
<a xlink:href="a00001.html#a91a251e46645521ab0c05a9b787624f6" target="_top" xlink:title="function used to render exceptions">
<polygon fill="white" stroke="black" points="363,-96.5 363,-117.5 443,-117.5 443,-96.5 363,-96.5"/>
<text text-anchor="middle" x="403" y="-104.5" font-family="Helvetica,sans-Serif" font-size="10.00">varIsException</text>
</a>
</g>
<!-- Node3&#45;&gt;Node7 -->
<g id="edge16" class="edge"><title>Node3&#45;&gt;Node7</title>
<path fill="none" stroke="midnightblue" d="M318.168,-120.359C332.535,-118.097 348.55,-115.575 362.762,-113.337"/>
<polygon fill="midnightblue" stroke="midnightblue" points="317.381,-116.94 308.047,-121.953 318.47,-123.855 317.381,-116.94"/>
</g>
<!-- Node9 -->
<g id="node19" class="node"><title>Node9</title>
<a xlink:href="a00001.html#a443a941157b2ed03d6a24ae70ece785d" target="_top" xlink:title="checks wheither variable is object of special type (using varIs*Object), and renders it if it is gene...">
<polygon fill="white" stroke="black" points="632.5,-48.5 632.5,-69.5 697.5,-69.5 697.5,-48.5 632.5,-48.5"/>
<text text-anchor="middle" x="665" y="-56.5" font-family="Helvetica,sans-Serif" font-size="10.00">varIsObject</text>
</a>
</g>
<!-- Node3&#45;&gt;Node9 -->
<g id="edge28" class="edge"><title>Node3&#45;&gt;Node9</title>
<path fill="none" stroke="midnightblue" d="M290.158,-109.076C303.324,-97.6299 323.88,-84.4309 344,-78 445.242,-45.6403 573.023,-45.8909 632.181,-51.8505"/>
<polygon fill="midnightblue" stroke="midnightblue" points="287.459,-106.815 282.653,-116.256 292.298,-111.873 287.459,-106.815"/>
</g>
<!-- Node10 -->
<g id="node22" class="node"><title>Node10</title>
<a xlink:href="a00001.html#a642e715a1977cf46d40d840b5112465d" target="_top" xlink:title="if variable is an image/gd resource type">
<polygon fill="white" stroke="black" points="357,-0.5 357,-21.5 449,-21.5 449,-0.5 357,-0.5"/>
<text text-anchor="middle" x="403" y="-8.5" font-family="Helvetica,sans-Serif" font-size="10.00">varIsGDResource</text>
</a>
</g>
<!-- Node3&#45;&gt;Node10 -->
<g id="edge24" class="edge"><title>Node3&#45;&gt;Node10</title>
<path fill="none" stroke="midnightblue" d="M286.51,-107.334C298.198,-87.0806 318.791,-55.7645 344,-36 351.529,-30.097 360.658,-25.3388 369.462,-21.6223"/>
<polygon fill="midnightblue" stroke="midnightblue" points="283.329,-105.852 281.507,-116.289 289.44,-109.266 283.329,-105.852"/>
</g>
<!-- Node5&#45;&gt;Node3 -->
<g id="edge10" class="edge"><title>Node5&#45;&gt;Node3</title>
<path fill="none" stroke="midnightblue" d="M363.444,-147.075C344.819,-144.868 322.973,-141.267 305.776,-137.51"/>
<polygon fill="midnightblue" stroke="midnightblue" points="363.093,-150.557 373.411,-148.149 363.844,-143.597 363.093,-150.557"/>
</g>
<!-- Node6&#45;&gt;Node2 -->
<g id="edge14" class="edge"><title>Node6&#45;&gt;Node2</title>
<path fill="none" stroke="midnightblue" d="M360.233,-213.078C354.739,-211.122 349.215,-209.07 344,-207 287.489,-184.573 222.879,-153.6 190.248,-137.567"/>
<polygon fill="midnightblue" stroke="midnightblue" points="359.421,-216.502 370.016,-216.481 361.72,-209.89 359.421,-216.502"/>
</g>
<!-- Node8 -->
<g id="node17" class="node"><title>Node8</title>
<a xlink:href="a00001.html#a783baa8ff544bb8278ac32bce66be5c4" target="_top" xlink:title="varIsSpecialObject">
<polygon fill="white" stroke="black" points="498.5,-96.5 498.5,-117.5 595.5,-117.5 595.5,-96.5 498.5,-96.5"/>
<text text-anchor="middle" x="547" y="-104.5" font-family="Helvetica,sans-Serif" font-size="10.00">varIsSpecialObject</text>
</a>
</g>
<!-- Node7&#45;&gt;Node8 -->
<g id="edge18" class="edge"><title>Node7&#45;&gt;Node8</title>
<path fill="none" stroke="midnightblue" d="M453.464,-107C468.049,-107 483.933,-107 498.402,-107"/>
<polygon fill="midnightblue" stroke="midnightblue" points="453.112,-103.5 443.112,-107 453.112,-110.5 453.112,-103.5"/>
</g>
<!-- Node8&#45;&gt;Node9 -->
<g id="edge20" class="edge"><title>Node8&#45;&gt;Node9</title>
<path fill="none" stroke="midnightblue" d="M582.342,-92.6238C600.608,-85.1934 622.5,-76.288 639.165,-69.5092"/>
<polygon fill="midnightblue" stroke="midnightblue" points="580.84,-89.4561 572.896,-96.4662 583.477,-95.9402 580.84,-89.4561"/>
</g>
<!-- Node9&#45;&gt;Node3 -->
<g id="edge22" class="edge"><title>Node9&#45;&gt;Node3</title>
<path fill="none" stroke="midnightblue" d="M621.875,-62.712C559.126,-63.9611 439.705,-65.41 344,-96 329.127,-100.754 314.016,-109.206 301.828,-116.325"/>
<polygon fill="midnightblue" stroke="midnightblue" points="622.258,-66.2047 632.181,-62.4916 622.109,-59.2063 622.258,-66.2047"/>
</g>
<!-- Node10&#45;&gt;Node2 -->
<g id="edge26" class="edge"><title>Node10&#45;&gt;Node2</title>
<path fill="none" stroke="midnightblue" d="M367.657,-25.4406C359.816,-28.7926 351.584,-32.428 344,-36 286.377,-63.1388 220.106,-98.8798 188.173,-116.397"/>
<polygon fill="midnightblue" stroke="midnightblue" points="369.105,-28.6286 376.957,-21.5159 366.383,-22.1793 369.105,-28.6286"/>
</g>
</g>
</svg>
        <g id="navigator" transform="translate(0 0)" fill="#404254">
                <rect fill="#f2f5e9" fill-opacity="0.5" stroke="#606060" stroke-width=".5" x="0" y="0" width="60" height="60"/>
                <use id="zoomplus" xlink:href="#zoomPlus" x="17" y="9" onmousedown="handleZoom(evt,'in')"/>
                <use id="zoomminus" xlink:href="#zoomMin" x="42" y="9" onmousedown="handleZoom(evt,'out')"/>
                <use id="reset" xlink:href="#resetDef" x="30" y="36" onmousedown="handleReset()"/>
                <g id="arrowUp" xlink:href="#dirArrow" transform="translate(30 24)" onmousedown="handlePan(0,-1)">
                  <use xlink:href="#rim" fill="#404040">
                        <set attributeName="fill" to="#808080" begin="arrowUp.mouseover" end="arrowUp.mouseout"/>
                  </use>
                  <path fill="none" stroke="white" stroke-width="1.5" d="M0,-3.0v7 M-2.5,-0.5L0,-3.0L2.5,-0.5"/>
                </g>
                <g id="arrowRight" xlink:href="#dirArrow" transform="rotate(90) translate(36 -43)" onmousedown="handlePan(1,0)">
                  <use xlink:href="#rim" fill="#404040">
                        <set attributeName="fill" to="#808080" begin="arrowRight.mouseover" end="arrowRight.mouseout"/>
                  </use>
                  <path fill="none" stroke="white" stroke-width="1.5" d="M0,-3.0v7 M-2.5,-0.5L0,-3.0L2.5,-0.5"/>
                </g>
                <g id="arrowDown" xlink:href="#dirArrow" transform="rotate(180) translate(-30 -48)" onmousedown="handlePan(0,1)">
                  <use xlink:href="#rim" fill="#404040">
                        <set attributeName="fill" to="#808080" begin="arrowDown.mouseover" end="arrowDown.mouseout"/>
                  </use>
                  <path fill="none" stroke="white" stroke-width="1.5" d="M0,-3.0v7 M-2.5,-0.5L0,-3.0L2.5,-0.5"/>
                </g>
                <g id="arrowLeft" xlink:href="#dirArrow" transform="rotate(270) translate(-36 17)" onmousedown="handlePan(-1,0)">
                  <use xlink:href="#rim" fill="#404040">
                        <set attributeName="fill" to="#808080" begin="arrowLeft.mouseover" end="arrowLeft.mouseout"/>
                  </use>
                  <path fill="none" stroke="white" stroke-width="1.5" d="M0,-3.0v7 M-2.5,-0.5L0,-3.0L2.5,-0.5"/>
                </g>
        </g>
        <svg viewBox="0 0 15 15" width="100%" height="30px" preserveAspectRatio="xMaxYMin meet">
         <g id="arrow_out" transform="scale(0.3 0.3)">
          <a xlink:href="a00001_a7538f8f3d434a3152a400f7478ae6454_icgraph_org.svg" target="_base">
           <rect id="button" ry="5" rx="5" y="6" x="6" height="38" width="38"
                fill="#f2f5e9" fill-opacity="0.5" stroke="#606060" stroke-width="1.0"/>
           <path id="arrow"
             d="M 11.500037,31.436501 C 11.940474,20.09759 22.043105,11.32322 32.158766,21.979434 L 37.068811,17.246167 C 37.068811,17.246167 37.088388,32 37.088388,32 L 22.160133,31.978069 C 22.160133,31.978069 26.997745,27.140456 26.997745,27.140456 C 18.528582,18.264221 13.291696,25.230495 11.500037,31.436501 z"
             style="fill:#404040;"/>
          </a>
         </g>
        </svg>
</svg>
