<?xml version="1.0" encoding="UTF-8" standalone="no"?>
<!DOCTYPE svg PUBLIC "-//W3C//DTD SVG 1.1//EN"
 "http://www.w3.org/Graphics/SVG/1.1/DTD/svg11.dtd">
<!-- Generated by graphviz version 2.26.3 (20100126.1600)
 -->
<!-- Title: varIsXml Pages: 1 -->
<svg width="584pt" height="210pt"
 viewBox="0.00 0.00 584.00 210.00" xmlns="http://www.w3.org/2000/svg" xmlns:xlink="http://www.w3.org/1999/xlink">
<g id="graph1" class="graph" transform="scale(1 1) rotate(0) translate(4 206)">
<title>varIsXml</title>
<polygon fill="white" stroke="white" points="-4,5 -4,-206 581,-206 581,5 -4,5"/>
<!-- Node1 -->
<g id="node1" class="node"><title>Node1</title>
<polygon fill="#bfbfbf" stroke="black" points="0,-80.5 0,-101.5 52,-101.5 52,-80.5 0,-80.5"/>
<text text-anchor="middle" x="26" y="-88.5" font-family="Helvetica,sans-Serif" font-size="10.00">varIsXml</text>
</g>
<!-- Node2 -->
<g id="node3" class="node"><title>Node2</title>
<a xlink:href="a00001.html#a7538f8f3d434a3152a400f7478ae6454" target="_top" xlink:title="if variable is an xml resource type">
<polygon fill="white" stroke="black" points="88.5,-80.5 88.5,-101.5 181.5,-101.5 181.5,-80.5 88.5,-80.5"/>
<text text-anchor="middle" x="135" y="-88.5" font-family="Helvetica,sans-Serif" font-size="10.00">varIsXmlResource</text>
</a>
</g>
<!-- Node1&#45;&gt;Node2 -->
<g id="edge2" class="edge"><title>Node1&#45;&gt;Node2</title>
<path fill="none" stroke="midnightblue" d="M52.1082,-91C59.979,-91 68.9458,-91 78.0048,-91"/>
<polygon fill="midnightblue" stroke="midnightblue" points="78.2183,-94.5001 88.2183,-91 78.2182,-87.5001 78.2183,-94.5001"/>
</g>
<!-- Node3 -->
<g id="node5" class="node"><title>Node3</title>
<a xlink:href="a00001.html#a04aa495573c880043c46c3bfc669bbe3" target="_top" xlink:title="creates the main table header">
<polygon fill="white" stroke="black" points="218.5,-160.5 218.5,-181.5 313.5,-181.5 313.5,-160.5 218.5,-160.5"/>
<text text-anchor="middle" x="266" y="-168.5" font-family="Helvetica,sans-Serif" font-size="10.00">makeTableHeader</text>
</a>
</g>
<!-- Node2&#45;&gt;Node3 -->
<g id="edge4" class="edge"><title>Node2&#45;&gt;Node3</title>
<path fill="none" stroke="midnightblue" d="M147.6,-101.539C163.349,-114.366 191.47,-136.148 218,-151 221.264,-152.827 224.729,-154.587 228.245,-156.253"/>
<polygon fill="midnightblue" stroke="midnightblue" points="227.007,-159.534 237.564,-160.428 229.869,-153.146 227.007,-159.534"/>
</g>
<!-- Node7 -->
<g id="node13" class="node"><title>Node7</title>
<a xlink:href="a00001.html#a0cff4870612d64738cd84a47dbb36b1d" target="_top" xlink:title="creates the table row header">
<polygon fill="white" stroke="black" points="224.5,-120.5 224.5,-141.5 307.5,-141.5 307.5,-120.5 224.5,-120.5"/>
<text text-anchor="middle" x="266" y="-128.5" font-family="Helvetica,sans-Serif" font-size="10.00">makeTDHeader</text>
</a>
</g>
<!-- Node2&#45;&gt;Node7 -->
<g id="edge12" class="edge"><title>Node2&#45;&gt;Node7</title>
<path fill="none" stroke="midnightblue" d="M169.419,-101.51C185.388,-106.386 204.566,-112.241 221.609,-117.445"/>
<polygon fill="midnightblue" stroke="midnightblue" points="220.77,-120.849 231.356,-120.422 222.814,-114.154 220.77,-120.849"/>
</g>
<!-- Node8 -->
<g id="node15" class="node"><title>Node8</title>
<a xlink:href="a00001.html#a3912b527e5334ca863364065cd1199a6" target="_top" xlink:title="parses xml">
<polygon fill="white" stroke="black" points="237,-80.5 237,-101.5 295,-101.5 295,-80.5 237,-80.5"/>
<text text-anchor="middle" x="266" y="-88.5" font-family="Helvetica,sans-Serif" font-size="10.00">xmlParse</text>
</a>
</g>
<!-- Node2&#45;&gt;Node8 -->
<g id="edge14" class="edge"><title>Node2&#45;&gt;Node8</title>
<path fill="none" stroke="midnightblue" d="M181.555,-91C196.205,-91 212.24,-91 226.363,-91"/>
<polygon fill="midnightblue" stroke="midnightblue" points="226.736,-94.5001 236.736,-91 226.736,-87.5001 226.736,-94.5001"/>
</g>
<!-- Node9 -->
<g id="node17" class="node"><title>Node9</title>
<a xlink:href="a00001.html#a545636ab6c62d4ba28f561d864d59a66" target="_top" xlink:title="prints error">
<polygon fill="white" stroke="black" points="248,-40.5 248,-61.5 284,-61.5 284,-40.5 248,-40.5"/>
<text text-anchor="middle" x="266" y="-48.5" font-family="Helvetica,sans-Serif" font-size="10.00">error</text>
</a>
</g>
<!-- Node2&#45;&gt;Node9 -->
<g id="edge16" class="edge"><title>Node2&#45;&gt;Node9</title>
<path fill="none" stroke="midnightblue" d="M169.419,-80.4905C190.851,-73.9464 218.062,-65.6375 238.136,-59.5081"/>
<polygon fill="midnightblue" stroke="midnightblue" points="239.372,-62.7903 247.914,-56.5225 237.328,-56.0954 239.372,-62.7903"/>
</g>
<!-- Node10 -->
<g id="node19" class="node"><title>Node10</title>
<a xlink:href="a00001.html#aaa2a0a3c482abd677b2bc2fa137e6c91" target="_top" xlink:title="closes table row">
<polygon fill="white" stroke="black" points="230.5,-0.5 230.5,-21.5 301.5,-21.5 301.5,-0.5 230.5,-0.5"/>
<text text-anchor="middle" x="266" y="-8.5" font-family="Helvetica,sans-Serif" font-size="10.00">closeTDRow</text>
</a>
</g>
<!-- Node2&#45;&gt;Node10 -->
<g id="edge18" class="edge"><title>Node2&#45;&gt;Node10</title>
<path fill="none" stroke="midnightblue" d="M147.6,-80.4607C163.349,-67.6338 191.47,-45.8524 218,-31 221.264,-29.1726 224.729,-27.4128 228.245,-25.7466"/>
<polygon fill="midnightblue" stroke="midnightblue" points="229.869,-28.8543 237.564,-21.5724 227.007,-22.4658 229.869,-28.8543"/>
</g>
<!-- Node4 -->
<g id="node7" class="node"><title>Node4</title>
<a xlink:href="a00001.html#a742973a203c412611192053dc0cd48af" target="_top" xlink:title="initializeHeader">
<polygon fill="white" stroke="black" points="357.5,-180.5 357.5,-201.5 440.5,-201.5 440.5,-180.5 357.5,-180.5"/>
<text text-anchor="middle" x="399" y="-188.5" font-family="Helvetica,sans-Serif" font-size="10.00">initializeHeader</text>
</a>
</g>
<!-- Node3&#45;&gt;Node4 -->
<g id="edge6" class="edge"><title>Node3&#45;&gt;Node4</title>
<path fill="none" stroke="midnightblue" d="M313.64,-178.164C324.597,-179.812 336.299,-181.571 347.414,-183.243"/>
<polygon fill="midnightblue" stroke="midnightblue" points="347.01,-186.721 357.42,-184.747 348.051,-179.799 347.01,-186.721"/>
</g>
<!-- Node6 -->
<g id="node11" class="node"><title>Node6</title>
<a xlink:href="a00001.html#a3396d3c6336b500d49e3a1a0288dc035" target="_top" xlink:title="draws the main table header">
<polygon fill="white" stroke="black" points="350,-140.5 350,-161.5 448,-161.5 448,-140.5 350,-140.5"/>
<text text-anchor="middle" x="399" y="-148.5" font-family="Helvetica,sans-Serif" font-size="10.00">renderTableHeader</text>
</a>
</g>
<!-- Node3&#45;&gt;Node6 -->
<g id="edge10" class="edge"><title>Node3&#45;&gt;Node6</title>
<path fill="none" stroke="midnightblue" d="M313.64,-163.836C322.105,-162.563 331.014,-161.223 339.754,-159.909"/>
<polygon fill="midnightblue" stroke="midnightblue" points="340.531,-163.332 349.899,-158.384 339.49,-156.41 340.531,-163.332"/>
</g>
<!-- Node5 -->
<g id="node9" class="node"><title>Node5</title>
<a xlink:href="a00001.html#a20af85a4f4041ed681b095e1427b2a1d" target="_top" xlink:title="getVariableName">
<polygon fill="white" stroke="black" points="484.5,-180.5 484.5,-201.5 575.5,-201.5 575.5,-180.5 484.5,-180.5"/>
<text text-anchor="middle" x="530" y="-188.5" font-family="Helvetica,sans-Serif" font-size="10.00">getVariableName</text>
</a>
</g>
<!-- Node4&#45;&gt;Node5 -->
<g id="edge8" class="edge"><title>Node4&#45;&gt;Node5</title>
<path fill="none" stroke="midnightblue" d="M440.809,-191C451.358,-191 462.854,-191 473.977,-191"/>
<polygon fill="midnightblue" stroke="midnightblue" points="474.05,-194.5 484.05,-191 474.05,-187.5 474.05,-194.5"/>
</g>
</g>
</svg>
