<?xml version="1.0" encoding="UTF-8" standalone="no"?>
<!DOCTYPE svg PUBLIC "-//W3C//DTD SVG 1.1//EN"
 "http://www.w3.org/Graphics/SVG/1.1/DTD/svg11.dtd">
<!-- Generated by graphviz version 2.26.3 (20100126.1600)
 -->
<!-- Title: renderPrimitiveType Pages: 1 -->
<svg width="708pt" height="287pt"
 viewBox="0.00 0.00 708.00 287.13" xmlns="http://www.w3.org/2000/svg" xmlns:xlink="http://www.w3.org/1999/xlink">
<g id="graph1" class="graph" transform="scale(1 1) rotate(0) translate(4 283.127)">
<title>renderPrimitiveType</title>
<polygon fill="white" stroke="white" points="-4,5 -4,-283.127 705,-283.127 705,5 -4,5"/>
<!-- Node1 -->
<g id="node1" class="node"><title>Node1</title>
<polygon fill="#bfbfbf" stroke="black" points="0.5,-137.627 0.5,-158.627 101.5,-158.627 101.5,-137.627 0.5,-137.627"/>
<text text-anchor="middle" x="51" y="-145.627" font-family="Helvetica,sans-Serif" font-size="10.00">renderPrimitiveType</text>
</g>
<!-- Node2 -->
<g id="node3" class="node"><title>Node2</title>
<a xlink:href="a00001.html#a5ebd24b62872515b28e27182857bfe7f" target="_top" xlink:title="renders boolean variable">
<polygon fill="white" stroke="black" points="138.5,-177.627 138.5,-198.627 209.5,-198.627 209.5,-177.627 138.5,-177.627"/>
<text text-anchor="middle" x="174" y="-185.627" font-family="Helvetica,sans-Serif" font-size="10.00">varIsBoolean</text>
</a>
</g>
<!-- Node1&#45;&gt;Node2 -->
<g id="edge2" class="edge"><title>Node1&#45;&gt;Node2</title>
<path fill="none" stroke="midnightblue" d="M92.9039,-161.754C108.775,-166.916 126.59,-172.709 141.472,-177.549"/>
<polygon fill="midnightblue" stroke="midnightblue" points="93.909,-158.401 83.3168,-158.636 91.7441,-165.058 93.909,-158.401"/>
</g>
<!-- Node12 -->
<g id="node28" class="node"><title>Node12</title>
<a xlink:href="a00001.html#a44eb38e42426f01840a0d12fe6a6a05f" target="_top" xlink:title="renders numeric types : integers and doubles">
<polygon fill="white" stroke="black" points="138,-137.627 138,-158.627 210,-158.627 210,-137.627 138,-137.627"/>
<text text-anchor="middle" x="174" y="-145.627" font-family="Helvetica,sans-Serif" font-size="10.00">varIsNumeric</text>
</a>
</g>
<!-- Node1&#45;&gt;Node12 -->
<g id="edge32" class="edge"><title>Node1&#45;&gt;Node12</title>
<path fill="none" stroke="midnightblue" d="M111.993,-148.127C120.77,-148.127 129.56,-148.127 137.65,-148.127"/>
<polygon fill="midnightblue" stroke="midnightblue" points="111.739,-144.627 101.739,-148.127 111.739,-151.627 111.739,-144.627"/>
</g>
<!-- Node13 -->
<g id="node31" class="node"><title>Node13</title>
<a xlink:href="a00001.html#a1dce801bff273c92008ec238b5480928" target="_top" xlink:title="renders string either as primitive type (if it is short (less than $embeddedStringMaxLength chars) an...">
<polygon fill="white" stroke="black" points="143,-97.627 143,-118.627 205,-118.627 205,-97.627 143,-97.627"/>
<text text-anchor="middle" x="174" y="-105.627" font-family="Helvetica,sans-Serif" font-size="10.00">varIsString</text>
</a>
</g>
<!-- Node1&#45;&gt;Node13 -->
<g id="edge36" class="edge"><title>Node1&#45;&gt;Node13</title>
<path fill="none" stroke="midnightblue" d="M93.1393,-134.423C109.408,-129.133 127.689,-123.187 142.748,-118.29"/>
<polygon fill="midnightblue" stroke="midnightblue" points="91.7441,-131.196 83.3168,-137.617 93.909,-137.853 91.7441,-131.196"/>
</g>
<!-- Node3 -->
<g id="node5" class="node"><title>Node3</title>
<a xlink:href="a00001.html#aaecea663190c6ce2edd146c3133f257d" target="_top" xlink:title="check variable type andd process the value in right way">
<polygon fill="white" stroke="black" points="246,-137.627 246,-158.627 310,-158.627 310,-137.627 246,-137.627"/>
<text text-anchor="middle" x="278" y="-145.627" font-family="Helvetica,sans-Serif" font-size="10.00">checkType</text>
</a>
</g>
<!-- Node2&#45;&gt;Node3 -->
<g id="edge4" class="edge"><title>Node2&#45;&gt;Node3</title>
<path fill="none" stroke="midnightblue" d="M210.957,-173.913C223.984,-168.902 238.389,-163.362 250.497,-158.705"/>
<polygon fill="midnightblue" stroke="midnightblue" points="209.402,-170.761 201.325,-177.617 211.915,-177.294 209.402,-170.761"/>
</g>
<!-- Node4 -->
<g id="node7" class="node"><title>Node4</title>
<a xlink:href="a00001.html#a6826222eba46dd56dbd5841cdc300efa" target="_top" xlink:title="dBug">
<polygon fill="white" stroke="black" points="385.5,-257.627 385.5,-278.627 424.5,-278.627 424.5,-257.627 385.5,-257.627"/>
<text text-anchor="middle" x="405" y="-265.627" font-family="Helvetica,sans-Serif" font-size="10.00">dBug</text>
</a>
</g>
<!-- Node3&#45;&gt;Node4 -->
<g id="edge6" class="edge"><title>Node3&#45;&gt;Node4</title>
<path fill="none" stroke="midnightblue" d="M286.752,-168.138C297.569,-190.655 318.032,-226.855 346,-248.127 357.536,-256.9 373.16,-261.969 385.432,-264.807"/>
<polygon fill="midnightblue" stroke="midnightblue" points="289.837,-166.471 282.468,-158.858 283.481,-169.404 289.837,-166.471"/>
</g>
<!-- Node5 -->
<g id="node9" class="node"><title>Node5</title>
<a xlink:href="a00001.html#a86ff35452ee612d9e9e9b147e5544acc" target="_top" xlink:title="varIsArray">
<polygon fill="white" stroke="black" points="375.5,-217.627 375.5,-238.627 434.5,-238.627 434.5,-217.627 375.5,-217.627"/>
<text text-anchor="middle" x="405" y="-225.627" font-family="Helvetica,sans-Serif" font-size="10.00">varIsArray</text>
</a>
</g>
<!-- Node3&#45;&gt;Node5 -->
<g id="edge8" class="edge"><title>Node3&#45;&gt;Node5</title>
<path fill="none" stroke="midnightblue" d="M302.178,-165.594C314.405,-176.5 330.018,-189.872 346,-199.127 359.852,-207.149 377.407,-212.58 389.754,-217.474"/>
<polygon fill="midnightblue" stroke="midnightblue" points="304.443,-162.925 294.663,-158.852 299.769,-168.135 304.443,-162.925"/>
</g>
<!-- Node6 -->
<g id="node12" class="node"><title>Node6</title>
<a xlink:href="a00001.html#aaa52412f9f4f725e15aafa3fcd678b1d" target="_top" xlink:title="shows information about curl easy handles">
<polygon fill="white" stroke="black" points="346.5,-177.627 346.5,-198.627 463.5,-198.627 463.5,-177.627 346.5,-177.627"/>
<text text-anchor="middle" x="405" y="-185.627" font-family="Helvetica,sans-Serif" font-size="10.00">varIsCurlEasyResource</text>
</a>
</g>
<!-- Node3&#45;&gt;Node6 -->
<g id="edge12" class="edge"><title>Node3&#45;&gt;Node6</title>
<path fill="none" stroke="midnightblue" d="M319.661,-161.249C336.521,-166.559 355.72,-172.606 371.632,-177.617"/>
<polygon fill="midnightblue" stroke="midnightblue" points="320.637,-157.887 310.047,-158.221 318.534,-164.563 320.637,-157.887"/>
</g>
<!-- Node8 -->
<g id="node17" class="node"><title>Node8</title>
<a xlink:href="a00001.html#a91a251e46645521ab0c05a9b787624f6" target="_top" xlink:title="function used to render exceptions">
<polygon fill="white" stroke="black" points="365,-59.627 365,-80.627 445,-80.627 445,-59.627 365,-59.627"/>
<text text-anchor="middle" x="405" y="-67.627" font-family="Helvetica,sans-Serif" font-size="10.00">varIsException</text>
</a>
</g>
<!-- Node3&#45;&gt;Node8 -->
<g id="edge18" class="edge"><title>Node3&#45;&gt;Node8</title>
<path fill="none" stroke="midnightblue" d="M297.675,-130.546C310.747,-119.447 328.641,-105.331 346,-95.127 355.399,-89.6021 366.248,-84.6436 376.059,-80.6275"/>
<polygon fill="midnightblue" stroke="midnightblue" points="295.106,-128.141 289.835,-137.332 299.687,-133.433 295.106,-128.141"/>
</g>
<!-- Node10 -->
<g id="node21" class="node"><title>Node10</title>
<a xlink:href="a00001.html#a443a941157b2ed03d6a24ae70ece785d" target="_top" xlink:title="checks wheither variable is object of special type (using varIs*Object), and renders it if it is gene...">
<polygon fill="white" stroke="black" points="634.5,-11.627 634.5,-32.627 699.5,-32.627 699.5,-11.627 634.5,-11.627"/>
<text text-anchor="middle" x="667" y="-19.627" font-family="Helvetica,sans-Serif" font-size="10.00">varIsObject</text>
</a>
</g>
<!-- Node3&#45;&gt;Node10 -->
<g id="edge30" class="edge"><title>Node3&#45;&gt;Node10</title>
<path fill="none" stroke="midnightblue" d="M283.335,-127.981C292.4,-102.366 313.095,-60.2127 346,-41.127 439.877,13.3235 575.815,1.32731 636.154,-11.5939"/>
<polygon fill="midnightblue" stroke="midnightblue" points="279.996,-126.932 280.249,-137.523 286.656,-129.086 279.996,-126.932"/>
</g>
<!-- Node11 -->
<g id="node24" class="node"><title>Node11</title>
<a xlink:href="a00001.html#a642e715a1977cf46d40d840b5112465d" target="_top" xlink:title="if variable is an image/gd resource type">
<polygon fill="white" stroke="black" points="359,-137.627 359,-158.627 451,-158.627 451,-137.627 359,-137.627"/>
<text text-anchor="middle" x="405" y="-145.627" font-family="Helvetica,sans-Serif" font-size="10.00">varIsGDResource</text>
</a>
</g>
<!-- Node3&#45;&gt;Node11 -->
<g id="edge26" class="edge"><title>Node3&#45;&gt;Node11</title>
<path fill="none" stroke="midnightblue" d="M320.076,-148.127C332.413,-148.127 345.973,-148.127 358.566,-148.127"/>
<polygon fill="midnightblue" stroke="midnightblue" points="320.047,-144.627 310.047,-148.127 320.047,-151.627 320.047,-144.627"/>
</g>
<!-- Node5&#45;&gt;Node3 -->
<g id="edge10" class="edge"><title>Node5&#45;&gt;Node3</title>
<path fill="none" stroke="midnightblue" d="M365.693,-226.095C358.918,-223.689 352.1,-220.659 346,-217.127 319.296,-201.663 293.622,-174.707 283.054,-158.882"/>
<polygon fill="midnightblue" stroke="midnightblue" points="364.91,-229.518 375.499,-229.16 366.998,-222.836 364.91,-229.518"/>
</g>
<!-- Node7 -->
<g id="node14" class="node"><title>Node7</title>
<a xlink:href="a00001.html#a4ab1e15fa34f8b98071b0eb36883777e" target="_top" xlink:title="shows info about different resources, uses customized rendering founctions when needed">
<polygon fill="white" stroke="black" points="510.5,-137.627 510.5,-158.627 587.5,-158.627 587.5,-137.627 510.5,-137.627"/>
<text text-anchor="middle" x="549" y="-145.627" font-family="Helvetica,sans-Serif" font-size="10.00">varIsResource</text>
</a>
</g>
<!-- Node6&#45;&gt;Node7 -->
<g id="edge14" class="edge"><title>Node6&#45;&gt;Node7</title>
<path fill="none" stroke="midnightblue" d="M452.486,-174.936C471.456,-169.667 493.003,-163.682 510.918,-158.705"/>
<polygon fill="midnightblue" stroke="midnightblue" points="451.533,-171.569 442.834,-177.617 453.406,-178.313 451.533,-171.569"/>
</g>
<!-- Node7&#45;&gt;Node3 -->
<g id="edge16" class="edge"><title>Node7&#45;&gt;Node3</title>
<path fill="none" stroke="midnightblue" d="M502.77,-135.207C490.287,-132.28 476.714,-129.603 464,-128.127 411.905,-122.081 397.909,-120.652 346,-128.127 332.967,-130.004 318.95,-133.806 307.047,-137.595"/>
<polygon fill="midnightblue" stroke="midnightblue" points="501.965,-138.613 512.51,-137.589 503.628,-131.813 501.965,-138.613"/>
</g>
<!-- Node9 -->
<g id="node19" class="node"><title>Node9</title>
<a xlink:href="a00001.html#a783baa8ff544bb8278ac32bce66be5c4" target="_top" xlink:title="varIsSpecialObject">
<polygon fill="white" stroke="black" points="500.5,-59.627 500.5,-80.627 597.5,-80.627 597.5,-59.627 500.5,-59.627"/>
<text text-anchor="middle" x="549" y="-67.627" font-family="Helvetica,sans-Serif" font-size="10.00">varIsSpecialObject</text>
</a>
</g>
<!-- Node8&#45;&gt;Node9 -->
<g id="edge20" class="edge"><title>Node8&#45;&gt;Node9</title>
<path fill="none" stroke="midnightblue" d="M455.464,-70.127C470.049,-70.127 485.933,-70.127 500.402,-70.127"/>
<polygon fill="midnightblue" stroke="midnightblue" points="455.112,-66.6271 445.112,-70.127 455.112,-73.6271 455.112,-66.6271"/>
</g>
<!-- Node9&#45;&gt;Node10 -->
<g id="edge22" class="edge"><title>Node9&#45;&gt;Node10</title>
<path fill="none" stroke="midnightblue" d="M584.342,-55.7507C602.608,-48.3204 624.5,-39.4149 641.165,-32.6362"/>
<polygon fill="midnightblue" stroke="midnightblue" points="582.84,-52.5831 574.896,-59.5932 585.477,-59.0672 582.84,-52.5831"/>
</g>
<!-- Node10&#45;&gt;Node3 -->
<g id="edge24" class="edge"><title>Node10&#45;&gt;Node3</title>
<path fill="none" stroke="midnightblue" d="M623.984,-20.7434C558.987,-15.4327 434.009,-8.07966 346,-59.127 314.114,-77.6214 293.694,-117.776 284.211,-137.503"/>
<polygon fill="midnightblue" stroke="midnightblue" points="624.008,-24.2575 634.264,-21.6009 624.59,-17.2817 624.008,-24.2575"/>
</g>
<!-- Node11&#45;&gt;Node7 -->
<g id="edge28" class="edge"><title>Node11&#45;&gt;Node7</title>
<path fill="none" stroke="midnightblue" d="M461.403,-148.127C477.828,-148.127 495.391,-148.127 510.446,-148.127"/>
<polygon fill="midnightblue" stroke="midnightblue" points="461.355,-144.627 451.355,-148.127 461.355,-151.627 461.355,-144.627"/>
</g>
<!-- Node12&#45;&gt;Node3 -->
<g id="edge34" class="edge"><title>Node12&#45;&gt;Node3</title>
<path fill="none" stroke="midnightblue" d="M220.103,-148.127C228.776,-148.127 237.67,-148.127 245.805,-148.127"/>
<polygon fill="midnightblue" stroke="midnightblue" points="220.082,-144.627 210.082,-148.127 220.082,-151.627 220.082,-144.627"/>
</g>
<!-- Node13&#45;&gt;Node3 -->
<g id="edge38" class="edge"><title>Node13&#45;&gt;Node3</title>
<path fill="none" stroke="midnightblue" d="M210.957,-122.341C223.984,-127.351 238.389,-132.892 250.497,-137.549"/>
<polygon fill="midnightblue" stroke="midnightblue" points="211.915,-118.96 201.325,-118.636 209.402,-125.493 211.915,-118.96"/>
</g>
</g>
</svg>
