<?xml version="1.0" encoding="UTF-8" standalone="no"?>
<!DOCTYPE svg PUBLIC "-//W3C//DTD SVG 1.1//EN"
 "http://www.w3.org/Graphics/SVG/1.1/DTD/svg11.dtd">
<!-- Generated by graphviz version 2.26.3 (20100126.1600)
 -->
<!-- Title: varIsXmlResource Pages: 1 -->
<svg width="496pt" height="190pt"
 viewBox="0.00 0.00 496.00 190.00" xmlns="http://www.w3.org/2000/svg" xmlns:xlink="http://www.w3.org/1999/xlink">
<g id="graph1" class="graph" transform="scale(1 1) rotate(0) translate(4 186)">
<title>varIsXmlResource</title>
<polygon fill="white" stroke="white" points="-4,5 -4,-186 493,-186 493,5 -4,5"/>
<!-- Node1 -->
<g id="node1" class="node"><title>Node1</title>
<polygon fill="#bfbfbf" stroke="black" points="0.5,-80.5 0.5,-101.5 93.5,-101.5 93.5,-80.5 0.5,-80.5"/>
<text text-anchor="middle" x="47" y="-88.5" font-family="Helvetica,sans-Serif" font-size="10.00">varIsXmlResource</text>
</g>
<!-- Node2 -->
<g id="node3" class="node"><title>Node2</title>
<a xlink:href="a00001.html#aaa2a0a3c482abd677b2bc2fa137e6c91" target="_top" xlink:title="closes table row">
<polygon fill="white" stroke="black" points="142.5,-160.5 142.5,-181.5 213.5,-181.5 213.5,-160.5 142.5,-160.5"/>
<text text-anchor="middle" x="178" y="-168.5" font-family="Helvetica,sans-Serif" font-size="10.00">closeTDRow</text>
</a>
</g>
<!-- Node1&#45;&gt;Node2 -->
<g id="edge2" class="edge"><title>Node1&#45;&gt;Node2</title>
<path fill="none" stroke="midnightblue" d="M59.6001,-101.539C75.3492,-114.366 103.47,-136.148 130,-151 133.264,-152.827 136.729,-154.587 140.245,-156.253"/>
<polygon fill="midnightblue" stroke="midnightblue" points="139.007,-159.534 149.564,-160.428 141.869,-153.146 139.007,-159.534"/>
</g>
<!-- Node3 -->
<g id="node5" class="node"><title>Node3</title>
<a xlink:href="a00001.html#a545636ab6c62d4ba28f561d864d59a66" target="_top" xlink:title="prints error">
<polygon fill="white" stroke="black" points="160,-120.5 160,-141.5 196,-141.5 196,-120.5 160,-120.5"/>
<text text-anchor="middle" x="178" y="-128.5" font-family="Helvetica,sans-Serif" font-size="10.00">error</text>
</a>
</g>
<!-- Node1&#45;&gt;Node3 -->
<g id="edge4" class="edge"><title>Node1&#45;&gt;Node3</title>
<path fill="none" stroke="midnightblue" d="M81.4187,-101.51C102.851,-108.054 130.062,-116.363 150.136,-122.492"/>
<polygon fill="midnightblue" stroke="midnightblue" points="149.328,-125.905 159.914,-125.478 151.372,-119.21 149.328,-125.905"/>
</g>
<!-- Node4 -->
<g id="node7" class="node"><title>Node4</title>
<a xlink:href="a00001.html#a04aa495573c880043c46c3bfc669bbe3" target="_top" xlink:title="creates the main table header">
<polygon fill="white" stroke="black" points="130.5,-80.5 130.5,-101.5 225.5,-101.5 225.5,-80.5 130.5,-80.5"/>
<text text-anchor="middle" x="178" y="-88.5" font-family="Helvetica,sans-Serif" font-size="10.00">makeTableHeader</text>
</a>
</g>
<!-- Node1&#45;&gt;Node4 -->
<g id="edge6" class="edge"><title>Node1&#45;&gt;Node4</title>
<path fill="none" stroke="midnightblue" d="M93.5546,-91C102.118,-91 111.153,-91 120.004,-91"/>
<polygon fill="midnightblue" stroke="midnightblue" points="120.269,-94.5001 130.269,-91 120.269,-87.5001 120.269,-94.5001"/>
</g>
<!-- Node8 -->
<g id="node15" class="node"><title>Node8</title>
<a xlink:href="a00001.html#a0cff4870612d64738cd84a47dbb36b1d" target="_top" xlink:title="creates the table row header">
<polygon fill="white" stroke="black" points="136.5,-40.5 136.5,-61.5 219.5,-61.5 219.5,-40.5 136.5,-40.5"/>
<text text-anchor="middle" x="178" y="-48.5" font-family="Helvetica,sans-Serif" font-size="10.00">makeTDHeader</text>
</a>
</g>
<!-- Node1&#45;&gt;Node8 -->
<g id="edge14" class="edge"><title>Node1&#45;&gt;Node8</title>
<path fill="none" stroke="midnightblue" d="M81.4187,-80.4905C97.3879,-75.6144 116.566,-69.7585 133.609,-64.5546"/>
<polygon fill="midnightblue" stroke="midnightblue" points="134.814,-67.846 143.356,-61.5782 132.77,-61.1512 134.814,-67.846"/>
</g>
<!-- Node9 -->
<g id="node17" class="node"><title>Node9</title>
<a xlink:href="a00001.html#a3912b527e5334ca863364065cd1199a6" target="_top" xlink:title="parses xml">
<polygon fill="white" stroke="black" points="149,-0.5 149,-21.5 207,-21.5 207,-0.5 149,-0.5"/>
<text text-anchor="middle" x="178" y="-8.5" font-family="Helvetica,sans-Serif" font-size="10.00">xmlParse</text>
</a>
</g>
<!-- Node1&#45;&gt;Node9 -->
<g id="edge16" class="edge"><title>Node1&#45;&gt;Node9</title>
<path fill="none" stroke="midnightblue" d="M59.6001,-80.4607C75.3492,-67.6338 103.47,-45.8524 130,-31 133.264,-29.1726 136.729,-27.4128 140.245,-25.7466"/>
<polygon fill="midnightblue" stroke="midnightblue" points="141.869,-28.8543 149.564,-21.5724 139.007,-22.4658 141.869,-28.8543"/>
</g>
<!-- Node5 -->
<g id="node9" class="node"><title>Node5</title>
<a xlink:href="a00001.html#a742973a203c412611192053dc0cd48af" target="_top" xlink:title="initializeHeader">
<polygon fill="white" stroke="black" points="269.5,-100.5 269.5,-121.5 352.5,-121.5 352.5,-100.5 269.5,-100.5"/>
<text text-anchor="middle" x="311" y="-108.5" font-family="Helvetica,sans-Serif" font-size="10.00">initializeHeader</text>
</a>
</g>
<!-- Node4&#45;&gt;Node5 -->
<g id="edge8" class="edge"><title>Node4&#45;&gt;Node5</title>
<path fill="none" stroke="midnightblue" d="M225.64,-98.164C236.597,-99.8116 248.299,-101.571 259.414,-103.243"/>
<polygon fill="midnightblue" stroke="midnightblue" points="259.01,-106.721 269.42,-104.747 260.051,-99.7991 259.01,-106.721"/>
</g>
<!-- Node7 -->
<g id="node13" class="node"><title>Node7</title>
<a xlink:href="a00001.html#a3396d3c6336b500d49e3a1a0288dc035" target="_top" xlink:title="draws the main table header">
<polygon fill="white" stroke="black" points="262,-60.5 262,-81.5 360,-81.5 360,-60.5 262,-60.5"/>
<text text-anchor="middle" x="311" y="-68.5" font-family="Helvetica,sans-Serif" font-size="10.00">renderTableHeader</text>
</a>
</g>
<!-- Node4&#45;&gt;Node7 -->
<g id="edge12" class="edge"><title>Node4&#45;&gt;Node7</title>
<path fill="none" stroke="midnightblue" d="M225.64,-83.836C234.105,-82.5632 243.014,-81.2235 251.754,-79.9092"/>
<polygon fill="midnightblue" stroke="midnightblue" points="252.531,-83.3318 261.899,-78.3836 251.49,-76.4096 252.531,-83.3318"/>
</g>
<!-- Node6 -->
<g id="node11" class="node"><title>Node6</title>
<a xlink:href="a00001.html#a20af85a4f4041ed681b095e1427b2a1d" target="_top" xlink:title="getVariableName">
<polygon fill="white" stroke="black" points="396.5,-100.5 396.5,-121.5 487.5,-121.5 487.5,-100.5 396.5,-100.5"/>
<text text-anchor="middle" x="442" y="-108.5" font-family="Helvetica,sans-Serif" font-size="10.00">getVariableName</text>
</a>
</g>
<!-- Node5&#45;&gt;Node6 -->
<g id="edge10" class="edge"><title>Node5&#45;&gt;Node6</title>
<path fill="none" stroke="midnightblue" d="M352.809,-111C363.358,-111 374.854,-111 385.977,-111"/>
<polygon fill="midnightblue" stroke="midnightblue" points="386.05,-114.5 396.05,-111 386.05,-107.5 386.05,-114.5"/>
</g>
</g>
</svg>
