<?xml version="1.0" encoding="UTF-8" standalone="no"?>
<!DOCTYPE svg PUBLIC "-//W3C//DTD SVG 1.1//EN"
 "http://www.w3.org/Graphics/SVG/1.1/DTD/svg11.dtd">
<!-- Generated by graphviz version 2.26.3 (20100126.1600)
 -->
<!-- Title: varIsDBObject Pages: 1 -->
<svg width="594pt" height="70pt"
 viewBox="0.00 0.00 594.00 70.00" xmlns="http://www.w3.org/2000/svg" xmlns:xlink="http://www.w3.org/1999/xlink">
<g id="graph1" class="graph" transform="scale(1 1) rotate(0) translate(4 66)">
<title>varIsDBObject</title>
<polygon fill="white" stroke="white" points="-4,5 -4,-66 591,-66 591,5 -4,5"/>
<!-- Node1 -->
<g id="node1" class="node"><title>Node1</title>
<polygon fill="#bfbfbf" stroke="black" points="0,-20.5 0,-41.5 78,-41.5 78,-20.5 0,-20.5"/>
<text text-anchor="middle" x="39" y="-28.5" font-family="Helvetica,sans-Serif" font-size="10.00">varIsDBObject</text>
</g>
<!-- Node2 -->
<g id="node3" class="node"><title>Node2</title>
<a xlink:href="a00001.html#ab4bab40a2bcac12276e3e7f2739f1761" target="_top" xlink:title="renders database data">
<polygon fill="white" stroke="black" points="114.5,-20.5 114.5,-41.5 191.5,-41.5 191.5,-20.5 114.5,-20.5"/>
<text text-anchor="middle" x="153" y="-28.5" font-family="Helvetica,sans-Serif" font-size="10.00">renderDBData</text>
</a>
</g>
<!-- Node1&#45;&gt;Node2 -->
<g id="edge2" class="edge"><title>Node1&#45;&gt;Node2</title>
<path fill="none" stroke="midnightblue" d="M78.2323,-31C86.6575,-31 95.6581,-31 104.39,-31"/>
<polygon fill="midnightblue" stroke="midnightblue" points="104.467,-34.5001 114.467,-31 104.467,-27.5001 104.467,-34.5001"/>
</g>
<!-- Node3 -->
<g id="node5" class="node"><title>Node3</title>
<a xlink:href="a00001.html#a04aa495573c880043c46c3bfc669bbe3" target="_top" xlink:title="creates the main table header">
<polygon fill="white" stroke="black" points="228.5,-20.5 228.5,-41.5 323.5,-41.5 323.5,-20.5 228.5,-20.5"/>
<text text-anchor="middle" x="276" y="-28.5" font-family="Helvetica,sans-Serif" font-size="10.00">makeTableHeader</text>
</a>
</g>
<!-- Node2&#45;&gt;Node3 -->
<g id="edge4" class="edge"><title>Node2&#45;&gt;Node3</title>
<path fill="none" stroke="midnightblue" d="M191.58,-31C200.078,-31 209.256,-31 218.323,-31"/>
<polygon fill="midnightblue" stroke="midnightblue" points="218.471,-34.5001 228.471,-31 218.471,-27.5001 218.471,-34.5001"/>
</g>
<!-- Node4 -->
<g id="node7" class="node"><title>Node4</title>
<a xlink:href="a00001.html#a742973a203c412611192053dc0cd48af" target="_top" xlink:title="initializeHeader">
<polygon fill="white" stroke="black" points="367.5,-40.5 367.5,-61.5 450.5,-61.5 450.5,-40.5 367.5,-40.5"/>
<text text-anchor="middle" x="409" y="-48.5" font-family="Helvetica,sans-Serif" font-size="10.00">initializeHeader</text>
</a>
</g>
<!-- Node3&#45;&gt;Node4 -->
<g id="edge6" class="edge"><title>Node3&#45;&gt;Node4</title>
<path fill="none" stroke="midnightblue" d="M323.64,-38.164C334.597,-39.8116 346.299,-41.5713 357.414,-43.2428"/>
<polygon fill="midnightblue" stroke="midnightblue" points="357.01,-46.7213 367.42,-44.7473 358.051,-39.7991 357.01,-46.7213"/>
</g>
<!-- Node6 -->
<g id="node11" class="node"><title>Node6</title>
<a xlink:href="a00001.html#a3396d3c6336b500d49e3a1a0288dc035" target="_top" xlink:title="draws the main table header">
<polygon fill="white" stroke="black" points="360,-0.5 360,-21.5 458,-21.5 458,-0.5 360,-0.5"/>
<text text-anchor="middle" x="409" y="-8.5" font-family="Helvetica,sans-Serif" font-size="10.00">renderTableHeader</text>
</a>
</g>
<!-- Node3&#45;&gt;Node6 -->
<g id="edge10" class="edge"><title>Node3&#45;&gt;Node6</title>
<path fill="none" stroke="midnightblue" d="M323.64,-23.836C332.105,-22.5632 341.014,-21.2235 349.754,-19.9092"/>
<polygon fill="midnightblue" stroke="midnightblue" points="350.531,-23.3318 359.899,-18.3836 349.49,-16.4096 350.531,-23.3318"/>
</g>
<!-- Node5 -->
<g id="node9" class="node"><title>Node5</title>
<a xlink:href="a00001.html#a20af85a4f4041ed681b095e1427b2a1d" target="_top" xlink:title="getVariableName">
<polygon fill="white" stroke="black" points="494.5,-40.5 494.5,-61.5 585.5,-61.5 585.5,-40.5 494.5,-40.5"/>
<text text-anchor="middle" x="540" y="-48.5" font-family="Helvetica,sans-Serif" font-size="10.00">getVariableName</text>
</a>
</g>
<!-- Node4&#45;&gt;Node5 -->
<g id="edge8" class="edge"><title>Node4&#45;&gt;Node5</title>
<path fill="none" stroke="midnightblue" d="M450.809,-51C461.358,-51 472.854,-51 483.977,-51"/>
<polygon fill="midnightblue" stroke="midnightblue" points="484.05,-54.5001 494.05,-51 484.05,-47.5001 484.05,-54.5001"/>
</g>
</g>
</svg>
