<?xml version="1.0" encoding="UTF-8" standalone="no"?>
<!DOCTYPE svg PUBLIC "-//W3C//DTD SVG 1.1//EN"
 "http://www.w3.org/Graphics/SVG/1.1/DTD/svg11.dtd">
<!-- Generated by graphviz version 2.26.3 (20100126.1600)
 -->
<!-- Title: varIsString Pages: 1 -->
<svg width="470pt" height="150pt"
 viewBox="0.00 0.00 470.00 150.00" xmlns="http://www.w3.org/2000/svg" xmlns:xlink="http://www.w3.org/1999/xlink">
<g id="graph1" class="graph" transform="scale(1 1) rotate(0) translate(4 146)">
<title>varIsString</title>
<polygon fill="white" stroke="white" points="-4,5 -4,-146 467,-146 467,5 -4,5"/>
<!-- Node1 -->
<g id="node1" class="node"><title>Node1</title>
<polygon fill="#bfbfbf" stroke="black" points="0,-60.5 0,-81.5 62,-81.5 62,-60.5 0,-60.5"/>
<text text-anchor="middle" x="31" y="-68.5" font-family="Helvetica,sans-Serif" font-size="10.00">varIsString</text>
</g>
<!-- Node2 -->
<g id="node3" class="node"><title>Node2</title>
<a xlink:href="a00001.html#aaa2a0a3c482abd677b2bc2fa137e6c91" target="_top" xlink:title="closes table row">
<polygon fill="white" stroke="black" points="113.5,-120.5 113.5,-141.5 184.5,-141.5 184.5,-120.5 113.5,-120.5"/>
<text text-anchor="middle" x="149" y="-128.5" font-family="Helvetica,sans-Serif" font-size="10.00">closeTDRow</text>
</a>
</g>
<!-- Node1&#45;&gt;Node2 -->
<g id="edge2" class="edge"><title>Node1&#45;&gt;Node2</title>
<path fill="none" stroke="midnightblue" d="M47.1007,-81.6367C60.418,-90.1816 79.9985,-102.171 98,-111 101.999,-112.961 106.241,-114.874 110.504,-116.691"/>
<polygon fill="midnightblue" stroke="midnightblue" points="109.202,-119.94 119.783,-120.495 111.858,-113.463 109.202,-119.94"/>
</g>
<!-- Node3 -->
<g id="node5" class="node"><title>Node3</title>
<a xlink:href="a00001.html#a04aa495573c880043c46c3bfc669bbe3" target="_top" xlink:title="creates the main table header">
<polygon fill="white" stroke="black" points="101.5,-80.5 101.5,-101.5 196.5,-101.5 196.5,-80.5 101.5,-80.5"/>
<text text-anchor="middle" x="149" y="-88.5" font-family="Helvetica,sans-Serif" font-size="10.00">makeTableHeader</text>
</a>
</g>
<!-- Node1&#45;&gt;Node3 -->
<g id="edge4" class="edge"><title>Node1&#45;&gt;Node3</title>
<path fill="none" stroke="midnightblue" d="M62.0031,-76.2548C71.0166,-77.7825 81.1649,-79.5025 91.2639,-81.2142"/>
<polygon fill="midnightblue" stroke="midnightblue" points="90.8582,-84.6953 101.303,-82.9157 92.028,-77.7937 90.8582,-84.6953"/>
</g>
<!-- Node7 -->
<g id="node13" class="node"><title>Node7</title>
<a xlink:href="a00001.html#a0cff4870612d64738cd84a47dbb36b1d" target="_top" xlink:title="creates the table row header">
<polygon fill="white" stroke="black" points="107.5,-40.5 107.5,-61.5 190.5,-61.5 190.5,-40.5 107.5,-40.5"/>
<text text-anchor="middle" x="149" y="-48.5" font-family="Helvetica,sans-Serif" font-size="10.00">makeTDHeader</text>
</a>
</g>
<!-- Node1&#45;&gt;Node7 -->
<g id="edge12" class="edge"><title>Node1&#45;&gt;Node7</title>
<path fill="none" stroke="midnightblue" d="M62.0031,-65.7452C72.7792,-63.9188 85.1773,-61.8174 97.1739,-59.7841"/>
<polygon fill="midnightblue" stroke="midnightblue" points="97.8376,-63.2216 107.112,-58.0996 96.6678,-56.32 97.8376,-63.2216"/>
</g>
<!-- Node8 -->
<g id="node15" class="node"><title>Node8</title>
<a xlink:href="a00001.html#adbad9cee60e948aa3802a45be355a1f3" target="_top" xlink:title="renders table of 2 cells in 1 row [type][value]">
<polygon fill="white" stroke="black" points="98.5,-0.5 98.5,-21.5 199.5,-21.5 199.5,-0.5 98.5,-0.5"/>
<text text-anchor="middle" x="149" y="-8.5" font-family="Helvetica,sans-Serif" font-size="10.00">renderPrimitiveType</text>
</a>
</g>
<!-- Node1&#45;&gt;Node8 -->
<g id="edge14" class="edge"><title>Node1&#45;&gt;Node8</title>
<path fill="none" stroke="midnightblue" d="M47.1007,-60.3633C60.418,-51.8184 79.9985,-39.8287 98,-31 101.999,-29.0389 106.241,-27.126 110.504,-25.3094"/>
<polygon fill="midnightblue" stroke="midnightblue" points="111.858,-28.537 119.783,-21.5048 109.202,-22.0603 111.858,-28.537"/>
</g>
<!-- Node4 -->
<g id="node7" class="node"><title>Node4</title>
<a xlink:href="a00001.html#a742973a203c412611192053dc0cd48af" target="_top" xlink:title="initializeHeader">
<polygon fill="white" stroke="black" points="243.5,-20.5 243.5,-41.5 326.5,-41.5 326.5,-20.5 243.5,-20.5"/>
<text text-anchor="middle" x="285" y="-28.5" font-family="Helvetica,sans-Serif" font-size="10.00">initializeHeader</text>
</a>
</g>
<!-- Node3&#45;&gt;Node4 -->
<g id="edge6" class="edge"><title>Node3&#45;&gt;Node4</title>
<path fill="none" stroke="midnightblue" d="M176.928,-80.4319C184.459,-77.4779 192.576,-74.1985 200,-71 218.11,-63.198 238.073,-53.8433 254.1,-46.1429"/>
<polygon fill="midnightblue" stroke="midnightblue" points="256.038,-49.0936 263.519,-41.5907 252.992,-42.7912 256.038,-49.0936"/>
</g>
<!-- Node6 -->
<g id="node11" class="node"><title>Node6</title>
<a xlink:href="a00001.html#a3396d3c6336b500d49e3a1a0288dc035" target="_top" xlink:title="draws the main table header">
<polygon fill="white" stroke="black" points="236,-80.5 236,-101.5 334,-101.5 334,-80.5 236,-80.5"/>
<text text-anchor="middle" x="285" y="-88.5" font-family="Helvetica,sans-Serif" font-size="10.00">renderTableHeader</text>
</a>
</g>
<!-- Node3&#45;&gt;Node6 -->
<g id="edge10" class="edge"><title>Node3&#45;&gt;Node6</title>
<path fill="none" stroke="midnightblue" d="M196.566,-91C206.003,-91 216.019,-91 225.789,-91"/>
<polygon fill="midnightblue" stroke="midnightblue" points="225.847,-94.5001 235.847,-91 225.847,-87.5001 225.847,-94.5001"/>
</g>
<!-- Node5 -->
<g id="node9" class="node"><title>Node5</title>
<a xlink:href="a00001.html#a20af85a4f4041ed681b095e1427b2a1d" target="_top" xlink:title="getVariableName">
<polygon fill="white" stroke="black" points="370.5,-20.5 370.5,-41.5 461.5,-41.5 461.5,-20.5 370.5,-20.5"/>
<text text-anchor="middle" x="416" y="-28.5" font-family="Helvetica,sans-Serif" font-size="10.00">getVariableName</text>
</a>
</g>
<!-- Node4&#45;&gt;Node5 -->
<g id="edge8" class="edge"><title>Node4&#45;&gt;Node5</title>
<path fill="none" stroke="midnightblue" d="M326.809,-31C337.358,-31 348.854,-31 359.977,-31"/>
<polygon fill="midnightblue" stroke="midnightblue" points="360.05,-34.5001 370.05,-31 360.05,-27.5001 360.05,-34.5001"/>
</g>
<!-- Node8&#45;&gt;Node4 -->
<g id="edge16" class="edge"><title>Node8&#45;&gt;Node4</title>
<path fill="none" stroke="midnightblue" d="M199.641,-18.4473C210.627,-20.0628 222.261,-21.7737 233.288,-23.3953"/>
<polygon fill="midnightblue" stroke="midnightblue" points="232.805,-26.8618 243.208,-24.854 233.823,-19.9363 232.805,-26.8618"/>
</g>
</g>
</svg>
