<?xml version="1.0" encoding="UTF-8" standalone="no"?>
<!DOCTYPE svg PUBLIC "-//W3C//DTD SVG 1.1//EN"
 "http://www.w3.org/Graphics/SVG/1.1/DTD/svg11.dtd">
<!-- Generated by graphviz version 2.26.3 (20100126.1600)
 -->
<!-- Title: varIsResource Pages: 1 -->
<!--zoomable 770 -->
<svg id="main" version="1.1" xmlns="http://www.w3.org/2000/svg" xmlns:xlink="http://www.w3.org/1999/xlink" xml:space="preserve" onload="init(evt)">
        <defs>
                <circle id="rim" cx="0" cy="0" r="7"/>
                <circle id="rim2" cx="0" cy="0" r="3.5"/>
                <g id="zoomPlus">
                        <use xlink:href="#rim" fill="#404040">
                                <set attributeName="fill" to="#808080" begin="zoomplus.mouseover" end="zoomplus.mouseout"/>
                        </use>
                        <path d="M-4,0h8M0,-4v8" fill="none" stroke="white" stroke-width="1.5" pointer-events="none"/>
                </g>
                <g id="zoomMin">
                        <use xlink:href="#rim" fill="#404040">
                                <set attributeName="fill" to="#808080" begin="zoomminus.mouseover" end="zoomminus.mouseout"/>
                        </use>
                        <path d="M-4,0h8" fill="none" stroke="white" stroke-width="1.5" pointer-events="none"/>
                </g>
                <g id="dirArrow">
                        <path fill="none" stroke="white" stroke-width="1.5" d="M0,-3.0v7 M-2.5,-0.5L0,-3.0L2.5,-0.5"/>
                </g>
               <g id="resetDef">
                       <use xlink:href="#rim2" fill="#404040">
                               <set attributeName="fill" to="#808080" begin="reset.mouseover" end="reset.mouseout"/>
                       </use>
               </g>
        </defs>

<script type="text/javascript">
var viewWidth = 1258;
var viewHeight = 770;
var sectionId = 'dynsection-36';
</script>
<script xlink:href="svgpan.js"/>
<svg id="graph" class="graph">
<g id="viewport">
<title>varIsResource</title>
<polygon fill="white" stroke="white" points="-4,5 -4,-765.824 1255,-765.824 1255,5 -4,5"/>
<!-- Node1 -->
<g id="node1" class="node"><title>Node1</title>
<polygon fill="#bfbfbf" stroke="black" points="0.5,-424.5 0.5,-445.5 77.5,-445.5 77.5,-424.5 0.5,-424.5"/>
<text text-anchor="middle" x="39" y="-432.5" font-family="Helvetica,sans-Serif" font-size="10.00">varIsResource</text>
</g>
<!-- Node2 -->
<g id="node3" class="node"><title>Node2</title>
<a xlink:href="a00001.html#aaa2a0a3c482abd677b2bc2fa137e6c91" target="_top" xlink:title="closes table row">
<polygon fill="white" stroke="black" points="769.5,-229.5 769.5,-250.5 840.5,-250.5 840.5,-229.5 769.5,-229.5"/>
<text text-anchor="middle" x="805" y="-237.5" font-family="Helvetica,sans-Serif" font-size="10.00">closeTDRow</text>
</a>
</g>
<!-- Node1&#45;&gt;Node2 -->
<g id="edge2" class="edge"><title>Node1&#45;&gt;Node2</title>
<path fill="none" stroke="midnightblue" d="M41.0064,-424.301C53.3379,-362.121 124.667,-50 314,-50 314,-50 314,-50 432,-50 565.124,-50 606.699,-65.9661 718,-139 750.992,-160.649 778.63,-198.265 793.411,-220.974"/>
<polygon fill="midnightblue" stroke="midnightblue" points="790.46,-222.857 798.768,-229.431 796.373,-219.111 790.46,-222.857"/>
</g>
<!-- Node3 -->
<g id="node5" class="node"><title>Node3</title>
<a xlink:href="a00001.html#a04aa495573c880043c46c3bfc669bbe3" target="_top" xlink:title="creates the main table header">
<polygon fill="white" stroke="black" points="892.5,-511.5 892.5,-532.5 987.5,-532.5 987.5,-511.5 892.5,-511.5"/>
<text text-anchor="middle" x="940" y="-519.5" font-family="Helvetica,sans-Serif" font-size="10.00">makeTableHeader</text>
</a>
</g>
<!-- Node1&#45;&gt;Node3 -->
<g id="edge4" class="edge"><title>Node1&#45;&gt;Node3</title>
<path fill="none" stroke="midnightblue" d="M41.5282,-445.526C48.8682,-474.512 72.3463,-557.053 114,-613 179.722,-701.275 203.946,-759 314,-759 314,-759 314,-759 678,-759 758.626,-759 793.584,-775.037 856,-724 913.368,-677.091 932.083,-584.348 937.741,-542.885"/>
<polygon fill="midnightblue" stroke="midnightblue" points="941.228,-543.204 938.987,-532.848 934.281,-542.341 941.228,-543.204"/>
</g>
<!-- Node7 -->
<g id="node13" class="node"><title>Node7</title>
<a xlink:href="a00001.html#aaa52412f9f4f725e15aafa3fcd678b1d" target="_top" xlink:title="shows information about curl easy handles">
<polygon fill="white" stroke="black" points="114.5,-383.5 114.5,-404.5 231.5,-404.5 231.5,-383.5 114.5,-383.5"/>
<text text-anchor="middle" x="173" y="-391.5" font-family="Helvetica,sans-Serif" font-size="10.00">varIsCurlEasyResource</text>
</a>
</g>
<!-- Node1&#45;&gt;Node7 -->
<g id="edge12" class="edge"><title>Node1&#45;&gt;Node7</title>
<path fill="none" stroke="midnightblue" d="M73.5083,-424.441C90.389,-419.277 110.9,-413.001 128.904,-407.492"/>
<polygon fill="midnightblue" stroke="midnightblue" points="130.07,-410.795 138.609,-404.523 128.022,-404.102 130.07,-410.795"/>
</g>
<!-- Node21 -->
<g id="node64" class="node"><title>Node21</title>
<a xlink:href="a00001.html#a14955ad355cef1e5d7898fb57023c999" target="_top" xlink:title="renders database resource (fetch result) into table or ... smth else">
<polygon fill="white" stroke="black" points="268.5,-709.5 268.5,-730.5 359.5,-730.5 359.5,-709.5 268.5,-709.5"/>
<text text-anchor="middle" x="314" y="-717.5" font-family="Helvetica,sans-Serif" font-size="10.00">varIsDBResource</text>
</a>
</g>
<!-- Node1&#45;&gt;Node21 -->
<g id="edge86" class="edge"><title>Node1&#45;&gt;Node21</title>
<path fill="none" stroke="midnightblue" d="M46.22,-445.597C72.3668,-483.386 165.955,-613.611 268,-695 272.157,-698.316 276.816,-701.421 281.531,-704.24"/>
<polygon fill="midnightblue" stroke="midnightblue" points="280.113,-707.457 290.549,-709.286 283.531,-701.349 280.113,-707.457"/>
</g>
<!-- Node22 -->
<g id="node67" class="node"><title>Node22</title>
<a xlink:href="a00001.html#a642e715a1977cf46d40d840b5112465d" target="_top" xlink:title="if variable is an image/gd resource type">
<polygon fill="white" stroke="black" points="127,-424.5 127,-445.5 219,-445.5 219,-424.5 127,-424.5"/>
<text text-anchor="middle" x="173" y="-432.5" font-family="Helvetica,sans-Serif" font-size="10.00">varIsGDResource</text>
</a>
</g>
<!-- Node1&#45;&gt;Node22 -->
<g id="edge90" class="edge"><title>Node1&#45;&gt;Node22</title>
<path fill="none" stroke="midnightblue" d="M77.7584,-435C89.8346,-435 103.409,-435 116.443,-435"/>
<polygon fill="midnightblue" stroke="midnightblue" points="116.741,-438.5 126.741,-435 116.741,-431.5 116.741,-438.5"/>
</g>
<!-- Node23 -->
<g id="node73" class="node"><title>Node23</title>
<a xlink:href="a00001.html#a7538f8f3d434a3152a400f7478ae6454" target="_top" xlink:title="if variable is an xml resource type">
<polygon fill="white" stroke="black" points="126.5,-0.5 126.5,-21.5 219.5,-21.5 219.5,-0.5 126.5,-0.5"/>
<text text-anchor="middle" x="173" y="-8.5" font-family="Helvetica,sans-Serif" font-size="10.00">varIsXmlResource</text>
</a>
</g>
<!-- Node1&#45;&gt;Node23 -->
<g id="edge100" class="edge"><title>Node1&#45;&gt;Node23</title>
<path fill="none" stroke="midnightblue" d="M39.6621,-424.348C43.3974,-367.357 63.4961,-98.7224 114,-36 116.904,-32.3932 120.424,-29.2984 124.282,-26.6444"/>
<polygon fill="midnightblue" stroke="midnightblue" points="126.256,-29.5462 133.161,-21.5109 122.752,-23.4861 126.256,-29.5462"/>
</g>
<!-- Node4 -->
<g id="node7" class="node"><title>Node4</title>
<a xlink:href="a00001.html#a742973a203c412611192053dc0cd48af" target="_top" xlink:title="initializeHeader">
<polygon fill="white" stroke="black" points="1031.5,-561.5 1031.5,-582.5 1114.5,-582.5 1114.5,-561.5 1031.5,-561.5"/>
<text text-anchor="middle" x="1073" y="-569.5" font-family="Helvetica,sans-Serif" font-size="10.00">initializeHeader</text>
</a>
</g>
<!-- Node3&#45;&gt;Node4 -->
<g id="edge6" class="edge"><title>Node3&#45;&gt;Node4</title>
<path fill="none" stroke="midnightblue" d="M968.206,-532.604C987.779,-539.962 1014.07,-549.844 1035.41,-557.87"/>
<polygon fill="midnightblue" stroke="midnightblue" points="1034.24,-561.169 1044.83,-561.412 1036.71,-554.616 1034.24,-561.169"/>
</g>
<!-- Node6 -->
<g id="node11" class="node"><title>Node6</title>
<a xlink:href="a00001.html#a3396d3c6336b500d49e3a1a0288dc035" target="_top" xlink:title="draws the main table header">
<polygon fill="white" stroke="black" points="1024,-511.5 1024,-532.5 1122,-532.5 1122,-511.5 1024,-511.5"/>
<text text-anchor="middle" x="1073" y="-519.5" font-family="Helvetica,sans-Serif" font-size="10.00">renderTableHeader</text>
</a>
</g>
<!-- Node3&#45;&gt;Node6 -->
<g id="edge10" class="edge"><title>Node3&#45;&gt;Node6</title>
<path fill="none" stroke="midnightblue" d="M987.64,-522C996.105,-522 1005.01,-522 1013.75,-522"/>
<polygon fill="midnightblue" stroke="midnightblue" points="1013.9,-525.5 1023.9,-522 1013.9,-518.5 1013.9,-525.5"/>
</g>
<!-- Node5 -->
<g id="node9" class="node"><title>Node5</title>
<a xlink:href="a00001.html#a20af85a4f4041ed681b095e1427b2a1d" target="_top" xlink:title="getVariableName">
<polygon fill="white" stroke="black" points="1158.5,-561.5 1158.5,-582.5 1249.5,-582.5 1249.5,-561.5 1158.5,-561.5"/>
<text text-anchor="middle" x="1204" y="-569.5" font-family="Helvetica,sans-Serif" font-size="10.00">getVariableName</text>
</a>
</g>
<!-- Node4&#45;&gt;Node5 -->
<g id="edge8" class="edge"><title>Node4&#45;&gt;Node5</title>
<path fill="none" stroke="midnightblue" d="M1114.81,-572C1125.36,-572 1136.85,-572 1147.98,-572"/>
<polygon fill="midnightblue" stroke="midnightblue" points="1148.05,-575.5 1158.05,-572 1148.05,-568.5 1148.05,-575.5"/>
</g>
<!-- Node7&#45;&gt;Node2 -->
<g id="edge80" class="edge"><title>Node7&#45;&gt;Node2</title>
<path fill="none" stroke="midnightblue" d="M174.946,-383.357C181.615,-349.819 206.625,-245.185 268,-188 325.012,-134.88 354.076,-126 432,-126 432,-126 432,-126 553,-126 646.246,-126 743.028,-191.595 784.328,-223.271"/>
<polygon fill="midnightblue" stroke="midnightblue" points="782.243,-226.083 792.278,-229.479 786.551,-220.566 782.243,-226.083"/>
</g>
<!-- Node7&#45;&gt;Node3 -->
<g id="edge82" class="edge"><title>Node7&#45;&gt;Node3</title>
<path fill="none" stroke="midnightblue" d="M175.23,-383.263C184.902,-337.786 224.69,-161.873 268,-129 386.395,-39.1367 454.334,-95.0414 602,-112 717.988,-125.321 775.195,-94.7317 856,-179 901.427,-226.374 929.626,-434.442 937.638,-501.262"/>
<polygon fill="midnightblue" stroke="midnightblue" points="934.184,-501.858 938.825,-511.382 941.136,-501.042 934.184,-501.858"/>
</g>
<!-- Node8 -->
<g id="node15" class="node"><title>Node8</title>
<a xlink:href="a00001.html#aaecea663190c6ce2edd146c3133f257d" target="_top" xlink:title="check variable type andd process the value in right way">
<polygon fill="white" stroke="black" points="282,-467.5 282,-488.5 346,-488.5 346,-467.5 282,-467.5"/>
<text text-anchor="middle" x="314" y="-475.5" font-family="Helvetica,sans-Serif" font-size="10.00">checkType</text>
</a>
</g>
<!-- Node7&#45;&gt;Node8 -->
<g id="edge14" class="edge"><title>Node7&#45;&gt;Node8</title>
<path fill="none" stroke="midnightblue" d="M208.413,-404.572C216.38,-407.502 224.647,-410.997 232,-415 255.363,-427.719 279.152,-446.82 295.046,-460.654"/>
<polygon fill="midnightblue" stroke="midnightblue" points="292.79,-463.331 302.595,-467.347 297.434,-458.094 292.79,-463.331"/>
</g>
<!-- Node10 -->
<g id="node22" class="node"><title>Node10</title>
<a xlink:href="a00001.html#a0cff4870612d64738cd84a47dbb36b1d" target="_top" xlink:title="creates the table row header">
<polygon fill="white" stroke="black" points="763.5,-404.5 763.5,-425.5 846.5,-425.5 846.5,-404.5 763.5,-404.5"/>
<text text-anchor="middle" x="805" y="-412.5" font-family="Helvetica,sans-Serif" font-size="10.00">makeTDHeader</text>
</a>
</g>
<!-- Node7&#45;&gt;Node10 -->
<g id="edge84" class="edge"><title>Node7&#45;&gt;Node10</title>
<path fill="none" stroke="midnightblue" d="M231.607,-395.947C354.285,-400.024 636.396,-409.398 753.051,-413.274"/>
<polygon fill="midnightblue" stroke="midnightblue" points="753.041,-416.775 763.152,-413.609 753.274,-409.779 753.041,-416.775"/>
</g>
<!-- Node8&#45;&gt;Node1 -->
<g id="edge68" class="edge"><title>Node8&#45;&gt;Node1</title>
<path fill="none" stroke="midnightblue" d="M281.915,-475.762C242.229,-472.662 172.718,-466.144 114,-455 104.272,-453.154 93.9498,-450.72 84.1759,-448.188"/>
<polygon fill="midnightblue" stroke="midnightblue" points="84.8012,-444.732 74.2368,-445.534 82.9953,-451.495 84.8012,-444.732"/>
</g>
<!-- Node9 -->
<g id="node17" class="node"><title>Node9</title>
<a xlink:href="a00001.html#a86ff35452ee612d9e9e9b147e5544acc" target="_top" xlink:title="varIsArray">
<polygon fill="white" stroke="black" points="648.5,-468.5 648.5,-489.5 707.5,-489.5 707.5,-468.5 648.5,-468.5"/>
<text text-anchor="middle" x="678" y="-476.5" font-family="Helvetica,sans-Serif" font-size="10.00">varIsArray</text>
</a>
</g>
<!-- Node8&#45;&gt;Node9 -->
<g id="edge16" class="edge"><title>Node8&#45;&gt;Node9</title>
<path fill="none" stroke="midnightblue" d="M346.303,-474.042C412.969,-470.745 565.616,-471.045 638.221,-474.483"/>
<polygon fill="midnightblue" stroke="midnightblue" points="638.163,-477.985 648.333,-475.013 638.53,-470.995 638.163,-477.985"/>
</g>
<!-- Node11 -->
<g id="node24" class="node"><title>Node11</title>
<a xlink:href="a00001.html#a5ebd24b62872515b28e27182857bfe7f" target="_top" xlink:title="renders boolean variable">
<polygon fill="white" stroke="black" points="517.5,-632.5 517.5,-653.5 588.5,-653.5 588.5,-632.5 517.5,-632.5"/>
<text text-anchor="middle" x="553" y="-640.5" font-family="Helvetica,sans-Serif" font-size="10.00">varIsBoolean</text>
</a>
</g>
<!-- Node8&#45;&gt;Node11 -->
<g id="edge26" class="edge"><title>Node8&#45;&gt;Node11</title>
<path fill="none" stroke="midnightblue" d="M316.43,-488.811C323.338,-516.769 345.913,-591.605 396,-625 428.685,-646.793 473.924,-649.838 507.448,-648.29"/>
<polygon fill="midnightblue" stroke="midnightblue" points="507.681,-651.783 517.448,-647.678 507.253,-644.796 507.681,-651.783"/>
</g>
<!-- Node13 -->
<g id="node29" class="node"><title>Node13</title>
<a xlink:href="a00001.html#acd3532d31c3c50577b2abd56624b3757" target="_top" xlink:title="renders NULL as red&#45;pink rectangle">
<polygon fill="white" stroke="black" points="402,-554.5 402,-575.5 462,-575.5 462,-554.5 402,-554.5"/>
<text text-anchor="middle" x="432" y="-562.5" font-family="Helvetica,sans-Serif" font-size="10.00">varIsNULL</text>
</a>
</g>
<!-- Node8&#45;&gt;Node13 -->
<g id="edge32" class="edge"><title>Node8&#45;&gt;Node13</title>
<path fill="none" stroke="midnightblue" d="M327.801,-488.704C343.995,-501.201 371.723,-522.403 396,-540 399.847,-542.788 403.959,-545.704 407.977,-548.518"/>
<polygon fill="midnightblue" stroke="midnightblue" points="406.278,-551.599 416.487,-554.43 410.272,-545.85 406.278,-551.599"/>
</g>
<!-- Node14 -->
<g id="node32" class="node"><title>Node14</title>
<a xlink:href="a00001.html#a44eb38e42426f01840a0d12fe6a6a05f" target="_top" xlink:title="renders numeric types : integers and doubles">
<polygon fill="white" stroke="black" points="396,-594.5 396,-615.5 468,-615.5 468,-594.5 396,-594.5"/>
<text text-anchor="middle" x="432" y="-602.5" font-family="Helvetica,sans-Serif" font-size="10.00">varIsNumeric</text>
</a>
</g>
<!-- Node8&#45;&gt;Node14 -->
<g id="edge36" class="edge"><title>Node8&#45;&gt;Node14</title>
<path fill="none" stroke="midnightblue" d="M320.051,-488.568C332.26,-509.183 361.627,-555.335 396,-585 397.502,-586.296 399.101,-587.547 400.759,-588.746"/>
<polygon fill="midnightblue" stroke="midnightblue" points="399.057,-591.812 409.359,-594.289 402.85,-585.929 399.057,-591.812"/>
</g>
<!-- Node15 -->
<g id="node35" class="node"><title>Node15</title>
<a xlink:href="a00001.html#a443a941157b2ed03d6a24ae70ece785d" target="_top" xlink:title="checks wheither variable is object of special type (using varIs*Object), and renders it if it is gene...">
<polygon fill="white" stroke="black" points="399.5,-268.5 399.5,-289.5 464.5,-289.5 464.5,-268.5 399.5,-268.5"/>
<text text-anchor="middle" x="432" y="-276.5" font-family="Helvetica,sans-Serif" font-size="10.00">varIsObject</text>
</a>
</g>
<!-- Node8&#45;&gt;Node15 -->
<g id="edge40" class="edge"><title>Node8&#45;&gt;Node15</title>
<path fill="none" stroke="midnightblue" d="M315.871,-467.449C322.523,-438.194 346.968,-357.662 394.602,-297.629"/>
<polygon fill="midnightblue" stroke="midnightblue" points="397.5,-299.616 401.159,-289.673 392.098,-295.164 397.5,-299.616"/>
</g>
<!-- Node20 -->
<g id="node55" class="node"><title>Node20</title>
<a xlink:href="a00001.html#a1dce801bff273c92008ec238b5480928" target="_top" xlink:title="renders string either as primitive type (if it is short (less than $embeddedStringMaxLength chars) an...">
<polygon fill="white" stroke="black" points="647,-511.5 647,-532.5 709,-532.5 709,-511.5 647,-511.5"/>
<text text-anchor="middle" x="678" y="-519.5" font-family="Helvetica,sans-Serif" font-size="10.00">varIsString</text>
</a>
</g>
<!-- Node8&#45;&gt;Node20 -->
<g id="edge70" class="edge"><title>Node8&#45;&gt;Node20</title>
<path fill="none" stroke="midnightblue" d="M345.984,-488.569C361.005,-493.118 379.253,-498.058 396,-501 480.719,-515.883 581.566,-520.23 636.781,-521.492"/>
<polygon fill="midnightblue" stroke="midnightblue" points="636.802,-524.993 646.872,-521.7 636.946,-517.995 636.802,-524.993"/>
</g>
<!-- Node9&#45;&gt;Node2 -->
<g id="edge20" class="edge"><title>Node9&#45;&gt;Node2</title>
<path fill="none" stroke="midnightblue" d="M680.997,-468.489C691.702,-431.426 728.761,-307.32 754,-275 759.701,-267.7 767.349,-261.346 774.986,-256.129"/>
<polygon fill="midnightblue" stroke="midnightblue" points="777.246,-258.841 783.828,-250.539 773.505,-252.925 777.246,-258.841"/>
</g>
<!-- Node9&#45;&gt;Node3 -->
<g id="edge22" class="edge"><title>Node9&#45;&gt;Node3</title>
<path fill="none" stroke="midnightblue" d="M707.545,-483.849C749.789,-490.782 828.299,-503.667 882.301,-512.53"/>
<polygon fill="midnightblue" stroke="midnightblue" points="881.986,-516.025 892.421,-514.191 883.12,-509.118 881.986,-516.025"/>
</g>
<!-- Node9&#45;&gt;Node8 -->
<g id="edge18" class="edge"><title>Node9&#45;&gt;Node8</title>
<path fill="none" stroke="midnightblue" d="M648.333,-482.824C584.003,-486.217 431.465,-486.008 356.743,-482.653"/>
<polygon fill="midnightblue" stroke="midnightblue" points="356.464,-479.135 346.303,-482.136 356.117,-486.127 356.464,-479.135"/>
</g>
<!-- Node9&#45;&gt;Node10 -->
<g id="edge24" class="edge"><title>Node9&#45;&gt;Node10</title>
<path fill="none" stroke="midnightblue" d="M698.971,-468.432C719.653,-458.009 751.474,-441.974 774.862,-430.188"/>
<polygon fill="midnightblue" stroke="midnightblue" points="776.642,-433.21 783.997,-425.584 773.492,-426.959 776.642,-433.21"/>
</g>
<!-- Node12 -->
<g id="node26" class="node"><title>Node12</title>
<a xlink:href="a00001.html#adbad9cee60e948aa3802a45be355a1f3" target="_top" xlink:title="renders table of 2 cells in 1 row [type][value]">
<polygon fill="white" stroke="black" points="754.5,-592.5 754.5,-613.5 855.5,-613.5 855.5,-592.5 754.5,-592.5"/>
<text text-anchor="middle" x="805" y="-600.5" font-family="Helvetica,sans-Serif" font-size="10.00">renderPrimitiveType</text>
</a>
</g>
<!-- Node11&#45;&gt;Node12 -->
<g id="edge28" class="edge"><title>Node11&#45;&gt;Node12</title>
<path fill="none" stroke="midnightblue" d="M588.732,-637.404C622.156,-632.161 673.467,-624.092 718,-617 726.562,-615.637 735.597,-614.191 744.475,-612.766"/>
<polygon fill="midnightblue" stroke="midnightblue" points="745.082,-616.213 754.4,-611.171 743.971,-609.302 745.082,-616.213"/>
</g>
<!-- Node12&#45;&gt;Node4 -->
<g id="edge30" class="edge"><title>Node12&#45;&gt;Node4</title>
<path fill="none" stroke="midnightblue" d="M855.724,-597.133C903.085,-591.654 973.441,-583.516 1021.16,-577.997"/>
<polygon fill="midnightblue" stroke="midnightblue" points="1021.75,-581.452 1031.28,-576.826 1020.94,-574.498 1021.75,-581.452"/>
</g>
<!-- Node13&#45;&gt;Node3 -->
<g id="edge34" class="edge"><title>Node13&#45;&gt;Node3</title>
<path fill="none" stroke="midnightblue" d="M462.166,-563.941C531.767,-561.279 708.888,-553.249 856,-536 864.443,-535.01 873.331,-533.758 882.039,-532.413"/>
<polygon fill="midnightblue" stroke="midnightblue" points="882.816,-535.833 892.139,-530.8 881.713,-528.921 882.816,-535.833"/>
</g>
<!-- Node14&#45;&gt;Node12 -->
<g id="edge38" class="edge"><title>Node14&#45;&gt;Node12</title>
<path fill="none" stroke="midnightblue" d="M468.104,-604.806C532.057,-604.464 665.872,-603.746 744.241,-603.326"/>
<polygon fill="midnightblue" stroke="midnightblue" points="744.469,-606.825 754.45,-603.271 744.432,-599.825 744.469,-606.825"/>
</g>
<!-- Node15&#45;&gt;Node2 -->
<g id="edge44" class="edge"><title>Node15&#45;&gt;Node2</title>
<path fill="none" stroke="midnightblue" d="M464.293,-268.488C476.594,-264.893 490.823,-261.221 504,-259 593.379,-243.934 699.513,-240.556 758.874,-239.947"/>
<polygon fill="midnightblue" stroke="midnightblue" points="759.075,-243.446 769.047,-239.866 759.019,-236.446 759.075,-243.446"/>
</g>
<!-- Node15&#45;&gt;Node3 -->
<g id="edge46" class="edge"><title>Node15&#45;&gt;Node3</title>
<path fill="none" stroke="midnightblue" d="M450.018,-268.267C513.213,-232.158 727.883,-122.655 856,-220 901.892,-254.869 929.348,-438.787 937.458,-501.233"/>
<polygon fill="midnightblue" stroke="midnightblue" points="934.019,-501.935 938.748,-511.417 940.964,-501.056 934.019,-501.935"/>
</g>
<!-- Node15&#45;&gt;Node8 -->
<g id="edge42" class="edge"><title>Node15&#45;&gt;Node8</title>
<path fill="none" stroke="midnightblue" d="M424.223,-289.549C416.263,-296.077 403.961,-303.589 396,-313 357.662,-358.323 333.029,-424.6 321.553,-457.864"/>
<polygon fill="midnightblue" stroke="midnightblue" points="318.204,-456.841 318.289,-467.436 324.829,-459.101 318.204,-456.841"/>
</g>
<!-- Node15&#45;&gt;Node10 -->
<g id="edge48" class="edge"><title>Node15&#45;&gt;Node10</title>
<path fill="none" stroke="midnightblue" d="M461.704,-289.512C513.731,-307.965 624.692,-347.505 718,-382 734.407,-388.065 752.499,-394.904 767.916,-400.776"/>
<polygon fill="midnightblue" stroke="midnightblue" points="767.025,-404.182 777.616,-404.478 769.521,-397.642 767.025,-404.182"/>
</g>
<!-- Node16 -->
<g id="node41" class="node"><title>Node16</title>
<a xlink:href="a00001.html#a783baa8ff544bb8278ac32bce66be5c4" target="_top" xlink:title="varIsSpecialObject">
<polygon fill="white" stroke="black" points="504.5,-268.5 504.5,-289.5 601.5,-289.5 601.5,-268.5 504.5,-268.5"/>
<text text-anchor="middle" x="553" y="-276.5" font-family="Helvetica,sans-Serif" font-size="10.00">varIsSpecialObject</text>
</a>
</g>
<!-- Node15&#45;&gt;Node16 -->
<g id="edge50" class="edge"><title>Node15&#45;&gt;Node16</title>
<path fill="none" stroke="midnightblue" d="M464.744,-279C473.878,-279 484.089,-279 494.235,-279"/>
<polygon fill="midnightblue" stroke="midnightblue" points="494.317,-282.5 504.317,-279 494.317,-275.5 494.317,-282.5"/>
</g>
<!-- Node17 -->
<g id="node43" class="node"><title>Node17</title>
<a xlink:href="a00001.html#aff5b4a4ce77391ef5bc5f2637ac683b1" target="_top" xlink:title="renders either PDO or SQLite3 statement objects">
<polygon fill="white" stroke="black" points="639,-268.5 639,-289.5 717,-289.5 717,-268.5 639,-268.5"/>
<text text-anchor="middle" x="678" y="-276.5" font-family="Helvetica,sans-Serif" font-size="10.00">varIsDBObject</text>
</a>
</g>
<!-- Node16&#45;&gt;Node17 -->
<g id="edge52" class="edge"><title>Node16&#45;&gt;Node17</title>
<path fill="none" stroke="midnightblue" d="M601.686,-279C610.555,-279 619.814,-279 628.701,-279"/>
<polygon fill="midnightblue" stroke="midnightblue" points="628.915,-282.5 638.915,-279 628.915,-275.5 628.915,-282.5"/>
</g>
<!-- Node19 -->
<g id="node48" class="node"><title>Node19</title>
<a xlink:href="a00001.html#a91a251e46645521ab0c05a9b787624f6" target="_top" xlink:title="function used to render exceptions">
<polygon fill="white" stroke="black" points="638,-308.5 638,-329.5 718,-329.5 718,-308.5 638,-308.5"/>
<text text-anchor="middle" x="678" y="-316.5" font-family="Helvetica,sans-Serif" font-size="10.00">varIsException</text>
</a>
</g>
<!-- Node16&#45;&gt;Node19 -->
<g id="edge58" class="edge"><title>Node16&#45;&gt;Node19</title>
<path fill="none" stroke="midnightblue" d="M585.842,-289.51C600.938,-294.34 619.038,-300.132 635.185,-305.299"/>
<polygon fill="midnightblue" stroke="midnightblue" points="634.352,-308.707 644.943,-308.422 636.486,-302.04 634.352,-308.707"/>
</g>
<!-- Node18 -->
<g id="node45" class="node"><title>Node18</title>
<a xlink:href="a00001.html#ab4bab40a2bcac12276e3e7f2739f1761" target="_top" xlink:title="renders database data">
<polygon fill="white" stroke="black" points="766.5,-284.5 766.5,-305.5 843.5,-305.5 843.5,-284.5 766.5,-284.5"/>
<text text-anchor="middle" x="805" y="-292.5" font-family="Helvetica,sans-Serif" font-size="10.00">renderDBData</text>
</a>
</g>
<!-- Node17&#45;&gt;Node18 -->
<g id="edge54" class="edge"><title>Node17&#45;&gt;Node18</title>
<path fill="none" stroke="midnightblue" d="M717.14,-283.931C729.447,-285.482 743.193,-287.213 756.09,-288.838"/>
<polygon fill="midnightblue" stroke="midnightblue" points="755.848,-292.335 766.207,-290.113 756.723,-285.39 755.848,-292.335"/>
</g>
<!-- Node18&#45;&gt;Node3 -->
<g id="edge56" class="edge"><title>Node18&#45;&gt;Node3</title>
<path fill="none" stroke="midnightblue" d="M823.371,-305.783C834.001,-312.754 847.012,-322.634 856,-334 897.998,-387.112 923.832,-464.544 934.431,-501.236"/>
<polygon fill="midnightblue" stroke="midnightblue" points="931.166,-502.556 937.232,-511.242 937.907,-500.669 931.166,-502.556"/>
</g>
<!-- Node19&#45;&gt;Node2 -->
<g id="edge62" class="edge"><title>Node19&#45;&gt;Node2</title>
<path fill="none" stroke="midnightblue" d="M700.703,-308.3C706.428,-305.426 712.506,-302.217 718,-299 724.389,-295.259 757.633,-272.555 781.121,-256.431"/>
<polygon fill="midnightblue" stroke="midnightblue" points="783.309,-259.175 789.569,-250.627 779.345,-253.405 783.309,-259.175"/>
</g>
<!-- Node19&#45;&gt;Node3 -->
<g id="edge64" class="edge"><title>Node19&#45;&gt;Node3</title>
<path fill="none" stroke="midnightblue" d="M718.357,-328.939C756.976,-340.02 815.223,-361.002 856,-395 892.008,-425.021 918.438,-474.396 931.281,-501.902"/>
<polygon fill="midnightblue" stroke="midnightblue" points="928.217,-503.621 935.529,-511.288 934.594,-500.734 928.217,-503.621"/>
</g>
<!-- Node19&#45;&gt;Node8 -->
<g id="edge60" class="edge"><title>Node19&#45;&gt;Node8</title>
<path fill="none" stroke="midnightblue" d="M653.605,-329.656C590.259,-357.326 420.431,-431.51 347.754,-463.256"/>
<polygon fill="midnightblue" stroke="midnightblue" points="345.928,-460.234 338.165,-467.444 348.73,-466.649 345.928,-460.234"/>
</g>
<!-- Node19&#45;&gt;Node10 -->
<g id="edge66" class="edge"><title>Node19&#45;&gt;Node10</title>
<path fill="none" stroke="midnightblue" d="M696.236,-329.729C703.176,-333.985 711.076,-339.041 718,-344 741.972,-361.17 767.987,-382.835 785.263,-397.69"/>
<polygon fill="midnightblue" stroke="midnightblue" points="783.144,-400.485 792.994,-404.386 787.726,-395.194 783.144,-400.485"/>
</g>
<!-- Node20&#45;&gt;Node2 -->
<g id="edge78" class="edge"><title>Node20&#45;&gt;Node2</title>
<path fill="none" stroke="midnightblue" d="M704.388,-511.309C709.611,-508.073 714.542,-504.01 718,-499 775.28,-416.016 700.068,-360.198 754,-275 758.789,-267.435 765.868,-261.085 773.238,-255.961"/>
<polygon fill="midnightblue" stroke="midnightblue" points="775.302,-258.798 781.902,-250.51 771.574,-252.873 775.302,-258.798"/>
</g>
<!-- Node20&#45;&gt;Node3 -->
<g id="edge72" class="edge"><title>Node20&#45;&gt;Node3</title>
<path fill="none" stroke="midnightblue" d="M709.084,-522C751.616,-522 828.744,-522 882.09,-522"/>
<polygon fill="midnightblue" stroke="midnightblue" points="882.093,-525.5 892.093,-522 882.093,-518.5 882.093,-525.5"/>
</g>
<!-- Node20&#45;&gt;Node10 -->
<g id="edge76" class="edge"><title>Node20&#45;&gt;Node10</title>
<path fill="none" stroke="midnightblue" d="M698.552,-511.463C704.991,-507.829 711.982,-503.526 718,-499 744.774,-478.863 771.971,-451.195 788.662,-433.207"/>
<polygon fill="midnightblue" stroke="midnightblue" points="791.378,-435.424 795.552,-425.686 786.216,-430.695 791.378,-435.424"/>
</g>
<!-- Node20&#45;&gt;Node12 -->
<g id="edge74" class="edge"><title>Node20&#45;&gt;Node12</title>
<path fill="none" stroke="midnightblue" d="M694.603,-532.589C716.28,-546.415 754.432,-570.748 779.715,-586.873"/>
<polygon fill="midnightblue" stroke="midnightblue" points="778.08,-589.982 788.393,-592.408 781.844,-584.08 778.08,-589.982"/>
</g>
<!-- Node21&#45;&gt;Node3 -->
<g id="edge88" class="edge"><title>Node21&#45;&gt;Node3</title>
<path fill="none" stroke="midnightblue" d="M359.818,-720C407.928,-720 485.781,-720 553,-720 553,-720 553,-720 678,-720 757.827,-720 791.382,-742.87 856,-696 907.676,-658.517 928.943,-580.602 936.454,-543.086"/>
<polygon fill="midnightblue" stroke="midnightblue" points="939.974,-543.3 938.362,-532.829 933.092,-542.02 939.974,-543.3"/>
</g>
<!-- Node22&#45;&gt;Node2 -->
<g id="edge94" class="edge"><title>Node22&#45;&gt;Node2</title>
<path fill="none" stroke="midnightblue" d="M211.085,-424.439C218.327,-421.615 225.627,-418.16 232,-414 340.476,-343.204 302.466,-202 432,-202 432,-202 432,-202 553,-202 625.852,-202 709.239,-217.72 759.471,-228.939"/>
<polygon fill="midnightblue" stroke="midnightblue" points="758.839,-232.384 769.366,-231.187 760.39,-225.558 758.839,-232.384"/>
</g>
<!-- Node22&#45;&gt;Node3 -->
<g id="edge96" class="edge"><title>Node22&#45;&gt;Node3</title>
<path fill="none" stroke="midnightblue" d="M180.453,-445.637C205.93,-481.115 293.662,-596.187 396,-650 459.03,-683.143 481.788,-682 553,-682 553,-682 553,-682 678,-682 761.344,-682 787.145,-669.959 856,-623 887.984,-601.187 914.485,-563.894 928.712,-541.241"/>
<polygon fill="midnightblue" stroke="midnightblue" points="931.814,-542.875 934.038,-532.516 925.84,-539.228 931.814,-542.875"/>
</g>
<!-- Node22&#45;&gt;Node8 -->
<g id="edge92" class="edge"><title>Node22&#45;&gt;Node8</title>
<path fill="none" stroke="midnightblue" d="M207.492,-445.519C226.97,-451.459 251.461,-458.928 272.045,-465.205"/>
<polygon fill="midnightblue" stroke="midnightblue" points="271.211,-468.61 281.797,-468.179 273.253,-461.914 271.211,-468.61"/>
</g>
<!-- Node22&#45;&gt;Node10 -->
<g id="edge98" class="edge"><title>Node22&#45;&gt;Node10</title>
<path fill="none" stroke="midnightblue" d="M219.216,-433.537C334.24,-429.897 632.759,-420.451 753.345,-416.635"/>
<polygon fill="midnightblue" stroke="midnightblue" points="753.542,-420.13 763.426,-416.316 753.32,-413.134 753.542,-420.13"/>
</g>
</g>
</svg>
        <g id="navigator" transform="translate(0 0)" fill="#404254">
                <rect fill="#f2f5e9" fill-opacity="0.5" stroke="#606060" stroke-width=".5" x="0" y="0" width="60" height="60"/>
                <use id="zoomplus" xlink:href="#zoomPlus" x="17" y="9" onmousedown="handleZoom(evt,'in')"/>
                <use id="zoomminus" xlink:href="#zoomMin" x="42" y="9" onmousedown="handleZoom(evt,'out')"/>
                <use id="reset" xlink:href="#resetDef" x="30" y="36" onmousedown="handleReset()"/>
                <g id="arrowUp" xlink:href="#dirArrow" transform="translate(30 24)" onmousedown="handlePan(0,-1)">
                  <use xlink:href="#rim" fill="#404040">
                        <set attributeName="fill" to="#808080" begin="arrowUp.mouseover" end="arrowUp.mouseout"/>
                  </use>
                  <path fill="none" stroke="white" stroke-width="1.5" d="M0,-3.0v7 M-2.5,-0.5L0,-3.0L2.5,-0.5"/>
                </g>
                <g id="arrowRight" xlink:href="#dirArrow" transform="rotate(90) translate(36 -43)" onmousedown="handlePan(1,0)">
                  <use xlink:href="#rim" fill="#404040">
                        <set attributeName="fill" to="#808080" begin="arrowRight.mouseover" end="arrowRight.mouseout"/>
                  </use>
                  <path fill="none" stroke="white" stroke-width="1.5" d="M0,-3.0v7 M-2.5,-0.5L0,-3.0L2.5,-0.5"/>
                </g>
                <g id="arrowDown" xlink:href="#dirArrow" transform="rotate(180) translate(-30 -48)" onmousedown="handlePan(0,1)">
                  <use xlink:href="#rim" fill="#404040">
                        <set attributeName="fill" to="#808080" begin="arrowDown.mouseover" end="arrowDown.mouseout"/>
                  </use>
                  <path fill="none" stroke="white" stroke-width="1.5" d="M0,-3.0v7 M-2.5,-0.5L0,-3.0L2.5,-0.5"/>
                </g>
                <g id="arrowLeft" xlink:href="#dirArrow" transform="rotate(270) translate(-36 17)" onmousedown="handlePan(-1,0)">
                  <use xlink:href="#rim" fill="#404040">
                        <set attributeName="fill" to="#808080" begin="arrowLeft.mouseover" end="arrowLeft.mouseout"/>
                  </use>
                  <path fill="none" stroke="white" stroke-width="1.5" d="M0,-3.0v7 M-2.5,-0.5L0,-3.0L2.5,-0.5"/>
                </g>
        </g>
        <svg viewBox="0 0 15 15" width="100%" height="30px" preserveAspectRatio="xMaxYMin meet">
         <g id="arrow_out" transform="scale(0.3 0.3)">
          <a xlink:href="a00001_a4ab1e15fa34f8b98071b0eb36883777e_cgraph_org.svg" target="_base">
           <rect id="button" ry="5" rx="5" y="6" x="6" height="38" width="38"
                fill="#f2f5e9" fill-opacity="0.5" stroke="#606060" stroke-width="1.0"/>
           <path id="arrow"
             d="M 11.500037,31.436501 C 11.940474,20.09759 22.043105,11.32322 32.158766,21.979434 L 37.068811,17.246167 C 37.068811,17.246167 37.088388,32 37.088388,32 L 22.160133,31.978069 C 22.160133,31.978069 26.997745,27.140456 26.997745,27.140456 C 18.528582,18.264221 13.291696,25.230495 11.500037,31.436501 z"
             style="fill:#404040;"/>
          </a>
         </g>
        </svg>
</svg>
