<?xml version="1.0" encoding="UTF-8" standalone="no"?>
<!DOCTYPE svg PUBLIC "-//W3C//DTD SVG 1.1//EN"
 "http://www.w3.org/Graphics/SVG/1.1/DTD/svg11.dtd">
<!-- Generated by graphviz version 2.26.3 (20100126.1600)
 -->
<!-- Title: renderDBData Pages: 1 -->
<svg width="804pt" height="228pt"
 viewBox="0.00 0.00 804.00 228.00" xmlns="http://www.w3.org/2000/svg" xmlns:xlink="http://www.w3.org/1999/xlink">
<g id="graph1" class="graph" transform="scale(1 1) rotate(0) translate(4 224)">
<title>renderDBData</title>
<polygon fill="white" stroke="white" points="-4,5 -4,-224 801,-224 801,5 -4,5"/>
<!-- Node1 -->
<g id="node1" class="node"><title>Node1</title>
<polygon fill="#bfbfbf" stroke="black" points="0.5,-58.5 0.5,-79.5 77.5,-79.5 77.5,-58.5 0.5,-58.5"/>
<text text-anchor="middle" x="39" y="-66.5" font-family="Helvetica,sans-Serif" font-size="10.00">renderDBData</text>
</g>
<!-- Node2 -->
<g id="node3" class="node"><title>Node2</title>
<a xlink:href="a00001.html#aff5b4a4ce77391ef5bc5f2637ac683b1" target="_top" xlink:title="renders either PDO or SQLite3 statement objects">
<polygon fill="white" stroke="black" points="114,-58.5 114,-79.5 192,-79.5 192,-58.5 114,-58.5"/>
<text text-anchor="middle" x="153" y="-66.5" font-family="Helvetica,sans-Serif" font-size="10.00">varIsDBObject</text>
</a>
</g>
<!-- Node1&#45;&gt;Node2 -->
<g id="edge2" class="edge"><title>Node1&#45;&gt;Node2</title>
<path fill="none" stroke="midnightblue" d="M87.6272,-69C96.3193,-69 105.277,-69 113.668,-69"/>
<polygon fill="midnightblue" stroke="midnightblue" points="87.5952,-65.5001 77.5952,-69 87.5952,-72.5001 87.5952,-65.5001"/>
</g>
<!-- Node3 -->
<g id="node5" class="node"><title>Node3</title>
<a xlink:href="a00001.html#a783baa8ff544bb8278ac32bce66be5c4" target="_top" xlink:title="varIsSpecialObject">
<polygon fill="white" stroke="black" points="228.5,-58.5 228.5,-79.5 325.5,-79.5 325.5,-58.5 228.5,-58.5"/>
<text text-anchor="middle" x="277" y="-66.5" font-family="Helvetica,sans-Serif" font-size="10.00">varIsSpecialObject</text>
</a>
</g>
<!-- Node2&#45;&gt;Node3 -->
<g id="edge4" class="edge"><title>Node2&#45;&gt;Node3</title>
<path fill="none" stroke="midnightblue" d="M202.46,-69C211.016,-69 219.905,-69 228.437,-69"/>
<polygon fill="midnightblue" stroke="midnightblue" points="202.234,-65.5001 192.234,-69 202.234,-72.5001 202.234,-65.5001"/>
</g>
<!-- Node4 -->
<g id="node7" class="node"><title>Node4</title>
<a xlink:href="a00001.html#a443a941157b2ed03d6a24ae70ece785d" target="_top" xlink:title="checks wheither variable is object of special type (using varIs*Object), and renders it if it is gene...">
<polygon fill="white" stroke="black" points="362.5,-98.5 362.5,-119.5 427.5,-119.5 427.5,-98.5 362.5,-98.5"/>
<text text-anchor="middle" x="395" y="-106.5" font-family="Helvetica,sans-Serif" font-size="10.00">varIsObject</text>
</a>
</g>
<!-- Node3&#45;&gt;Node4 -->
<g id="edge6" class="edge"><title>Node3&#45;&gt;Node4</title>
<path fill="none" stroke="midnightblue" d="M317.632,-82.7735C332.749,-87.8978 349.652,-93.6279 363.794,-98.4218"/>
<polygon fill="midnightblue" stroke="midnightblue" points="318.597,-79.4053 308.003,-79.5095 316.35,-86.0347 318.597,-79.4053"/>
</g>
<!-- Node5 -->
<g id="node9" class="node"><title>Node5</title>
<a xlink:href="a00001.html#aaecea663190c6ce2edd146c3133f257d" target="_top" xlink:title="check variable type andd process the value in right way">
<polygon fill="white" stroke="black" points="464,-98.5 464,-119.5 528,-119.5 528,-98.5 464,-98.5"/>
<text text-anchor="middle" x="496" y="-106.5" font-family="Helvetica,sans-Serif" font-size="10.00">checkType</text>
</a>
</g>
<!-- Node4&#45;&gt;Node5 -->
<g id="edge8" class="edge"><title>Node4&#45;&gt;Node5</title>
<path fill="none" stroke="midnightblue" d="M437.624,-102.324C446.421,-102.158 455.546,-102.272 463.893,-102.665"/>
<polygon fill="midnightblue" stroke="midnightblue" points="437.396,-98.8289 427.513,-102.646 437.619,-105.825 437.396,-98.8289"/>
</g>
<!-- Node5&#45;&gt;Node4 -->
<g id="edge30" class="edge"><title>Node5&#45;&gt;Node4</title>
<path fill="none" stroke="midnightblue" d="M453.803,-115.668C445.017,-115.843 435.886,-115.738 427.513,-115.354"/>
<polygon fill="midnightblue" stroke="midnightblue" points="454.014,-119.163 463.893,-115.335 453.783,-112.167 454.014,-119.163"/>
</g>
<!-- Node6 -->
<g id="node11" class="node"><title>Node6</title>
<a xlink:href="a00001.html#a6826222eba46dd56dbd5841cdc300efa" target="_top" xlink:title="dBug">
<polygon fill="white" stroke="black" points="603.5,-198.5 603.5,-219.5 642.5,-219.5 642.5,-198.5 603.5,-198.5"/>
<text text-anchor="middle" x="623" y="-206.5" font-family="Helvetica,sans-Serif" font-size="10.00">dBug</text>
</a>
</g>
<!-- Node5&#45;&gt;Node6 -->
<g id="edge10" class="edge"><title>Node5&#45;&gt;Node6</title>
<path fill="none" stroke="midnightblue" d="M507.897,-128.24C519.974,-146.294 540.243,-172.867 564,-189 575.9,-197.081 591.36,-202.164 603.469,-205.182"/>
<polygon fill="midnightblue" stroke="midnightblue" points="510.725,-126.168 502.353,-119.676 504.849,-129.972 510.725,-126.168"/>
</g>
<!-- Node7 -->
<g id="node13" class="node"><title>Node7</title>
<a xlink:href="a00001.html#a86ff35452ee612d9e9e9b147e5544acc" target="_top" xlink:title="varIsArray">
<polygon fill="white" stroke="black" points="593.5,-158.5 593.5,-179.5 652.5,-179.5 652.5,-158.5 593.5,-158.5"/>
<text text-anchor="middle" x="623" y="-166.5" font-family="Helvetica,sans-Serif" font-size="10.00">varIsArray</text>
</a>
</g>
<!-- Node5&#45;&gt;Node7 -->
<g id="edge12" class="edge"><title>Node5&#45;&gt;Node7</title>
<path fill="none" stroke="midnightblue" d="M533.984,-124.465C543.575,-129.777 553.996,-135.421 564,-140 579.341,-147.022 597.894,-152.913 610.048,-158.48"/>
<polygon fill="midnightblue" stroke="midnightblue" points="535.524,-121.317 525.083,-119.521 532.124,-127.437 535.524,-121.317"/>
</g>
<!-- Node8 -->
<g id="node16" class="node"><title>Node8</title>
<a xlink:href="a00001.html#aaa52412f9f4f725e15aafa3fcd678b1d" target="_top" xlink:title="shows information about curl easy handles">
<polygon fill="white" stroke="black" points="564.5,-118.5 564.5,-139.5 681.5,-139.5 681.5,-118.5 564.5,-118.5"/>
<text text-anchor="middle" x="623" y="-126.5" font-family="Helvetica,sans-Serif" font-size="10.00">varIsCurlEasyResource</text>
</a>
</g>
<!-- Node5&#45;&gt;Node8 -->
<g id="edge16" class="edge"><title>Node5&#45;&gt;Node8</title>
<path fill="none" stroke="midnightblue" d="M537.983,-115.612C546.399,-116.937 555.388,-118.352 564.252,-119.748"/>
<polygon fill="midnightblue" stroke="midnightblue" points="538.47,-112.145 528.047,-114.047 537.381,-119.06 538.47,-112.145"/>
</g>
<!-- Node10 -->
<g id="node21" class="node"><title>Node10</title>
<a xlink:href="a00001.html#a91a251e46645521ab0c05a9b787624f6" target="_top" xlink:title="function used to render exceptions">
<polygon fill="white" stroke="black" points="583,-0.5 583,-21.5 663,-21.5 663,-0.5 583,-0.5"/>
<text text-anchor="middle" x="623" y="-8.5" font-family="Helvetica,sans-Serif" font-size="10.00">varIsException</text>
</a>
</g>
<!-- Node5&#45;&gt;Node10 -->
<g id="edge22" class="edge"><title>Node5&#45;&gt;Node10</title>
<path fill="none" stroke="midnightblue" d="M509.903,-90.0815C522.537,-73.966 542.451,-51.087 564,-36 572.293,-30.1938 582.145,-25.3565 591.4,-21.5329"/>
<polygon fill="midnightblue" stroke="midnightblue" points="506.955,-88.1743 503.668,-98.2464 512.519,-92.4225 506.955,-88.1743"/>
</g>
<!-- Node11 -->
<g id="node24" class="node"><title>Node11</title>
<a xlink:href="a00001.html#a642e715a1977cf46d40d840b5112465d" target="_top" xlink:title="if variable is an image/gd resource type">
<polygon fill="white" stroke="black" points="577,-78.5 577,-99.5 669,-99.5 669,-78.5 577,-78.5"/>
<text text-anchor="middle" x="623" y="-86.5" font-family="Helvetica,sans-Serif" font-size="10.00">varIsGDResource</text>
</a>
</g>
<!-- Node5&#45;&gt;Node11 -->
<g id="edge26" class="edge"><title>Node5&#45;&gt;Node11</title>
<path fill="none" stroke="midnightblue" d="M538.076,-102.374C550.413,-100.431 563.973,-98.2956 576.566,-96.3124"/>
<polygon fill="midnightblue" stroke="midnightblue" points="537.381,-98.94 528.047,-103.953 538.47,-105.855 537.381,-98.94"/>
</g>
<!-- Node7&#45;&gt;Node5 -->
<g id="edge14" class="edge"><title>Node7&#45;&gt;Node5</title>
<path fill="none" stroke="midnightblue" d="M583.786,-165.828C577.092,-163.557 570.277,-160.873 564,-158 540.836,-147.397 515.435,-131.086 503.276,-119.506"/>
<polygon fill="midnightblue" stroke="midnightblue" points="582.842,-169.199 593.43,-168.833 584.924,-162.516 582.842,-169.199"/>
</g>
<!-- Node9 -->
<g id="node18" class="node"><title>Node9</title>
<a xlink:href="a00001.html#a4ab1e15fa34f8b98071b0eb36883777e" target="_top" xlink:title="shows info about different resources, uses customized rendering founctions when needed">
<polygon fill="white" stroke="black" points="718.5,-78.5 718.5,-99.5 795.5,-99.5 795.5,-78.5 718.5,-78.5"/>
<text text-anchor="middle" x="757" y="-86.5" font-family="Helvetica,sans-Serif" font-size="10.00">varIsResource</text>
</a>
</g>
<!-- Node8&#45;&gt;Node9 -->
<g id="edge18" class="edge"><title>Node8&#45;&gt;Node9</title>
<path fill="none" stroke="midnightblue" d="M668.163,-115.519C685.575,-110.321 705.197,-104.463 721.563,-99.5782"/>
<polygon fill="midnightblue" stroke="midnightblue" points="666.788,-112.276 658.207,-118.49 668.79,-118.984 666.788,-112.276"/>
</g>
<!-- Node9&#45;&gt;Node5 -->
<g id="edge20" class="edge"><title>Node9&#45;&gt;Node5</title>
<path fill="none" stroke="midnightblue" d="M714.463,-75.8032C674.867,-65.5687 614.531,-55.24 564,-69 543.12,-74.6859 522.111,-88.5901 509.086,-98.4022"/>
<polygon fill="midnightblue" stroke="midnightblue" points="713.745,-79.2346 724.312,-78.4578 715.567,-72.4758 713.745,-79.2346"/>
</g>
<!-- Node10&#45;&gt;Node3 -->
<g id="edge24" class="edge"><title>Node10&#45;&gt;Node3</title>
<path fill="none" stroke="midnightblue" d="M572.576,-19.4526C506.445,-30.5382 391.175,-49.8609 325.84,-60.813"/>
<polygon fill="midnightblue" stroke="midnightblue" points="573.469,-22.8519 582.752,-17.7467 572.311,-15.9482 573.469,-22.8519"/>
</g>
<!-- Node11&#45;&gt;Node9 -->
<g id="edge28" class="edge"><title>Node11&#45;&gt;Node9</title>
<path fill="none" stroke="midnightblue" d="M679.469,-89C692.576,-89 706.235,-89 718.371,-89"/>
<polygon fill="midnightblue" stroke="midnightblue" points="679.115,-85.5001 669.115,-89 679.115,-92.5001 679.115,-85.5001"/>
</g>
</g>
</svg>
