<?xml version="1.0" encoding="UTF-8" standalone="no"?>
<!DOCTYPE svg PUBLIC "-//W3C//DTD SVG 1.1//EN"
 "http://www.w3.org/Graphics/SVG/1.1/DTD/svg11.dtd">
<!-- Generated by graphviz version 2.26.3 (20100126.1600)
 -->
<!-- Title: closeTDRow Pages: 1 -->
<!--zoomable 291 -->
<svg id="main" version="1.1" xmlns="http://www.w3.org/2000/svg" xmlns:xlink="http://www.w3.org/1999/xlink" xml:space="preserve" onload="init(evt)">
        <defs>
                <circle id="rim" cx="0" cy="0" r="7"/>
                <circle id="rim2" cx="0" cy="0" r="3.5"/>
                <g id="zoomPlus">
                        <use xlink:href="#rim" fill="#404040">
                                <set attributeName="fill" to="#808080" begin="zoomplus.mouseover" end="zoomplus.mouseout"/>
                        </use>
                        <path d="M-4,0h8M0,-4v8" fill="none" stroke="white" stroke-width="1.5" pointer-events="none"/>
                </g>
                <g id="zoomMin">
                        <use xlink:href="#rim" fill="#404040">
                                <set attributeName="fill" to="#808080" begin="zoomminus.mouseover" end="zoomminus.mouseout"/>
                        </use>
                        <path d="M-4,0h8" fill="none" stroke="white" stroke-width="1.5" pointer-events="none"/>
                </g>
                <g id="dirArrow">
                        <path fill="none" stroke="white" stroke-width="1.5" d="M0,-3.0v7 M-2.5,-0.5L0,-3.0L2.5,-0.5"/>
                </g>
               <g id="resetDef">
                       <use xlink:href="#rim2" fill="#404040">
                               <set attributeName="fill" to="#808080" begin="reset.mouseover" end="reset.mouseout"/>
                       </use>
               </g>
        </defs>

<script type="text/javascript">
var viewWidth = 668;
var viewHeight = 291;
var sectionId = 'dynsection-3';
</script>
<script xlink:href="svgpan.js"/>
<svg id="graph" class="graph">
<g id="viewport">
<title>closeTDRow</title>
<polygon fill="white" stroke="white" points="-4,5 -4,-286.699 665,-286.699 665,5 -4,5"/>
<!-- Node1 -->
<g id="node1" class="node"><title>Node1</title>
<polygon fill="#bfbfbf" stroke="black" points="0.5,-140.792 0.5,-161.792 71.5,-161.792 71.5,-140.792 0.5,-140.792"/>
<text text-anchor="middle" x="36" y="-148.792" font-family="Helvetica,sans-Serif" font-size="10.00">closeTDRow</text>
</g>
<!-- Node2 -->
<g id="node3" class="node"><title>Node2</title>
<a xlink:href="a00001.html#a86ff35452ee612d9e9e9b147e5544acc" target="_top" xlink:title="varIsArray">
<polygon fill="white" stroke="black" points="109.5,-140.792 109.5,-161.792 168.5,-161.792 168.5,-140.792 109.5,-140.792"/>
<text text-anchor="middle" x="139" y="-148.792" font-family="Helvetica,sans-Serif" font-size="10.00">varIsArray</text>
</a>
</g>
<!-- Node1&#45;&gt;Node2 -->
<g id="edge2" class="edge"><title>Node1&#45;&gt;Node2</title>
<path fill="none" stroke="midnightblue" d="M81.7728,-151.292C91.1717,-151.292 100.828,-151.292 109.469,-151.292"/>
<polygon fill="midnightblue" stroke="midnightblue" points="81.7354,-147.792 71.7353,-151.292 81.7353,-154.792 81.7354,-147.792"/>
</g>
<!-- Node5 -->
<g id="node10" class="node"><title>Node5</title>
<a xlink:href="a00001.html#aaa52412f9f4f725e15aafa3fcd678b1d" target="_top" xlink:title="shows information about curl easy handles">
<polygon fill="white" stroke="black" points="306.5,-244.792 306.5,-265.792 423.5,-265.792 423.5,-244.792 306.5,-244.792"/>
<text text-anchor="middle" x="365" y="-252.792" font-family="Helvetica,sans-Serif" font-size="10.00">varIsCurlEasyResource</text>
</a>
</g>
<!-- Node1&#45;&gt;Node5 -->
<g id="edge30" class="edge"><title>Node1&#45;&gt;Node5</title>
<path fill="none" stroke="midnightblue" d="M60.9622,-167.301C74.465,-175.402 91.6792,-184.856 108,-191.292 173.874,-217.266 253.496,-235.15 306.487,-245.278"/>
<polygon fill="midnightblue" stroke="midnightblue" points="62.6172,-164.21 52.2636,-161.962 58.9555,-170.176 62.6172,-164.21"/>
</g>
<!-- Node6 -->
<g id="node12" class="node"><title>Node6</title>
<a xlink:href="a00001.html#a4ab1e15fa34f8b98071b0eb36883777e" target="_top" xlink:title="shows info about different resources, uses customized rendering founctions when needed">
<polygon fill="white" stroke="black" points="470.5,-224.792 470.5,-245.792 547.5,-245.792 547.5,-224.792 470.5,-224.792"/>
<text text-anchor="middle" x="509" y="-232.792" font-family="Helvetica,sans-Serif" font-size="10.00">varIsResource</text>
</a>
</g>
<!-- Node1&#45;&gt;Node6 -->
<g id="edge38" class="edge"><title>Node1&#45;&gt;Node6</title>
<path fill="none" stroke="midnightblue" d="M52.3419,-169.65C65.9577,-183.928 86.5307,-203.27 108,-215.292 188.231,-260.215 215.042,-261.813 306,-275.292 357.878,-282.979 372.819,-286.732 424,-275.292 449.148,-269.67 475.632,-255.751 492.224,-245.918"/>
<polygon fill="midnightblue" stroke="midnightblue" points="54.5412,-166.874 45.1749,-161.922 49.4088,-171.634 54.5412,-166.874"/>
</g>
<!-- Node7 -->
<g id="node15" class="node"><title>Node7</title>
<a xlink:href="a00001.html#a91a251e46645521ab0c05a9b787624f6" target="_top" xlink:title="function used to render exceptions">
<polygon fill="white" stroke="black" points="325,-30.7916 325,-51.7916 405,-51.7916 405,-30.7916 325,-30.7916"/>
<text text-anchor="middle" x="365" y="-38.7916" font-family="Helvetica,sans-Serif" font-size="10.00">varIsException</text>
</a>
</g>
<!-- Node1&#45;&gt;Node7 -->
<g id="edge32" class="edge"><title>Node1&#45;&gt;Node7</title>
<path fill="none" stroke="midnightblue" d="M52.7234,-133.07C66.2935,-119.431 86.6219,-101.446 108,-91.2916 179.441,-57.3572 272.495,-46.4536 324.777,-42.9502"/>
<polygon fill="midnightblue" stroke="midnightblue" points="49.9762,-130.877 45.5576,-140.506 55.0168,-135.734 49.9762,-130.877"/>
</g>
<!-- Node9 -->
<g id="node19" class="node"><title>Node9</title>
<a xlink:href="a00001.html#a443a941157b2ed03d6a24ae70ece785d" target="_top" xlink:title="checks wheither variable is object of special type (using varIs*Object), and renders it if it is gene...">
<polygon fill="white" stroke="black" points="594.5,-54.7916 594.5,-75.7916 659.5,-75.7916 659.5,-54.7916 594.5,-54.7916"/>
<text text-anchor="middle" x="627" y="-62.7916" font-family="Helvetica,sans-Serif" font-size="10.00">varIsObject</text>
</a>
</g>
<!-- Node1&#45;&gt;Node9 -->
<g id="edge36" class="edge"><title>Node1&#45;&gt;Node9</title>
<path fill="none" stroke="midnightblue" d="M48.8872,-132.139C77.667,-91.9067 151.483,-2.29156 238,-2.29156 238,-2.29156 238,-2.29156 365,-2.29156 451.192,-2.29156 476.54,6.87468 558,-21.2916 579.484,-28.72 601.066,-44.0504 614.232,-54.5036"/>
<polygon fill="midnightblue" stroke="midnightblue" points="45.8516,-130.373 42.9969,-140.576 51.5912,-134.38 45.8516,-130.373"/>
</g>
<!-- Node10 -->
<g id="node22" class="node"><title>Node10</title>
<a xlink:href="a00001.html#a642e715a1977cf46d40d840b5112465d" target="_top" xlink:title="if variable is an image/gd resource type">
<polygon fill="white" stroke="black" points="319,-204.792 319,-225.792 411,-225.792 411,-204.792 319,-204.792"/>
<text text-anchor="middle" x="365" y="-212.792" font-family="Helvetica,sans-Serif" font-size="10.00">varIsGDResource</text>
</a>
</g>
<!-- Node1&#45;&gt;Node10 -->
<g id="edge34" class="edge"><title>Node1&#45;&gt;Node10</title>
<path fill="none" stroke="midnightblue" d="M81.1357,-164.583C90.0014,-166.98 99.2617,-169.335 108,-171.292 181.107,-187.659 267.1,-201.254 318.764,-208.82"/>
<polygon fill="midnightblue" stroke="midnightblue" points="81.9136,-161.167 71.3427,-161.878 80.0499,-167.914 81.9136,-161.167"/>
</g>
<!-- Node11 -->
<g id="node31" class="node"><title>Node11</title>
<a xlink:href="a00001.html#a1dce801bff273c92008ec238b5480928" target="_top" xlink:title="renders string either as primitive type (if it is short (less than $embeddedStringMaxLength chars) an...">
<polygon fill="white" stroke="black" points="108,-100.792 108,-121.792 170,-121.792 170,-100.792 108,-100.792"/>
<text text-anchor="middle" x="139" y="-108.792" font-family="Helvetica,sans-Serif" font-size="10.00">varIsString</text>
</a>
</g>
<!-- Node1&#45;&gt;Node11 -->
<g id="edge40" class="edge"><title>Node1&#45;&gt;Node11</title>
<path fill="none" stroke="midnightblue" d="M72.6016,-137.077C85.503,-132.067 99.7694,-126.527 111.761,-121.87"/>
<polygon fill="midnightblue" stroke="midnightblue" points="71.1167,-133.899 63.062,-140.782 73.6508,-140.424 71.1167,-133.899"/>
</g>
<!-- Node3 -->
<g id="node5" class="node"><title>Node3</title>
<a xlink:href="a00001.html#aaecea663190c6ce2edd146c3133f257d" target="_top" xlink:title="check variable type andd process the value in right way">
<polygon fill="white" stroke="black" points="206,-130.792 206,-151.792 270,-151.792 270,-130.792 206,-130.792"/>
<text text-anchor="middle" x="238" y="-138.792" font-family="Helvetica,sans-Serif" font-size="10.00">checkType</text>
</a>
</g>
<!-- Node2&#45;&gt;Node3 -->
<g id="edge4" class="edge"><title>Node2&#45;&gt;Node3</title>
<path fill="none" stroke="midnightblue" d="M178.658,-140.656C187.708,-139.518 197.215,-138.646 205.902,-138.169"/>
<polygon fill="midnightblue" stroke="midnightblue" points="178.123,-137.196 168.703,-142.046 179.091,-144.129 178.123,-137.196"/>
</g>
<!-- Node3&#45;&gt;Node2 -->
<g id="edge8" class="edge"><title>Node3&#45;&gt;Node2</title>
<path fill="none" stroke="midnightblue" d="M195.814,-152.237C186.69,-153.324 177.228,-154.134 168.703,-154.537"/>
<polygon fill="midnightblue" stroke="midnightblue" points="196.45,-155.683 205.902,-150.898 195.529,-148.744 196.45,-155.683"/>
</g>
<!-- Node4 -->
<g id="node7" class="node"><title>Node4</title>
<a xlink:href="a00001.html#a6826222eba46dd56dbd5841cdc300efa" target="_top" xlink:title="dBug">
<polygon fill="white" stroke="black" points="345.5,-164.792 345.5,-185.792 384.5,-185.792 384.5,-164.792 345.5,-164.792"/>
<text text-anchor="middle" x="365" y="-172.792" font-family="Helvetica,sans-Serif" font-size="10.00">dBug</text>
</a>
</g>
<!-- Node3&#45;&gt;Node4 -->
<g id="edge6" class="edge"><title>Node3&#45;&gt;Node4</title>
<path fill="none" stroke="midnightblue" d="M279.843,-152.493C301.864,-158.389 327.832,-165.341 345.252,-170.005"/>
<polygon fill="midnightblue" stroke="midnightblue" points="280.612,-149.076 270.047,-149.871 278.802,-155.838 280.612,-149.076"/>
</g>
<!-- Node3&#45;&gt;Node5 -->
<g id="edge10" class="edge"><title>Node3&#45;&gt;Node5</title>
<path fill="none" stroke="midnightblue" d="M247.554,-161.044C258.767,-182.26 279.276,-215.573 306,-235.292 311.135,-239.08 317.037,-242.185 323.079,-244.72"/>
<polygon fill="midnightblue" stroke="midnightblue" points="250.594,-159.301 242.938,-151.977 244.356,-162.476 250.594,-159.301"/>
</g>
<!-- Node3&#45;&gt;Node7 -->
<g id="edge16" class="edge"><title>Node3&#45;&gt;Node7</title>
<path fill="none" stroke="midnightblue" d="M251.38,-122.383C263.922,-105.786 283.995,-81.9199 306,-66.2916 314.163,-60.4941 323.878,-55.6831 333.046,-51.8814"/>
<polygon fill="midnightblue" stroke="midnightblue" points="248.327,-120.627 245.223,-130.757 253.967,-124.774 248.327,-120.627"/>
</g>
<!-- Node3&#45;&gt;Node9 -->
<g id="edge28" class="edge"><title>Node3&#45;&gt;Node9</title>
<path fill="none" stroke="midnightblue" d="M280.136,-128.668C358.224,-110.129 523.86,-77.9123 594.25,-67.7313"/>
<polygon fill="midnightblue" stroke="midnightblue" points="279.062,-125.326 270.164,-131.079 280.707,-132.13 279.062,-125.326"/>
</g>
<!-- Node3&#45;&gt;Node10 -->
<g id="edge24" class="edge"><title>Node3&#45;&gt;Node10</title>
<path fill="none" stroke="midnightblue" d="M256.901,-159.253C269.886,-170.816 287.975,-185.468 306,-195.292 312.648,-198.914 320.071,-202.052 327.349,-204.697"/>
<polygon fill="midnightblue" stroke="midnightblue" points="258.901,-156.34 249.157,-152.181 254.181,-161.509 258.901,-156.34"/>
</g>
<!-- Node5&#45;&gt;Node6 -->
<g id="edge12" class="edge"><title>Node5&#45;&gt;Node6</title>
<path fill="none" stroke="midnightblue" d="M433.613,-245.762C446.208,-244.013 458.942,-242.244 470.269,-240.671"/>
<polygon fill="midnightblue" stroke="midnightblue" points="432.994,-242.314 423.57,-247.157 433.957,-249.248 432.994,-242.314"/>
</g>
<!-- Node6&#45;&gt;Node3 -->
<g id="edge14" class="edge"><title>Node6&#45;&gt;Node3</title>
<path fill="none" stroke="midnightblue" d="M495.473,-216.574C480.431,-197.414 454.232,-168.616 424,-155.292 373.773,-133.155 308.517,-134.195 270.153,-137.425"/>
<polygon fill="midnightblue" stroke="midnightblue" points="492.739,-218.761 501.573,-224.609 498.314,-214.528 492.739,-218.761"/>
</g>
<!-- Node8 -->
<g id="node17" class="node"><title>Node8</title>
<a xlink:href="a00001.html#a783baa8ff544bb8278ac32bce66be5c4" target="_top" xlink:title="varIsSpecialObject">
<polygon fill="white" stroke="black" points="460.5,-30.7916 460.5,-51.7916 557.5,-51.7916 557.5,-30.7916 460.5,-30.7916"/>
<text text-anchor="middle" x="509" y="-38.7916" font-family="Helvetica,sans-Serif" font-size="10.00">varIsSpecialObject</text>
</a>
</g>
<!-- Node7&#45;&gt;Node8 -->
<g id="edge18" class="edge"><title>Node7&#45;&gt;Node8</title>
<path fill="none" stroke="midnightblue" d="M415.464,-41.2916C430.049,-41.2916 445.933,-41.2916 460.402,-41.2916"/>
<polygon fill="midnightblue" stroke="midnightblue" points="415.112,-37.7917 405.112,-41.2916 415.112,-44.7917 415.112,-37.7917"/>
</g>
<!-- Node8&#45;&gt;Node9 -->
<g id="edge20" class="edge"><title>Node8&#45;&gt;Node9</title>
<path fill="none" stroke="midnightblue" d="M567.58,-53.2061C576.75,-55.0713 585.934,-56.9392 594.246,-58.6296"/>
<polygon fill="midnightblue" stroke="midnightblue" points="568.173,-49.7552 557.676,-51.1918 566.778,-56.6148 568.173,-49.7552"/>
</g>
<!-- Node9&#45;&gt;Node3 -->
<g id="edge22" class="edge"><title>Node9&#45;&gt;Node3</title>
<path fill="none" stroke="midnightblue" d="M584.209,-78.0708C505.635,-96.6855 340.022,-128.878 270.164,-138.936"/>
<polygon fill="midnightblue" stroke="midnightblue" points="585.349,-81.3963 594.25,-75.6489 583.708,-74.5915 585.349,-81.3963"/>
</g>
<!-- Node10&#45;&gt;Node6 -->
<g id="edge26" class="edge"><title>Node10&#45;&gt;Node6</title>
<path fill="none" stroke="midnightblue" d="M421.403,-223.125C437.828,-225.407 455.391,-227.846 470.446,-229.937"/>
<polygon fill="midnightblue" stroke="midnightblue" points="421.742,-219.639 411.355,-221.73 420.779,-226.572 421.742,-219.639"/>
</g>
<!-- Node11&#45;&gt;Node3 -->
<g id="edge42" class="edge"><title>Node11&#45;&gt;Node3</title>
<path fill="none" stroke="midnightblue" d="M179.635,-123.605C188.316,-126.236 197.373,-128.98 205.691,-131.501"/>
<polygon fill="midnightblue" stroke="midnightblue" points="180.638,-120.252 170.053,-120.701 178.608,-126.951 180.638,-120.252"/>
</g>
</g>
</svg>
        <g id="navigator" transform="translate(0 0)" fill="#404254">
                <rect fill="#f2f5e9" fill-opacity="0.5" stroke="#606060" stroke-width=".5" x="0" y="0" width="60" height="60"/>
                <use id="zoomplus" xlink:href="#zoomPlus" x="17" y="9" onmousedown="handleZoom(evt,'in')"/>
                <use id="zoomminus" xlink:href="#zoomMin" x="42" y="9" onmousedown="handleZoom(evt,'out')"/>
                <use id="reset" xlink:href="#resetDef" x="30" y="36" onmousedown="handleReset()"/>
                <g id="arrowUp" xlink:href="#dirArrow" transform="translate(30 24)" onmousedown="handlePan(0,-1)">
                  <use xlink:href="#rim" fill="#404040">
                        <set attributeName="fill" to="#808080" begin="arrowUp.mouseover" end="arrowUp.mouseout"/>
                  </use>
                  <path fill="none" stroke="white" stroke-width="1.5" d="M0,-3.0v7 M-2.5,-0.5L0,-3.0L2.5,-0.5"/>
                </g>
                <g id="arrowRight" xlink:href="#dirArrow" transform="rotate(90) translate(36 -43)" onmousedown="handlePan(1,0)">
                  <use xlink:href="#rim" fill="#404040">
                        <set attributeName="fill" to="#808080" begin="arrowRight.mouseover" end="arrowRight.mouseout"/>
                  </use>
                  <path fill="none" stroke="white" stroke-width="1.5" d="M0,-3.0v7 M-2.5,-0.5L0,-3.0L2.5,-0.5"/>
                </g>
                <g id="arrowDown" xlink:href="#dirArrow" transform="rotate(180) translate(-30 -48)" onmousedown="handlePan(0,1)">
                  <use xlink:href="#rim" fill="#404040">
                        <set attributeName="fill" to="#808080" begin="arrowDown.mouseover" end="arrowDown.mouseout"/>
                  </use>
                  <path fill="none" stroke="white" stroke-width="1.5" d="M0,-3.0v7 M-2.5,-0.5L0,-3.0L2.5,-0.5"/>
                </g>
                <g id="arrowLeft" xlink:href="#dirArrow" transform="rotate(270) translate(-36 17)" onmousedown="handlePan(-1,0)">
                  <use xlink:href="#rim" fill="#404040">
                        <set attributeName="fill" to="#808080" begin="arrowLeft.mouseover" end="arrowLeft.mouseout"/>
                  </use>
                  <path fill="none" stroke="white" stroke-width="1.5" d="M0,-3.0v7 M-2.5,-0.5L0,-3.0L2.5,-0.5"/>
                </g>
        </g>
        <svg viewBox="0 0 15 15" width="100%" height="30px" preserveAspectRatio="xMaxYMin meet">
         <g id="arrow_out" transform="scale(0.3 0.3)">
          <a xlink:href="a00001_aaa2a0a3c482abd677b2bc2fa137e6c91_icgraph_org.svg" target="_base">
           <rect id="button" ry="5" rx="5" y="6" x="6" height="38" width="38"
                fill="#f2f5e9" fill-opacity="0.5" stroke="#606060" stroke-width="1.0"/>
           <path id="arrow"
             d="M 11.500037,31.436501 C 11.940474,20.09759 22.043105,11.32322 32.158766,21.979434 L 37.068811,17.246167 C 37.068811,17.246167 37.088388,32 37.088388,32 L 22.160133,31.978069 C 22.160133,31.978069 26.997745,27.140456 26.997745,27.140456 C 18.528582,18.264221 13.291696,25.230495 11.500037,31.436501 z"
             style="fill:#404040;"/>
          </a>
         </g>
        </svg>
</svg>
