<?xml version="1.0" encoding="UTF-8" standalone="no"?>
<!DOCTYPE svg PUBLIC "-//W3C//DTD SVG 1.1//EN"
 "http://www.w3.org/Graphics/SVG/1.1/DTD/svg11.dtd">
<!-- Generated by graphviz version 2.26.3 (20100126.1600)
 -->
<!-- Title: dBug Pages: 1 -->
<svg width="1076pt" height="612pt"
 viewBox="0.00 0.00 1076.00 612.00" xmlns="http://www.w3.org/2000/svg" xmlns:xlink="http://www.w3.org/1999/xlink">
<g id="graph1" class="graph" transform="scale(1 1) rotate(0) translate(4 608)">
<title>dBug</title>
<polygon fill="white" stroke="white" points="-4,5 -4,-608 1073,-608 1073,5 -4,5"/>
<!-- Node1 -->
<g id="node1" class="node"><title>Node1</title>
<polygon fill="#bfbfbf" stroke="black" points="0.5,-334.5 0.5,-355.5 39.5,-355.5 39.5,-334.5 0.5,-334.5"/>
<text text-anchor="middle" x="20" y="-342.5" font-family="Helvetica,sans-Serif" font-size="10.00">dBug</text>
</g>
<!-- Node2 -->
<g id="node3" class="node"><title>Node2</title>
<a xlink:href="a00001.html#aaecea663190c6ce2edd146c3133f257d" target="_top" xlink:title="check variable type andd process the value in right way">
<polygon fill="white" stroke="black" points="76,-334.5 76,-355.5 140,-355.5 140,-334.5 76,-334.5"/>
<text text-anchor="middle" x="108" y="-342.5" font-family="Helvetica,sans-Serif" font-size="10.00">checkType</text>
</a>
</g>
<!-- Node1&#45;&gt;Node2 -->
<g id="edge2" class="edge"><title>Node1&#45;&gt;Node2</title>
<path fill="none" stroke="midnightblue" d="M39.5301,-345C47.256,-345 56.4577,-345 65.5696,-345"/>
<polygon fill="midnightblue" stroke="midnightblue" points="65.7357,-348.5 75.7356,-345 65.7356,-341.5 65.7357,-348.5"/>
</g>
<!-- Node3 -->
<g id="node5" class="node"><title>Node3</title>
<a xlink:href="a00001.html#a86ff35452ee612d9e9e9b147e5544acc" target="_top" xlink:title="varIsArray">
<polygon fill="white" stroke="black" points="447.5,-274.5 447.5,-295.5 506.5,-295.5 506.5,-274.5 447.5,-274.5"/>
<text text-anchor="middle" x="477" y="-282.5" font-family="Helvetica,sans-Serif" font-size="10.00">varIsArray</text>
</a>
</g>
<!-- Node2&#45;&gt;Node3 -->
<g id="edge4" class="edge"><title>Node2&#45;&gt;Node3</title>
<path fill="none" stroke="midnightblue" d="M125.598,-334.448C139.319,-330.347 158.858,-326.879 176,-324 269.59,-308.281 379.77,-291.029 437.367,-285.201"/>
<polygon fill="midnightblue" stroke="midnightblue" points="437.865,-288.669 447.494,-284.248 437.21,-281.7 437.865,-288.669"/>
</g>
<!-- Node10 -->
<g id="node20" class="node"><title>Node10</title>
<a xlink:href="a00001.html#a5ebd24b62872515b28e27182857bfe7f" target="_top" xlink:title="renders boolean variable">
<polygon fill="white" stroke="black" points="176.5,-582.5 176.5,-603.5 247.5,-603.5 247.5,-582.5 176.5,-582.5"/>
<text text-anchor="middle" x="212" y="-590.5" font-family="Helvetica,sans-Serif" font-size="10.00">varIsBoolean</text>
</a>
</g>
<!-- Node2&#45;&gt;Node10 -->
<g id="edge20" class="edge"><title>Node2&#45;&gt;Node10</title>
<path fill="none" stroke="midnightblue" d="M109.497,-355.512C114.478,-387.873 132.688,-488.026 176,-558 179.884,-564.275 185.136,-570.227 190.426,-575.384"/>
<polygon fill="midnightblue" stroke="midnightblue" points="188.296,-578.178 198.05,-582.315 193.005,-572.998 188.296,-578.178"/>
</g>
<!-- Node12 -->
<g id="node25" class="node"><title>Node12</title>
<a xlink:href="a00001.html#acd3532d31c3c50577b2abd56624b3757" target="_top" xlink:title="renders NULL as red&#45;pink rectangle">
<polygon fill="white" stroke="black" points="182,-475.5 182,-496.5 242,-496.5 242,-475.5 182,-475.5"/>
<text text-anchor="middle" x="212" y="-483.5" font-family="Helvetica,sans-Serif" font-size="10.00">varIsNULL</text>
</a>
</g>
<!-- Node2&#45;&gt;Node12 -->
<g id="edge26" class="edge"><title>Node2&#45;&gt;Node12</title>
<path fill="none" stroke="midnightblue" d="M112.988,-355.542C123.061,-376.19 147.327,-422.833 176,-456 179.857,-460.462 184.417,-464.803 188.973,-468.733"/>
<polygon fill="midnightblue" stroke="midnightblue" points="187.055,-471.686 197.014,-475.302 191.484,-466.265 187.055,-471.686"/>
</g>
<!-- Node13 -->
<g id="node28" class="node"><title>Node13</title>
<a xlink:href="a00001.html#a44eb38e42426f01840a0d12fe6a6a05f" target="_top" xlink:title="renders numeric types : integers and doubles">
<polygon fill="white" stroke="black" points="297,-548.5 297,-569.5 369,-569.5 369,-548.5 297,-548.5"/>
<text text-anchor="middle" x="333" y="-556.5" font-family="Helvetica,sans-Serif" font-size="10.00">varIsNumeric</text>
</a>
</g>
<!-- Node2&#45;&gt;Node13 -->
<g id="edge30" class="edge"><title>Node2&#45;&gt;Node13</title>
<path fill="none" stroke="midnightblue" d="M109.461,-355.74C113.921,-384.374 129.974,-463.263 176,-506 206.377,-534.206 252.298,-547.451 286.641,-553.641"/>
<polygon fill="midnightblue" stroke="midnightblue" points="286.459,-557.159 296.897,-555.344 287.606,-550.253 286.459,-557.159"/>
</g>
<!-- Node14 -->
<g id="node31" class="node"><title>Node14</title>
<a xlink:href="a00001.html#a443a941157b2ed03d6a24ae70ece785d" target="_top" xlink:title="checks wheither variable is object of special type (using varIs*Object), and renders it if it is gene...">
<polygon fill="white" stroke="black" points="179.5,-354.5 179.5,-375.5 244.5,-375.5 244.5,-354.5 179.5,-354.5"/>
<text text-anchor="middle" x="212" y="-362.5" font-family="Helvetica,sans-Serif" font-size="10.00">varIsObject</text>
</a>
</g>
<!-- Node2&#45;&gt;Node14 -->
<g id="edge34" class="edge"><title>Node2&#45;&gt;Node14</title>
<path fill="none" stroke="midnightblue" d="M140.052,-344.876C151.989,-346.591 165.578,-349.171 177.708,-352.016"/>
<polygon fill="midnightblue" stroke="midnightblue" points="176.935,-355.43 187.485,-354.455 178.63,-348.639 176.935,-355.43"/>
</g>
<!-- Node19 -->
<g id="node50" class="node"><title>Node19</title>
<a xlink:href="a00001.html#a4ab1e15fa34f8b98071b0eb36883777e" target="_top" xlink:title="shows info about different resources, uses customized rendering founctions when needed">
<polygon fill="white" stroke="black" points="294.5,-117.5 294.5,-138.5 371.5,-138.5 371.5,-117.5 294.5,-117.5"/>
<text text-anchor="middle" x="333" y="-125.5" font-family="Helvetica,sans-Serif" font-size="10.00">varIsResource</text>
</a>
</g>
<!-- Node2&#45;&gt;Node19 -->
<g id="edge62" class="edge"><title>Node2&#45;&gt;Node19</title>
<path fill="none" stroke="midnightblue" d="M109.302,-334.405C113.424,-305.396 128.84,-223.922 176,-180 205.515,-152.512 249.909,-139.533 283.968,-133.418"/>
<polygon fill="midnightblue" stroke="midnightblue" points="284.882,-136.814 294.178,-131.731 283.741,-129.908 284.882,-136.814"/>
</g>
<!-- Node24 -->
<g id="node71" class="node"><title>Node24</title>
<a xlink:href="a00001.html#a1dce801bff273c92008ec238b5480928" target="_top" xlink:title="renders string either as primitive type (if it is short (less than $embeddedStringMaxLength chars) an...">
<polygon fill="white" stroke="black" points="446,-392.5 446,-413.5 508,-413.5 508,-392.5 446,-392.5"/>
<text text-anchor="middle" x="477" y="-400.5" font-family="Helvetica,sans-Serif" font-size="10.00">varIsString</text>
</a>
</g>
<!-- Node2&#45;&gt;Node24 -->
<g id="edge94" class="edge"><title>Node2&#45;&gt;Node24</title>
<path fill="none" stroke="midnightblue" d="M124.008,-355.615C137.493,-364.26 157.493,-376.399 176,-385 222.145,-406.444 233.842,-414.433 284,-423 335.971,-431.876 396.535,-422.423 435.758,-413.735"/>
<polygon fill="midnightblue" stroke="midnightblue" points="436.781,-417.092 445.741,-411.438 435.211,-410.27 436.781,-417.092"/>
</g>
<!-- Node3&#45;&gt;Node2 -->
<g id="edge18" class="edge"><title>Node3&#45;&gt;Node2</title>
<path fill="none" stroke="midnightblue" d="M447.494,-294.831C393.55,-306.876 275.415,-325.303 176,-342 167.679,-343.398 158.794,-344.934 150.283,-346.24"/>
<polygon fill="midnightblue" stroke="midnightblue" points="149.552,-342.808 140.151,-347.693 150.546,-349.738 149.552,-342.808"/>
</g>
<!-- Node4 -->
<g id="node7" class="node"><title>Node4</title>
<a xlink:href="a00001.html#a04aa495573c880043c46c3bfc669bbe3" target="_top" xlink:title="creates the main table header">
<polygon fill="white" stroke="black" points="710.5,-352.5 710.5,-373.5 805.5,-373.5 805.5,-352.5 710.5,-352.5"/>
<text text-anchor="middle" x="758" y="-360.5" font-family="Helvetica,sans-Serif" font-size="10.00">makeTableHeader</text>
</a>
</g>
<!-- Node3&#45;&gt;Node4 -->
<g id="edge6" class="edge"><title>Node3&#45;&gt;Node4</title>
<path fill="none" stroke="midnightblue" d="M506.748,-283.238C546.253,-281.922 617.603,-283.142 674,-304 698.909,-313.212 723.282,-331.692 739.303,-345.528"/>
<polygon fill="midnightblue" stroke="midnightblue" points="737.08,-348.235 746.878,-352.267 741.733,-343.005 737.08,-348.235"/>
</g>
<!-- Node8 -->
<g id="node15" class="node"><title>Node8</title>
<a xlink:href="a00001.html#a0cff4870612d64738cd84a47dbb36b1d" target="_top" xlink:title="creates the table row header">
<polygon fill="white" stroke="black" points="581.5,-313.5 581.5,-334.5 664.5,-334.5 664.5,-313.5 581.5,-313.5"/>
<text text-anchor="middle" x="623" y="-321.5" font-family="Helvetica,sans-Serif" font-size="10.00">makeTDHeader</text>
</a>
</g>
<!-- Node3&#45;&gt;Node8 -->
<g id="edge14" class="edge"><title>Node3&#45;&gt;Node8</title>
<path fill="none" stroke="midnightblue" d="M506.545,-292.892C525.852,-298.05 551.535,-304.91 573.869,-310.876"/>
<polygon fill="midnightblue" stroke="midnightblue" points="572.968,-314.258 583.532,-313.457 574.774,-307.495 572.968,-314.258"/>
</g>
<!-- Node9 -->
<g id="node17" class="node"><title>Node9</title>
<a xlink:href="a00001.html#aaa2a0a3c482abd677b2bc2fa137e6c91" target="_top" xlink:title="closes table row">
<polygon fill="white" stroke="black" points="587.5,-235.5 587.5,-256.5 658.5,-256.5 658.5,-235.5 587.5,-235.5"/>
<text text-anchor="middle" x="623" y="-243.5" font-family="Helvetica,sans-Serif" font-size="10.00">closeTDRow</text>
</a>
</g>
<!-- Node3&#45;&gt;Node9 -->
<g id="edge16" class="edge"><title>Node3&#45;&gt;Node9</title>
<path fill="none" stroke="midnightblue" d="M506.545,-277.108C526.868,-271.679 554.256,-264.363 577.366,-258.19"/>
<polygon fill="midnightblue" stroke="midnightblue" points="578.55,-261.496 587.308,-255.534 576.743,-254.734 578.55,-261.496"/>
</g>
<!-- Node5 -->
<g id="node9" class="node"><title>Node5</title>
<a xlink:href="a00001.html#a742973a203c412611192053dc0cd48af" target="_top" xlink:title="initializeHeader">
<polygon fill="white" stroke="black" points="849.5,-431.5 849.5,-452.5 932.5,-452.5 932.5,-431.5 849.5,-431.5"/>
<text text-anchor="middle" x="891" y="-439.5" font-family="Helvetica,sans-Serif" font-size="10.00">initializeHeader</text>
</a>
</g>
<!-- Node4&#45;&gt;Node5 -->
<g id="edge8" class="edge"><title>Node4&#45;&gt;Node5</title>
<path fill="none" stroke="midnightblue" d="M775.937,-373.654C798.644,-387.142 837.96,-410.495 864.225,-426.096"/>
<polygon fill="midnightblue" stroke="midnightblue" points="862.537,-429.164 872.922,-431.262 866.112,-423.146 862.537,-429.164"/>
</g>
<!-- Node7 -->
<g id="node13" class="node"><title>Node7</title>
<a xlink:href="a00001.html#a3396d3c6336b500d49e3a1a0288dc035" target="_top" xlink:title="draws the main table header">
<polygon fill="white" stroke="black" points="842,-352.5 842,-373.5 940,-373.5 940,-352.5 842,-352.5"/>
<text text-anchor="middle" x="891" y="-360.5" font-family="Helvetica,sans-Serif" font-size="10.00">renderTableHeader</text>
</a>
</g>
<!-- Node4&#45;&gt;Node7 -->
<g id="edge12" class="edge"><title>Node4&#45;&gt;Node7</title>
<path fill="none" stroke="midnightblue" d="M805.64,-363C814.105,-363 823.014,-363 831.754,-363"/>
<polygon fill="midnightblue" stroke="midnightblue" points="831.899,-366.5 841.899,-363 831.899,-359.5 831.899,-366.5"/>
</g>
<!-- Node6 -->
<g id="node11" class="node"><title>Node6</title>
<a xlink:href="a00001.html#a20af85a4f4041ed681b095e1427b2a1d" target="_top" xlink:title="getVariableName">
<polygon fill="white" stroke="black" points="976.5,-431.5 976.5,-452.5 1067.5,-452.5 1067.5,-431.5 976.5,-431.5"/>
<text text-anchor="middle" x="1022" y="-439.5" font-family="Helvetica,sans-Serif" font-size="10.00">getVariableName</text>
</a>
</g>
<!-- Node5&#45;&gt;Node6 -->
<g id="edge10" class="edge"><title>Node5&#45;&gt;Node6</title>
<path fill="none" stroke="midnightblue" d="M932.809,-442C943.358,-442 954.854,-442 965.977,-442"/>
<polygon fill="midnightblue" stroke="midnightblue" points="966.05,-445.5 976.05,-442 966.05,-438.5 966.05,-445.5"/>
</g>
<!-- Node11 -->
<g id="node22" class="node"><title>Node11</title>
<a xlink:href="a00001.html#adbad9cee60e948aa3802a45be355a1f3" target="_top" xlink:title="renders table of 2 cells in 1 row [type][value]">
<polygon fill="white" stroke="black" points="572.5,-548.5 572.5,-569.5 673.5,-569.5 673.5,-548.5 572.5,-548.5"/>
<text text-anchor="middle" x="623" y="-556.5" font-family="Helvetica,sans-Serif" font-size="10.00">renderPrimitiveType</text>
</a>
</g>
<!-- Node10&#45;&gt;Node11 -->
<g id="edge22" class="edge"><title>Node10&#45;&gt;Node11</title>
<path fill="none" stroke="midnightblue" d="M247.576,-591.943C307.321,-589.914 431.536,-584.601 536,-573 544.415,-572.065 553.258,-570.881 561.95,-569.598"/>
<polygon fill="midnightblue" stroke="midnightblue" points="562.693,-573.025 572.05,-568.055 561.636,-566.105 562.693,-573.025"/>
</g>
<!-- Node11&#45;&gt;Node5 -->
<g id="edge24" class="edge"><title>Node11&#45;&gt;Node5</title>
<path fill="none" stroke="midnightblue" d="M647.256,-548.411C695.268,-527.45 802.5,-480.636 857.322,-456.703"/>
<polygon fill="midnightblue" stroke="midnightblue" points="858.841,-459.858 866.606,-452.65 856.041,-453.443 858.841,-459.858"/>
</g>
<!-- Node12&#45;&gt;Node4 -->
<g id="edge28" class="edge"><title>Node12&#45;&gt;Node4</title>
<path fill="none" stroke="midnightblue" d="M242.02,-493.883C319.007,-512.379 527.684,-551.542 674,-476 712.35,-456.2 737.758,-409.96 749.833,-383.17"/>
<polygon fill="midnightblue" stroke="midnightblue" points="753.198,-384.205 753.936,-373.636 746.768,-381.438 753.198,-384.205"/>
</g>
<!-- Node13&#45;&gt;Node11 -->
<g id="edge32" class="edge"><title>Node13&#45;&gt;Node11</title>
<path fill="none" stroke="midnightblue" d="M369.142,-559C417.484,-559 503.868,-559 562.288,-559"/>
<polygon fill="midnightblue" stroke="midnightblue" points="562.494,-562.5 572.494,-559 562.494,-555.5 562.494,-562.5"/>
</g>
<!-- Node14&#45;&gt;Node2 -->
<g id="edge60" class="edge"><title>Node14&#45;&gt;Node2</title>
<path fill="none" stroke="midnightblue" d="M179.498,-365.059C167.72,-363.351 154.381,-360.815 142.441,-358.019"/>
<polygon fill="midnightblue" stroke="midnightblue" points="142.933,-354.534 132.383,-355.51 141.239,-361.326 142.933,-354.534"/>
</g>
<!-- Node14&#45;&gt;Node4 -->
<g id="edge54" class="edge"><title>Node14&#45;&gt;Node4</title>
<path fill="none" stroke="midnightblue" d="M222.74,-375.939C236.023,-388.891 259.848,-410.3 284,-423 339.011,-451.927 356.5,-454.017 418,-463 432.958,-465.185 672.199,-462.842 674,-462 709.177,-445.559 735.048,-406.416 748.209,-382.569"/>
<polygon fill="midnightblue" stroke="midnightblue" points="751.328,-384.158 752.916,-373.683 745.142,-380.881 751.328,-384.158"/>
</g>
<!-- Node14&#45;&gt;Node8 -->
<g id="edge56" class="edge"><title>Node14&#45;&gt;Node8</title>
<path fill="none" stroke="midnightblue" d="M244.851,-364.867C303.598,-364.209 430.391,-360.88 536,-345 548.973,-343.049 562.852,-340.101 575.628,-337.026"/>
<polygon fill="midnightblue" stroke="midnightblue" points="576.738,-340.356 585.599,-334.548 575.051,-333.563 576.738,-340.356"/>
</g>
<!-- Node14&#45;&gt;Node9 -->
<g id="edge58" class="edge"><title>Node14&#45;&gt;Node9</title>
<path fill="none" stroke="midnightblue" d="M228.535,-354.385C262.479,-333.195 343.14,-285.893 418,-265 471.319,-250.119 535.154,-246.289 577.267,-245.586"/>
<polygon fill="midnightblue" stroke="midnightblue" points="577.526,-249.083 587.486,-245.469 577.447,-242.084 577.526,-249.083"/>
</g>
<!-- Node15 -->
<g id="node33" class="node"><title>Node15</title>
<a xlink:href="a00001.html#a783baa8ff544bb8278ac32bce66be5c4" target="_top" xlink:title="varIsSpecialObject">
<polygon fill="white" stroke="black" points="284.5,-392.5 284.5,-413.5 381.5,-413.5 381.5,-392.5 284.5,-392.5"/>
<text text-anchor="middle" x="333" y="-400.5" font-family="Helvetica,sans-Serif" font-size="10.00">varIsSpecialObject</text>
</a>
</g>
<!-- Node14&#45;&gt;Node15 -->
<g id="edge36" class="edge"><title>Node14&#45;&gt;Node15</title>
<path fill="none" stroke="midnightblue" d="M244.744,-375.283C258.506,-379.605 274.714,-384.695 289.46,-389.326"/>
<polygon fill="midnightblue" stroke="midnightblue" points="288.797,-392.787 299.386,-392.444 290.895,-386.108 288.797,-392.787"/>
</g>
<!-- Node16 -->
<g id="node35" class="node"><title>Node16</title>
<a xlink:href="a00001.html#aff5b4a4ce77391ef5bc5f2637ac683b1" target="_top" xlink:title="renders either PDO or SQLite3 statement objects">
<polygon fill="white" stroke="black" points="438,-432.5 438,-453.5 516,-453.5 516,-432.5 438,-432.5"/>
<text text-anchor="middle" x="477" y="-440.5" font-family="Helvetica,sans-Serif" font-size="10.00">varIsDBObject</text>
</a>
</g>
<!-- Node15&#45;&gt;Node16 -->
<g id="edge38" class="edge"><title>Node15&#45;&gt;Node16</title>
<path fill="none" stroke="midnightblue" d="M370.834,-413.51C388.716,-418.477 410.259,-424.461 429.252,-429.737"/>
<polygon fill="midnightblue" stroke="midnightblue" points="428.346,-433.118 438.918,-432.422 430.22,-426.373 428.346,-433.118"/>
</g>
<!-- Node18 -->
<g id="node40" class="node"><title>Node18</title>
<a xlink:href="a00001.html#a91a251e46645521ab0c05a9b787624f6" target="_top" xlink:title="function used to render exceptions">
<polygon fill="white" stroke="black" points="437,-314.5 437,-335.5 517,-335.5 517,-314.5 437,-314.5"/>
<text text-anchor="middle" x="477" y="-322.5" font-family="Helvetica,sans-Serif" font-size="10.00">varIsException</text>
</a>
</g>
<!-- Node15&#45;&gt;Node18 -->
<g id="edge44" class="edge"><title>Node15&#45;&gt;Node18</title>
<path fill="none" stroke="midnightblue" d="M352.42,-392.481C377.113,-379.106 419.945,-355.905 448.382,-340.501"/>
<polygon fill="midnightblue" stroke="midnightblue" points="450.301,-343.442 457.427,-335.602 446.967,-337.287 450.301,-343.442"/>
</g>
<!-- Node17 -->
<g id="node37" class="node"><title>Node17</title>
<a xlink:href="a00001.html#ab4bab40a2bcac12276e3e7f2739f1761" target="_top" xlink:title="renders database data">
<polygon fill="white" stroke="black" points="584.5,-431.5 584.5,-452.5 661.5,-452.5 661.5,-431.5 584.5,-431.5"/>
<text text-anchor="middle" x="623" y="-439.5" font-family="Helvetica,sans-Serif" font-size="10.00">renderDBData</text>
</a>
</g>
<!-- Node16&#45;&gt;Node17 -->
<g id="edge40" class="edge"><title>Node16&#45;&gt;Node17</title>
<path fill="none" stroke="midnightblue" d="M516.125,-442.732C533.943,-442.61 555.219,-442.464 574.08,-442.335"/>
<polygon fill="midnightblue" stroke="midnightblue" points="574.297,-445.834 584.273,-442.265 574.249,-438.834 574.297,-445.834"/>
</g>
<!-- Node17&#45;&gt;Node4 -->
<g id="edge42" class="edge"><title>Node17&#45;&gt;Node4</title>
<path fill="none" stroke="midnightblue" d="M644.822,-431.425C653.94,-426.864 664.584,-421.356 674,-416 694.487,-404.347 717.044,-390.028 733.62,-379.212"/>
<polygon fill="midnightblue" stroke="midnightblue" points="735.724,-382.018 742.162,-373.603 731.882,-376.167 735.724,-382.018"/>
</g>
<!-- Node18&#45;&gt;Node2 -->
<g id="edge50" class="edge"><title>Node18&#45;&gt;Node2</title>
<path fill="none" stroke="midnightblue" d="M436.984,-327.169C366.728,-330.977 221.862,-338.829 150.135,-342.716"/>
<polygon fill="midnightblue" stroke="midnightblue" points="149.897,-339.224 140.101,-343.26 150.276,-346.214 149.897,-339.224"/>
</g>
<!-- Node18&#45;&gt;Node4 -->
<g id="edge46" class="edge"><title>Node18&#45;&gt;Node4</title>
<path fill="none" stroke="midnightblue" d="M517.066,-333.897C533.958,-337.418 553.871,-341.268 572,-344 614.835,-350.456 663.556,-355.344 700.386,-358.545"/>
<polygon fill="midnightblue" stroke="midnightblue" points="700.183,-362.04 710.444,-359.403 700.778,-355.066 700.183,-362.04"/>
</g>
<!-- Node18&#45;&gt;Node8 -->
<g id="edge48" class="edge"><title>Node18&#45;&gt;Node8</title>
<path fill="none" stroke="midnightblue" d="M517.282,-324.724C533.933,-324.61 553.448,-324.476 571.148,-324.355"/>
<polygon fill="midnightblue" stroke="midnightblue" points="571.348,-327.854 581.324,-324.285 571.3,-320.854 571.348,-327.854"/>
</g>
<!-- Node18&#45;&gt;Node9 -->
<g id="edge52" class="edge"><title>Node18&#45;&gt;Node9</title>
<path fill="none" stroke="midnightblue" d="M513.194,-314.45C520.88,-311.737 528.833,-308.563 536,-305 559.796,-293.169 584.67,-275.708 601.696,-262.85"/>
<polygon fill="midnightblue" stroke="midnightblue" points="604.037,-265.465 609.837,-256.599 599.774,-259.913 604.037,-265.465"/>
</g>
<!-- Node19&#45;&gt;Node4 -->
<g id="edge64" class="edge"><title>Node19&#45;&gt;Node4</title>
<path fill="none" stroke="midnightblue" d="M343.875,-117.083C358.967,-102.79 387.828,-78.4452 418,-69 529.059,-34.2331 593.427,-40.0304 674,-124 734.636,-187.192 751.764,-296.679 756.383,-342.209"/>
<polygon fill="midnightblue" stroke="midnightblue" points="752.913,-342.698 757.306,-352.339 759.884,-342.063 752.913,-342.698"/>
</g>
<!-- Node19&#45;&gt;Node9 -->
<g id="edge92" class="edge"><title>Node19&#45;&gt;Node9</title>
<path fill="none" stroke="midnightblue" d="M371.605,-123.467C414.259,-120.243 483.812,-120.387 536,-147 570.935,-164.815 598.087,-203.149 612.219,-226.542"/>
<polygon fill="midnightblue" stroke="midnightblue" points="609.246,-228.391 617.306,-235.268 615.294,-224.866 609.246,-228.391"/>
</g>
<!-- Node20 -->
<g id="node53" class="node"><title>Node20</title>
<a xlink:href="a00001.html#a14955ad355cef1e5d7898fb57023c999" target="_top" xlink:title="renders database resource (fetch result) into table or ... smth else">
<polygon fill="white" stroke="black" points="577.5,-0.5 577.5,-21.5 668.5,-21.5 668.5,-0.5 577.5,-0.5"/>
<text text-anchor="middle" x="623" y="-8.5" font-family="Helvetica,sans-Serif" font-size="10.00">varIsDBResource</text>
</a>
</g>
<!-- Node19&#45;&gt;Node20 -->
<g id="edge66" class="edge"><title>Node19&#45;&gt;Node20</title>
<path fill="none" stroke="midnightblue" d="M339.313,-117.192C351.605,-97.2628 380.835,-55.0256 418,-36 464.388,-12.2531 524.184,-7.41255 567.21,-7.66465"/>
<polygon fill="midnightblue" stroke="midnightblue" points="567.167,-11.1643 577.219,-7.81635 567.273,-4.1651 567.167,-11.1643"/>
</g>
<!-- Node21 -->
<g id="node56" class="node"><title>Node21</title>
<a xlink:href="a00001.html#a642e715a1977cf46d40d840b5112465d" target="_top" xlink:title="if variable is an image/gd resource type">
<polygon fill="white" stroke="black" points="431,-196.5 431,-217.5 523,-217.5 523,-196.5 431,-196.5"/>
<text text-anchor="middle" x="477" y="-204.5" font-family="Helvetica,sans-Serif" font-size="10.00">varIsGDResource</text>
</a>
</g>
<!-- Node19&#45;&gt;Node21 -->
<g id="edge70" class="edge"><title>Node19&#45;&gt;Node21</title>
<path fill="none" stroke="midnightblue" d="M345.817,-138.622C361.858,-151.495 390.569,-173.176 418,-187 422.076,-189.054 426.412,-190.975 430.811,-192.75"/>
<polygon fill="midnightblue" stroke="midnightblue" points="429.874,-196.137 440.465,-196.398 432.348,-189.589 429.874,-196.137"/>
</g>
<!-- Node22 -->
<g id="node62" class="node"><title>Node22</title>
<a xlink:href="a00001.html#a7538f8f3d434a3152a400f7478ae6454" target="_top" xlink:title="if variable is an xml resource type">
<polygon fill="white" stroke="black" points="430.5,-156.5 430.5,-177.5 523.5,-177.5 523.5,-156.5 430.5,-156.5"/>
<text text-anchor="middle" x="477" y="-164.5" font-family="Helvetica,sans-Serif" font-size="10.00">varIsXmlResource</text>
</a>
</g>
<!-- Node19&#45;&gt;Node22 -->
<g id="edge80" class="edge"><title>Node19&#45;&gt;Node22</title>
<path fill="none" stroke="midnightblue" d="M371.589,-138.451C389.032,-143.175 409.836,-148.81 428.336,-153.82"/>
<polygon fill="midnightblue" stroke="midnightblue" points="427.487,-157.216 438.054,-156.452 429.316,-150.46 427.487,-157.216"/>
</g>
<!-- Node23 -->
<g id="node64" class="node"><title>Node23</title>
<a xlink:href="a00001.html#aaa52412f9f4f725e15aafa3fcd678b1d" target="_top" xlink:title="shows information about curl easy handles">
<polygon fill="white" stroke="black" points="418.5,-78.5 418.5,-99.5 535.5,-99.5 535.5,-78.5 418.5,-78.5"/>
<text text-anchor="middle" x="477" y="-86.5" font-family="Helvetica,sans-Serif" font-size="10.00">varIsCurlEasyResource</text>
</a>
</g>
<!-- Node19&#45;&gt;Node23 -->
<g id="edge82" class="edge"><title>Node19&#45;&gt;Node23</title>
<path fill="none" stroke="midnightblue" d="M371.589,-117.549C389.032,-112.825 409.836,-107.19 428.336,-102.18"/>
<polygon fill="midnightblue" stroke="midnightblue" points="429.316,-105.54 438.054,-99.5479 427.487,-98.7839 429.316,-105.54"/>
</g>
<!-- Node20&#45;&gt;Node4 -->
<g id="edge68" class="edge"><title>Node20&#45;&gt;Node4</title>
<path fill="none" stroke="midnightblue" d="M655.11,-21.5267C662.172,-25.1465 669.02,-29.8821 674,-36 713.358,-84.35 745.308,-278.141 754.985,-342.274"/>
<polygon fill="midnightblue" stroke="midnightblue" points="751.552,-342.987 756.484,-352.364 758.476,-341.958 751.552,-342.987"/>
</g>
<!-- Node21&#45;&gt;Node2 -->
<g id="edge76" class="edge"><title>Node21&#45;&gt;Node2</title>
<path fill="none" stroke="midnightblue" d="M446.945,-217.532C392.612,-236.672 274.538,-278.725 176,-317 165.066,-321.247 153.222,-326.052 142.529,-330.468"/>
<polygon fill="midnightblue" stroke="midnightblue" points="140.985,-327.319 133.092,-334.386 143.67,-333.784 140.985,-327.319"/>
</g>
<!-- Node21&#45;&gt;Node4 -->
<g id="edge72" class="edge"><title>Node21&#45;&gt;Node4</title>
<path fill="none" stroke="midnightblue" d="M523.295,-200.396C565.737,-196.761 628.688,-197.688 674,-226 717.389,-253.11 741.719,-311.678 752.031,-342.726"/>
<polygon fill="midnightblue" stroke="midnightblue" points="748.756,-343.979 755.102,-352.463 755.432,-341.873 748.756,-343.979"/>
</g>
<!-- Node21&#45;&gt;Node8 -->
<g id="edge74" class="edge"><title>Node21&#45;&gt;Node8</title>
<path fill="none" stroke="midnightblue" d="M490.214,-217.589C515.494,-237.848 570.909,-282.256 601.557,-306.816"/>
<polygon fill="midnightblue" stroke="midnightblue" points="599.507,-309.658 609.499,-313.181 603.884,-304.196 599.507,-309.658"/>
</g>
<!-- Node21&#45;&gt;Node9 -->
<g id="edge78" class="edge"><title>Node21&#45;&gt;Node9</title>
<path fill="none" stroke="midnightblue" d="M516.51,-217.554C535.351,-222.587 557.993,-228.635 577.546,-233.858"/>
<polygon fill="midnightblue" stroke="midnightblue" points="576.888,-237.305 587.452,-236.504 578.694,-230.542 576.888,-237.305"/>
</g>
<!-- Node23&#45;&gt;Node2 -->
<g id="edge88" class="edge"><title>Node23&#45;&gt;Node2</title>
<path fill="none" stroke="midnightblue" d="M418.397,-80.875C350.715,-75.043 240.44,-77.0449 176,-139 148.666,-165.28 122.262,-277.664 112.236,-324.442"/>
<polygon fill="midnightblue" stroke="midnightblue" points="108.785,-323.843 110.148,-334.35 115.635,-325.287 108.785,-323.843"/>
</g>
<!-- Node23&#45;&gt;Node4 -->
<g id="edge84" class="edge"><title>Node23&#45;&gt;Node4</title>
<path fill="none" stroke="midnightblue" d="M509.535,-99.5857C552.125,-114.875 626.882,-146.816 674,-196 715.935,-239.774 741.394,-308.574 752.096,-342.578"/>
<polygon fill="midnightblue" stroke="midnightblue" points="748.799,-343.768 755.054,-352.319 755.497,-341.734 748.799,-343.768"/>
</g>
<!-- Node23&#45;&gt;Node8 -->
<g id="edge86" class="edge"><title>Node23&#45;&gt;Node8</title>
<path fill="none" stroke="midnightblue" d="M491.411,-99.6554C504.784,-110.26 524.331,-127.703 536,-147 564.592,-194.284 545.145,-217.709 572,-266 580.285,-280.899 592.92,-295.305 603.541,-306.033"/>
<polygon fill="midnightblue" stroke="midnightblue" points="601.228,-308.666 610.827,-313.149 606.118,-303.658 601.228,-308.666"/>
</g>
<!-- Node23&#45;&gt;Node9 -->
<g id="edge90" class="edge"><title>Node23&#45;&gt;Node9</title>
<path fill="none" stroke="midnightblue" d="M511.387,-99.5929C519.999,-103.273 528.819,-108.02 536,-114 573.755,-145.443 601.25,-197.458 614.372,-225.898"/>
<polygon fill="midnightblue" stroke="midnightblue" points="611.268,-227.531 618.548,-235.228 617.657,-224.671 611.268,-227.531"/>
</g>
<!-- Node24&#45;&gt;Node4 -->
<g id="edge96" class="edge"><title>Node24&#45;&gt;Node4</title>
<path fill="none" stroke="midnightblue" d="M508.146,-398.566C554.382,-391.985 641.968,-379.517 700.174,-371.232"/>
<polygon fill="midnightblue" stroke="midnightblue" points="700.918,-374.661 710.325,-369.787 699.931,-367.731 700.918,-374.661"/>
</g>
<!-- Node24&#45;&gt;Node8 -->
<g id="edge100" class="edge"><title>Node24&#45;&gt;Node8</title>
<path fill="none" stroke="midnightblue" d="M504.427,-392.412C514.513,-388.251 525.925,-383.221 536,-378 557.974,-366.612 581.777,-351.64 598.922,-340.35"/>
<polygon fill="midnightblue" stroke="midnightblue" points="601.322,-342.957 607.708,-334.503 597.444,-337.13 601.322,-342.957"/>
</g>
<!-- Node24&#45;&gt;Node9 -->
<g id="edge102" class="edge"><title>Node24&#45;&gt;Node9</title>
<path fill="none" stroke="midnightblue" d="M488.557,-392.123C500.635,-380.645 520.016,-361.91 536,-345 552.658,-327.377 555.994,-322.217 572,-304 583.68,-290.707 596.871,-275.706 606.911,-264.291"/>
<polygon fill="midnightblue" stroke="midnightblue" points="609.622,-266.508 613.598,-256.688 604.365,-261.885 609.622,-266.508"/>
</g>
<!-- Node24&#45;&gt;Node11 -->
<g id="edge98" class="edge"><title>Node24&#45;&gt;Node11</title>
<path fill="none" stroke="midnightblue" d="M508.056,-409.266C517.699,-412.279 527.91,-416.666 536,-423 556.89,-439.356 594.461,-505.895 612.617,-539.451"/>
<polygon fill="midnightblue" stroke="midnightblue" points="609.578,-541.19 617.392,-548.345 615.745,-537.878 609.578,-541.19"/>
</g>
</g>
</svg>
