<?xml version="1.0" encoding="UTF-8" standalone="no"?>
<!DOCTYPE svg PUBLIC "-//W3C//DTD SVG 1.1//EN"
 "http://www.w3.org/Graphics/SVG/1.1/DTD/svg11.dtd">
<!-- Generated by graphviz version 2.26.3 (20100126.1600)
 -->
<!-- Title: varIsNULL Pages: 1 -->
<!--zoomable 287 -->
<svg id="main" version="1.1" xmlns="http://www.w3.org/2000/svg" xmlns:xlink="http://www.w3.org/1999/xlink" xml:space="preserve" onload="init(evt)">
        <defs>
                <circle id="rim" cx="0" cy="0" r="7"/>
                <circle id="rim2" cx="0" cy="0" r="3.5"/>
                <g id="zoomPlus">
                        <use xlink:href="#rim" fill="#404040">
                                <set attributeName="fill" to="#808080" begin="zoomplus.mouseover" end="zoomplus.mouseout"/>
                        </use>
                        <path d="M-4,0h8M0,-4v8" fill="none" stroke="white" stroke-width="1.5" pointer-events="none"/>
                </g>
                <g id="zoomMin">
                        <use xlink:href="#rim" fill="#404040">
                                <set attributeName="fill" to="#808080" begin="zoomminus.mouseover" end="zoomminus.mouseout"/>
                        </use>
                        <path d="M-4,0h8" fill="none" stroke="white" stroke-width="1.5" pointer-events="none"/>
                </g>
                <g id="dirArrow">
                        <path fill="none" stroke="white" stroke-width="1.5" d="M0,-3.0v7 M-2.5,-0.5L0,-3.0L2.5,-0.5"/>
                </g>
               <g id="resetDef">
                       <use xlink:href="#rim2" fill="#404040">
                               <set attributeName="fill" to="#808080" begin="reset.mouseover" end="reset.mouseout"/>
                       </use>
               </g>
        </defs>

<script type="text/javascript">
var viewWidth = 558;
var viewHeight = 287;
var sectionId = 'dynsection-31';
</script>
<script xlink:href="svgpan.js"/>
<svg id="graph" class="graph">
<g id="viewport">
<title>varIsNULL</title>
<polygon fill="white" stroke="white" points="-4,5 -4,-283.127 555,-283.127 555,5 -4,5"/>
<!-- Node1 -->
<g id="node1" class="node"><title>Node1</title>
<polygon fill="#bfbfbf" stroke="black" points="0,-137.627 0,-158.627 60,-158.627 60,-137.627 0,-137.627"/>
<text text-anchor="middle" x="30" y="-145.627" font-family="Helvetica,sans-Serif" font-size="10.00">varIsNULL</text>
</g>
<!-- Node2 -->
<g id="node3" class="node"><title>Node2</title>
<a xlink:href="a00001.html#aaecea663190c6ce2edd146c3133f257d" target="_top" xlink:title="check variable type andd process the value in right way">
<polygon fill="white" stroke="black" points="96,-137.627 96,-158.627 160,-158.627 160,-137.627 96,-137.627"/>
<text text-anchor="middle" x="128" y="-145.627" font-family="Helvetica,sans-Serif" font-size="10.00">checkType</text>
</a>
</g>
<!-- Node1&#45;&gt;Node2 -->
<g id="edge2" class="edge"><title>Node1&#45;&gt;Node2</title>
<path fill="none" stroke="midnightblue" d="M70.2765,-148.127C78.7391,-148.127 87.5603,-148.127 95.6863,-148.127"/>
<polygon fill="midnightblue" stroke="midnightblue" points="70.2029,-144.627 60.2029,-148.127 70.2028,-151.627 70.2029,-144.627"/>
</g>
<!-- Node3 -->
<g id="node5" class="node"><title>Node3</title>
<a xlink:href="a00001.html#a6826222eba46dd56dbd5841cdc300efa" target="_top" xlink:title="dBug">
<polygon fill="white" stroke="black" points="235.5,-257.627 235.5,-278.627 274.5,-278.627 274.5,-257.627 235.5,-257.627"/>
<text text-anchor="middle" x="255" y="-265.627" font-family="Helvetica,sans-Serif" font-size="10.00">dBug</text>
</a>
</g>
<!-- Node2&#45;&gt;Node3 -->
<g id="edge4" class="edge"><title>Node2&#45;&gt;Node3</title>
<path fill="none" stroke="midnightblue" d="M136.752,-168.138C147.569,-190.655 168.032,-226.855 196,-248.127 207.536,-256.9 223.16,-261.969 235.432,-264.807"/>
<polygon fill="midnightblue" stroke="midnightblue" points="139.837,-166.471 132.468,-158.858 133.481,-169.404 139.837,-166.471"/>
</g>
<!-- Node4 -->
<g id="node7" class="node"><title>Node4</title>
<a xlink:href="a00001.html#a86ff35452ee612d9e9e9b147e5544acc" target="_top" xlink:title="varIsArray">
<polygon fill="white" stroke="black" points="225.5,-217.627 225.5,-238.627 284.5,-238.627 284.5,-217.627 225.5,-217.627"/>
<text text-anchor="middle" x="255" y="-225.627" font-family="Helvetica,sans-Serif" font-size="10.00">varIsArray</text>
</a>
</g>
<!-- Node2&#45;&gt;Node4 -->
<g id="edge6" class="edge"><title>Node2&#45;&gt;Node4</title>
<path fill="none" stroke="midnightblue" d="M152.178,-165.594C164.405,-176.5 180.018,-189.872 196,-199.127 209.852,-207.149 227.407,-212.58 239.754,-217.474"/>
<polygon fill="midnightblue" stroke="midnightblue" points="154.443,-162.925 144.663,-158.852 149.769,-168.135 154.443,-162.925"/>
</g>
<!-- Node5 -->
<g id="node10" class="node"><title>Node5</title>
<a xlink:href="a00001.html#aaa52412f9f4f725e15aafa3fcd678b1d" target="_top" xlink:title="shows information about curl easy handles">
<polygon fill="white" stroke="black" points="196.5,-177.627 196.5,-198.627 313.5,-198.627 313.5,-177.627 196.5,-177.627"/>
<text text-anchor="middle" x="255" y="-185.627" font-family="Helvetica,sans-Serif" font-size="10.00">varIsCurlEasyResource</text>
</a>
</g>
<!-- Node2&#45;&gt;Node5 -->
<g id="edge10" class="edge"><title>Node2&#45;&gt;Node5</title>
<path fill="none" stroke="midnightblue" d="M169.661,-161.249C186.521,-166.559 205.72,-172.606 221.632,-177.617"/>
<polygon fill="midnightblue" stroke="midnightblue" points="170.637,-157.887 160.047,-158.221 168.534,-164.563 170.637,-157.887"/>
</g>
<!-- Node7 -->
<g id="node15" class="node"><title>Node7</title>
<a xlink:href="a00001.html#a91a251e46645521ab0c05a9b787624f6" target="_top" xlink:title="function used to render exceptions">
<polygon fill="white" stroke="black" points="215,-59.627 215,-80.627 295,-80.627 295,-59.627 215,-59.627"/>
<text text-anchor="middle" x="255" y="-67.627" font-family="Helvetica,sans-Serif" font-size="10.00">varIsException</text>
</a>
</g>
<!-- Node2&#45;&gt;Node7 -->
<g id="edge16" class="edge"><title>Node2&#45;&gt;Node7</title>
<path fill="none" stroke="midnightblue" d="M147.675,-130.546C160.747,-119.447 178.641,-105.331 196,-95.127 205.399,-89.6021 216.248,-84.6436 226.059,-80.6275"/>
<polygon fill="midnightblue" stroke="midnightblue" points="145.106,-128.141 139.835,-137.332 149.687,-133.433 145.106,-128.141"/>
</g>
<!-- Node9 -->
<g id="node19" class="node"><title>Node9</title>
<a xlink:href="a00001.html#a443a941157b2ed03d6a24ae70ece785d" target="_top" xlink:title="checks wheither variable is object of special type (using varIs*Object), and renders it if it is gene...">
<polygon fill="white" stroke="black" points="484.5,-11.627 484.5,-32.627 549.5,-32.627 549.5,-11.627 484.5,-11.627"/>
<text text-anchor="middle" x="517" y="-19.627" font-family="Helvetica,sans-Serif" font-size="10.00">varIsObject</text>
</a>
</g>
<!-- Node2&#45;&gt;Node9 -->
<g id="edge28" class="edge"><title>Node2&#45;&gt;Node9</title>
<path fill="none" stroke="midnightblue" d="M133.335,-127.981C142.4,-102.366 163.095,-60.2127 196,-41.127 289.877,13.3235 425.815,1.32731 486.154,-11.5939"/>
<polygon fill="midnightblue" stroke="midnightblue" points="129.996,-126.932 130.249,-137.523 136.656,-129.086 129.996,-126.932"/>
</g>
<!-- Node10 -->
<g id="node22" class="node"><title>Node10</title>
<a xlink:href="a00001.html#a642e715a1977cf46d40d840b5112465d" target="_top" xlink:title="if variable is an image/gd resource type">
<polygon fill="white" stroke="black" points="209,-137.627 209,-158.627 301,-158.627 301,-137.627 209,-137.627"/>
<text text-anchor="middle" x="255" y="-145.627" font-family="Helvetica,sans-Serif" font-size="10.00">varIsGDResource</text>
</a>
</g>
<!-- Node2&#45;&gt;Node10 -->
<g id="edge24" class="edge"><title>Node2&#45;&gt;Node10</title>
<path fill="none" stroke="midnightblue" d="M170.076,-148.127C182.413,-148.127 195.973,-148.127 208.566,-148.127"/>
<polygon fill="midnightblue" stroke="midnightblue" points="170.047,-144.627 160.047,-148.127 170.047,-151.627 170.047,-144.627"/>
</g>
<!-- Node4&#45;&gt;Node2 -->
<g id="edge8" class="edge"><title>Node4&#45;&gt;Node2</title>
<path fill="none" stroke="midnightblue" d="M215.693,-226.095C208.918,-223.689 202.1,-220.659 196,-217.127 169.296,-201.663 143.622,-174.707 133.054,-158.882"/>
<polygon fill="midnightblue" stroke="midnightblue" points="214.91,-229.518 225.499,-229.16 216.998,-222.836 214.91,-229.518"/>
</g>
<!-- Node6 -->
<g id="node12" class="node"><title>Node6</title>
<a xlink:href="a00001.html#a4ab1e15fa34f8b98071b0eb36883777e" target="_top" xlink:title="shows info about different resources, uses customized rendering founctions when needed">
<polygon fill="white" stroke="black" points="360.5,-137.627 360.5,-158.627 437.5,-158.627 437.5,-137.627 360.5,-137.627"/>
<text text-anchor="middle" x="399" y="-145.627" font-family="Helvetica,sans-Serif" font-size="10.00">varIsResource</text>
</a>
</g>
<!-- Node5&#45;&gt;Node6 -->
<g id="edge12" class="edge"><title>Node5&#45;&gt;Node6</title>
<path fill="none" stroke="midnightblue" d="M302.486,-174.936C321.456,-169.667 343.003,-163.682 360.918,-158.705"/>
<polygon fill="midnightblue" stroke="midnightblue" points="301.533,-171.569 292.834,-177.617 303.406,-178.313 301.533,-171.569"/>
</g>
<!-- Node6&#45;&gt;Node2 -->
<g id="edge14" class="edge"><title>Node6&#45;&gt;Node2</title>
<path fill="none" stroke="midnightblue" d="M352.77,-135.207C340.287,-132.28 326.714,-129.603 314,-128.127 261.905,-122.081 247.909,-120.652 196,-128.127 182.967,-130.004 168.95,-133.806 157.047,-137.595"/>
<polygon fill="midnightblue" stroke="midnightblue" points="351.965,-138.613 362.51,-137.589 353.628,-131.813 351.965,-138.613"/>
</g>
<!-- Node8 -->
<g id="node17" class="node"><title>Node8</title>
<a xlink:href="a00001.html#a783baa8ff544bb8278ac32bce66be5c4" target="_top" xlink:title="varIsSpecialObject">
<polygon fill="white" stroke="black" points="350.5,-59.627 350.5,-80.627 447.5,-80.627 447.5,-59.627 350.5,-59.627"/>
<text text-anchor="middle" x="399" y="-67.627" font-family="Helvetica,sans-Serif" font-size="10.00">varIsSpecialObject</text>
</a>
</g>
<!-- Node7&#45;&gt;Node8 -->
<g id="edge18" class="edge"><title>Node7&#45;&gt;Node8</title>
<path fill="none" stroke="midnightblue" d="M305.464,-70.127C320.049,-70.127 335.933,-70.127 350.402,-70.127"/>
<polygon fill="midnightblue" stroke="midnightblue" points="305.112,-66.6271 295.112,-70.127 305.112,-73.6271 305.112,-66.6271"/>
</g>
<!-- Node8&#45;&gt;Node9 -->
<g id="edge20" class="edge"><title>Node8&#45;&gt;Node9</title>
<path fill="none" stroke="midnightblue" d="M434.342,-55.7507C452.608,-48.3204 474.5,-39.4149 491.165,-32.6362"/>
<polygon fill="midnightblue" stroke="midnightblue" points="432.84,-52.5831 424.896,-59.5932 435.477,-59.0672 432.84,-52.5831"/>
</g>
<!-- Node9&#45;&gt;Node2 -->
<g id="edge22" class="edge"><title>Node9&#45;&gt;Node2</title>
<path fill="none" stroke="midnightblue" d="M473.984,-20.7434C408.987,-15.4327 284.009,-8.07966 196,-59.127 164.114,-77.6214 143.694,-117.776 134.211,-137.503"/>
<polygon fill="midnightblue" stroke="midnightblue" points="474.008,-24.2575 484.264,-21.6009 474.59,-17.2817 474.008,-24.2575"/>
</g>
<!-- Node10&#45;&gt;Node6 -->
<g id="edge26" class="edge"><title>Node10&#45;&gt;Node6</title>
<path fill="none" stroke="midnightblue" d="M311.403,-148.127C327.828,-148.127 345.391,-148.127 360.446,-148.127"/>
<polygon fill="midnightblue" stroke="midnightblue" points="311.355,-144.627 301.355,-148.127 311.355,-151.627 311.355,-144.627"/>
</g>
</g>
</svg>
        <g id="navigator" transform="translate(0 0)" fill="#404254">
                <rect fill="#f2f5e9" fill-opacity="0.5" stroke="#606060" stroke-width=".5" x="0" y="0" width="60" height="60"/>
                <use id="zoomplus" xlink:href="#zoomPlus" x="17" y="9" onmousedown="handleZoom(evt,'in')"/>
                <use id="zoomminus" xlink:href="#zoomMin" x="42" y="9" onmousedown="handleZoom(evt,'out')"/>
                <use id="reset" xlink:href="#resetDef" x="30" y="36" onmousedown="handleReset()"/>
                <g id="arrowUp" xlink:href="#dirArrow" transform="translate(30 24)" onmousedown="handlePan(0,-1)">
                  <use xlink:href="#rim" fill="#404040">
                        <set attributeName="fill" to="#808080" begin="arrowUp.mouseover" end="arrowUp.mouseout"/>
                  </use>
                  <path fill="none" stroke="white" stroke-width="1.5" d="M0,-3.0v7 M-2.5,-0.5L0,-3.0L2.5,-0.5"/>
                </g>
                <g id="arrowRight" xlink:href="#dirArrow" transform="rotate(90) translate(36 -43)" onmousedown="handlePan(1,0)">
                  <use xlink:href="#rim" fill="#404040">
                        <set attributeName="fill" to="#808080" begin="arrowRight.mouseover" end="arrowRight.mouseout"/>
                  </use>
                  <path fill="none" stroke="white" stroke-width="1.5" d="M0,-3.0v7 M-2.5,-0.5L0,-3.0L2.5,-0.5"/>
                </g>
                <g id="arrowDown" xlink:href="#dirArrow" transform="rotate(180) translate(-30 -48)" onmousedown="handlePan(0,1)">
                  <use xlink:href="#rim" fill="#404040">
                        <set attributeName="fill" to="#808080" begin="arrowDown.mouseover" end="arrowDown.mouseout"/>
                  </use>
                  <path fill="none" stroke="white" stroke-width="1.5" d="M0,-3.0v7 M-2.5,-0.5L0,-3.0L2.5,-0.5"/>
                </g>
                <g id="arrowLeft" xlink:href="#dirArrow" transform="rotate(270) translate(-36 17)" onmousedown="handlePan(-1,0)">
                  <use xlink:href="#rim" fill="#404040">
                        <set attributeName="fill" to="#808080" begin="arrowLeft.mouseover" end="arrowLeft.mouseout"/>
                  </use>
                  <path fill="none" stroke="white" stroke-width="1.5" d="M0,-3.0v7 M-2.5,-0.5L0,-3.0L2.5,-0.5"/>
                </g>
        </g>
        <svg viewBox="0 0 15 15" width="100%" height="30px" preserveAspectRatio="xMaxYMin meet">
         <g id="arrow_out" transform="scale(0.3 0.3)">
          <a xlink:href="a00001_acd3532d31c3c50577b2abd56624b3757_icgraph_org.svg" target="_base">
           <rect id="button" ry="5" rx="5" y="6" x="6" height="38" width="38"
                fill="#f2f5e9" fill-opacity="0.5" stroke="#606060" stroke-width="1.0"/>
           <path id="arrow"
             d="M 11.500037,31.436501 C 11.940474,20.09759 22.043105,11.32322 32.158766,21.979434 L 37.068811,17.246167 C 37.068811,17.246167 37.088388,32 37.088388,32 L 22.160133,31.978069 C 22.160133,31.978069 26.997745,27.140456 26.997745,27.140456 C 18.528582,18.264221 13.291696,25.230495 11.500037,31.436501 z"
             style="fill:#404040;"/>
          </a>
         </g>
        </svg>
</svg>
