<?xml version="1.0" encoding="UTF-8" standalone="no"?>
<!DOCTYPE svg PUBLIC "-//W3C//DTD SVG 1.1//EN"
 "http://www.w3.org/Graphics/SVG/1.1/DTD/svg11.dtd">
<!-- Generated by graphviz version 2.26.3 (20100126.1600)
 -->
<!-- Title: makeTableHeader Pages: 1 -->
<!--zoomable 366 -->
<svg id="main" version="1.1" xmlns="http://www.w3.org/2000/svg" xmlns:xlink="http://www.w3.org/1999/xlink" xml:space="preserve" onload="init(evt)">
        <defs>
                <circle id="rim" cx="0" cy="0" r="7"/>
                <circle id="rim2" cx="0" cy="0" r="3.5"/>
                <g id="zoomPlus">
                        <use xlink:href="#rim" fill="#404040">
                                <set attributeName="fill" to="#808080" begin="zoomplus.mouseover" end="zoomplus.mouseout"/>
                        </use>
                        <path d="M-4,0h8M0,-4v8" fill="none" stroke="white" stroke-width="1.5" pointer-events="none"/>
                </g>
                <g id="zoomMin">
                        <use xlink:href="#rim" fill="#404040">
                                <set attributeName="fill" to="#808080" begin="zoomminus.mouseover" end="zoomminus.mouseout"/>
                        </use>
                        <path d="M-4,0h8" fill="none" stroke="white" stroke-width="1.5" pointer-events="none"/>
                </g>
                <g id="dirArrow">
                        <path fill="none" stroke="white" stroke-width="1.5" d="M0,-3.0v7 M-2.5,-0.5L0,-3.0L2.5,-0.5"/>
                </g>
               <g id="resetDef">
                       <use xlink:href="#rim2" fill="#404040">
                               <set attributeName="fill" to="#808080" begin="reset.mouseover" end="reset.mouseout"/>
                       </use>
               </g>
        </defs>

<script type="text/javascript">
var viewWidth = 950;
var viewHeight = 366;
var sectionId = 'dynsection-9';
</script>
<script xlink:href="svgpan.js"/>
<svg id="graph" class="graph">
<g id="viewport">
<title>makeTableHeader</title>
<polygon fill="white" stroke="white" points="-4,5 -4,-362.077 947,-362.077 947,5 -4,5"/>
<!-- Node1 -->
<g id="node1" class="node"><title>Node1</title>
<polygon fill="#bfbfbf" stroke="black" points="0.5,-174.5 0.5,-195.5 95.5,-195.5 95.5,-174.5 0.5,-174.5"/>
<text text-anchor="middle" x="48" y="-182.5" font-family="Helvetica,sans-Serif" font-size="10.00">makeTableHeader</text>
</g>
<!-- Node2 -->
<g id="node3" class="node"><title>Node2</title>
<a xlink:href="a00001.html#ab4bab40a2bcac12276e3e7f2739f1761" target="_top" xlink:title="renders database data">
<polygon fill="white" stroke="black" points="132.5,-232.5 132.5,-253.5 209.5,-253.5 209.5,-232.5 132.5,-232.5"/>
<text text-anchor="middle" x="171" y="-240.5" font-family="Helvetica,sans-Serif" font-size="10.00">renderDBData</text>
</a>
</g>
<!-- Node1&#45;&gt;Node2 -->
<g id="edge2" class="edge"><title>Node1&#45;&gt;Node2</title>
<path fill="none" stroke="midnightblue" d="M79.3727,-199.794C100.951,-209.969 129.102,-223.243 148.476,-232.379"/>
<polygon fill="midnightblue" stroke="midnightblue" points="80.812,-196.603 70.2744,-195.503 77.8264,-202.934 80.812,-196.603"/>
</g>
<!-- Node5 -->
<g id="node9" class="node"><title>Node5</title>
<a xlink:href="a00001.html#a443a941157b2ed03d6a24ae70ece785d" target="_top" xlink:title="checks wheither variable is object of special type (using varIs*Object), and renders it if it is gene...">
<polygon fill="white" stroke="black" points="508.5,-194.5 508.5,-215.5 573.5,-215.5 573.5,-194.5 508.5,-194.5"/>
<text text-anchor="middle" x="541" y="-202.5" font-family="Helvetica,sans-Serif" font-size="10.00">varIsObject</text>
</a>
</g>
<!-- Node1&#45;&gt;Node5 -->
<g id="edge50" class="edge"><title>Node1&#45;&gt;Node5</title>
<path fill="none" stroke="midnightblue" d="M105.747,-187.343C209.951,-191.57 426.227,-200.344 508.38,-203.677"/>
<polygon fill="midnightblue" stroke="midnightblue" points="105.853,-183.844 95.7189,-186.936 105.569,-190.838 105.853,-183.844"/>
</g>
<!-- Node8 -->
<g id="node15" class="node"><title>Node8</title>
<a xlink:href="a00001.html#a86ff35452ee612d9e9e9b147e5544acc" target="_top" xlink:title="varIsArray">
<polygon fill="white" stroke="black" points="739.5,-197.5 739.5,-218.5 798.5,-218.5 798.5,-197.5 739.5,-197.5"/>
<text text-anchor="middle" x="769" y="-205.5" font-family="Helvetica,sans-Serif" font-size="10.00">varIsArray</text>
</a>
</g>
<!-- Node1&#45;&gt;Node8 -->
<g id="edge34" class="edge"><title>Node1&#45;&gt;Node8</title>
<path fill="none" stroke="midnightblue" d="M61.9822,-203.545C77.0549,-222.017 102.842,-249.511 132,-263 196.993,-293.066 220.389,-282 292,-282 292,-282 292,-282 541,-282 546.124,-282 678.378,-238.179 739.067,-217.98"/>
<polygon fill="midnightblue" stroke="midnightblue" points="64.6023,-201.216 55.6564,-195.54 59.1099,-205.556 64.6023,-201.216"/>
</g>
<!-- Node9 -->
<g id="node18" class="node"><title>Node9</title>
<a xlink:href="a00001.html#aaa52412f9f4f725e15aafa3fcd678b1d" target="_top" xlink:title="shows information about curl easy handles">
<polygon fill="white" stroke="black" points="710.5,-39.5 710.5,-60.5 827.5,-60.5 827.5,-39.5 710.5,-39.5"/>
<text text-anchor="middle" x="769" y="-47.5" font-family="Helvetica,sans-Serif" font-size="10.00">varIsCurlEasyResource</text>
</a>
</g>
<!-- Node1&#45;&gt;Node9 -->
<g id="edge36" class="edge"><title>Node1&#45;&gt;Node9</title>
<path fill="none" stroke="midnightblue" d="M61.3834,-166.272C76.424,-146.543 102.613,-115.904 132,-98 195.402,-59.372 217.758,-50 292,-50 292,-50 292,-50 541,-50 598.594,-50 664.371,-50 710.425,-50"/>
<polygon fill="midnightblue" stroke="midnightblue" points="58.4374,-164.369 55.2859,-174.484 64.0575,-168.542 58.4374,-164.369"/>
</g>
<!-- Node10 -->
<g id="node20" class="node"><title>Node10</title>
<a xlink:href="a00001.html#a4ab1e15fa34f8b98071b0eb36883777e" target="_top" xlink:title="shows info about different resources, uses customized rendering founctions when needed">
<polygon fill="white" stroke="black" points="864.5,-79.5 864.5,-100.5 941.5,-100.5 941.5,-79.5 864.5,-79.5"/>
<text text-anchor="middle" x="903" y="-87.5" font-family="Helvetica,sans-Serif" font-size="10.00">varIsResource</text>
</a>
</g>
<!-- Node1&#45;&gt;Node10 -->
<g id="edge52" class="edge"><title>Node1&#45;&gt;Node10</title>
<path fill="none" stroke="midnightblue" d="M55.4327,-205.266C67.1442,-234.311 92.6873,-287.417 132,-316 191.464,-359.235 218.48,-358 292,-358 292,-358 292,-358 642,-358 733.836,-358 764.769,-334.6 828,-268 876.256,-217.173 895.708,-130.697 901.224,-100.657"/>
<polygon fill="midnightblue" stroke="midnightblue" points="58.6199,-203.804 51.7438,-195.743 52.0926,-206.333 58.6199,-203.804"/>
</g>
<!-- Node11 -->
<g id="node23" class="node"><title>Node11</title>
<a xlink:href="a00001.html#a91a251e46645521ab0c05a9b787624f6" target="_top" xlink:title="function used to render exceptions">
<polygon fill="white" stroke="black" points="729,-237.5 729,-258.5 809,-258.5 809,-237.5 729,-237.5"/>
<text text-anchor="middle" x="769" y="-245.5" font-family="Helvetica,sans-Serif" font-size="10.00">varIsException</text>
</a>
</g>
<!-- Node1&#45;&gt;Node11 -->
<g id="edge42" class="edge"><title>Node1&#45;&gt;Node11</title>
<path fill="none" stroke="midnightblue" d="M58.4291,-204.409C72.0945,-227.862 98.3311,-266.697 132,-287 194.178,-324.494 219.392,-320 292,-320 292,-320 292,-320 541,-320 621.53,-320 710.942,-278.652 749.528,-258.624"/>
<polygon fill="midnightblue" stroke="midnightblue" points="61.4685,-202.673 53.5101,-195.679 55.3701,-206.11 61.4685,-202.673"/>
</g>
<!-- Node12 -->
<g id="node26" class="node"><title>Node12</title>
<a xlink:href="a00001.html#a642e715a1977cf46d40d840b5112465d" target="_top" xlink:title="if variable is an image/gd resource type">
<polygon fill="white" stroke="black" points="723,-79.5 723,-100.5 815,-100.5 815,-79.5 723,-79.5"/>
<text text-anchor="middle" x="769" y="-87.5" font-family="Helvetica,sans-Serif" font-size="10.00">varIsGDResource</text>
</a>
</g>
<!-- Node1&#45;&gt;Node12 -->
<g id="edge44" class="edge"><title>Node1&#45;&gt;Node12</title>
<path fill="none" stroke="midnightblue" d="M71.2937,-168.803C113.335,-141.201 205.575,-88 292,-88 292,-88 292,-88 541,-88 603.94,-88 676.649,-88.7715 722.713,-89.3562"/>
<polygon fill="midnightblue" stroke="midnightblue" points="69.2394,-165.966 62.8723,-174.435 73.1305,-171.785 69.2394,-165.966"/>
</g>
<!-- Node13 -->
<g id="node32" class="node"><title>Node13</title>
<a xlink:href="a00001.html#a14955ad355cef1e5d7898fb57023c999" target="_top" xlink:title="renders database resource (fetch result) into table or ... smth else">
<polygon fill="white" stroke="black" points="246.5,-0.5 246.5,-21.5 337.5,-21.5 337.5,-0.5 246.5,-0.5"/>
<text text-anchor="middle" x="292" y="-8.5" font-family="Helvetica,sans-Serif" font-size="10.00">varIsDBResource</text>
</a>
</g>
<!-- Node1&#45;&gt;Node13 -->
<g id="edge38" class="edge"><title>Node1&#45;&gt;Node13</title>
<path fill="none" stroke="midnightblue" d="M53.3693,-164.239C63.0697,-131.229 86.8335,-67.3145 132,-36 165.387,-12.8526 212.06,-7.87129 246.383,-7.92316"/>
<polygon fill="midnightblue" stroke="midnightblue" points="49.9184,-163.585 50.6081,-174.157 56.6619,-165.462 49.9184,-163.585"/>
</g>
<!-- Node14 -->
<g id="node37" class="node"><title>Node14</title>
<a xlink:href="a00001.html#acd3532d31c3c50577b2abd56624b3757" target="_top" xlink:title="renders NULL as red&#45;pink rectangle">
<polygon fill="white" stroke="black" points="393,-116.5 393,-137.5 453,-137.5 453,-116.5 393,-116.5"/>
<text text-anchor="middle" x="423" y="-124.5" font-family="Helvetica,sans-Serif" font-size="10.00">varIsNULL</text>
</a>
</g>
<!-- Node1&#45;&gt;Node14 -->
<g id="edge46" class="edge"><title>Node1&#45;&gt;Node14</title>
<path fill="none" stroke="midnightblue" d="M79.0522,-170.317C94.6073,-163.608 113.934,-156.23 132,-152 225.312,-130.15 339.455,-126.936 392.811,-126.751"/>
<polygon fill="midnightblue" stroke="midnightblue" points="77.6237,-167.122 69.8994,-174.373 80.4599,-173.521 77.6237,-167.122"/>
</g>
<!-- Node15 -->
<g id="node42" class="node"><title>Node15</title>
<a xlink:href="a00001.html#a1dce801bff273c92008ec238b5480928" target="_top" xlink:title="renders string either as primitive type (if it is short (less than $embeddedStringMaxLength chars) an...">
<polygon fill="white" stroke="black" points="510,-154.5 510,-175.5 572,-175.5 572,-154.5 510,-154.5"/>
<text text-anchor="middle" x="541" y="-162.5" font-family="Helvetica,sans-Serif" font-size="10.00">varIsString</text>
</a>
</g>
<!-- Node1&#45;&gt;Node15 -->
<g id="edge54" class="edge"><title>Node1&#45;&gt;Node15</title>
<path fill="none" stroke="midnightblue" d="M105.81,-182.655C210.692,-178.4 428.956,-169.545 509.907,-166.261"/>
<polygon fill="midnightblue" stroke="midnightblue" points="105.569,-179.162 95.7189,-183.064 105.853,-186.156 105.569,-179.162"/>
</g>
<!-- Node3 -->
<g id="node5" class="node"><title>Node3</title>
<a xlink:href="a00001.html#aff5b4a4ce77391ef5bc5f2637ac683b1" target="_top" xlink:title="renders either PDO or SQLite3 statement objects">
<polygon fill="white" stroke="black" points="253,-232.5 253,-253.5 331,-253.5 331,-232.5 253,-232.5"/>
<text text-anchor="middle" x="292" y="-240.5" font-family="Helvetica,sans-Serif" font-size="10.00">varIsDBObject</text>
</a>
</g>
<!-- Node2&#45;&gt;Node3 -->
<g id="edge4" class="edge"><title>Node2&#45;&gt;Node3</title>
<path fill="none" stroke="midnightblue" d="M219.929,-243C230.904,-243 242.406,-243 252.918,-243"/>
<polygon fill="midnightblue" stroke="midnightblue" points="219.618,-239.5 209.618,-243 219.618,-246.5 219.618,-239.5"/>
</g>
<!-- Node4 -->
<g id="node7" class="node"><title>Node4</title>
<a xlink:href="a00001.html#a783baa8ff544bb8278ac32bce66be5c4" target="_top" xlink:title="varIsSpecialObject">
<polygon fill="white" stroke="black" points="374.5,-232.5 374.5,-253.5 471.5,-253.5 471.5,-232.5 374.5,-232.5"/>
<text text-anchor="middle" x="423" y="-240.5" font-family="Helvetica,sans-Serif" font-size="10.00">varIsSpecialObject</text>
</a>
</g>
<!-- Node3&#45;&gt;Node4 -->
<g id="edge6" class="edge"><title>Node3&#45;&gt;Node4</title>
<path fill="none" stroke="midnightblue" d="M341.435,-243C352.243,-243 363.674,-243 374.447,-243"/>
<polygon fill="midnightblue" stroke="midnightblue" points="341.304,-239.5 331.304,-243 341.304,-246.5 341.304,-239.5"/>
</g>
<!-- Node4&#45;&gt;Node5 -->
<g id="edge8" class="edge"><title>Node4&#45;&gt;Node5</title>
<path fill="none" stroke="midnightblue" d="M465.794,-229.219C479.813,-224.704 495.156,-219.763 508.307,-215.528"/>
<polygon fill="midnightblue" stroke="midnightblue" points="464.315,-226.018 455.87,-232.415 466.461,-232.681 464.315,-226.018"/>
</g>
<!-- Node6 -->
<g id="node11" class="node"><title>Node6</title>
<a xlink:href="a00001.html#aaecea663190c6ce2edd146c3133f257d" target="_top" xlink:title="check variable type andd process the value in right way">
<polygon fill="white" stroke="black" points="610,-157.5 610,-178.5 674,-178.5 674,-157.5 610,-157.5"/>
<text text-anchor="middle" x="642" y="-165.5" font-family="Helvetica,sans-Serif" font-size="10.00">checkType</text>
</a>
</g>
<!-- Node5&#45;&gt;Node6 -->
<g id="edge10" class="edge"><title>Node5&#45;&gt;Node6</title>
<path fill="none" stroke="midnightblue" d="M565.76,-190.029C579.021,-184.212 595.515,-178.023 609.765,-173.468"/>
<polygon fill="midnightblue" stroke="midnightblue" points="563.956,-187.006 556.34,-194.371 566.887,-193.363 563.956,-187.006"/>
</g>
<!-- Node6&#45;&gt;Node5 -->
<g id="edge32" class="edge"><title>Node6&#45;&gt;Node5</title>
<path fill="none" stroke="midnightblue" d="M617.404,-182.9C604.201,-188.7 587.759,-194.878 573.513,-199.443"/>
<polygon fill="midnightblue" stroke="midnightblue" points="619.167,-185.941 626.778,-178.571 616.232,-179.585 619.167,-185.941"/>
</g>
<!-- Node7 -->
<g id="node13" class="node"><title>Node7</title>
<a xlink:href="a00001.html#a6826222eba46dd56dbd5841cdc300efa" target="_top" xlink:title="dBug">
<polygon fill="white" stroke="black" points="749.5,-157.5 749.5,-178.5 788.5,-178.5 788.5,-157.5 749.5,-157.5"/>
<text text-anchor="middle" x="769" y="-165.5" font-family="Helvetica,sans-Serif" font-size="10.00">dBug</text>
</a>
</g>
<!-- Node6&#45;&gt;Node7 -->
<g id="edge12" class="edge"><title>Node6&#45;&gt;Node7</title>
<path fill="none" stroke="midnightblue" d="M684.14,-168C706.097,-168 731.911,-168 749.252,-168"/>
<polygon fill="midnightblue" stroke="midnightblue" points="684.047,-164.5 674.047,-168 684.047,-171.5 684.047,-164.5"/>
</g>
<!-- Node6&#45;&gt;Node8 -->
<g id="edge14" class="edge"><title>Node6&#45;&gt;Node8</title>
<path fill="none" stroke="midnightblue" d="M683.85,-174.793C706.658,-181.186 733.699,-190.208 751.09,-197.488"/>
<polygon fill="midnightblue" stroke="midnightblue" points="684.614,-171.374 674.047,-172.141 682.787,-178.131 684.614,-171.374"/>
</g>
<!-- Node6&#45;&gt;Node9 -->
<g id="edge18" class="edge"><title>Node6&#45;&gt;Node9</title>
<path fill="none" stroke="midnightblue" d="M650.853,-148.391C661.764,-126.326 682.314,-90.8512 710,-70 715.011,-66.2261 720.78,-63.1357 726.706,-60.6127"/>
<polygon fill="midnightblue" stroke="midnightblue" points="647.663,-146.951 646.527,-157.484 653.984,-149.958 647.663,-146.951"/>
</g>
<!-- Node6&#45;&gt;Node11 -->
<g id="edge24" class="edge"><title>Node6&#45;&gt;Node11</title>
<path fill="none" stroke="midnightblue" d="M658.815,-186.311C671.731,-199.455 690.594,-216.762 710,-228 716.364,-231.686 723.511,-234.824 730.574,-237.447"/>
<polygon fill="midnightblue" stroke="midnightblue" points="661.031,-183.565 651.59,-178.757 655.973,-188.403 661.031,-183.565"/>
</g>
<!-- Node6&#45;&gt;Node12 -->
<g id="edge28" class="edge"><title>Node6&#45;&gt;Node12</title>
<path fill="none" stroke="midnightblue" d="M661.675,-150.419C674.747,-139.32 692.641,-125.204 710,-115 719.399,-109.475 730.248,-104.517 740.059,-100.501"/>
<polygon fill="midnightblue" stroke="midnightblue" points="659.106,-148.014 653.835,-157.205 663.687,-153.306 659.106,-148.014"/>
</g>
<!-- Node8&#45;&gt;Node6 -->
<g id="edge16" class="edge"><title>Node8&#45;&gt;Node6</title>
<path fill="none" stroke="midnightblue" d="M729.478,-201.855C706.212,-195.436 677.914,-186.047 659.927,-178.519"/>
<polygon fill="midnightblue" stroke="midnightblue" points="728.863,-205.313 739.426,-204.493 730.657,-198.547 728.863,-205.313"/>
</g>
<!-- Node9&#45;&gt;Node10 -->
<g id="edge20" class="edge"><title>Node9&#45;&gt;Node10</title>
<path fill="none" stroke="midnightblue" d="M814.163,-63.4814C831.575,-68.6792 851.197,-74.5365 867.563,-79.4218"/>
<polygon fill="midnightblue" stroke="midnightblue" points="814.79,-60.0162 804.207,-60.5095 812.788,-66.7237 814.79,-60.0162"/>
</g>
<!-- Node10&#45;&gt;Node6 -->
<g id="edge22" class="edge"><title>Node10&#45;&gt;Node6</title>
<path fill="none" stroke="midnightblue" d="M858.106,-103.417C805.649,-119.093 720.169,-144.639 674.004,-158.436"/>
<polygon fill="midnightblue" stroke="midnightblue" points="859.238,-106.731 867.817,-100.514 857.234,-100.024 859.238,-106.731"/>
</g>
<!-- Node11&#45;&gt;Node4 -->
<g id="edge26" class="edge"><title>Node11&#45;&gt;Node4</title>
<path fill="none" stroke="midnightblue" d="M718.576,-247.271C652.445,-246.316 537.175,-244.65 471.84,-243.706"/>
<polygon fill="midnightblue" stroke="midnightblue" points="718.703,-250.773 728.752,-247.418 718.804,-243.774 718.703,-250.773"/>
</g>
<!-- Node12&#45;&gt;Node10 -->
<g id="edge30" class="edge"><title>Node12&#45;&gt;Node10</title>
<path fill="none" stroke="midnightblue" d="M825.469,-90C838.576,-90 852.235,-90 864.371,-90"/>
<polygon fill="midnightblue" stroke="midnightblue" points="825.115,-86.5001 815.115,-90 825.115,-93.5001 825.115,-86.5001"/>
</g>
<!-- Node13&#45;&gt;Node10 -->
<g id="edge40" class="edge"><title>Node13&#45;&gt;Node10</title>
<path fill="none" stroke="midnightblue" d="M347.944,-11C398.409,-11 474.674,-11 541,-11 541,-11 541,-11 642,-11 725.097,-11 751.088,1.45939 828,-30 855.163,-41.1106 880.426,-65.3035 893.563,-79.3391"/>
<polygon fill="midnightblue" stroke="midnightblue" points="347.893,-7.5001 337.893,-11 347.893,-14.5001 347.893,-7.5001"/>
</g>
<!-- Node14&#45;&gt;Node6 -->
<g id="edge48" class="edge"><title>Node14&#45;&gt;Node6</title>
<path fill="none" stroke="midnightblue" d="M463.398,-129.528C494.033,-131.995 537.029,-136.639 574,-145 587.736,-148.106 602.595,-152.952 614.909,-157.395"/>
<polygon fill="midnightblue" stroke="midnightblue" points="463.345,-126.014 453.108,-128.744 462.813,-132.994 463.345,-126.014"/>
</g>
<!-- Node15&#45;&gt;Node6 -->
<g id="edge56" class="edge"><title>Node15&#45;&gt;Node6</title>
<path fill="none" stroke="midnightblue" d="M582.236,-166.225C591.409,-166.497 601.003,-166.782 609.753,-167.042"/>
<polygon fill="midnightblue" stroke="midnightblue" points="582.227,-162.723 572.127,-165.925 582.019,-169.72 582.227,-162.723"/>
</g>
</g>
</svg>
        <g id="navigator" transform="translate(0 0)" fill="#404254">
                <rect fill="#f2f5e9" fill-opacity="0.5" stroke="#606060" stroke-width=".5" x="0" y="0" width="60" height="60"/>
                <use id="zoomplus" xlink:href="#zoomPlus" x="17" y="9" onmousedown="handleZoom(evt,'in')"/>
                <use id="zoomminus" xlink:href="#zoomMin" x="42" y="9" onmousedown="handleZoom(evt,'out')"/>
                <use id="reset" xlink:href="#resetDef" x="30" y="36" onmousedown="handleReset()"/>
                <g id="arrowUp" xlink:href="#dirArrow" transform="translate(30 24)" onmousedown="handlePan(0,-1)">
                  <use xlink:href="#rim" fill="#404040">
                        <set attributeName="fill" to="#808080" begin="arrowUp.mouseover" end="arrowUp.mouseout"/>
                  </use>
                  <path fill="none" stroke="white" stroke-width="1.5" d="M0,-3.0v7 M-2.5,-0.5L0,-3.0L2.5,-0.5"/>
                </g>
                <g id="arrowRight" xlink:href="#dirArrow" transform="rotate(90) translate(36 -43)" onmousedown="handlePan(1,0)">
                  <use xlink:href="#rim" fill="#404040">
                        <set attributeName="fill" to="#808080" begin="arrowRight.mouseover" end="arrowRight.mouseout"/>
                  </use>
                  <path fill="none" stroke="white" stroke-width="1.5" d="M0,-3.0v7 M-2.5,-0.5L0,-3.0L2.5,-0.5"/>
                </g>
                <g id="arrowDown" xlink:href="#dirArrow" transform="rotate(180) translate(-30 -48)" onmousedown="handlePan(0,1)">
                  <use xlink:href="#rim" fill="#404040">
                        <set attributeName="fill" to="#808080" begin="arrowDown.mouseover" end="arrowDown.mouseout"/>
                  </use>
                  <path fill="none" stroke="white" stroke-width="1.5" d="M0,-3.0v7 M-2.5,-0.5L0,-3.0L2.5,-0.5"/>
                </g>
                <g id="arrowLeft" xlink:href="#dirArrow" transform="rotate(270) translate(-36 17)" onmousedown="handlePan(-1,0)">
                  <use xlink:href="#rim" fill="#404040">
                        <set attributeName="fill" to="#808080" begin="arrowLeft.mouseover" end="arrowLeft.mouseout"/>
                  </use>
                  <path fill="none" stroke="white" stroke-width="1.5" d="M0,-3.0v7 M-2.5,-0.5L0,-3.0L2.5,-0.5"/>
                </g>
        </g>
        <svg viewBox="0 0 15 15" width="100%" height="30px" preserveAspectRatio="xMaxYMin meet">
         <g id="arrow_out" transform="scale(0.3 0.3)">
          <a xlink:href="a00001_a04aa495573c880043c46c3bfc669bbe3_icgraph_org.svg" target="_base">
           <rect id="button" ry="5" rx="5" y="6" x="6" height="38" width="38"
                fill="#f2f5e9" fill-opacity="0.5" stroke="#606060" stroke-width="1.0"/>
           <path id="arrow"
             d="M 11.500037,31.436501 C 11.940474,20.09759 22.043105,11.32322 32.158766,21.979434 L 37.068811,17.246167 C 37.068811,17.246167 37.088388,32 37.088388,32 L 22.160133,31.978069 C 22.160133,31.978069 26.997745,27.140456 26.997745,27.140456 C 18.528582,18.264221 13.291696,25.230495 11.500037,31.436501 z"
             style="fill:#404040;"/>
          </a>
         </g>
        </svg>
</svg>
