<?xml version="1.0" encoding="UTF-8" standalone="no"?>
<!DOCTYPE svg PUBLIC "-//W3C//DTD SVG 1.1//EN"
 "http://www.w3.org/Graphics/SVG/1.1/DTD/svg11.dtd">
<!-- Generated by graphviz version 2.26.3 (20100126.1600)
 -->
<!-- Title: checkType Pages: 1 -->
<!--zoomable 612 -->
<svg id="main" version="1.1" xmlns="http://www.w3.org/2000/svg" xmlns:xlink="http://www.w3.org/1999/xlink" xml:space="preserve" onload="init(evt)">
        <defs>
                <circle id="rim" cx="0" cy="0" r="7"/>
                <circle id="rim2" cx="0" cy="0" r="3.5"/>
                <g id="zoomPlus">
                        <use xlink:href="#rim" fill="#404040">
                                <set attributeName="fill" to="#808080" begin="zoomplus.mouseover" end="zoomplus.mouseout"/>
                        </use>
                        <path d="M-4,0h8M0,-4v8" fill="none" stroke="white" stroke-width="1.5" pointer-events="none"/>
                </g>
                <g id="zoomMin">
                        <use xlink:href="#rim" fill="#404040">
                                <set attributeName="fill" to="#808080" begin="zoomminus.mouseover" end="zoomminus.mouseout"/>
                        </use>
                        <path d="M-4,0h8" fill="none" stroke="white" stroke-width="1.5" pointer-events="none"/>
                </g>
                <g id="dirArrow">
                        <path fill="none" stroke="white" stroke-width="1.5" d="M0,-3.0v7 M-2.5,-0.5L0,-3.0L2.5,-0.5"/>
                </g>
               <g id="resetDef">
                       <use xlink:href="#rim2" fill="#404040">
                               <set attributeName="fill" to="#808080" begin="reset.mouseover" end="reset.mouseout"/>
                       </use>
               </g>
        </defs>

<script type="text/javascript">
var viewWidth = 1000;
var viewHeight = 612;
var sectionId = 'dynsection-1';
</script>
<script xlink:href="svgpan.js"/>
<svg id="graph" class="graph">
<g id="viewport">
<title>checkType</title>
<polygon fill="white" stroke="white" points="-4,5 -4,-608 997,-608 997,5 -4,5"/>
<!-- Node1 -->
<g id="node1" class="node"><title>Node1</title>
<polygon fill="#bfbfbf" stroke="black" points="0,-334.5 0,-355.5 64,-355.5 64,-334.5 0,-334.5"/>
<text text-anchor="middle" x="32" y="-342.5" font-family="Helvetica,sans-Serif" font-size="10.00">checkType</text>
</g>
<!-- Node2 -->
<g id="node3" class="node"><title>Node2</title>
<a xlink:href="a00001.html#a86ff35452ee612d9e9e9b147e5544acc" target="_top" xlink:title="varIsArray">
<polygon fill="white" stroke="black" points="371.5,-274.5 371.5,-295.5 430.5,-295.5 430.5,-274.5 371.5,-274.5"/>
<text text-anchor="middle" x="401" y="-282.5" font-family="Helvetica,sans-Serif" font-size="10.00">varIsArray</text>
</a>
</g>
<!-- Node1&#45;&gt;Node2 -->
<g id="edge2" class="edge"><title>Node1&#45;&gt;Node2</title>
<path fill="none" stroke="midnightblue" d="M49.5979,-334.448C63.3188,-330.347 82.8576,-326.879 100,-324 193.59,-308.281 303.77,-291.029 361.367,-285.201"/>
<polygon fill="midnightblue" stroke="midnightblue" points="361.865,-288.669 371.494,-284.248 361.21,-281.7 361.865,-288.669"/>
</g>
<!-- Node9 -->
<g id="node18" class="node"><title>Node9</title>
<a xlink:href="a00001.html#a5ebd24b62872515b28e27182857bfe7f" target="_top" xlink:title="renders boolean variable">
<polygon fill="white" stroke="black" points="100.5,-582.5 100.5,-603.5 171.5,-603.5 171.5,-582.5 100.5,-582.5"/>
<text text-anchor="middle" x="136" y="-590.5" font-family="Helvetica,sans-Serif" font-size="10.00">varIsBoolean</text>
</a>
</g>
<!-- Node1&#45;&gt;Node9 -->
<g id="edge18" class="edge"><title>Node1&#45;&gt;Node9</title>
<path fill="none" stroke="midnightblue" d="M33.4974,-355.512C38.4777,-387.873 56.6881,-488.026 100,-558 103.884,-564.275 109.136,-570.227 114.426,-575.384"/>
<polygon fill="midnightblue" stroke="midnightblue" points="112.296,-578.178 122.05,-582.315 117.005,-572.998 112.296,-578.178"/>
</g>
<!-- Node11 -->
<g id="node23" class="node"><title>Node11</title>
<a xlink:href="a00001.html#acd3532d31c3c50577b2abd56624b3757" target="_top" xlink:title="renders NULL as red&#45;pink rectangle">
<polygon fill="white" stroke="black" points="106,-475.5 106,-496.5 166,-496.5 166,-475.5 106,-475.5"/>
<text text-anchor="middle" x="136" y="-483.5" font-family="Helvetica,sans-Serif" font-size="10.00">varIsNULL</text>
</a>
</g>
<!-- Node1&#45;&gt;Node11 -->
<g id="edge24" class="edge"><title>Node1&#45;&gt;Node11</title>
<path fill="none" stroke="midnightblue" d="M36.9882,-355.542C47.0605,-376.19 71.327,-422.833 100,-456 103.857,-460.462 108.417,-464.803 112.973,-468.733"/>
<polygon fill="midnightblue" stroke="midnightblue" points="111.055,-471.686 121.014,-475.302 115.484,-466.265 111.055,-471.686"/>
</g>
<!-- Node12 -->
<g id="node26" class="node"><title>Node12</title>
<a xlink:href="a00001.html#a44eb38e42426f01840a0d12fe6a6a05f" target="_top" xlink:title="renders numeric types : integers and doubles">
<polygon fill="white" stroke="black" points="221,-548.5 221,-569.5 293,-569.5 293,-548.5 221,-548.5"/>
<text text-anchor="middle" x="257" y="-556.5" font-family="Helvetica,sans-Serif" font-size="10.00">varIsNumeric</text>
</a>
</g>
<!-- Node1&#45;&gt;Node12 -->
<g id="edge28" class="edge"><title>Node1&#45;&gt;Node12</title>
<path fill="none" stroke="midnightblue" d="M33.4614,-355.74C37.9206,-384.374 53.9739,-463.263 100,-506 130.377,-534.206 176.298,-547.451 210.641,-553.641"/>
<polygon fill="midnightblue" stroke="midnightblue" points="210.459,-557.159 220.897,-555.344 211.606,-550.253 210.459,-557.159"/>
</g>
<!-- Node13 -->
<g id="node29" class="node"><title>Node13</title>
<a xlink:href="a00001.html#a443a941157b2ed03d6a24ae70ece785d" target="_top" xlink:title="checks wheither variable is object of special type (using varIs*Object), and renders it if it is gene...">
<polygon fill="white" stroke="black" points="103.5,-354.5 103.5,-375.5 168.5,-375.5 168.5,-354.5 103.5,-354.5"/>
<text text-anchor="middle" x="136" y="-362.5" font-family="Helvetica,sans-Serif" font-size="10.00">varIsObject</text>
</a>
</g>
<!-- Node1&#45;&gt;Node13 -->
<g id="edge32" class="edge"><title>Node1&#45;&gt;Node13</title>
<path fill="none" stroke="midnightblue" d="M64.052,-344.876C75.9886,-346.591 89.5781,-349.171 101.708,-352.016"/>
<polygon fill="midnightblue" stroke="midnightblue" points="100.935,-355.43 111.485,-354.455 102.63,-348.639 100.935,-355.43"/>
</g>
<!-- Node18 -->
<g id="node48" class="node"><title>Node18</title>
<a xlink:href="a00001.html#a4ab1e15fa34f8b98071b0eb36883777e" target="_top" xlink:title="shows info about different resources, uses customized rendering founctions when needed">
<polygon fill="white" stroke="black" points="218.5,-117.5 218.5,-138.5 295.5,-138.5 295.5,-117.5 218.5,-117.5"/>
<text text-anchor="middle" x="257" y="-125.5" font-family="Helvetica,sans-Serif" font-size="10.00">varIsResource</text>
</a>
</g>
<!-- Node1&#45;&gt;Node18 -->
<g id="edge60" class="edge"><title>Node1&#45;&gt;Node18</title>
<path fill="none" stroke="midnightblue" d="M33.3015,-334.405C37.4245,-305.396 52.8403,-223.922 100,-180 129.515,-152.512 173.909,-139.533 207.968,-133.418"/>
<polygon fill="midnightblue" stroke="midnightblue" points="208.882,-136.814 218.178,-131.731 207.741,-129.908 208.882,-136.814"/>
</g>
<!-- Node23 -->
<g id="node69" class="node"><title>Node23</title>
<a xlink:href="a00001.html#a1dce801bff273c92008ec238b5480928" target="_top" xlink:title="renders string either as primitive type (if it is short (less than $embeddedStringMaxLength chars) an...">
<polygon fill="white" stroke="black" points="370,-392.5 370,-413.5 432,-413.5 432,-392.5 370,-392.5"/>
<text text-anchor="middle" x="401" y="-400.5" font-family="Helvetica,sans-Serif" font-size="10.00">varIsString</text>
</a>
</g>
<!-- Node1&#45;&gt;Node23 -->
<g id="edge92" class="edge"><title>Node1&#45;&gt;Node23</title>
<path fill="none" stroke="midnightblue" d="M48.0084,-355.615C61.4935,-364.26 81.4929,-376.399 100,-385 146.145,-406.444 157.842,-414.433 208,-423 259.971,-431.876 320.535,-422.423 359.758,-413.735"/>
<polygon fill="midnightblue" stroke="midnightblue" points="360.781,-417.092 369.741,-411.438 359.211,-410.27 360.781,-417.092"/>
</g>
<!-- Node2&#45;&gt;Node1 -->
<g id="edge16" class="edge"><title>Node2&#45;&gt;Node1</title>
<path fill="none" stroke="midnightblue" d="M371.494,-294.831C317.55,-306.876 199.415,-325.303 100,-342 91.6791,-343.398 82.7936,-344.934 74.2829,-346.24"/>
<polygon fill="midnightblue" stroke="midnightblue" points="73.5522,-342.808 64.1507,-347.693 74.5465,-349.738 73.5522,-342.808"/>
</g>
<!-- Node3 -->
<g id="node5" class="node"><title>Node3</title>
<a xlink:href="a00001.html#a04aa495573c880043c46c3bfc669bbe3" target="_top" xlink:title="creates the main table header">
<polygon fill="white" stroke="black" points="634.5,-352.5 634.5,-373.5 729.5,-373.5 729.5,-352.5 634.5,-352.5"/>
<text text-anchor="middle" x="682" y="-360.5" font-family="Helvetica,sans-Serif" font-size="10.00">makeTableHeader</text>
</a>
</g>
<!-- Node2&#45;&gt;Node3 -->
<g id="edge4" class="edge"><title>Node2&#45;&gt;Node3</title>
<path fill="none" stroke="midnightblue" d="M430.748,-283.238C470.253,-281.922 541.603,-283.142 598,-304 622.909,-313.212 647.282,-331.692 663.303,-345.528"/>
<polygon fill="midnightblue" stroke="midnightblue" points="661.08,-348.235 670.878,-352.267 665.733,-343.005 661.08,-348.235"/>
</g>
<!-- Node7 -->
<g id="node13" class="node"><title>Node7</title>
<a xlink:href="a00001.html#a0cff4870612d64738cd84a47dbb36b1d" target="_top" xlink:title="creates the table row header">
<polygon fill="white" stroke="black" points="505.5,-313.5 505.5,-334.5 588.5,-334.5 588.5,-313.5 505.5,-313.5"/>
<text text-anchor="middle" x="547" y="-321.5" font-family="Helvetica,sans-Serif" font-size="10.00">makeTDHeader</text>
</a>
</g>
<!-- Node2&#45;&gt;Node7 -->
<g id="edge12" class="edge"><title>Node2&#45;&gt;Node7</title>
<path fill="none" stroke="midnightblue" d="M430.545,-292.892C449.852,-298.05 475.535,-304.91 497.869,-310.876"/>
<polygon fill="midnightblue" stroke="midnightblue" points="496.968,-314.258 507.532,-313.457 498.774,-307.495 496.968,-314.258"/>
</g>
<!-- Node8 -->
<g id="node15" class="node"><title>Node8</title>
<a xlink:href="a00001.html#aaa2a0a3c482abd677b2bc2fa137e6c91" target="_top" xlink:title="closes table row">
<polygon fill="white" stroke="black" points="511.5,-235.5 511.5,-256.5 582.5,-256.5 582.5,-235.5 511.5,-235.5"/>
<text text-anchor="middle" x="547" y="-243.5" font-family="Helvetica,sans-Serif" font-size="10.00">closeTDRow</text>
</a>
</g>
<!-- Node2&#45;&gt;Node8 -->
<g id="edge14" class="edge"><title>Node2&#45;&gt;Node8</title>
<path fill="none" stroke="midnightblue" d="M430.545,-277.108C450.868,-271.679 478.256,-264.363 501.366,-258.19"/>
<polygon fill="midnightblue" stroke="midnightblue" points="502.55,-261.496 511.308,-255.534 500.743,-254.734 502.55,-261.496"/>
</g>
<!-- Node4 -->
<g id="node7" class="node"><title>Node4</title>
<a xlink:href="a00001.html#a742973a203c412611192053dc0cd48af" target="_top" xlink:title="initializeHeader">
<polygon fill="white" stroke="black" points="773.5,-431.5 773.5,-452.5 856.5,-452.5 856.5,-431.5 773.5,-431.5"/>
<text text-anchor="middle" x="815" y="-439.5" font-family="Helvetica,sans-Serif" font-size="10.00">initializeHeader</text>
</a>
</g>
<!-- Node3&#45;&gt;Node4 -->
<g id="edge6" class="edge"><title>Node3&#45;&gt;Node4</title>
<path fill="none" stroke="midnightblue" d="M699.937,-373.654C722.644,-387.142 761.96,-410.495 788.225,-426.096"/>
<polygon fill="midnightblue" stroke="midnightblue" points="786.537,-429.164 796.922,-431.262 790.112,-423.146 786.537,-429.164"/>
</g>
<!-- Node6 -->
<g id="node11" class="node"><title>Node6</title>
<a xlink:href="a00001.html#a3396d3c6336b500d49e3a1a0288dc035" target="_top" xlink:title="draws the main table header">
<polygon fill="white" stroke="black" points="766,-352.5 766,-373.5 864,-373.5 864,-352.5 766,-352.5"/>
<text text-anchor="middle" x="815" y="-360.5" font-family="Helvetica,sans-Serif" font-size="10.00">renderTableHeader</text>
</a>
</g>
<!-- Node3&#45;&gt;Node6 -->
<g id="edge10" class="edge"><title>Node3&#45;&gt;Node6</title>
<path fill="none" stroke="midnightblue" d="M729.64,-363C738.105,-363 747.014,-363 755.754,-363"/>
<polygon fill="midnightblue" stroke="midnightblue" points="755.899,-366.5 765.899,-363 755.899,-359.5 755.899,-366.5"/>
</g>
<!-- Node5 -->
<g id="node9" class="node"><title>Node5</title>
<a xlink:href="a00001.html#a20af85a4f4041ed681b095e1427b2a1d" target="_top" xlink:title="getVariableName">
<polygon fill="white" stroke="black" points="900.5,-431.5 900.5,-452.5 991.5,-452.5 991.5,-431.5 900.5,-431.5"/>
<text text-anchor="middle" x="946" y="-439.5" font-family="Helvetica,sans-Serif" font-size="10.00">getVariableName</text>
</a>
</g>
<!-- Node4&#45;&gt;Node5 -->
<g id="edge8" class="edge"><title>Node4&#45;&gt;Node5</title>
<path fill="none" stroke="midnightblue" d="M856.809,-442C867.358,-442 878.854,-442 889.977,-442"/>
<polygon fill="midnightblue" stroke="midnightblue" points="890.05,-445.5 900.05,-442 890.05,-438.5 890.05,-445.5"/>
</g>
<!-- Node10 -->
<g id="node20" class="node"><title>Node10</title>
<a xlink:href="a00001.html#adbad9cee60e948aa3802a45be355a1f3" target="_top" xlink:title="renders table of 2 cells in 1 row [type][value]">
<polygon fill="white" stroke="black" points="496.5,-548.5 496.5,-569.5 597.5,-569.5 597.5,-548.5 496.5,-548.5"/>
<text text-anchor="middle" x="547" y="-556.5" font-family="Helvetica,sans-Serif" font-size="10.00">renderPrimitiveType</text>
</a>
</g>
<!-- Node9&#45;&gt;Node10 -->
<g id="edge20" class="edge"><title>Node9&#45;&gt;Node10</title>
<path fill="none" stroke="midnightblue" d="M171.576,-591.943C231.321,-589.914 355.536,-584.601 460,-573 468.415,-572.065 477.258,-570.881 485.95,-569.598"/>
<polygon fill="midnightblue" stroke="midnightblue" points="486.693,-573.025 496.05,-568.055 485.636,-566.105 486.693,-573.025"/>
</g>
<!-- Node10&#45;&gt;Node4 -->
<g id="edge22" class="edge"><title>Node10&#45;&gt;Node4</title>
<path fill="none" stroke="midnightblue" d="M571.256,-548.411C619.268,-527.45 726.5,-480.636 781.322,-456.703"/>
<polygon fill="midnightblue" stroke="midnightblue" points="782.841,-459.858 790.606,-452.65 780.041,-453.443 782.841,-459.858"/>
</g>
<!-- Node11&#45;&gt;Node3 -->
<g id="edge26" class="edge"><title>Node11&#45;&gt;Node3</title>
<path fill="none" stroke="midnightblue" d="M166.02,-493.883C243.007,-512.379 451.684,-551.542 598,-476 636.35,-456.2 661.758,-409.96 673.833,-383.17"/>
<polygon fill="midnightblue" stroke="midnightblue" points="677.198,-384.205 677.936,-373.636 670.768,-381.438 677.198,-384.205"/>
</g>
<!-- Node12&#45;&gt;Node10 -->
<g id="edge30" class="edge"><title>Node12&#45;&gt;Node10</title>
<path fill="none" stroke="midnightblue" d="M293.142,-559C341.484,-559 427.868,-559 486.288,-559"/>
<polygon fill="midnightblue" stroke="midnightblue" points="486.494,-562.5 496.494,-559 486.494,-555.5 486.494,-562.5"/>
</g>
<!-- Node13&#45;&gt;Node1 -->
<g id="edge58" class="edge"><title>Node13&#45;&gt;Node1</title>
<path fill="none" stroke="midnightblue" d="M103.498,-365.059C91.7199,-363.351 78.3809,-360.815 66.4412,-358.019"/>
<polygon fill="midnightblue" stroke="midnightblue" points="66.9332,-354.534 56.3834,-355.51 65.2387,-361.326 66.9332,-354.534"/>
</g>
<!-- Node13&#45;&gt;Node3 -->
<g id="edge52" class="edge"><title>Node13&#45;&gt;Node3</title>
<path fill="none" stroke="midnightblue" d="M146.74,-375.939C160.023,-388.891 183.848,-410.3 208,-423 263.011,-451.927 280.5,-454.017 342,-463 356.958,-465.185 596.199,-462.842 598,-462 633.177,-445.559 659.048,-406.416 672.209,-382.569"/>
<polygon fill="midnightblue" stroke="midnightblue" points="675.328,-384.158 676.916,-373.683 669.142,-380.881 675.328,-384.158"/>
</g>
<!-- Node13&#45;&gt;Node7 -->
<g id="edge54" class="edge"><title>Node13&#45;&gt;Node7</title>
<path fill="none" stroke="midnightblue" d="M168.851,-364.867C227.598,-364.209 354.391,-360.88 460,-345 472.973,-343.049 486.852,-340.101 499.628,-337.026"/>
<polygon fill="midnightblue" stroke="midnightblue" points="500.738,-340.356 509.599,-334.548 499.051,-333.563 500.738,-340.356"/>
</g>
<!-- Node13&#45;&gt;Node8 -->
<g id="edge56" class="edge"><title>Node13&#45;&gt;Node8</title>
<path fill="none" stroke="midnightblue" d="M152.535,-354.385C186.479,-333.195 267.14,-285.893 342,-265 395.319,-250.119 459.154,-246.289 501.267,-245.586"/>
<polygon fill="midnightblue" stroke="midnightblue" points="501.526,-249.083 511.486,-245.469 501.447,-242.084 501.526,-249.083"/>
</g>
<!-- Node14 -->
<g id="node31" class="node"><title>Node14</title>
<a xlink:href="a00001.html#a783baa8ff544bb8278ac32bce66be5c4" target="_top" xlink:title="varIsSpecialObject">
<polygon fill="white" stroke="black" points="208.5,-392.5 208.5,-413.5 305.5,-413.5 305.5,-392.5 208.5,-392.5"/>
<text text-anchor="middle" x="257" y="-400.5" font-family="Helvetica,sans-Serif" font-size="10.00">varIsSpecialObject</text>
</a>
</g>
<!-- Node13&#45;&gt;Node14 -->
<g id="edge34" class="edge"><title>Node13&#45;&gt;Node14</title>
<path fill="none" stroke="midnightblue" d="M168.744,-375.283C182.506,-379.605 198.714,-384.695 213.46,-389.326"/>
<polygon fill="midnightblue" stroke="midnightblue" points="212.797,-392.787 223.386,-392.444 214.895,-386.108 212.797,-392.787"/>
</g>
<!-- Node15 -->
<g id="node33" class="node"><title>Node15</title>
<a xlink:href="a00001.html#aff5b4a4ce77391ef5bc5f2637ac683b1" target="_top" xlink:title="renders either PDO or SQLite3 statement objects">
<polygon fill="white" stroke="black" points="362,-432.5 362,-453.5 440,-453.5 440,-432.5 362,-432.5"/>
<text text-anchor="middle" x="401" y="-440.5" font-family="Helvetica,sans-Serif" font-size="10.00">varIsDBObject</text>
</a>
</g>
<!-- Node14&#45;&gt;Node15 -->
<g id="edge36" class="edge"><title>Node14&#45;&gt;Node15</title>
<path fill="none" stroke="midnightblue" d="M294.834,-413.51C312.716,-418.477 334.259,-424.461 353.252,-429.737"/>
<polygon fill="midnightblue" stroke="midnightblue" points="352.346,-433.118 362.918,-432.422 354.22,-426.373 352.346,-433.118"/>
</g>
<!-- Node17 -->
<g id="node38" class="node"><title>Node17</title>
<a xlink:href="a00001.html#a91a251e46645521ab0c05a9b787624f6" target="_top" xlink:title="function used to render exceptions">
<polygon fill="white" stroke="black" points="361,-314.5 361,-335.5 441,-335.5 441,-314.5 361,-314.5"/>
<text text-anchor="middle" x="401" y="-322.5" font-family="Helvetica,sans-Serif" font-size="10.00">varIsException</text>
</a>
</g>
<!-- Node14&#45;&gt;Node17 -->
<g id="edge42" class="edge"><title>Node14&#45;&gt;Node17</title>
<path fill="none" stroke="midnightblue" d="M276.42,-392.481C301.113,-379.106 343.945,-355.905 372.382,-340.501"/>
<polygon fill="midnightblue" stroke="midnightblue" points="374.301,-343.442 381.427,-335.602 370.967,-337.287 374.301,-343.442"/>
</g>
<!-- Node16 -->
<g id="node35" class="node"><title>Node16</title>
<a xlink:href="a00001.html#ab4bab40a2bcac12276e3e7f2739f1761" target="_top" xlink:title="renders database data">
<polygon fill="white" stroke="black" points="508.5,-431.5 508.5,-452.5 585.5,-452.5 585.5,-431.5 508.5,-431.5"/>
<text text-anchor="middle" x="547" y="-439.5" font-family="Helvetica,sans-Serif" font-size="10.00">renderDBData</text>
</a>
</g>
<!-- Node15&#45;&gt;Node16 -->
<g id="edge38" class="edge"><title>Node15&#45;&gt;Node16</title>
<path fill="none" stroke="midnightblue" d="M440.125,-442.732C457.943,-442.61 479.219,-442.464 498.08,-442.335"/>
<polygon fill="midnightblue" stroke="midnightblue" points="498.297,-445.834 508.273,-442.265 498.249,-438.834 498.297,-445.834"/>
</g>
<!-- Node16&#45;&gt;Node3 -->
<g id="edge40" class="edge"><title>Node16&#45;&gt;Node3</title>
<path fill="none" stroke="midnightblue" d="M568.822,-431.425C577.94,-426.864 588.584,-421.356 598,-416 618.487,-404.347 641.044,-390.028 657.62,-379.212"/>
<polygon fill="midnightblue" stroke="midnightblue" points="659.724,-382.018 666.162,-373.603 655.882,-376.167 659.724,-382.018"/>
</g>
<!-- Node17&#45;&gt;Node1 -->
<g id="edge48" class="edge"><title>Node17&#45;&gt;Node1</title>
<path fill="none" stroke="midnightblue" d="M360.984,-327.169C290.728,-330.977 145.862,-338.829 74.1352,-342.716"/>
<polygon fill="midnightblue" stroke="midnightblue" points="73.8967,-339.224 64.1008,-343.26 74.2756,-346.214 73.8967,-339.224"/>
</g>
<!-- Node17&#45;&gt;Node3 -->
<g id="edge44" class="edge"><title>Node17&#45;&gt;Node3</title>
<path fill="none" stroke="midnightblue" d="M441.066,-333.897C457.958,-337.418 477.871,-341.268 496,-344 538.835,-350.456 587.556,-355.344 624.386,-358.545"/>
<polygon fill="midnightblue" stroke="midnightblue" points="624.183,-362.04 634.444,-359.403 624.778,-355.066 624.183,-362.04"/>
</g>
<!-- Node17&#45;&gt;Node7 -->
<g id="edge46" class="edge"><title>Node17&#45;&gt;Node7</title>
<path fill="none" stroke="midnightblue" d="M441.282,-324.724C457.933,-324.61 477.448,-324.476 495.148,-324.355"/>
<polygon fill="midnightblue" stroke="midnightblue" points="495.348,-327.854 505.324,-324.285 495.3,-320.854 495.348,-327.854"/>
</g>
<!-- Node17&#45;&gt;Node8 -->
<g id="edge50" class="edge"><title>Node17&#45;&gt;Node8</title>
<path fill="none" stroke="midnightblue" d="M437.194,-314.45C444.88,-311.737 452.833,-308.563 460,-305 483.796,-293.169 508.67,-275.708 525.696,-262.85"/>
<polygon fill="midnightblue" stroke="midnightblue" points="528.037,-265.465 533.837,-256.599 523.774,-259.913 528.037,-265.465"/>
</g>
<!-- Node18&#45;&gt;Node3 -->
<g id="edge62" class="edge"><title>Node18&#45;&gt;Node3</title>
<path fill="none" stroke="midnightblue" d="M267.875,-117.083C282.967,-102.79 311.828,-78.4452 342,-69 453.059,-34.2331 517.427,-40.0304 598,-124 658.636,-187.192 675.764,-296.679 680.383,-342.209"/>
<polygon fill="midnightblue" stroke="midnightblue" points="676.913,-342.698 681.306,-352.339 683.884,-342.063 676.913,-342.698"/>
</g>
<!-- Node18&#45;&gt;Node8 -->
<g id="edge90" class="edge"><title>Node18&#45;&gt;Node8</title>
<path fill="none" stroke="midnightblue" d="M295.605,-123.467C338.259,-120.243 407.812,-120.387 460,-147 494.935,-164.815 522.087,-203.149 536.219,-226.542"/>
<polygon fill="midnightblue" stroke="midnightblue" points="533.246,-228.391 541.306,-235.268 539.294,-224.866 533.246,-228.391"/>
</g>
<!-- Node19 -->
<g id="node51" class="node"><title>Node19</title>
<a xlink:href="a00001.html#a14955ad355cef1e5d7898fb57023c999" target="_top" xlink:title="renders database resource (fetch result) into table or ... smth else">
<polygon fill="white" stroke="black" points="501.5,-0.5 501.5,-21.5 592.5,-21.5 592.5,-0.5 501.5,-0.5"/>
<text text-anchor="middle" x="547" y="-8.5" font-family="Helvetica,sans-Serif" font-size="10.00">varIsDBResource</text>
</a>
</g>
<!-- Node18&#45;&gt;Node19 -->
<g id="edge64" class="edge"><title>Node18&#45;&gt;Node19</title>
<path fill="none" stroke="midnightblue" d="M263.313,-117.192C275.605,-97.2628 304.835,-55.0256 342,-36 388.388,-12.2531 448.184,-7.41255 491.21,-7.66465"/>
<polygon fill="midnightblue" stroke="midnightblue" points="491.167,-11.1643 501.219,-7.81635 491.273,-4.1651 491.167,-11.1643"/>
</g>
<!-- Node20 -->
<g id="node54" class="node"><title>Node20</title>
<a xlink:href="a00001.html#a642e715a1977cf46d40d840b5112465d" target="_top" xlink:title="if variable is an image/gd resource type">
<polygon fill="white" stroke="black" points="355,-196.5 355,-217.5 447,-217.5 447,-196.5 355,-196.5"/>
<text text-anchor="middle" x="401" y="-204.5" font-family="Helvetica,sans-Serif" font-size="10.00">varIsGDResource</text>
</a>
</g>
<!-- Node18&#45;&gt;Node20 -->
<g id="edge68" class="edge"><title>Node18&#45;&gt;Node20</title>
<path fill="none" stroke="midnightblue" d="M269.817,-138.622C285.858,-151.495 314.569,-173.176 342,-187 346.076,-189.054 350.412,-190.975 354.811,-192.75"/>
<polygon fill="midnightblue" stroke="midnightblue" points="353.874,-196.137 364.465,-196.398 356.348,-189.589 353.874,-196.137"/>
</g>
<!-- Node21 -->
<g id="node60" class="node"><title>Node21</title>
<a xlink:href="a00001.html#a7538f8f3d434a3152a400f7478ae6454" target="_top" xlink:title="if variable is an xml resource type">
<polygon fill="white" stroke="black" points="354.5,-156.5 354.5,-177.5 447.5,-177.5 447.5,-156.5 354.5,-156.5"/>
<text text-anchor="middle" x="401" y="-164.5" font-family="Helvetica,sans-Serif" font-size="10.00">varIsXmlResource</text>
</a>
</g>
<!-- Node18&#45;&gt;Node21 -->
<g id="edge78" class="edge"><title>Node18&#45;&gt;Node21</title>
<path fill="none" stroke="midnightblue" d="M295.589,-138.451C313.032,-143.175 333.836,-148.81 352.336,-153.82"/>
<polygon fill="midnightblue" stroke="midnightblue" points="351.487,-157.216 362.054,-156.452 353.316,-150.46 351.487,-157.216"/>
</g>
<!-- Node22 -->
<g id="node62" class="node"><title>Node22</title>
<a xlink:href="a00001.html#aaa52412f9f4f725e15aafa3fcd678b1d" target="_top" xlink:title="shows information about curl easy handles">
<polygon fill="white" stroke="black" points="342.5,-78.5 342.5,-99.5 459.5,-99.5 459.5,-78.5 342.5,-78.5"/>
<text text-anchor="middle" x="401" y="-86.5" font-family="Helvetica,sans-Serif" font-size="10.00">varIsCurlEasyResource</text>
</a>
</g>
<!-- Node18&#45;&gt;Node22 -->
<g id="edge80" class="edge"><title>Node18&#45;&gt;Node22</title>
<path fill="none" stroke="midnightblue" d="M295.589,-117.549C313.032,-112.825 333.836,-107.19 352.336,-102.18"/>
<polygon fill="midnightblue" stroke="midnightblue" points="353.316,-105.54 362.054,-99.5479 351.487,-98.7839 353.316,-105.54"/>
</g>
<!-- Node19&#45;&gt;Node3 -->
<g id="edge66" class="edge"><title>Node19&#45;&gt;Node3</title>
<path fill="none" stroke="midnightblue" d="M579.11,-21.5267C586.172,-25.1465 593.02,-29.8821 598,-36 637.358,-84.35 669.308,-278.141 678.985,-342.274"/>
<polygon fill="midnightblue" stroke="midnightblue" points="675.552,-342.987 680.484,-352.364 682.476,-341.958 675.552,-342.987"/>
</g>
<!-- Node20&#45;&gt;Node1 -->
<g id="edge74" class="edge"><title>Node20&#45;&gt;Node1</title>
<path fill="none" stroke="midnightblue" d="M370.945,-217.532C316.612,-236.672 198.538,-278.725 100,-317 89.066,-321.247 77.2218,-326.052 66.5289,-330.468"/>
<polygon fill="midnightblue" stroke="midnightblue" points="64.9852,-327.319 57.0918,-334.386 67.6695,-333.784 64.9852,-327.319"/>
</g>
<!-- Node20&#45;&gt;Node3 -->
<g id="edge70" class="edge"><title>Node20&#45;&gt;Node3</title>
<path fill="none" stroke="midnightblue" d="M447.295,-200.396C489.737,-196.761 552.688,-197.688 598,-226 641.389,-253.11 665.719,-311.678 676.031,-342.726"/>
<polygon fill="midnightblue" stroke="midnightblue" points="672.756,-343.979 679.102,-352.463 679.432,-341.873 672.756,-343.979"/>
</g>
<!-- Node20&#45;&gt;Node7 -->
<g id="edge72" class="edge"><title>Node20&#45;&gt;Node7</title>
<path fill="none" stroke="midnightblue" d="M414.214,-217.589C439.494,-237.848 494.909,-282.256 525.557,-306.816"/>
<polygon fill="midnightblue" stroke="midnightblue" points="523.507,-309.658 533.499,-313.181 527.884,-304.196 523.507,-309.658"/>
</g>
<!-- Node20&#45;&gt;Node8 -->
<g id="edge76" class="edge"><title>Node20&#45;&gt;Node8</title>
<path fill="none" stroke="midnightblue" d="M440.51,-217.554C459.351,-222.587 481.993,-228.635 501.546,-233.858"/>
<polygon fill="midnightblue" stroke="midnightblue" points="500.888,-237.305 511.452,-236.504 502.694,-230.542 500.888,-237.305"/>
</g>
<!-- Node22&#45;&gt;Node1 -->
<g id="edge86" class="edge"><title>Node22&#45;&gt;Node1</title>
<path fill="none" stroke="midnightblue" d="M342.397,-80.875C274.715,-75.043 164.44,-77.0449 100,-139 72.6664,-165.28 46.2622,-277.664 36.2357,-324.442"/>
<polygon fill="midnightblue" stroke="midnightblue" points="32.7852,-323.843 34.148,-334.35 39.6348,-325.287 32.7852,-323.843"/>
</g>
<!-- Node22&#45;&gt;Node3 -->
<g id="edge82" class="edge"><title>Node22&#45;&gt;Node3</title>
<path fill="none" stroke="midnightblue" d="M433.535,-99.5857C476.125,-114.875 550.882,-146.816 598,-196 639.935,-239.774 665.394,-308.574 676.096,-342.578"/>
<polygon fill="midnightblue" stroke="midnightblue" points="672.799,-343.768 679.054,-352.319 679.497,-341.734 672.799,-343.768"/>
</g>
<!-- Node22&#45;&gt;Node7 -->
<g id="edge84" class="edge"><title>Node22&#45;&gt;Node7</title>
<path fill="none" stroke="midnightblue" d="M415.411,-99.6554C428.784,-110.26 448.331,-127.703 460,-147 488.592,-194.284 469.145,-217.709 496,-266 504.285,-280.899 516.92,-295.305 527.541,-306.033"/>
<polygon fill="midnightblue" stroke="midnightblue" points="525.228,-308.666 534.827,-313.149 530.118,-303.658 525.228,-308.666"/>
</g>
<!-- Node22&#45;&gt;Node8 -->
<g id="edge88" class="edge"><title>Node22&#45;&gt;Node8</title>
<path fill="none" stroke="midnightblue" d="M435.387,-99.5929C443.999,-103.273 452.819,-108.02 460,-114 497.755,-145.443 525.25,-197.458 538.372,-225.898"/>
<polygon fill="midnightblue" stroke="midnightblue" points="535.268,-227.531 542.548,-235.228 541.657,-224.671 535.268,-227.531"/>
</g>
<!-- Node23&#45;&gt;Node3 -->
<g id="edge94" class="edge"><title>Node23&#45;&gt;Node3</title>
<path fill="none" stroke="midnightblue" d="M432.146,-398.566C478.382,-391.985 565.968,-379.517 624.174,-371.232"/>
<polygon fill="midnightblue" stroke="midnightblue" points="624.918,-374.661 634.325,-369.787 623.931,-367.731 624.918,-374.661"/>
</g>
<!-- Node23&#45;&gt;Node7 -->
<g id="edge98" class="edge"><title>Node23&#45;&gt;Node7</title>
<path fill="none" stroke="midnightblue" d="M428.427,-392.412C438.513,-388.251 449.925,-383.221 460,-378 481.974,-366.612 505.777,-351.64 522.922,-340.35"/>
<polygon fill="midnightblue" stroke="midnightblue" points="525.322,-342.957 531.708,-334.503 521.444,-337.13 525.322,-342.957"/>
</g>
<!-- Node23&#45;&gt;Node8 -->
<g id="edge100" class="edge"><title>Node23&#45;&gt;Node8</title>
<path fill="none" stroke="midnightblue" d="M412.557,-392.123C424.635,-380.645 444.016,-361.91 460,-345 476.658,-327.377 479.994,-322.217 496,-304 507.68,-290.707 520.871,-275.706 530.911,-264.291"/>
<polygon fill="midnightblue" stroke="midnightblue" points="533.622,-266.508 537.598,-256.688 528.365,-261.885 533.622,-266.508"/>
</g>
<!-- Node23&#45;&gt;Node10 -->
<g id="edge96" class="edge"><title>Node23&#45;&gt;Node10</title>
<path fill="none" stroke="midnightblue" d="M432.056,-409.266C441.699,-412.279 451.91,-416.666 460,-423 480.89,-439.356 518.461,-505.895 536.617,-539.451"/>
<polygon fill="midnightblue" stroke="midnightblue" points="533.578,-541.19 541.392,-548.345 539.745,-537.878 533.578,-541.19"/>
</g>
</g>
</svg>
        <g id="navigator" transform="translate(0 0)" fill="#404254">
                <rect fill="#f2f5e9" fill-opacity="0.5" stroke="#606060" stroke-width=".5" x="0" y="0" width="60" height="60"/>
                <use id="zoomplus" xlink:href="#zoomPlus" x="17" y="9" onmousedown="handleZoom(evt,'in')"/>
                <use id="zoomminus" xlink:href="#zoomMin" x="42" y="9" onmousedown="handleZoom(evt,'out')"/>
                <use id="reset" xlink:href="#resetDef" x="30" y="36" onmousedown="handleReset()"/>
                <g id="arrowUp" xlink:href="#dirArrow" transform="translate(30 24)" onmousedown="handlePan(0,-1)">
                  <use xlink:href="#rim" fill="#404040">
                        <set attributeName="fill" to="#808080" begin="arrowUp.mouseover" end="arrowUp.mouseout"/>
                  </use>
                  <path fill="none" stroke="white" stroke-width="1.5" d="M0,-3.0v7 M-2.5,-0.5L0,-3.0L2.5,-0.5"/>
                </g>
                <g id="arrowRight" xlink:href="#dirArrow" transform="rotate(90) translate(36 -43)" onmousedown="handlePan(1,0)">
                  <use xlink:href="#rim" fill="#404040">
                        <set attributeName="fill" to="#808080" begin="arrowRight.mouseover" end="arrowRight.mouseout"/>
                  </use>
                  <path fill="none" stroke="white" stroke-width="1.5" d="M0,-3.0v7 M-2.5,-0.5L0,-3.0L2.5,-0.5"/>
                </g>
                <g id="arrowDown" xlink:href="#dirArrow" transform="rotate(180) translate(-30 -48)" onmousedown="handlePan(0,1)">
                  <use xlink:href="#rim" fill="#404040">
                        <set attributeName="fill" to="#808080" begin="arrowDown.mouseover" end="arrowDown.mouseout"/>
                  </use>
                  <path fill="none" stroke="white" stroke-width="1.5" d="M0,-3.0v7 M-2.5,-0.5L0,-3.0L2.5,-0.5"/>
                </g>
                <g id="arrowLeft" xlink:href="#dirArrow" transform="rotate(270) translate(-36 17)" onmousedown="handlePan(-1,0)">
                  <use xlink:href="#rim" fill="#404040">
                        <set attributeName="fill" to="#808080" begin="arrowLeft.mouseover" end="arrowLeft.mouseout"/>
                  </use>
                  <path fill="none" stroke="white" stroke-width="1.5" d="M0,-3.0v7 M-2.5,-0.5L0,-3.0L2.5,-0.5"/>
                </g>
        </g>
        <svg viewBox="0 0 15 15" width="100%" height="30px" preserveAspectRatio="xMaxYMin meet">
         <g id="arrow_out" transform="scale(0.3 0.3)">
          <a xlink:href="a00001_aaecea663190c6ce2edd146c3133f257d_cgraph_org.svg" target="_base">
           <rect id="button" ry="5" rx="5" y="6" x="6" height="38" width="38"
                fill="#f2f5e9" fill-opacity="0.5" stroke="#606060" stroke-width="1.0"/>
           <path id="arrow"
             d="M 11.500037,31.436501 C 11.940474,20.09759 22.043105,11.32322 32.158766,21.979434 L 37.068811,17.246167 C 37.068811,17.246167 37.088388,32 37.088388,32 L 22.160133,31.978069 C 22.160133,31.978069 26.997745,27.140456 26.997745,27.140456 C 18.528582,18.264221 13.291696,25.230495 11.500037,31.436501 z"
             style="fill:#404040;"/>
          </a>
         </g>
        </svg>
</svg>
