<?xml version="1.0" encoding="UTF-8" standalone="no"?>
<!DOCTYPE svg PUBLIC "-//W3C//DTD SVG 1.1//EN"
 "http://www.w3.org/Graphics/SVG/1.1/DTD/svg11.dtd">
<!-- Generated by graphviz version 2.26.3 (20100126.1600)
 -->
<!-- Title: varIsString Pages: 1 -->
<!--zoomable 287 -->
<svg id="main" version="1.1" xmlns="http://www.w3.org/2000/svg" xmlns:xlink="http://www.w3.org/1999/xlink" xml:space="preserve" onload="init(evt)">
        <defs>
                <circle id="rim" cx="0" cy="0" r="7"/>
                <circle id="rim2" cx="0" cy="0" r="3.5"/>
                <g id="zoomPlus">
                        <use xlink:href="#rim" fill="#404040">
                                <set attributeName="fill" to="#808080" begin="zoomplus.mouseover" end="zoomplus.mouseout"/>
                        </use>
                        <path d="M-4,0h8M0,-4v8" fill="none" stroke="white" stroke-width="1.5" pointer-events="none"/>
                </g>
                <g id="zoomMin">
                        <use xlink:href="#rim" fill="#404040">
                                <set attributeName="fill" to="#808080" begin="zoomminus.mouseover" end="zoomminus.mouseout"/>
                        </use>
                        <path d="M-4,0h8" fill="none" stroke="white" stroke-width="1.5" pointer-events="none"/>
                </g>
                <g id="dirArrow">
                        <path fill="none" stroke="white" stroke-width="1.5" d="M0,-3.0v7 M-2.5,-0.5L0,-3.0L2.5,-0.5"/>
                </g>
               <g id="resetDef">
                       <use xlink:href="#rim2" fill="#404040">
                               <set attributeName="fill" to="#808080" begin="reset.mouseover" end="reset.mouseout"/>
                       </use>
               </g>
        </defs>

<script type="text/javascript">
var viewWidth = 560;
var viewHeight = 287;
var sectionId = 'dynsection-41';
</script>
<script xlink:href="svgpan.js"/>
<svg id="graph" class="graph">
<g id="viewport">
<title>varIsString</title>
<polygon fill="white" stroke="white" points="-4,5 -4,-283.127 557,-283.127 557,5 -4,5"/>
<!-- Node1 -->
<g id="node1" class="node"><title>Node1</title>
<polygon fill="#bfbfbf" stroke="black" points="0,-137.627 0,-158.627 62,-158.627 62,-137.627 0,-137.627"/>
<text text-anchor="middle" x="31" y="-145.627" font-family="Helvetica,sans-Serif" font-size="10.00">varIsString</text>
</g>
<!-- Node2 -->
<g id="node3" class="node"><title>Node2</title>
<a xlink:href="a00001.html#aaecea663190c6ce2edd146c3133f257d" target="_top" xlink:title="check variable type andd process the value in right way">
<polygon fill="white" stroke="black" points="98,-137.627 98,-158.627 162,-158.627 162,-137.627 98,-137.627"/>
<text text-anchor="middle" x="130" y="-145.627" font-family="Helvetica,sans-Serif" font-size="10.00">checkType</text>
</a>
</g>
<!-- Node1&#45;&gt;Node2 -->
<g id="edge2" class="edge"><title>Node1&#45;&gt;Node2</title>
<path fill="none" stroke="midnightblue" d="M72.1952,-148.127C80.705,-148.127 89.5518,-148.127 97.6907,-148.127"/>
<polygon fill="midnightblue" stroke="midnightblue" points="72.0526,-144.627 62.0526,-148.127 72.0526,-151.627 72.0526,-144.627"/>
</g>
<!-- Node3 -->
<g id="node5" class="node"><title>Node3</title>
<a xlink:href="a00001.html#a6826222eba46dd56dbd5841cdc300efa" target="_top" xlink:title="dBug">
<polygon fill="white" stroke="black" points="237.5,-257.627 237.5,-278.627 276.5,-278.627 276.5,-257.627 237.5,-257.627"/>
<text text-anchor="middle" x="257" y="-265.627" font-family="Helvetica,sans-Serif" font-size="10.00">dBug</text>
</a>
</g>
<!-- Node2&#45;&gt;Node3 -->
<g id="edge4" class="edge"><title>Node2&#45;&gt;Node3</title>
<path fill="none" stroke="midnightblue" d="M138.752,-168.138C149.569,-190.655 170.032,-226.855 198,-248.127 209.536,-256.9 225.16,-261.969 237.432,-264.807"/>
<polygon fill="midnightblue" stroke="midnightblue" points="141.837,-166.471 134.468,-158.858 135.481,-169.404 141.837,-166.471"/>
</g>
<!-- Node4 -->
<g id="node7" class="node"><title>Node4</title>
<a xlink:href="a00001.html#a86ff35452ee612d9e9e9b147e5544acc" target="_top" xlink:title="varIsArray">
<polygon fill="white" stroke="black" points="227.5,-217.627 227.5,-238.627 286.5,-238.627 286.5,-217.627 227.5,-217.627"/>
<text text-anchor="middle" x="257" y="-225.627" font-family="Helvetica,sans-Serif" font-size="10.00">varIsArray</text>
</a>
</g>
<!-- Node2&#45;&gt;Node4 -->
<g id="edge6" class="edge"><title>Node2&#45;&gt;Node4</title>
<path fill="none" stroke="midnightblue" d="M154.178,-165.594C166.405,-176.5 182.018,-189.872 198,-199.127 211.852,-207.149 229.407,-212.58 241.754,-217.474"/>
<polygon fill="midnightblue" stroke="midnightblue" points="156.443,-162.925 146.663,-158.852 151.769,-168.135 156.443,-162.925"/>
</g>
<!-- Node5 -->
<g id="node10" class="node"><title>Node5</title>
<a xlink:href="a00001.html#aaa52412f9f4f725e15aafa3fcd678b1d" target="_top" xlink:title="shows information about curl easy handles">
<polygon fill="white" stroke="black" points="198.5,-177.627 198.5,-198.627 315.5,-198.627 315.5,-177.627 198.5,-177.627"/>
<text text-anchor="middle" x="257" y="-185.627" font-family="Helvetica,sans-Serif" font-size="10.00">varIsCurlEasyResource</text>
</a>
</g>
<!-- Node2&#45;&gt;Node5 -->
<g id="edge10" class="edge"><title>Node2&#45;&gt;Node5</title>
<path fill="none" stroke="midnightblue" d="M171.661,-161.249C188.521,-166.559 207.72,-172.606 223.632,-177.617"/>
<polygon fill="midnightblue" stroke="midnightblue" points="172.637,-157.887 162.047,-158.221 170.534,-164.563 172.637,-157.887"/>
</g>
<!-- Node7 -->
<g id="node15" class="node"><title>Node7</title>
<a xlink:href="a00001.html#a91a251e46645521ab0c05a9b787624f6" target="_top" xlink:title="function used to render exceptions">
<polygon fill="white" stroke="black" points="217,-59.627 217,-80.627 297,-80.627 297,-59.627 217,-59.627"/>
<text text-anchor="middle" x="257" y="-67.627" font-family="Helvetica,sans-Serif" font-size="10.00">varIsException</text>
</a>
</g>
<!-- Node2&#45;&gt;Node7 -->
<g id="edge16" class="edge"><title>Node2&#45;&gt;Node7</title>
<path fill="none" stroke="midnightblue" d="M149.675,-130.546C162.747,-119.447 180.641,-105.331 198,-95.127 207.399,-89.6021 218.248,-84.6436 228.059,-80.6275"/>
<polygon fill="midnightblue" stroke="midnightblue" points="147.106,-128.141 141.835,-137.332 151.687,-133.433 147.106,-128.141"/>
</g>
<!-- Node9 -->
<g id="node19" class="node"><title>Node9</title>
<a xlink:href="a00001.html#a443a941157b2ed03d6a24ae70ece785d" target="_top" xlink:title="checks wheither variable is object of special type (using varIs*Object), and renders it if it is gene...">
<polygon fill="white" stroke="black" points="486.5,-11.627 486.5,-32.627 551.5,-32.627 551.5,-11.627 486.5,-11.627"/>
<text text-anchor="middle" x="519" y="-19.627" font-family="Helvetica,sans-Serif" font-size="10.00">varIsObject</text>
</a>
</g>
<!-- Node2&#45;&gt;Node9 -->
<g id="edge28" class="edge"><title>Node2&#45;&gt;Node9</title>
<path fill="none" stroke="midnightblue" d="M135.335,-127.981C144.4,-102.366 165.095,-60.2127 198,-41.127 291.877,13.3235 427.815,1.32731 488.154,-11.5939"/>
<polygon fill="midnightblue" stroke="midnightblue" points="131.996,-126.932 132.249,-137.523 138.656,-129.086 131.996,-126.932"/>
</g>
<!-- Node10 -->
<g id="node22" class="node"><title>Node10</title>
<a xlink:href="a00001.html#a642e715a1977cf46d40d840b5112465d" target="_top" xlink:title="if variable is an image/gd resource type">
<polygon fill="white" stroke="black" points="211,-137.627 211,-158.627 303,-158.627 303,-137.627 211,-137.627"/>
<text text-anchor="middle" x="257" y="-145.627" font-family="Helvetica,sans-Serif" font-size="10.00">varIsGDResource</text>
</a>
</g>
<!-- Node2&#45;&gt;Node10 -->
<g id="edge24" class="edge"><title>Node2&#45;&gt;Node10</title>
<path fill="none" stroke="midnightblue" d="M172.076,-148.127C184.413,-148.127 197.973,-148.127 210.566,-148.127"/>
<polygon fill="midnightblue" stroke="midnightblue" points="172.047,-144.627 162.047,-148.127 172.047,-151.627 172.047,-144.627"/>
</g>
<!-- Node4&#45;&gt;Node2 -->
<g id="edge8" class="edge"><title>Node4&#45;&gt;Node2</title>
<path fill="none" stroke="midnightblue" d="M217.693,-226.095C210.918,-223.689 204.1,-220.659 198,-217.127 171.296,-201.663 145.622,-174.707 135.054,-158.882"/>
<polygon fill="midnightblue" stroke="midnightblue" points="216.91,-229.518 227.499,-229.16 218.998,-222.836 216.91,-229.518"/>
</g>
<!-- Node6 -->
<g id="node12" class="node"><title>Node6</title>
<a xlink:href="a00001.html#a4ab1e15fa34f8b98071b0eb36883777e" target="_top" xlink:title="shows info about different resources, uses customized rendering founctions when needed">
<polygon fill="white" stroke="black" points="362.5,-137.627 362.5,-158.627 439.5,-158.627 439.5,-137.627 362.5,-137.627"/>
<text text-anchor="middle" x="401" y="-145.627" font-family="Helvetica,sans-Serif" font-size="10.00">varIsResource</text>
</a>
</g>
<!-- Node5&#45;&gt;Node6 -->
<g id="edge12" class="edge"><title>Node5&#45;&gt;Node6</title>
<path fill="none" stroke="midnightblue" d="M304.486,-174.936C323.456,-169.667 345.003,-163.682 362.918,-158.705"/>
<polygon fill="midnightblue" stroke="midnightblue" points="303.533,-171.569 294.834,-177.617 305.406,-178.313 303.533,-171.569"/>
</g>
<!-- Node6&#45;&gt;Node2 -->
<g id="edge14" class="edge"><title>Node6&#45;&gt;Node2</title>
<path fill="none" stroke="midnightblue" d="M354.77,-135.207C342.287,-132.28 328.714,-129.603 316,-128.127 263.905,-122.081 249.909,-120.652 198,-128.127 184.967,-130.004 170.95,-133.806 159.047,-137.595"/>
<polygon fill="midnightblue" stroke="midnightblue" points="353.965,-138.613 364.51,-137.589 355.628,-131.813 353.965,-138.613"/>
</g>
<!-- Node8 -->
<g id="node17" class="node"><title>Node8</title>
<a xlink:href="a00001.html#a783baa8ff544bb8278ac32bce66be5c4" target="_top" xlink:title="varIsSpecialObject">
<polygon fill="white" stroke="black" points="352.5,-59.627 352.5,-80.627 449.5,-80.627 449.5,-59.627 352.5,-59.627"/>
<text text-anchor="middle" x="401" y="-67.627" font-family="Helvetica,sans-Serif" font-size="10.00">varIsSpecialObject</text>
</a>
</g>
<!-- Node7&#45;&gt;Node8 -->
<g id="edge18" class="edge"><title>Node7&#45;&gt;Node8</title>
<path fill="none" stroke="midnightblue" d="M307.464,-70.127C322.049,-70.127 337.933,-70.127 352.402,-70.127"/>
<polygon fill="midnightblue" stroke="midnightblue" points="307.112,-66.6271 297.112,-70.127 307.112,-73.6271 307.112,-66.6271"/>
</g>
<!-- Node8&#45;&gt;Node9 -->
<g id="edge20" class="edge"><title>Node8&#45;&gt;Node9</title>
<path fill="none" stroke="midnightblue" d="M436.342,-55.7507C454.608,-48.3204 476.5,-39.4149 493.165,-32.6362"/>
<polygon fill="midnightblue" stroke="midnightblue" points="434.84,-52.5831 426.896,-59.5932 437.477,-59.0672 434.84,-52.5831"/>
</g>
<!-- Node9&#45;&gt;Node2 -->
<g id="edge22" class="edge"><title>Node9&#45;&gt;Node2</title>
<path fill="none" stroke="midnightblue" d="M475.984,-20.7434C410.987,-15.4327 286.009,-8.07966 198,-59.127 166.114,-77.6214 145.694,-117.776 136.211,-137.503"/>
<polygon fill="midnightblue" stroke="midnightblue" points="476.008,-24.2575 486.264,-21.6009 476.59,-17.2817 476.008,-24.2575"/>
</g>
<!-- Node10&#45;&gt;Node6 -->
<g id="edge26" class="edge"><title>Node10&#45;&gt;Node6</title>
<path fill="none" stroke="midnightblue" d="M313.403,-148.127C329.828,-148.127 347.391,-148.127 362.446,-148.127"/>
<polygon fill="midnightblue" stroke="midnightblue" points="313.355,-144.627 303.355,-148.127 313.355,-151.627 313.355,-144.627"/>
</g>
</g>
</svg>
        <g id="navigator" transform="translate(0 0)" fill="#404254">
                <rect fill="#f2f5e9" fill-opacity="0.5" stroke="#606060" stroke-width=".5" x="0" y="0" width="60" height="60"/>
                <use id="zoomplus" xlink:href="#zoomPlus" x="17" y="9" onmousedown="handleZoom(evt,'in')"/>
                <use id="zoomminus" xlink:href="#zoomMin" x="42" y="9" onmousedown="handleZoom(evt,'out')"/>
                <use id="reset" xlink:href="#resetDef" x="30" y="36" onmousedown="handleReset()"/>
                <g id="arrowUp" xlink:href="#dirArrow" transform="translate(30 24)" onmousedown="handlePan(0,-1)">
                  <use xlink:href="#rim" fill="#404040">
                        <set attributeName="fill" to="#808080" begin="arrowUp.mouseover" end="arrowUp.mouseout"/>
                  </use>
                  <path fill="none" stroke="white" stroke-width="1.5" d="M0,-3.0v7 M-2.5,-0.5L0,-3.0L2.5,-0.5"/>
                </g>
                <g id="arrowRight" xlink:href="#dirArrow" transform="rotate(90) translate(36 -43)" onmousedown="handlePan(1,0)">
                  <use xlink:href="#rim" fill="#404040">
                        <set attributeName="fill" to="#808080" begin="arrowRight.mouseover" end="arrowRight.mouseout"/>
                  </use>
                  <path fill="none" stroke="white" stroke-width="1.5" d="M0,-3.0v7 M-2.5,-0.5L0,-3.0L2.5,-0.5"/>
                </g>
                <g id="arrowDown" xlink:href="#dirArrow" transform="rotate(180) translate(-30 -48)" onmousedown="handlePan(0,1)">
                  <use xlink:href="#rim" fill="#404040">
                        <set attributeName="fill" to="#808080" begin="arrowDown.mouseover" end="arrowDown.mouseout"/>
                  </use>
                  <path fill="none" stroke="white" stroke-width="1.5" d="M0,-3.0v7 M-2.5,-0.5L0,-3.0L2.5,-0.5"/>
                </g>
                <g id="arrowLeft" xlink:href="#dirArrow" transform="rotate(270) translate(-36 17)" onmousedown="handlePan(-1,0)">
                  <use xlink:href="#rim" fill="#404040">
                        <set attributeName="fill" to="#808080" begin="arrowLeft.mouseover" end="arrowLeft.mouseout"/>
                  </use>
                  <path fill="none" stroke="white" stroke-width="1.5" d="M0,-3.0v7 M-2.5,-0.5L0,-3.0L2.5,-0.5"/>
                </g>
        </g>
        <svg viewBox="0 0 15 15" width="100%" height="30px" preserveAspectRatio="xMaxYMin meet">
         <g id="arrow_out" transform="scale(0.3 0.3)">
          <a xlink:href="a00001_a1dce801bff273c92008ec238b5480928_icgraph_org.svg" target="_base">
           <rect id="button" ry="5" rx="5" y="6" x="6" height="38" width="38"
                fill="#f2f5e9" fill-opacity="0.5" stroke="#606060" stroke-width="1.0"/>
           <path id="arrow"
             d="M 11.500037,31.436501 C 11.940474,20.09759 22.043105,11.32322 32.158766,21.979434 L 37.068811,17.246167 C 37.068811,17.246167 37.088388,32 37.088388,32 L 22.160133,31.978069 C 22.160133,31.978069 26.997745,27.140456 26.997745,27.140456 C 18.528582,18.264221 13.291696,25.230495 11.500037,31.436501 z"
             style="fill:#404040;"/>
          </a>
         </g>
        </svg>
</svg>
