<?xml version="1.0" encoding="UTF-8" standalone="no"?>
<!DOCTYPE svg PUBLIC "-//W3C//DTD SVG 1.1//EN"
 "http://www.w3.org/Graphics/SVG/1.1/DTD/svg11.dtd">
<!-- Generated by graphviz version 2.26.3 (20100126.1600)
 -->
<!-- Title: varIsArray Pages: 1 -->
<!--zoomable 240 -->
<svg id="main" version="1.1" xmlns="http://www.w3.org/2000/svg" xmlns:xlink="http://www.w3.org/1999/xlink" xml:space="preserve" onload="init(evt)">
        <defs>
                <circle id="rim" cx="0" cy="0" r="7"/>
                <circle id="rim2" cx="0" cy="0" r="3.5"/>
                <g id="zoomPlus">
                        <use xlink:href="#rim" fill="#404040">
                                <set attributeName="fill" to="#808080" begin="zoomplus.mouseover" end="zoomplus.mouseout"/>
                        </use>
                        <path d="M-4,0h8M0,-4v8" fill="none" stroke="white" stroke-width="1.5" pointer-events="none"/>
                </g>
                <g id="zoomMin">
                        <use xlink:href="#rim" fill="#404040">
                                <set attributeName="fill" to="#808080" begin="zoomminus.mouseover" end="zoomminus.mouseout"/>
                        </use>
                        <path d="M-4,0h8" fill="none" stroke="white" stroke-width="1.5" pointer-events="none"/>
                </g>
                <g id="dirArrow">
                        <path fill="none" stroke="white" stroke-width="1.5" d="M0,-3.0v7 M-2.5,-0.5L0,-3.0L2.5,-0.5"/>
                </g>
               <g id="resetDef">
                       <use xlink:href="#rim2" fill="#404040">
                               <set attributeName="fill" to="#808080" begin="reset.mouseover" end="reset.mouseout"/>
                       </use>
               </g>
        </defs>

<script type="text/javascript">
var viewWidth = 558;
var viewHeight = 240;
var sectionId = 'dynsection-17';
</script>
<script xlink:href="svgpan.js"/>
<svg id="graph" class="graph">
<g id="viewport">
<title>varIsArray</title>
<polygon fill="white" stroke="white" points="-4,5 -4,-236.327 555,-236.327 555,5 -4,5"/>
<!-- Node1 -->
<g id="node1" class="node"><title>Node1</title>
<polygon fill="#bfbfbf" stroke="black" points="0.5,-91.8266 0.5,-112.827 59.5,-112.827 59.5,-91.8266 0.5,-91.8266"/>
<text text-anchor="middle" x="30" y="-99.8266" font-family="Helvetica,sans-Serif" font-size="10.00">varIsArray</text>
</g>
<!-- Node2 -->
<g id="node3" class="node"><title>Node2</title>
<a xlink:href="a00001.html#aaecea663190c6ce2edd146c3133f257d" target="_top" xlink:title="check variable type andd process the value in right way">
<polygon fill="white" stroke="black" points="96,-91.8266 96,-112.827 160,-112.827 160,-91.8266 96,-91.8266"/>
<text text-anchor="middle" x="128" y="-99.8266" font-family="Helvetica,sans-Serif" font-size="10.00">checkType</text>
</a>
</g>
<!-- Node1&#45;&gt;Node2 -->
<g id="edge2" class="edge"><title>Node1&#45;&gt;Node2</title>
<path fill="none" stroke="midnightblue" d="M69.8785,-95.6817C78.4669,-95.4818 87.4428,-95.5672 95.7001,-95.9379"/>
<polygon fill="midnightblue" stroke="midnightblue" points="69.53,-92.1922 59.6692,-96.067 69.7941,-99.1873 69.53,-92.1922"/>
</g>
<!-- Node2&#45;&gt;Node1 -->
<g id="edge6" class="edge"><title>Node2&#45;&gt;Node1</title>
<path fill="none" stroke="midnightblue" d="M85.6313,-109.021C76.8835,-109.168 67.8484,-109.023 59.6692,-108.586"/>
<polygon fill="midnightblue" stroke="midnightblue" points="85.811,-112.518 95.7001,-108.715 85.5983,-105.521 85.811,-112.518"/>
</g>
<!-- Node3 -->
<g id="node5" class="node"><title>Node3</title>
<a xlink:href="a00001.html#a6826222eba46dd56dbd5841cdc300efa" target="_top" xlink:title="dBug">
<polygon fill="white" stroke="black" points="235.5,-210.827 235.5,-231.827 274.5,-231.827 274.5,-210.827 235.5,-210.827"/>
<text text-anchor="middle" x="255" y="-218.827" font-family="Helvetica,sans-Serif" font-size="10.00">dBug</text>
</a>
</g>
<!-- Node2&#45;&gt;Node3 -->
<g id="edge4" class="edge"><title>Node2&#45;&gt;Node3</title>
<path fill="none" stroke="midnightblue" d="M136.802,-122.137C147.667,-144.428 168.173,-180.265 196,-201.327 207.556,-210.073 223.18,-215.143 235.446,-217.988"/>
<polygon fill="midnightblue" stroke="midnightblue" points="139.91,-120.52 132.498,-112.95 133.572,-123.49 139.91,-120.52"/>
</g>
<!-- Node4 -->
<g id="node8" class="node"><title>Node4</title>
<a xlink:href="a00001.html#aaa52412f9f4f725e15aafa3fcd678b1d" target="_top" xlink:title="shows information about curl easy handles">
<polygon fill="white" stroke="black" points="196.5,-170.827 196.5,-191.827 313.5,-191.827 313.5,-170.827 196.5,-170.827"/>
<text text-anchor="middle" x="255" y="-178.827" font-family="Helvetica,sans-Serif" font-size="10.00">varIsCurlEasyResource</text>
</a>
</g>
<!-- Node2&#45;&gt;Node4 -->
<g id="edge8" class="edge"><title>Node2&#45;&gt;Node4</title>
<path fill="none" stroke="midnightblue" d="M144.871,-120.318C157.815,-133.235 176.688,-150.25 196,-161.327 202.38,-164.986 209.533,-168.112 216.599,-170.73"/>
<polygon fill="midnightblue" stroke="midnightblue" points="147.116,-117.607 137.627,-112.895 142.106,-122.496 147.116,-117.607"/>
</g>
<!-- Node6 -->
<g id="node13" class="node"><title>Node6</title>
<a xlink:href="a00001.html#a91a251e46645521ab0c05a9b787624f6" target="_top" xlink:title="function used to render exceptions">
<polygon fill="white" stroke="black" points="215,-52.8266 215,-73.8266 295,-73.8266 295,-52.8266 215,-52.8266"/>
<text text-anchor="middle" x="255" y="-60.8266" font-family="Helvetica,sans-Serif" font-size="10.00">varIsException</text>
</a>
</g>
<!-- Node2&#45;&gt;Node6 -->
<g id="edge14" class="edge"><title>Node2&#45;&gt;Node6</title>
<path fill="none" stroke="midnightblue" d="M169.972,-89.4376C186.441,-84.3802 205.101,-78.6498 220.737,-73.8485"/>
<polygon fill="midnightblue" stroke="midnightblue" points="168.579,-86.2039 160.047,-92.4853 170.634,-92.8954 168.579,-86.2039"/>
</g>
<!-- Node8 -->
<g id="node17" class="node"><title>Node8</title>
<a xlink:href="a00001.html#a443a941157b2ed03d6a24ae70ece785d" target="_top" xlink:title="checks wheither variable is object of special type (using varIs*Object), and renders it if it is gene...">
<polygon fill="white" stroke="black" points="484.5,-4.82663 484.5,-25.8266 549.5,-25.8266 549.5,-4.82663 484.5,-4.82663"/>
<text text-anchor="middle" x="517" y="-12.8266" font-family="Helvetica,sans-Serif" font-size="10.00">varIsObject</text>
</a>
</g>
<!-- Node2&#45;&gt;Node8 -->
<g id="edge26" class="edge"><title>Node2&#45;&gt;Node8</title>
<path fill="none" stroke="midnightblue" d="M138.214,-83.1017C150.336,-66.5321 171.958,-44.5149 196,-34.3266 294.378,7.36305 424.644,2.43027 484.453,-6.50017"/>
<polygon fill="midnightblue" stroke="midnightblue" points="135.155,-81.3796 132.502,-91.6369 140.972,-85.2729 135.155,-81.3796"/>
</g>
<!-- Node9 -->
<g id="node20" class="node"><title>Node9</title>
<a xlink:href="a00001.html#a642e715a1977cf46d40d840b5112465d" target="_top" xlink:title="if variable is an image/gd resource type">
<polygon fill="white" stroke="black" points="209,-130.827 209,-151.827 301,-151.827 301,-130.827 209,-130.827"/>
<text text-anchor="middle" x="255" y="-138.827" font-family="Helvetica,sans-Serif" font-size="10.00">varIsGDResource</text>
</a>
</g>
<!-- Node2&#45;&gt;Node9 -->
<g id="edge22" class="edge"><title>Node2&#45;&gt;Node9</title>
<path fill="none" stroke="midnightblue" d="M169.972,-115.216C186.441,-120.273 205.101,-126.003 220.737,-130.805"/>
<polygon fill="midnightblue" stroke="midnightblue" points="170.634,-111.758 160.047,-112.168 168.579,-118.449 170.634,-111.758"/>
</g>
<!-- Node5 -->
<g id="node10" class="node"><title>Node5</title>
<a xlink:href="a00001.html#a4ab1e15fa34f8b98071b0eb36883777e" target="_top" xlink:title="shows info about different resources, uses customized rendering founctions when needed">
<polygon fill="white" stroke="black" points="360.5,-130.827 360.5,-151.827 437.5,-151.827 437.5,-130.827 360.5,-130.827"/>
<text text-anchor="middle" x="399" y="-138.827" font-family="Helvetica,sans-Serif" font-size="10.00">varIsResource</text>
</a>
</g>
<!-- Node4&#45;&gt;Node5 -->
<g id="edge10" class="edge"><title>Node4&#45;&gt;Node5</title>
<path fill="none" stroke="midnightblue" d="M302.486,-168.136C321.456,-162.867 343.003,-156.881 360.918,-151.905"/>
<polygon fill="midnightblue" stroke="midnightblue" points="301.533,-164.768 292.834,-170.817 303.406,-171.513 301.533,-164.768"/>
</g>
<!-- Node5&#45;&gt;Node2 -->
<g id="edge12" class="edge"><title>Node5&#45;&gt;Node2</title>
<path fill="none" stroke="midnightblue" d="M350.534,-128.782C338.646,-126.021 325.914,-123.328 314,-121.327 260.381,-112.319 197.3,-106.965 160.094,-104.339"/>
<polygon fill="midnightblue" stroke="midnightblue" points="349.745,-132.192 360.284,-131.103 351.366,-125.382 349.745,-132.192"/>
</g>
<!-- Node7 -->
<g id="node15" class="node"><title>Node7</title>
<a xlink:href="a00001.html#a783baa8ff544bb8278ac32bce66be5c4" target="_top" xlink:title="varIsSpecialObject">
<polygon fill="white" stroke="black" points="350.5,-52.8266 350.5,-73.8266 447.5,-73.8266 447.5,-52.8266 350.5,-52.8266"/>
<text text-anchor="middle" x="399" y="-60.8266" font-family="Helvetica,sans-Serif" font-size="10.00">varIsSpecialObject</text>
</a>
</g>
<!-- Node6&#45;&gt;Node7 -->
<g id="edge16" class="edge"><title>Node6&#45;&gt;Node7</title>
<path fill="none" stroke="midnightblue" d="M305.464,-63.3266C320.049,-63.3266 335.933,-63.3266 350.402,-63.3266"/>
<polygon fill="midnightblue" stroke="midnightblue" points="305.112,-59.8267 295.112,-63.3266 305.112,-66.8267 305.112,-59.8267"/>
</g>
<!-- Node7&#45;&gt;Node8 -->
<g id="edge18" class="edge"><title>Node7&#45;&gt;Node8</title>
<path fill="none" stroke="midnightblue" d="M434.342,-48.9504C452.608,-41.52 474.5,-32.6146 491.165,-25.8359"/>
<polygon fill="midnightblue" stroke="midnightblue" points="432.84,-45.7827 424.896,-52.7928 435.477,-52.2668 432.84,-45.7827"/>
</g>
<!-- Node8&#45;&gt;Node2 -->
<g id="edge20" class="edge"><title>Node8&#45;&gt;Node2</title>
<path fill="none" stroke="midnightblue" d="M474.418,-16.7726C410.994,-15.1791 289.19,-12.8354 196,-52.3266 174.701,-61.3524 155.302,-79.6616 142.724,-91.7646"/>
<polygon fill="midnightblue" stroke="midnightblue" points="474.368,-20.2724 484.453,-17.0245 474.544,-13.2746 474.368,-20.2724"/>
</g>
<!-- Node9&#45;&gt;Node5 -->
<g id="edge24" class="edge"><title>Node9&#45;&gt;Node5</title>
<path fill="none" stroke="midnightblue" d="M311.403,-141.327C327.828,-141.327 345.391,-141.327 360.446,-141.327"/>
<polygon fill="midnightblue" stroke="midnightblue" points="311.355,-137.827 301.355,-141.327 311.355,-144.827 311.355,-137.827"/>
</g>
</g>
</svg>
        <g id="navigator" transform="translate(0 0)" fill="#404254">
                <rect fill="#f2f5e9" fill-opacity="0.5" stroke="#606060" stroke-width=".5" x="0" y="0" width="60" height="60"/>
                <use id="zoomplus" xlink:href="#zoomPlus" x="17" y="9" onmousedown="handleZoom(evt,'in')"/>
                <use id="zoomminus" xlink:href="#zoomMin" x="42" y="9" onmousedown="handleZoom(evt,'out')"/>
                <use id="reset" xlink:href="#resetDef" x="30" y="36" onmousedown="handleReset()"/>
                <g id="arrowUp" xlink:href="#dirArrow" transform="translate(30 24)" onmousedown="handlePan(0,-1)">
                  <use xlink:href="#rim" fill="#404040">
                        <set attributeName="fill" to="#808080" begin="arrowUp.mouseover" end="arrowUp.mouseout"/>
                  </use>
                  <path fill="none" stroke="white" stroke-width="1.5" d="M0,-3.0v7 M-2.5,-0.5L0,-3.0L2.5,-0.5"/>
                </g>
                <g id="arrowRight" xlink:href="#dirArrow" transform="rotate(90) translate(36 -43)" onmousedown="handlePan(1,0)">
                  <use xlink:href="#rim" fill="#404040">
                        <set attributeName="fill" to="#808080" begin="arrowRight.mouseover" end="arrowRight.mouseout"/>
                  </use>
                  <path fill="none" stroke="white" stroke-width="1.5" d="M0,-3.0v7 M-2.5,-0.5L0,-3.0L2.5,-0.5"/>
                </g>
                <g id="arrowDown" xlink:href="#dirArrow" transform="rotate(180) translate(-30 -48)" onmousedown="handlePan(0,1)">
                  <use xlink:href="#rim" fill="#404040">
                        <set attributeName="fill" to="#808080" begin="arrowDown.mouseover" end="arrowDown.mouseout"/>
                  </use>
                  <path fill="none" stroke="white" stroke-width="1.5" d="M0,-3.0v7 M-2.5,-0.5L0,-3.0L2.5,-0.5"/>
                </g>
                <g id="arrowLeft" xlink:href="#dirArrow" transform="rotate(270) translate(-36 17)" onmousedown="handlePan(-1,0)">
                  <use xlink:href="#rim" fill="#404040">
                        <set attributeName="fill" to="#808080" begin="arrowLeft.mouseover" end="arrowLeft.mouseout"/>
                  </use>
                  <path fill="none" stroke="white" stroke-width="1.5" d="M0,-3.0v7 M-2.5,-0.5L0,-3.0L2.5,-0.5"/>
                </g>
        </g>
        <svg viewBox="0 0 15 15" width="100%" height="30px" preserveAspectRatio="xMaxYMin meet">
         <g id="arrow_out" transform="scale(0.3 0.3)">
          <a xlink:href="a00001_a86ff35452ee612d9e9e9b147e5544acc_icgraph_org.svg" target="_base">
           <rect id="button" ry="5" rx="5" y="6" x="6" height="38" width="38"
                fill="#f2f5e9" fill-opacity="0.5" stroke="#606060" stroke-width="1.0"/>
           <path id="arrow"
             d="M 11.500037,31.436501 C 11.940474,20.09759 22.043105,11.32322 32.158766,21.979434 L 37.068811,17.246167 C 37.068811,17.246167 37.088388,32 37.088388,32 L 22.160133,31.978069 C 22.160133,31.978069 26.997745,27.140456 26.997745,27.140456 C 18.528582,18.264221 13.291696,25.230495 11.500037,31.436501 z"
             style="fill:#404040;"/>
          </a>
         </g>
        </svg>
</svg>
