<?xml version="1.0" encoding="UTF-8" standalone="no"?>
<!DOCTYPE svg PUBLIC "-//W3C//DTD SVG 1.1//EN"
 "http://www.w3.org/Graphics/SVG/1.1/DTD/svg11.dtd">
<!-- Generated by graphviz version 2.26.3 (20100126.1600)
 -->
<!-- Title: varIsResource Pages: 1 -->
<!--zoomable 246 -->
<svg id="main" version="1.1" xmlns="http://www.w3.org/2000/svg" xmlns:xlink="http://www.w3.org/1999/xlink" xml:space="preserve" onload="init(evt)">
        <defs>
                <circle id="rim" cx="0" cy="0" r="7"/>
                <circle id="rim2" cx="0" cy="0" r="3.5"/>
                <g id="zoomPlus">
                        <use xlink:href="#rim" fill="#404040">
                                <set attributeName="fill" to="#808080" begin="zoomplus.mouseover" end="zoomplus.mouseout"/>
                        </use>
                        <path d="M-4,0h8M0,-4v8" fill="none" stroke="white" stroke-width="1.5" pointer-events="none"/>
                </g>
                <g id="zoomMin">
                        <use xlink:href="#rim" fill="#404040">
                                <set attributeName="fill" to="#808080" begin="zoomminus.mouseover" end="zoomminus.mouseout"/>
                        </use>
                        <path d="M-4,0h8" fill="none" stroke="white" stroke-width="1.5" pointer-events="none"/>
                </g>
                <g id="dirArrow">
                        <path fill="none" stroke="white" stroke-width="1.5" d="M0,-3.0v7 M-2.5,-0.5L0,-3.0L2.5,-0.5"/>
                </g>
               <g id="resetDef">
                       <use xlink:href="#rim2" fill="#404040">
                               <set attributeName="fill" to="#808080" begin="reset.mouseover" end="reset.mouseout"/>
                       </use>
               </g>
        </defs>

<script type="text/javascript">
var viewWidth = 576;
var viewHeight = 246;
var sectionId = 'dynsection-37';
</script>
<script xlink:href="svgpan.js"/>
<svg id="graph" class="graph">
<g id="viewport">
<title>varIsResource</title>
<polygon fill="white" stroke="white" points="-4,5 -4,-242 573,-242 573,5 -4,5"/>
<!-- Node1 -->
<g id="node1" class="node"><title>Node1</title>
<polygon fill="#bfbfbf" stroke="black" points="0.5,-116.5 0.5,-137.5 77.5,-137.5 77.5,-116.5 0.5,-116.5"/>
<text text-anchor="middle" x="39" y="-124.5" font-family="Helvetica,sans-Serif" font-size="10.00">varIsResource</text>
</g>
<!-- Node2 -->
<g id="node3" class="node"><title>Node2</title>
<a xlink:href="a00001.html#aaecea663190c6ce2edd146c3133f257d" target="_top" xlink:title="check variable type andd process the value in right way">
<polygon fill="white" stroke="black" points="114,-116.5 114,-137.5 178,-137.5 178,-116.5 114,-116.5"/>
<text text-anchor="middle" x="146" y="-124.5" font-family="Helvetica,sans-Serif" font-size="10.00">checkType</text>
</a>
</g>
<!-- Node1&#45;&gt;Node2 -->
<g id="edge2" class="edge"><title>Node1&#45;&gt;Node2</title>
<path fill="none" stroke="midnightblue" d="M87.8234,-127C96.6227,-127 105.592,-127 113.77,-127"/>
<polygon fill="midnightblue" stroke="midnightblue" points="87.6295,-123.5 77.6295,-127 87.6294,-130.5 87.6295,-123.5"/>
</g>
<!-- Node3 -->
<g id="node5" class="node"><title>Node3</title>
<a xlink:href="a00001.html#a6826222eba46dd56dbd5841cdc300efa" target="_top" xlink:title="dBug">
<polygon fill="white" stroke="black" points="253.5,-176.5 253.5,-197.5 292.5,-197.5 292.5,-176.5 253.5,-176.5"/>
<text text-anchor="middle" x="273" y="-184.5" font-family="Helvetica,sans-Serif" font-size="10.00">dBug</text>
</a>
</g>
<!-- Node2&#45;&gt;Node3 -->
<g id="edge4" class="edge"><title>Node2&#45;&gt;Node3</title>
<path fill="none" stroke="midnightblue" d="M170.562,-143.101C183.207,-150.958 199.068,-160.165 214,-167 226.785,-172.852 241.799,-177.918 253.482,-181.487"/>
<polygon fill="midnightblue" stroke="midnightblue" points="172.304,-140.061 161.983,-137.671 168.561,-145.976 172.304,-140.061"/>
</g>
<!-- Node4 -->
<g id="node7" class="node"><title>Node4</title>
<a xlink:href="a00001.html#a86ff35452ee612d9e9e9b147e5544acc" target="_top" xlink:title="varIsArray">
<polygon fill="white" stroke="black" points="243.5,-136.5 243.5,-157.5 302.5,-157.5 302.5,-136.5 243.5,-136.5"/>
<text text-anchor="middle" x="273" y="-144.5" font-family="Helvetica,sans-Serif" font-size="10.00">varIsArray</text>
</a>
</g>
<!-- Node2&#45;&gt;Node4 -->
<g id="edge6" class="edge"><title>Node2&#45;&gt;Node4</title>
<path fill="none" stroke="midnightblue" d="M188.031,-127.224C206.065,-129.445 226.716,-132.887 243.144,-136.473"/>
<polygon fill="midnightblue" stroke="midnightblue" points="188.378,-123.741 178.047,-126.094 187.59,-130.697 188.378,-123.741"/>
</g>
<!-- Node5 -->
<g id="node10" class="node"><title>Node5</title>
<a xlink:href="a00001.html#aaa52412f9f4f725e15aafa3fcd678b1d" target="_top" xlink:title="shows information about curl easy handles">
<polygon fill="white" stroke="black" points="214.5,-216.5 214.5,-237.5 331.5,-237.5 331.5,-216.5 214.5,-216.5"/>
<text text-anchor="middle" x="273" y="-224.5" font-family="Helvetica,sans-Serif" font-size="10.00">varIsCurlEasyResource</text>
</a>
</g>
<!-- Node2&#45;&gt;Node5 -->
<g id="edge10" class="edge"><title>Node2&#45;&gt;Node5</title>
<path fill="none" stroke="midnightblue" d="M157.897,-146.24C169.974,-164.294 190.243,-190.867 214,-207 219.547,-210.767 225.868,-213.883 232.263,-216.441"/>
<polygon fill="midnightblue" stroke="midnightblue" points="160.725,-144.168 152.353,-137.676 154.849,-147.972 160.725,-144.168"/>
</g>
<!-- Node6 -->
<g id="node13" class="node"><title>Node6</title>
<a xlink:href="a00001.html#a91a251e46645521ab0c05a9b787624f6" target="_top" xlink:title="function used to render exceptions">
<polygon fill="white" stroke="black" points="233,-96.5 233,-117.5 313,-117.5 313,-96.5 233,-96.5"/>
<text text-anchor="middle" x="273" y="-104.5" font-family="Helvetica,sans-Serif" font-size="10.00">varIsException</text>
</a>
</g>
<!-- Node2&#45;&gt;Node6 -->
<g id="edge14" class="edge"><title>Node2&#45;&gt;Node6</title>
<path fill="none" stroke="midnightblue" d="M188.168,-120.359C202.535,-118.097 218.55,-115.575 232.762,-113.337"/>
<polygon fill="midnightblue" stroke="midnightblue" points="187.381,-116.94 178.047,-121.953 188.47,-123.855 187.381,-116.94"/>
</g>
<!-- Node8 -->
<g id="node17" class="node"><title>Node8</title>
<a xlink:href="a00001.html#a443a941157b2ed03d6a24ae70ece785d" target="_top" xlink:title="checks wheither variable is object of special type (using varIs*Object), and renders it if it is gene...">
<polygon fill="white" stroke="black" points="502.5,-48.5 502.5,-69.5 567.5,-69.5 567.5,-48.5 502.5,-48.5"/>
<text text-anchor="middle" x="535" y="-56.5" font-family="Helvetica,sans-Serif" font-size="10.00">varIsObject</text>
</a>
</g>
<!-- Node2&#45;&gt;Node8 -->
<g id="edge26" class="edge"><title>Node2&#45;&gt;Node8</title>
<path fill="none" stroke="midnightblue" d="M160.158,-109.076C173.324,-97.6299 193.88,-84.4309 214,-78 315.242,-45.6403 443.023,-45.8909 502.181,-51.8505"/>
<polygon fill="midnightblue" stroke="midnightblue" points="157.459,-106.815 152.653,-116.256 162.298,-111.873 157.459,-106.815"/>
</g>
<!-- Node9 -->
<g id="node20" class="node"><title>Node9</title>
<a xlink:href="a00001.html#a642e715a1977cf46d40d840b5112465d" target="_top" xlink:title="if variable is an image/gd resource type">
<polygon fill="white" stroke="black" points="227,-0.5 227,-21.5 319,-21.5 319,-0.5 227,-0.5"/>
<text text-anchor="middle" x="273" y="-8.5" font-family="Helvetica,sans-Serif" font-size="10.00">varIsGDResource</text>
</a>
</g>
<!-- Node2&#45;&gt;Node9 -->
<g id="edge22" class="edge"><title>Node2&#45;&gt;Node9</title>
<path fill="none" stroke="midnightblue" d="M156.51,-107.334C168.198,-87.0806 188.791,-55.7645 214,-36 221.529,-30.097 230.658,-25.3388 239.462,-21.6223"/>
<polygon fill="midnightblue" stroke="midnightblue" points="153.329,-105.852 151.507,-116.289 159.44,-109.266 153.329,-105.852"/>
</g>
<!-- Node4&#45;&gt;Node2 -->
<g id="edge8" class="edge"><title>Node4&#45;&gt;Node2</title>
<path fill="none" stroke="midnightblue" d="M233.444,-147.075C214.819,-144.868 192.973,-141.267 175.776,-137.51"/>
<polygon fill="midnightblue" stroke="midnightblue" points="233.093,-150.557 243.411,-148.149 233.844,-143.597 233.093,-150.557"/>
</g>
<!-- Node5&#45;&gt;Node1 -->
<g id="edge12" class="edge"><title>Node5&#45;&gt;Node1</title>
<path fill="none" stroke="midnightblue" d="M230.233,-213.078C224.739,-211.122 219.215,-209.07 214,-207 157.489,-184.573 92.8788,-153.6 60.2481,-137.567"/>
<polygon fill="midnightblue" stroke="midnightblue" points="229.421,-216.502 240.016,-216.481 231.72,-209.89 229.421,-216.502"/>
</g>
<!-- Node7 -->
<g id="node15" class="node"><title>Node7</title>
<a xlink:href="a00001.html#a783baa8ff544bb8278ac32bce66be5c4" target="_top" xlink:title="varIsSpecialObject">
<polygon fill="white" stroke="black" points="368.5,-96.5 368.5,-117.5 465.5,-117.5 465.5,-96.5 368.5,-96.5"/>
<text text-anchor="middle" x="417" y="-104.5" font-family="Helvetica,sans-Serif" font-size="10.00">varIsSpecialObject</text>
</a>
</g>
<!-- Node6&#45;&gt;Node7 -->
<g id="edge16" class="edge"><title>Node6&#45;&gt;Node7</title>
<path fill="none" stroke="midnightblue" d="M323.464,-107C338.049,-107 353.933,-107 368.402,-107"/>
<polygon fill="midnightblue" stroke="midnightblue" points="323.112,-103.5 313.112,-107 323.112,-110.5 323.112,-103.5"/>
</g>
<!-- Node7&#45;&gt;Node8 -->
<g id="edge18" class="edge"><title>Node7&#45;&gt;Node8</title>
<path fill="none" stroke="midnightblue" d="M452.342,-92.6238C470.608,-85.1934 492.5,-76.288 509.165,-69.5092"/>
<polygon fill="midnightblue" stroke="midnightblue" points="450.84,-89.4561 442.896,-96.4662 453.477,-95.9402 450.84,-89.4561"/>
</g>
<!-- Node8&#45;&gt;Node2 -->
<g id="edge20" class="edge"><title>Node8&#45;&gt;Node2</title>
<path fill="none" stroke="midnightblue" d="M491.875,-62.712C429.126,-63.9611 309.705,-65.41 214,-96 199.127,-100.754 184.016,-109.206 171.828,-116.325"/>
<polygon fill="midnightblue" stroke="midnightblue" points="492.258,-66.2047 502.181,-62.4916 492.109,-59.2063 492.258,-66.2047"/>
</g>
<!-- Node9&#45;&gt;Node1 -->
<g id="edge24" class="edge"><title>Node9&#45;&gt;Node1</title>
<path fill="none" stroke="midnightblue" d="M237.657,-25.4406C229.816,-28.7926 221.584,-32.428 214,-36 156.377,-63.1388 90.1061,-98.8798 58.1726,-116.397"/>
<polygon fill="midnightblue" stroke="midnightblue" points="239.105,-28.6286 246.957,-21.5159 236.383,-22.1793 239.105,-28.6286"/>
</g>
</g>
</svg>
        <g id="navigator" transform="translate(0 0)" fill="#404254">
                <rect fill="#f2f5e9" fill-opacity="0.5" stroke="#606060" stroke-width=".5" x="0" y="0" width="60" height="60"/>
                <use id="zoomplus" xlink:href="#zoomPlus" x="17" y="9" onmousedown="handleZoom(evt,'in')"/>
                <use id="zoomminus" xlink:href="#zoomMin" x="42" y="9" onmousedown="handleZoom(evt,'out')"/>
                <use id="reset" xlink:href="#resetDef" x="30" y="36" onmousedown="handleReset()"/>
                <g id="arrowUp" xlink:href="#dirArrow" transform="translate(30 24)" onmousedown="handlePan(0,-1)">
                  <use xlink:href="#rim" fill="#404040">
                        <set attributeName="fill" to="#808080" begin="arrowUp.mouseover" end="arrowUp.mouseout"/>
                  </use>
                  <path fill="none" stroke="white" stroke-width="1.5" d="M0,-3.0v7 M-2.5,-0.5L0,-3.0L2.5,-0.5"/>
                </g>
                <g id="arrowRight" xlink:href="#dirArrow" transform="rotate(90) translate(36 -43)" onmousedown="handlePan(1,0)">
                  <use xlink:href="#rim" fill="#404040">
                        <set attributeName="fill" to="#808080" begin="arrowRight.mouseover" end="arrowRight.mouseout"/>
                  </use>
                  <path fill="none" stroke="white" stroke-width="1.5" d="M0,-3.0v7 M-2.5,-0.5L0,-3.0L2.5,-0.5"/>
                </g>
                <g id="arrowDown" xlink:href="#dirArrow" transform="rotate(180) translate(-30 -48)" onmousedown="handlePan(0,1)">
                  <use xlink:href="#rim" fill="#404040">
                        <set attributeName="fill" to="#808080" begin="arrowDown.mouseover" end="arrowDown.mouseout"/>
                  </use>
                  <path fill="none" stroke="white" stroke-width="1.5" d="M0,-3.0v7 M-2.5,-0.5L0,-3.0L2.5,-0.5"/>
                </g>
                <g id="arrowLeft" xlink:href="#dirArrow" transform="rotate(270) translate(-36 17)" onmousedown="handlePan(-1,0)">
                  <use xlink:href="#rim" fill="#404040">
                        <set attributeName="fill" to="#808080" begin="arrowLeft.mouseover" end="arrowLeft.mouseout"/>
                  </use>
                  <path fill="none" stroke="white" stroke-width="1.5" d="M0,-3.0v7 M-2.5,-0.5L0,-3.0L2.5,-0.5"/>
                </g>
        </g>
        <svg viewBox="0 0 15 15" width="100%" height="30px" preserveAspectRatio="xMaxYMin meet">
         <g id="arrow_out" transform="scale(0.3 0.3)">
          <a xlink:href="a00001_a4ab1e15fa34f8b98071b0eb36883777e_icgraph_org.svg" target="_base">
           <rect id="button" ry="5" rx="5" y="6" x="6" height="38" width="38"
                fill="#f2f5e9" fill-opacity="0.5" stroke="#606060" stroke-width="1.0"/>
           <path id="arrow"
             d="M 11.500037,31.436501 C 11.940474,20.09759 22.043105,11.32322 32.158766,21.979434 L 37.068811,17.246167 C 37.068811,17.246167 37.088388,32 37.088388,32 L 22.160133,31.978069 C 22.160133,31.978069 26.997745,27.140456 26.997745,27.140456 C 18.528582,18.264221 13.291696,25.230495 11.500037,31.436501 z"
             style="fill:#404040;"/>
          </a>
         </g>
        </svg>
</svg>
