<?xml version="1.0" encoding="UTF-8" standalone="no"?>
<!DOCTYPE svg PUBLIC "-//W3C//DTD SVG 1.1//EN"
 "http://www.w3.org/Graphics/SVG/1.1/DTD/svg11.dtd">
<!-- Generated by graphviz version 2.26.3 (20100126.1600)
 -->
<!-- Title: checkType Pages: 1 -->
<svg width="462pt" height="287pt"
 viewBox="0.00 0.00 462.00 287.13" xmlns="http://www.w3.org/2000/svg" xmlns:xlink="http://www.w3.org/1999/xlink">
<g id="graph1" class="graph" transform="scale(1 1) rotate(0) translate(4 283.127)">
<title>checkType</title>
<polygon fill="white" stroke="white" points="-4,5 -4,-283.127 459,-283.127 459,5 -4,5"/>
<!-- Node1 -->
<g id="node1" class="node"><title>Node1</title>
<polygon fill="#bfbfbf" stroke="black" points="0,-137.627 0,-158.627 64,-158.627 64,-137.627 0,-137.627"/>
<text text-anchor="middle" x="32" y="-145.627" font-family="Helvetica,sans-Serif" font-size="10.00">checkType</text>
</g>
<!-- Node2 -->
<g id="node3" class="node"><title>Node2</title>
<a xlink:href="a00001.html#a6826222eba46dd56dbd5841cdc300efa" target="_top" xlink:title="dBug">
<polygon fill="white" stroke="black" points="139.5,-257.627 139.5,-278.627 178.5,-278.627 178.5,-257.627 139.5,-257.627"/>
<text text-anchor="middle" x="159" y="-265.627" font-family="Helvetica,sans-Serif" font-size="10.00">dBug</text>
</a>
</g>
<!-- Node1&#45;&gt;Node2 -->
<g id="edge2" class="edge"><title>Node1&#45;&gt;Node2</title>
<path fill="none" stroke="midnightblue" d="M40.7516,-168.138C51.5686,-190.655 72.0317,-226.855 100,-248.127 111.536,-256.9 127.16,-261.969 139.432,-264.807"/>
<polygon fill="midnightblue" stroke="midnightblue" points="43.8368,-166.471 36.468,-158.858 37.4812,-169.404 43.8368,-166.471"/>
</g>
<!-- Node3 -->
<g id="node5" class="node"><title>Node3</title>
<a xlink:href="a00001.html#a86ff35452ee612d9e9e9b147e5544acc" target="_top" xlink:title="varIsArray">
<polygon fill="white" stroke="black" points="129.5,-217.627 129.5,-238.627 188.5,-238.627 188.5,-217.627 129.5,-217.627"/>
<text text-anchor="middle" x="159" y="-225.627" font-family="Helvetica,sans-Serif" font-size="10.00">varIsArray</text>
</a>
</g>
<!-- Node1&#45;&gt;Node3 -->
<g id="edge4" class="edge"><title>Node1&#45;&gt;Node3</title>
<path fill="none" stroke="midnightblue" d="M56.178,-165.594C68.4046,-176.5 84.0178,-189.872 100,-199.127 113.852,-207.149 131.407,-212.58 143.754,-217.474"/>
<polygon fill="midnightblue" stroke="midnightblue" points="58.4432,-162.925 48.6626,-158.852 53.7685,-168.135 58.4432,-162.925"/>
</g>
<!-- Node4 -->
<g id="node8" class="node"><title>Node4</title>
<a xlink:href="a00001.html#aaa52412f9f4f725e15aafa3fcd678b1d" target="_top" xlink:title="shows information about curl easy handles">
<polygon fill="white" stroke="black" points="100.5,-177.627 100.5,-198.627 217.5,-198.627 217.5,-177.627 100.5,-177.627"/>
<text text-anchor="middle" x="159" y="-185.627" font-family="Helvetica,sans-Serif" font-size="10.00">varIsCurlEasyResource</text>
</a>
</g>
<!-- Node1&#45;&gt;Node4 -->
<g id="edge8" class="edge"><title>Node1&#45;&gt;Node4</title>
<path fill="none" stroke="midnightblue" d="M73.6615,-161.249C90.5213,-166.559 109.72,-172.606 125.632,-177.617"/>
<polygon fill="midnightblue" stroke="midnightblue" points="74.637,-157.887 64.0475,-158.221 72.5341,-164.563 74.637,-157.887"/>
</g>
<!-- Node6 -->
<g id="node13" class="node"><title>Node6</title>
<a xlink:href="a00001.html#a91a251e46645521ab0c05a9b787624f6" target="_top" xlink:title="function used to render exceptions">
<polygon fill="white" stroke="black" points="119,-59.627 119,-80.627 199,-80.627 199,-59.627 119,-59.627"/>
<text text-anchor="middle" x="159" y="-67.627" font-family="Helvetica,sans-Serif" font-size="10.00">varIsException</text>
</a>
</g>
<!-- Node1&#45;&gt;Node6 -->
<g id="edge14" class="edge"><title>Node1&#45;&gt;Node6</title>
<path fill="none" stroke="midnightblue" d="M51.6752,-130.546C64.7473,-119.447 82.6407,-105.331 100,-95.127 109.399,-89.6021 120.248,-84.6436 130.059,-80.6275"/>
<polygon fill="midnightblue" stroke="midnightblue" points="49.1057,-128.141 43.8353,-137.332 53.6869,-133.433 49.1057,-128.141"/>
</g>
<!-- Node8 -->
<g id="node17" class="node"><title>Node8</title>
<a xlink:href="a00001.html#a443a941157b2ed03d6a24ae70ece785d" target="_top" xlink:title="checks wheither variable is object of special type (using varIs*Object), and renders it if it is gene...">
<polygon fill="white" stroke="black" points="388.5,-11.627 388.5,-32.627 453.5,-32.627 453.5,-11.627 388.5,-11.627"/>
<text text-anchor="middle" x="421" y="-19.627" font-family="Helvetica,sans-Serif" font-size="10.00">varIsObject</text>
</a>
</g>
<!-- Node1&#45;&gt;Node8 -->
<g id="edge26" class="edge"><title>Node1&#45;&gt;Node8</title>
<path fill="none" stroke="midnightblue" d="M37.335,-127.981C46.4003,-102.366 67.0947,-60.2127 100,-41.127 193.877,13.3235 329.815,1.32731 390.154,-11.5939"/>
<polygon fill="midnightblue" stroke="midnightblue" points="33.996,-126.932 34.2487,-137.523 40.6563,-129.086 33.996,-126.932"/>
</g>
<!-- Node9 -->
<g id="node20" class="node"><title>Node9</title>
<a xlink:href="a00001.html#a642e715a1977cf46d40d840b5112465d" target="_top" xlink:title="if variable is an image/gd resource type">
<polygon fill="white" stroke="black" points="113,-137.627 113,-158.627 205,-158.627 205,-137.627 113,-137.627"/>
<text text-anchor="middle" x="159" y="-145.627" font-family="Helvetica,sans-Serif" font-size="10.00">varIsGDResource</text>
</a>
</g>
<!-- Node1&#45;&gt;Node9 -->
<g id="edge22" class="edge"><title>Node1&#45;&gt;Node9</title>
<path fill="none" stroke="midnightblue" d="M74.0756,-148.127C86.4133,-148.127 99.9732,-148.127 112.566,-148.127"/>
<polygon fill="midnightblue" stroke="midnightblue" points="74.0475,-144.627 64.0475,-148.127 74.0474,-151.627 74.0475,-144.627"/>
</g>
<!-- Node3&#45;&gt;Node1 -->
<g id="edge6" class="edge"><title>Node3&#45;&gt;Node1</title>
<path fill="none" stroke="midnightblue" d="M119.693,-226.095C112.918,-223.689 106.1,-220.659 100,-217.127 73.2959,-201.663 47.6221,-174.707 37.0544,-158.882"/>
<polygon fill="midnightblue" stroke="midnightblue" points="118.91,-229.518 129.499,-229.16 120.998,-222.836 118.91,-229.518"/>
</g>
<!-- Node5 -->
<g id="node10" class="node"><title>Node5</title>
<a xlink:href="a00001.html#a4ab1e15fa34f8b98071b0eb36883777e" target="_top" xlink:title="shows info about different resources, uses customized rendering founctions when needed">
<polygon fill="white" stroke="black" points="264.5,-137.627 264.5,-158.627 341.5,-158.627 341.5,-137.627 264.5,-137.627"/>
<text text-anchor="middle" x="303" y="-145.627" font-family="Helvetica,sans-Serif" font-size="10.00">varIsResource</text>
</a>
</g>
<!-- Node4&#45;&gt;Node5 -->
<g id="edge10" class="edge"><title>Node4&#45;&gt;Node5</title>
<path fill="none" stroke="midnightblue" d="M206.486,-174.936C225.456,-169.667 247.003,-163.682 264.918,-158.705"/>
<polygon fill="midnightblue" stroke="midnightblue" points="205.533,-171.569 196.834,-177.617 207.406,-178.313 205.533,-171.569"/>
</g>
<!-- Node5&#45;&gt;Node1 -->
<g id="edge12" class="edge"><title>Node5&#45;&gt;Node1</title>
<path fill="none" stroke="midnightblue" d="M256.77,-135.207C244.287,-132.28 230.714,-129.603 218,-128.127 165.905,-122.081 151.909,-120.652 100,-128.127 86.9675,-130.004 72.9499,-133.806 61.0474,-137.595"/>
<polygon fill="midnightblue" stroke="midnightblue" points="255.965,-138.613 266.51,-137.589 257.628,-131.813 255.965,-138.613"/>
</g>
<!-- Node7 -->
<g id="node15" class="node"><title>Node7</title>
<a xlink:href="a00001.html#a783baa8ff544bb8278ac32bce66be5c4" target="_top" xlink:title="varIsSpecialObject">
<polygon fill="white" stroke="black" points="254.5,-59.627 254.5,-80.627 351.5,-80.627 351.5,-59.627 254.5,-59.627"/>
<text text-anchor="middle" x="303" y="-67.627" font-family="Helvetica,sans-Serif" font-size="10.00">varIsSpecialObject</text>
</a>
</g>
<!-- Node6&#45;&gt;Node7 -->
<g id="edge16" class="edge"><title>Node6&#45;&gt;Node7</title>
<path fill="none" stroke="midnightblue" d="M209.464,-70.127C224.049,-70.127 239.933,-70.127 254.402,-70.127"/>
<polygon fill="midnightblue" stroke="midnightblue" points="209.112,-66.6271 199.112,-70.127 209.112,-73.6271 209.112,-66.6271"/>
</g>
<!-- Node7&#45;&gt;Node8 -->
<g id="edge18" class="edge"><title>Node7&#45;&gt;Node8</title>
<path fill="none" stroke="midnightblue" d="M338.342,-55.7507C356.608,-48.3204 378.5,-39.4149 395.165,-32.6362"/>
<polygon fill="midnightblue" stroke="midnightblue" points="336.84,-52.5831 328.896,-59.5932 339.477,-59.0672 336.84,-52.5831"/>
</g>
<!-- Node8&#45;&gt;Node1 -->
<g id="edge20" class="edge"><title>Node8&#45;&gt;Node1</title>
<path fill="none" stroke="midnightblue" d="M377.984,-20.7434C312.987,-15.4327 188.009,-8.07966 100,-59.127 68.1142,-77.6214 47.6943,-117.776 38.2111,-137.503"/>
<polygon fill="midnightblue" stroke="midnightblue" points="378.008,-24.2575 388.264,-21.6009 378.59,-17.2817 378.008,-24.2575"/>
</g>
<!-- Node9&#45;&gt;Node5 -->
<g id="edge24" class="edge"><title>Node9&#45;&gt;Node5</title>
<path fill="none" stroke="midnightblue" d="M215.403,-148.127C231.828,-148.127 249.391,-148.127 264.446,-148.127"/>
<polygon fill="midnightblue" stroke="midnightblue" points="215.355,-144.627 205.355,-148.127 215.355,-151.627 215.355,-144.627"/>
</g>
</g>
</svg>
