<?xml version="1.0" encoding="UTF-8" standalone="no"?>
<!DOCTYPE svg PUBLIC "-//W3C//DTD SVG 1.1//EN"
 "http://www.w3.org/Graphics/SVG/1.1/DTD/svg11.dtd">
<!-- Generated by graphviz version 2.26.3 (20100126.1600)
 -->
<!-- Title: varIsDBResource Pages: 1 -->
<svg width="494pt" height="70pt"
 viewBox="0.00 0.00 494.00 70.00" xmlns="http://www.w3.org/2000/svg" xmlns:xlink="http://www.w3.org/1999/xlink">
<g id="graph1" class="graph" transform="scale(1 1) rotate(0) translate(4 66)">
<title>varIsDBResource</title>
<polygon fill="white" stroke="white" points="-4,5 -4,-66 491,-66 491,5 -4,5"/>
<!-- Node1 -->
<g id="node1" class="node"><title>Node1</title>
<polygon fill="#bfbfbf" stroke="black" points="0.5,-20.5 0.5,-41.5 91.5,-41.5 91.5,-20.5 0.5,-20.5"/>
<text text-anchor="middle" x="46" y="-28.5" font-family="Helvetica,sans-Serif" font-size="10.00">varIsDBResource</text>
</g>
<!-- Node2 -->
<g id="node3" class="node"><title>Node2</title>
<a xlink:href="a00001.html#a04aa495573c880043c46c3bfc669bbe3" target="_top" xlink:title="creates the main table header">
<polygon fill="white" stroke="black" points="128.5,-20.5 128.5,-41.5 223.5,-41.5 223.5,-20.5 128.5,-20.5"/>
<text text-anchor="middle" x="176" y="-28.5" font-family="Helvetica,sans-Serif" font-size="10.00">makeTableHeader</text>
</a>
</g>
<!-- Node1&#45;&gt;Node2 -->
<g id="edge2" class="edge"><title>Node1&#45;&gt;Node2</title>
<path fill="none" stroke="midnightblue" d="M91.8331,-31C100.345,-31 109.338,-31 118.154,-31"/>
<polygon fill="midnightblue" stroke="midnightblue" points="118.381,-34.5001 128.381,-31 118.381,-27.5001 118.381,-34.5001"/>
</g>
<!-- Node3 -->
<g id="node5" class="node"><title>Node3</title>
<a xlink:href="a00001.html#a742973a203c412611192053dc0cd48af" target="_top" xlink:title="initializeHeader">
<polygon fill="white" stroke="black" points="267.5,-40.5 267.5,-61.5 350.5,-61.5 350.5,-40.5 267.5,-40.5"/>
<text text-anchor="middle" x="309" y="-48.5" font-family="Helvetica,sans-Serif" font-size="10.00">initializeHeader</text>
</a>
</g>
<!-- Node2&#45;&gt;Node3 -->
<g id="edge4" class="edge"><title>Node2&#45;&gt;Node3</title>
<path fill="none" stroke="midnightblue" d="M223.64,-38.164C234.597,-39.8116 246.299,-41.5713 257.414,-43.2428"/>
<polygon fill="midnightblue" stroke="midnightblue" points="257.01,-46.7213 267.42,-44.7473 258.051,-39.7991 257.01,-46.7213"/>
</g>
<!-- Node5 -->
<g id="node9" class="node"><title>Node5</title>
<a xlink:href="a00001.html#a3396d3c6336b500d49e3a1a0288dc035" target="_top" xlink:title="draws the main table header">
<polygon fill="white" stroke="black" points="260,-0.5 260,-21.5 358,-21.5 358,-0.5 260,-0.5"/>
<text text-anchor="middle" x="309" y="-8.5" font-family="Helvetica,sans-Serif" font-size="10.00">renderTableHeader</text>
</a>
</g>
<!-- Node2&#45;&gt;Node5 -->
<g id="edge8" class="edge"><title>Node2&#45;&gt;Node5</title>
<path fill="none" stroke="midnightblue" d="M223.64,-23.836C232.105,-22.5632 241.014,-21.2235 249.754,-19.9092"/>
<polygon fill="midnightblue" stroke="midnightblue" points="250.531,-23.3318 259.899,-18.3836 249.49,-16.4096 250.531,-23.3318"/>
</g>
<!-- Node4 -->
<g id="node7" class="node"><title>Node4</title>
<a xlink:href="a00001.html#a20af85a4f4041ed681b095e1427b2a1d" target="_top" xlink:title="getVariableName">
<polygon fill="white" stroke="black" points="394.5,-40.5 394.5,-61.5 485.5,-61.5 485.5,-40.5 394.5,-40.5"/>
<text text-anchor="middle" x="440" y="-48.5" font-family="Helvetica,sans-Serif" font-size="10.00">getVariableName</text>
</a>
</g>
<!-- Node3&#45;&gt;Node4 -->
<g id="edge6" class="edge"><title>Node3&#45;&gt;Node4</title>
<path fill="none" stroke="midnightblue" d="M350.809,-51C361.358,-51 372.854,-51 383.977,-51"/>
<polygon fill="midnightblue" stroke="midnightblue" points="384.05,-54.5001 394.05,-51 384.05,-47.5001 384.05,-54.5001"/>
</g>
</g>
</svg>
