<?xml version="1.0" encoding="UTF-8" standalone="no"?>
<!DOCTYPE svg PUBLIC "-//W3C//DTD SVG 1.1//EN"
 "http://www.w3.org/Graphics/SVG/1.1/DTD/svg11.dtd">
<!-- Generated by graphviz version 2.26.3 (20100126.1600)
 -->
<!-- Title: makeTDHeader Pages: 1 -->
<svg width="680pt" height="272pt"
 viewBox="0.00 0.00 680.00 272.00" xmlns="http://www.w3.org/2000/svg" xmlns:xlink="http://www.w3.org/1999/xlink">
<g id="graph1" class="graph" transform="scale(1 1) rotate(0) translate(4 268)">
<title>makeTDHeader</title>
<polygon fill="white" stroke="white" points="-4,5 -4,-268 677,-268 677,5 -4,5"/>
<!-- Node1 -->
<g id="node1" class="node"><title>Node1</title>
<polygon fill="#bfbfbf" stroke="black" points="0.5,-154.5 0.5,-175.5 83.5,-175.5 83.5,-154.5 0.5,-154.5"/>
<text text-anchor="middle" x="42" y="-162.5" font-family="Helvetica,sans-Serif" font-size="10.00">makeTDHeader</text>
</g>
<!-- Node2 -->
<g id="node3" class="node"><title>Node2</title>
<a xlink:href="a00001.html#a86ff35452ee612d9e9e9b147e5544acc" target="_top" xlink:title="varIsArray">
<polygon fill="white" stroke="black" points="121.5,-135.5 121.5,-156.5 180.5,-156.5 180.5,-135.5 121.5,-135.5"/>
<text text-anchor="middle" x="151" y="-143.5" font-family="Helvetica,sans-Serif" font-size="10.00">varIsArray</text>
</a>
</g>
<!-- Node1&#45;&gt;Node2 -->
<g id="edge2" class="edge"><title>Node1&#45;&gt;Node2</title>
<path fill="none" stroke="midnightblue" d="M93.4377,-156.034C103.048,-154.359 112.786,-152.661 121.45,-151.151"/>
<polygon fill="midnightblue" stroke="midnightblue" points="92.7696,-152.597 83.5192,-157.763 93.9717,-159.493 92.7696,-152.597"/>
</g>
<!-- Node5 -->
<g id="node10" class="node"><title>Node5</title>
<a xlink:href="a00001.html#aaa52412f9f4f725e15aafa3fcd678b1d" target="_top" xlink:title="shows information about curl easy handles">
<polygon fill="white" stroke="black" points="318.5,-174.5 318.5,-195.5 435.5,-195.5 435.5,-174.5 318.5,-174.5"/>
<text text-anchor="middle" x="377" y="-182.5" font-family="Helvetica,sans-Serif" font-size="10.00">varIsCurlEasyResource</text>
</a>
</g>
<!-- Node1&#45;&gt;Node5 -->
<g id="edge30" class="edge"><title>Node1&#45;&gt;Node5</title>
<path fill="none" stroke="midnightblue" d="M93.8751,-168.097C154.586,-171.722 254.874,-177.709 318.359,-181.499"/>
<polygon fill="midnightblue" stroke="midnightblue" points="93.9415,-164.595 83.7506,-167.493 93.5242,-171.582 93.9415,-164.595"/>
</g>
<!-- Node7 -->
<g id="node15" class="node"><title>Node7</title>
<a xlink:href="a00001.html#a91a251e46645521ab0c05a9b787624f6" target="_top" xlink:title="function used to render exceptions">
<polygon fill="white" stroke="black" points="337,-214.5 337,-235.5 417,-235.5 417,-214.5 337,-214.5"/>
<text text-anchor="middle" x="377" y="-222.5" font-family="Helvetica,sans-Serif" font-size="10.00">varIsException</text>
</a>
</g>
<!-- Node1&#45;&gt;Node7 -->
<g id="edge32" class="edge"><title>Node1&#45;&gt;Node7</title>
<path fill="none" stroke="midnightblue" d="M89.6808,-178.003C99.6573,-180.505 110.141,-182.974 120,-185 196.077,-200.636 285.939,-213.318 336.721,-219.957"/>
<polygon fill="midnightblue" stroke="midnightblue" points="90.4705,-174.593 79.9151,-175.506 88.736,-181.374 90.4705,-174.593"/>
</g>
<!-- Node9 -->
<g id="node19" class="node"><title>Node9</title>
<a xlink:href="a00001.html#a443a941157b2ed03d6a24ae70ece785d" target="_top" xlink:title="checks wheither variable is object of special type (using varIs*Object), and renders it if it is gene...">
<polygon fill="white" stroke="black" points="606.5,-160.5 606.5,-181.5 671.5,-181.5 671.5,-160.5 606.5,-160.5"/>
<text text-anchor="middle" x="639" y="-168.5" font-family="Helvetica,sans-Serif" font-size="10.00">varIsObject</text>
</a>
</g>
<!-- Node1&#45;&gt;Node9 -->
<g id="edge36" class="edge"><title>Node1&#45;&gt;Node9</title>
<path fill="none" stroke="midnightblue" d="M62.2807,-182.216C97.8303,-210.573 174.789,-264 250,-264 250,-264 250,-264 377,-264 464.512,-264 490.518,-261.618 570,-225 593.487,-214.18 616.208,-193.917 628.823,-181.524"/>
<polygon fill="midnightblue" stroke="midnightblue" points="64.1228,-179.202 54.1611,-175.595 59.6989,-184.627 64.1228,-179.202"/>
</g>
<!-- Node10 -->
<g id="node22" class="node"><title>Node10</title>
<a xlink:href="a00001.html#a642e715a1977cf46d40d840b5112465d" target="_top" xlink:title="if variable is an image/gd resource type">
<polygon fill="white" stroke="black" points="331,-0.5 331,-21.5 423,-21.5 423,-0.5 331,-0.5"/>
<text text-anchor="middle" x="377" y="-8.5" font-family="Helvetica,sans-Serif" font-size="10.00">varIsGDResource</text>
</a>
</g>
<!-- Node1&#45;&gt;Node10 -->
<g id="edge34" class="edge"><title>Node1&#45;&gt;Node10</title>
<path fill="none" stroke="midnightblue" d="M55.7775,-146.326C69.9709,-128.367 93.6839,-101.698 120,-86 187.06,-45.9974 276.784,-26.1984 330.546,-17.3135"/>
<polygon fill="midnightblue" stroke="midnightblue" points="52.9243,-144.295 49.6048,-154.356 58.4742,-148.561 52.9243,-144.295"/>
</g>
<!-- Node11 -->
<g id="node30" class="node"><title>Node11</title>
<a xlink:href="a00001.html#a1dce801bff273c92008ec238b5480928" target="_top" xlink:title="renders string either as primitive type (if it is short (less than $embeddedStringMaxLength chars) an...">
<polygon fill="white" stroke="black" points="120,-95.5 120,-116.5 182,-116.5 182,-95.5 120,-95.5"/>
<text text-anchor="middle" x="151" y="-103.5" font-family="Helvetica,sans-Serif" font-size="10.00">varIsString</text>
</a>
</g>
<!-- Node1&#45;&gt;Node11 -->
<g id="edge38" class="edge"><title>Node1&#45;&gt;Node11</title>
<path fill="none" stroke="midnightblue" d="M70.3757,-149.641C89.5241,-139.276 114.308,-125.861 131.314,-116.656"/>
<polygon fill="midnightblue" stroke="midnightblue" points="68.6153,-146.614 61.487,-154.452 71.9475,-152.77 68.6153,-146.614"/>
</g>
<!-- Node3 -->
<g id="node5" class="node"><title>Node3</title>
<a xlink:href="a00001.html#aaecea663190c6ce2edd146c3133f257d" target="_top" xlink:title="check variable type andd process the value in right way">
<polygon fill="white" stroke="black" points="218,-126.5 218,-147.5 282,-147.5 282,-126.5 218,-126.5"/>
<text text-anchor="middle" x="250" y="-134.5" font-family="Helvetica,sans-Serif" font-size="10.00">checkType</text>
</a>
</g>
<!-- Node2&#45;&gt;Node3 -->
<g id="edge4" class="edge"><title>Node2&#45;&gt;Node3</title>
<path fill="none" stroke="midnightblue" d="M190.658,-135.765C199.708,-134.719 209.215,-133.943 217.902,-133.553"/>
<polygon fill="midnightblue" stroke="midnightblue" points="190.171,-132.299 180.703,-137.054 191.07,-139.241 190.171,-132.299"/>
</g>
<!-- Node3&#45;&gt;Node2 -->
<g id="edge8" class="edge"><title>Node3&#45;&gt;Node2</title>
<path fill="none" stroke="midnightblue" d="M207.814,-147.519C198.69,-148.514 189.228,-149.228 180.703,-149.545"/>
<polygon fill="midnightblue" stroke="midnightblue" points="208.403,-150.973 217.902,-146.283 207.551,-144.025 208.403,-150.973"/>
</g>
<!-- Node4 -->
<g id="node7" class="node"><title>Node4</title>
<a xlink:href="a00001.html#a6826222eba46dd56dbd5841cdc300efa" target="_top" xlink:title="dBug">
<polygon fill="white" stroke="black" points="357.5,-78.5 357.5,-99.5 396.5,-99.5 396.5,-78.5 357.5,-78.5"/>
<text text-anchor="middle" x="377" y="-86.5" font-family="Helvetica,sans-Serif" font-size="10.00">dBug</text>
</a>
</g>
<!-- Node3&#45;&gt;Node4 -->
<g id="edge6" class="edge"><title>Node3&#45;&gt;Node4</title>
<path fill="none" stroke="midnightblue" d="M287.336,-122.889C310.318,-114.203 338.841,-103.422 357.462,-96.3846"/>
<polygon fill="midnightblue" stroke="midnightblue" points="285.987,-119.657 277.871,-126.466 288.462,-126.205 285.987,-119.657"/>
</g>
<!-- Node3&#45;&gt;Node5 -->
<g id="edge10" class="edge"><title>Node3&#45;&gt;Node5</title>
<path fill="none" stroke="midnightblue" d="M287.494,-151.171C307.262,-158.642 331.094,-167.65 349.194,-174.491"/>
<polygon fill="midnightblue" stroke="midnightblue" points="288.462,-147.795 277.871,-147.534 285.987,-154.343 288.462,-147.795"/>
</g>
<!-- Node3&#45;&gt;Node7 -->
<g id="edge16" class="edge"><title>Node3&#45;&gt;Node7</title>
<path fill="none" stroke="midnightblue" d="M264.687,-155.888C277.356,-171.044 296.901,-191.886 318,-205 323.971,-208.711 330.713,-211.827 337.45,-214.411"/>
<polygon fill="midnightblue" stroke="midnightblue" points="267.08,-153.283 258.062,-147.722 261.645,-157.693 267.08,-153.283"/>
</g>
<!-- Node3&#45;&gt;Node9 -->
<g id="edge28" class="edge"><title>Node3&#45;&gt;Node9</title>
<path fill="none" stroke="midnightblue" d="M292.616,-136.313C370.9,-139.893 536.004,-154.475 606.25,-164.179"/>
<polygon fill="midnightblue" stroke="midnightblue" points="292.3,-132.797 282.164,-135.882 292.012,-139.791 292.3,-132.797"/>
</g>
<!-- Node3&#45;&gt;Node10 -->
<g id="edge24" class="edge"><title>Node3&#45;&gt;Node10</title>
<path fill="none" stroke="midnightblue" d="M258.993,-117.156C270.034,-94.7547 290.703,-58.5068 318,-36 325.296,-29.9845 334.251,-25.2075 342.96,-21.5098"/>
<polygon fill="midnightblue" stroke="midnightblue" points="255.743,-115.842 254.609,-126.376 262.064,-118.848 255.743,-115.842"/>
</g>
<!-- Node6 -->
<g id="node12" class="node"><title>Node6</title>
<a xlink:href="a00001.html#a4ab1e15fa34f8b98071b0eb36883777e" target="_top" xlink:title="shows info about different resources, uses customized rendering founctions when needed">
<polygon fill="white" stroke="black" points="482.5,-39.5 482.5,-60.5 559.5,-60.5 559.5,-39.5 482.5,-39.5"/>
<text text-anchor="middle" x="521" y="-47.5" font-family="Helvetica,sans-Serif" font-size="10.00">varIsResource</text>
</a>
</g>
<!-- Node5&#45;&gt;Node6 -->
<g id="edge12" class="edge"><title>Node5&#45;&gt;Node6</title>
<path fill="none" stroke="midnightblue" d="M395.702,-167.467C426.046,-139.02 485.091,-83.6644 509.753,-60.544"/>
<polygon fill="midnightblue" stroke="midnightblue" points="393.201,-165.014 388.299,-174.407 397.989,-170.121 393.201,-165.014"/>
</g>
<!-- Node6&#45;&gt;Node3 -->
<g id="edge14" class="edge"><title>Node6&#45;&gt;Node3</title>
<path fill="none" stroke="midnightblue" d="M472.185,-45.5438C429.484,-43.6934 366.832,-46.049 318,-69 290.5,-81.925 267.732,-110.842 256.867,-126.479"/>
<polygon fill="midnightblue" stroke="midnightblue" points="472.151,-49.0468 482.321,-46.0781 472.519,-42.0565 472.151,-49.0468"/>
</g>
<!-- Node8 -->
<g id="node17" class="node"><title>Node8</title>
<a xlink:href="a00001.html#a783baa8ff544bb8278ac32bce66be5c4" target="_top" xlink:title="varIsSpecialObject">
<polygon fill="white" stroke="black" points="472.5,-194.5 472.5,-215.5 569.5,-215.5 569.5,-194.5 472.5,-194.5"/>
<text text-anchor="middle" x="521" y="-202.5" font-family="Helvetica,sans-Serif" font-size="10.00">varIsSpecialObject</text>
</a>
</g>
<!-- Node7&#45;&gt;Node8 -->
<g id="edge18" class="edge"><title>Node7&#45;&gt;Node8</title>
<path fill="none" stroke="midnightblue" d="M427.04,-218.05C441.741,-216.008 457.792,-213.779 472.402,-211.75"/>
<polygon fill="midnightblue" stroke="midnightblue" points="426.535,-214.586 417.112,-219.429 427.498,-221.52 426.535,-214.586"/>
</g>
<!-- Node8&#45;&gt;Node9 -->
<g id="edge20" class="edge"><title>Node8&#45;&gt;Node9</title>
<path fill="none" stroke="midnightblue" d="M567.427,-191.623C580.438,-187.874 594.305,-183.878 606.334,-180.412"/>
<polygon fill="midnightblue" stroke="midnightblue" points="566.329,-188.297 557.689,-194.429 568.267,-195.023 566.329,-188.297"/>
</g>
<!-- Node9&#45;&gt;Node3 -->
<g id="edge22" class="edge"><title>Node9&#45;&gt;Node3</title>
<path fill="none" stroke="midnightblue" d="M596.209,-171.679C517.635,-168.075 352.022,-153.436 282.164,-143.74"/>
<polygon fill="midnightblue" stroke="midnightblue" points="596.113,-175.178 606.25,-172.096 596.404,-168.184 596.113,-175.178"/>
</g>
<!-- Node10&#45;&gt;Node6 -->
<g id="edge26" class="edge"><title>Node10&#45;&gt;Node6</title>
<path fill="none" stroke="midnightblue" d="M425.699,-24.1892C444.221,-29.2057 465.049,-34.8467 482.499,-39.5727"/>
<polygon fill="midnightblue" stroke="midnightblue" points="426.536,-20.7899 415.968,-21.554 424.706,-27.5465 426.536,-20.7899"/>
</g>
<!-- Node11&#45;&gt;Node3 -->
<g id="edge40" class="edge"><title>Node11&#45;&gt;Node3</title>
<path fill="none" stroke="midnightblue" d="M191.635,-118.724C200.316,-121.442 209.373,-124.278 217.691,-126.883"/>
<polygon fill="midnightblue" stroke="midnightblue" points="192.642,-115.372 182.053,-115.724 190.55,-122.052 192.642,-115.372"/>
</g>
</g>
</svg>
