<?xml version="1.0" encoding="UTF-8" standalone="no"?>
<!DOCTYPE svg PUBLIC "-//W3C//DTD SVG 1.1//EN"
 "http://www.w3.org/Graphics/SVG/1.1/DTD/svg11.dtd">
<!-- Generated by graphviz version 2.26.3 (20100126.1600)
 -->
<!-- Title: xmlParse Pages: 1 -->
<!--zoomable 190 -->
<svg id="main" version="1.1" xmlns="http://www.w3.org/2000/svg" xmlns:xlink="http://www.w3.org/1999/xlink" xml:space="preserve" onload="init(evt)">
        <defs>
                <circle id="rim" cx="0" cy="0" r="7"/>
                <circle id="rim2" cx="0" cy="0" r="3.5"/>
                <g id="zoomPlus">
                        <use xlink:href="#rim" fill="#404040">
                                <set attributeName="fill" to="#808080" begin="zoomplus.mouseover" end="zoomplus.mouseout"/>
                        </use>
                        <path d="M-4,0h8M0,-4v8" fill="none" stroke="white" stroke-width="1.5" pointer-events="none"/>
                </g>
                <g id="zoomMin">
                        <use xlink:href="#rim" fill="#404040">
                                <set attributeName="fill" to="#808080" begin="zoomminus.mouseover" end="zoomminus.mouseout"/>
                        </use>
                        <path d="M-4,0h8" fill="none" stroke="white" stroke-width="1.5" pointer-events="none"/>
                </g>
                <g id="dirArrow">
                        <path fill="none" stroke="white" stroke-width="1.5" d="M0,-3.0v7 M-2.5,-0.5L0,-3.0L2.5,-0.5"/>
                </g>
               <g id="resetDef">
                       <use xlink:href="#rim2" fill="#404040">
                               <set attributeName="fill" to="#808080" begin="reset.mouseover" end="reset.mouseout"/>
                       </use>
               </g>
        </defs>

<script type="text/javascript">
var viewWidth = 564;
var viewHeight = 190;
var sectionId = 'dynsection-43';
</script>
<script xlink:href="svgpan.js"/>
<svg id="graph" class="graph">
<g id="viewport">
<title>xmlParse</title>
<polygon fill="white" stroke="white" points="-4,5 -4,-186 561,-186 561,5 -4,5"/>
<!-- Node1 -->
<g id="node1" class="node"><title>Node1</title>
<polygon fill="#bfbfbf" stroke="black" points="0,-20.5 0,-41.5 58,-41.5 58,-20.5 0,-20.5"/>
<text text-anchor="middle" x="29" y="-28.5" font-family="Helvetica,sans-Serif" font-size="10.00">xmlParse</text>
</g>
<!-- Node2 -->
<g id="node3" class="node"><title>Node2</title>
<a xlink:href="a00001.html#a7538f8f3d434a3152a400f7478ae6454" target="_top" xlink:title="if variable is an xml resource type">
<polygon fill="white" stroke="black" points="94.5,-20.5 94.5,-41.5 187.5,-41.5 187.5,-20.5 94.5,-20.5"/>
<text text-anchor="middle" x="141" y="-28.5" font-family="Helvetica,sans-Serif" font-size="10.00">varIsXmlResource</text>
</a>
</g>
<!-- Node1&#45;&gt;Node2 -->
<g id="edge2" class="edge"><title>Node1&#45;&gt;Node2</title>
<path fill="none" stroke="midnightblue" d="M68.3651,-31C76.7216,-31 85.6216,-31 94.223,-31"/>
<polygon fill="midnightblue" stroke="midnightblue" points="68.1343,-27.5001 58.1343,-31 68.1343,-34.5001 68.1343,-27.5001"/>
</g>
<!-- Node3 -->
<g id="node5" class="node"><title>Node3</title>
<a xlink:href="a00001.html#a4ab1e15fa34f8b98071b0eb36883777e" target="_top" xlink:title="shows info about different resources, uses customized rendering founctions when needed">
<polygon fill="white" stroke="black" points="224.5,-40.5 224.5,-61.5 301.5,-61.5 301.5,-40.5 224.5,-40.5"/>
<text text-anchor="middle" x="263" y="-48.5" font-family="Helvetica,sans-Serif" font-size="10.00">varIsResource</text>
</a>
</g>
<!-- Node2&#45;&gt;Node3 -->
<g id="edge4" class="edge"><title>Node2&#45;&gt;Node3</title>
<path fill="none" stroke="midnightblue" d="M197.876,-40.324C206.866,-41.7977 215.976,-43.2911 224.419,-44.6753"/>
<polygon fill="midnightblue" stroke="midnightblue" points="198.254,-36.8393 187.819,-38.6753 197.122,-43.7471 198.254,-36.8393"/>
</g>
<!-- Node10 -->
<g id="node23" class="node"><title>Node10</title>
<a xlink:href="a00001.html#aae74585f47656ea965da93f30991825e" target="_top" xlink:title="if variable is an xml type remember, that you must force type to xml to use this">
<polygon fill="white" stroke="black" points="237,-0.5 237,-21.5 289,-21.5 289,-0.5 237,-0.5"/>
<text text-anchor="middle" x="263" y="-8.5" font-family="Helvetica,sans-Serif" font-size="10.00">varIsXml</text>
</a>
</g>
<!-- Node2&#45;&gt;Node10 -->
<g id="edge26" class="edge"><title>Node2&#45;&gt;Node10</title>
<path fill="none" stroke="midnightblue" d="M197.715,-21.7024C211.43,-19.454 225.436,-17.158 236.94,-15.2721"/>
<polygon fill="midnightblue" stroke="midnightblue" points="197.122,-18.2529 187.819,-23.3247 198.254,-25.1607 197.122,-18.2529"/>
</g>
<!-- Node4 -->
<g id="node7" class="node"><title>Node4</title>
<a xlink:href="a00001.html#aaecea663190c6ce2edd146c3133f257d" target="_top" xlink:title="check variable type andd process the value in right way">
<polygon fill="white" stroke="black" points="338,-80.5 338,-101.5 402,-101.5 402,-80.5 338,-80.5"/>
<text text-anchor="middle" x="370" y="-88.5" font-family="Helvetica,sans-Serif" font-size="10.00">checkType</text>
</a>
</g>
<!-- Node3&#45;&gt;Node4 -->
<g id="edge6" class="edge"><title>Node3&#45;&gt;Node4</title>
<path fill="none" stroke="midnightblue" d="M300.629,-65.067C314.135,-70.1158 329.124,-75.7192 341.703,-80.4218"/>
<polygon fill="midnightblue" stroke="midnightblue" points="301.705,-61.7328 291.113,-61.5095 299.254,-68.2896 301.705,-61.7328"/>
</g>
<!-- Node5 -->
<g id="node9" class="node"><title>Node5</title>
<a xlink:href="a00001.html#a6826222eba46dd56dbd5841cdc300efa" target="_top" xlink:title="dBug">
<polygon fill="white" stroke="black" points="477.5,-160.5 477.5,-181.5 516.5,-181.5 516.5,-160.5 477.5,-160.5"/>
<text text-anchor="middle" x="497" y="-168.5" font-family="Helvetica,sans-Serif" font-size="10.00">dBug</text>
</a>
</g>
<!-- Node4&#45;&gt;Node5 -->
<g id="edge8" class="edge"><title>Node4&#45;&gt;Node5</title>
<path fill="none" stroke="midnightblue" d="M386.815,-109.311C399.731,-122.455 418.594,-139.762 438,-151 450.261,-158.1 465.423,-163.171 477.307,-166.43"/>
<polygon fill="midnightblue" stroke="midnightblue" points="389.031,-106.565 379.59,-101.757 383.973,-111.403 389.031,-106.565"/>
</g>
<!-- Node6 -->
<g id="node11" class="node"><title>Node6</title>
<a xlink:href="a00001.html#a86ff35452ee612d9e9e9b147e5544acc" target="_top" xlink:title="varIsArray">
<polygon fill="white" stroke="black" points="467.5,-120.5 467.5,-141.5 526.5,-141.5 526.5,-120.5 467.5,-120.5"/>
<text text-anchor="middle" x="497" y="-128.5" font-family="Helvetica,sans-Serif" font-size="10.00">varIsArray</text>
</a>
</g>
<!-- Node4&#45;&gt;Node6 -->
<g id="edge10" class="edge"><title>Node4&#45;&gt;Node6</title>
<path fill="none" stroke="midnightblue" d="M411.85,-97.7926C434.658,-104.186 461.699,-113.208 479.09,-120.488"/>
<polygon fill="midnightblue" stroke="midnightblue" points="412.614,-94.3737 402.047,-95.1413 410.787,-101.131 412.614,-94.3737"/>
</g>
<!-- Node7 -->
<g id="node14" class="node"><title>Node7</title>
<a xlink:href="a00001.html#aaa52412f9f4f725e15aafa3fcd678b1d" target="_top" xlink:title="shows information about curl easy handles">
<polygon fill="white" stroke="black" points="438.5,-40.5 438.5,-61.5 555.5,-61.5 555.5,-40.5 438.5,-40.5"/>
<text text-anchor="middle" x="497" y="-48.5" font-family="Helvetica,sans-Serif" font-size="10.00">varIsCurlEasyResource</text>
</a>
</g>
<!-- Node4&#45;&gt;Node7 -->
<g id="edge14" class="edge"><title>Node4&#45;&gt;Node7</title>
<path fill="none" stroke="midnightblue" d="M411.661,-77.8783C428.521,-72.5681 447.72,-66.5213 463.632,-61.5095"/>
<polygon fill="midnightblue" stroke="midnightblue" points="410.534,-74.5638 402.047,-80.9063 412.637,-81.2405 410.534,-74.5638"/>
</g>
<!-- Node8 -->
<g id="node17" class="node"><title>Node8</title>
<a xlink:href="a00001.html#a642e715a1977cf46d40d840b5112465d" target="_top" xlink:title="if variable is an image/gd resource type">
<polygon fill="white" stroke="black" points="451,-0.5 451,-21.5 543,-21.5 543,-0.5 451,-0.5"/>
<text text-anchor="middle" x="497" y="-8.5" font-family="Helvetica,sans-Serif" font-size="10.00">varIsGDResource</text>
</a>
</g>
<!-- Node4&#45;&gt;Node8 -->
<g id="edge18" class="edge"><title>Node4&#45;&gt;Node8</title>
<path fill="none" stroke="midnightblue" d="M386.815,-72.6886C399.731,-59.5451 418.594,-42.2381 438,-31 444.364,-27.3144 451.511,-24.1756 458.574,-21.5533"/>
<polygon fill="midnightblue" stroke="midnightblue" points="383.973,-70.5969 379.59,-80.2427 389.031,-75.4353 383.973,-70.5969"/>
</g>
<!-- Node9 -->
<g id="node20" class="node"><title>Node9</title>
<a xlink:href="a00001.html#a443a941157b2ed03d6a24ae70ece785d" target="_top" xlink:title="checks wheither variable is object of special type (using varIs*Object), and renders it if it is gene...">
<polygon fill="white" stroke="black" points="464.5,-80.5 464.5,-101.5 529.5,-101.5 529.5,-80.5 464.5,-80.5"/>
<text text-anchor="middle" x="497" y="-88.5" font-family="Helvetica,sans-Serif" font-size="10.00">varIsObject</text>
</a>
</g>
<!-- Node4&#45;&gt;Node9 -->
<g id="edge22" class="edge"><title>Node4&#45;&gt;Node9</title>
<path fill="none" stroke="midnightblue" d="M412.216,-84.599C429.099,-84.0252 448.253,-84.159 464.078,-85.0002"/>
<polygon fill="midnightblue" stroke="midnightblue" points="411.883,-81.1101 402.047,-85.0476 412.192,-88.1033 411.883,-81.1101"/>
</g>
<!-- Node6&#45;&gt;Node4 -->
<g id="edge12" class="edge"><title>Node6&#45;&gt;Node4</title>
<path fill="none" stroke="midnightblue" d="M457.478,-124.855C434.212,-118.436 405.914,-109.047 387.927,-101.519"/>
<polygon fill="midnightblue" stroke="midnightblue" points="456.863,-128.313 467.426,-127.493 458.657,-121.547 456.863,-128.313"/>
</g>
<!-- Node7&#45;&gt;Node3 -->
<g id="edge16" class="edge"><title>Node7&#45;&gt;Node3</title>
<path fill="none" stroke="midnightblue" d="M427.857,-51C386.647,-51 335.865,-51 301.64,-51"/>
<polygon fill="midnightblue" stroke="midnightblue" points="428.112,-54.5001 438.112,-51 428.112,-47.5001 428.112,-54.5001"/>
</g>
<!-- Node8&#45;&gt;Node3 -->
<g id="edge20" class="edge"><title>Node8&#45;&gt;Node3</title>
<path fill="none" stroke="midnightblue" d="M440.616,-20.6383C397.605,-27.9905 339.496,-37.9238 301.64,-44.3948"/>
<polygon fill="midnightblue" stroke="midnightblue" points="441.384,-24.0579 450.651,-18.9229 440.204,-17.158 441.384,-24.0579"/>
</g>
<!-- Node9&#45;&gt;Node4 -->
<g id="edge24" class="edge"><title>Node9&#45;&gt;Node4</title>
<path fill="none" stroke="midnightblue" d="M453.844,-97.4322C436.879,-97.9797 417.747,-97.8198 402.047,-96.9524"/>
<polygon fill="midnightblue" stroke="midnightblue" points="454.234,-100.919 464.078,-96.9998 453.939,-93.9251 454.234,-100.919"/>
</g>
</g>
</svg>
        <g id="navigator" transform="translate(0 0)" fill="#404254">
                <rect fill="#f2f5e9" fill-opacity="0.5" stroke="#606060" stroke-width=".5" x="0" y="0" width="60" height="60"/>
                <use id="zoomplus" xlink:href="#zoomPlus" x="17" y="9" onmousedown="handleZoom(evt,'in')"/>
                <use id="zoomminus" xlink:href="#zoomMin" x="42" y="9" onmousedown="handleZoom(evt,'out')"/>
                <use id="reset" xlink:href="#resetDef" x="30" y="36" onmousedown="handleReset()"/>
                <g id="arrowUp" xlink:href="#dirArrow" transform="translate(30 24)" onmousedown="handlePan(0,-1)">
                  <use xlink:href="#rim" fill="#404040">
                        <set attributeName="fill" to="#808080" begin="arrowUp.mouseover" end="arrowUp.mouseout"/>
                  </use>
                  <path fill="none" stroke="white" stroke-width="1.5" d="M0,-3.0v7 M-2.5,-0.5L0,-3.0L2.5,-0.5"/>
                </g>
                <g id="arrowRight" xlink:href="#dirArrow" transform="rotate(90) translate(36 -43)" onmousedown="handlePan(1,0)">
                  <use xlink:href="#rim" fill="#404040">
                        <set attributeName="fill" to="#808080" begin="arrowRight.mouseover" end="arrowRight.mouseout"/>
                  </use>
                  <path fill="none" stroke="white" stroke-width="1.5" d="M0,-3.0v7 M-2.5,-0.5L0,-3.0L2.5,-0.5"/>
                </g>
                <g id="arrowDown" xlink:href="#dirArrow" transform="rotate(180) translate(-30 -48)" onmousedown="handlePan(0,1)">
                  <use xlink:href="#rim" fill="#404040">
                        <set attributeName="fill" to="#808080" begin="arrowDown.mouseover" end="arrowDown.mouseout"/>
                  </use>
                  <path fill="none" stroke="white" stroke-width="1.5" d="M0,-3.0v7 M-2.5,-0.5L0,-3.0L2.5,-0.5"/>
                </g>
                <g id="arrowLeft" xlink:href="#dirArrow" transform="rotate(270) translate(-36 17)" onmousedown="handlePan(-1,0)">
                  <use xlink:href="#rim" fill="#404040">
                        <set attributeName="fill" to="#808080" begin="arrowLeft.mouseover" end="arrowLeft.mouseout"/>
                  </use>
                  <path fill="none" stroke="white" stroke-width="1.5" d="M0,-3.0v7 M-2.5,-0.5L0,-3.0L2.5,-0.5"/>
                </g>
        </g>
        <svg viewBox="0 0 15 15" width="100%" height="30px" preserveAspectRatio="xMaxYMin meet">
         <g id="arrow_out" transform="scale(0.3 0.3)">
          <a xlink:href="a00001_a3912b527e5334ca863364065cd1199a6_icgraph_org.svg" target="_base">
           <rect id="button" ry="5" rx="5" y="6" x="6" height="38" width="38"
                fill="#f2f5e9" fill-opacity="0.5" stroke="#606060" stroke-width="1.0"/>
           <path id="arrow"
             d="M 11.500037,31.436501 C 11.940474,20.09759 22.043105,11.32322 32.158766,21.979434 L 37.068811,17.246167 C 37.068811,17.246167 37.088388,32 37.088388,32 L 22.160133,31.978069 C 22.160133,31.978069 26.997745,27.140456 26.997745,27.140456 C 18.528582,18.264221 13.291696,25.230495 11.500037,31.436501 z"
             style="fill:#404040;"/>
          </a>
         </g>
        </svg>
</svg>
