<?xml version="1.0" encoding="UTF-8" standalone="no"?>
<!DOCTYPE svg PUBLIC "-//W3C//DTD SVG 1.1//EN"
 "http://www.w3.org/Graphics/SVG/1.1/DTD/svg11.dtd">
<!-- Generated by graphviz version 2.26.3 (20100126.1600)
 -->
<!-- Title: varIsCurlEasyResource Pages: 1 -->
<svg width="1130pt" height="678pt"
 viewBox="0.00 0.00 1130.00 677.71" xmlns="http://www.w3.org/2000/svg" xmlns:xlink="http://www.w3.org/1999/xlink">
<g id="graph1" class="graph" transform="scale(1 1) rotate(0) translate(4 673.706)">
<title>varIsCurlEasyResource</title>
<polygon fill="white" stroke="white" points="-4,5 -4,-673.706 1127,-673.706 1127,5 -4,5"/>
<!-- Node1 -->
<g id="node1" class="node"><title>Node1</title>
<polygon fill="#bfbfbf" stroke="black" points="0.5,-141.206 0.5,-162.206 117.5,-162.206 117.5,-141.206 0.5,-141.206"/>
<text text-anchor="middle" x="59" y="-149.206" font-family="Helvetica,sans-Serif" font-size="10.00">varIsCurlEasyResource</text>
</g>
<!-- Node2 -->
<g id="node3" class="node"><title>Node2</title>
<a xlink:href="a00001.html#aaecea663190c6ce2edd146c3133f257d" target="_top" xlink:title="check variable type andd process the value in right way">
<polygon fill="white" stroke="black" points="154,-392.206 154,-413.206 218,-413.206 218,-392.206 154,-392.206"/>
<text text-anchor="middle" x="186" y="-400.206" font-family="Helvetica,sans-Serif" font-size="10.00">checkType</text>
</a>
</g>
<!-- Node1&#45;&gt;Node2 -->
<g id="edge2" class="edge"><title>Node1&#45;&gt;Node2</title>
<path fill="none" stroke="midnightblue" d="M64.457,-162.491C83.9564,-201.029 150.38,-332.308 175.9,-382.745"/>
<polygon fill="midnightblue" stroke="midnightblue" points="172.926,-384.619 180.563,-391.961 179.172,-381.458 172.926,-384.619"/>
</g>
<!-- Node4 -->
<g id="node8" class="node"><title>Node4</title>
<a xlink:href="a00001.html#aaa2a0a3c482abd677b2bc2fa137e6c91" target="_top" xlink:title="closes table row">
<polygon fill="white" stroke="black" points="641.5,-301.206 641.5,-322.206 712.5,-322.206 712.5,-301.206 641.5,-301.206"/>
<text text-anchor="middle" x="677" y="-309.206" font-family="Helvetica,sans-Serif" font-size="10.00">closeTDRow</text>
</a>
</g>
<!-- Node1&#45;&gt;Node4 -->
<g id="edge96" class="edge"><title>Node1&#45;&gt;Node4</title>
<path fill="none" stroke="midnightblue" d="M107.21,-141.146C205.854,-122.29 434.515,-92.9365 590,-185.706 631.07,-210.21 657.382,-262.501 669.395,-291.422"/>
<polygon fill="midnightblue" stroke="midnightblue" points="666.227,-292.927 673.175,-300.925 672.731,-290.339 666.227,-292.927"/>
</g>
<!-- Node5 -->
<g id="node10" class="node"><title>Node5</title>
<a xlink:href="a00001.html#a04aa495573c880043c46c3bfc669bbe3" target="_top" xlink:title="creates the main table header">
<polygon fill="white" stroke="black" points="764.5,-340.206 764.5,-361.206 859.5,-361.206 859.5,-340.206 764.5,-340.206"/>
<text text-anchor="middle" x="812" y="-348.206" font-family="Helvetica,sans-Serif" font-size="10.00">makeTableHeader</text>
</a>
</g>
<!-- Node1&#45;&gt;Node5 -->
<g id="edge98" class="edge"><title>Node1&#45;&gt;Node5</title>
<path fill="none" stroke="midnightblue" d="M67.3824,-141.062C95.1345,-107.127 188.073,-3.70617 290,-3.70617 290,-3.70617 290,-3.70617 543,-3.70617 626.939,-3.70617 666.811,15.7536 728,-41.7062 770.92,-82.0102 800.322,-267.161 809.193,-329.872"/>
<polygon fill="midnightblue" stroke="midnightblue" points="805.77,-330.669 810.609,-340.094 812.703,-329.708 805.77,-330.669"/>
</g>
<!-- Node9 -->
<g id="node18" class="node"><title>Node9</title>
<a xlink:href="a00001.html#a0cff4870612d64738cd84a47dbb36b1d" target="_top" xlink:title="creates the table row header">
<polygon fill="white" stroke="black" points="635.5,-458.206 635.5,-479.206 718.5,-479.206 718.5,-458.206 635.5,-458.206"/>
<text text-anchor="middle" x="677" y="-466.206" font-family="Helvetica,sans-Serif" font-size="10.00">makeTDHeader</text>
</a>
</g>
<!-- Node1&#45;&gt;Node9 -->
<g id="edge100" class="edge"><title>Node1&#45;&gt;Node9</title>
<path fill="none" stroke="midnightblue" d="M61.2723,-162.525C77.1959,-236.912 174.793,-669.706 290,-669.706 290,-669.706 290,-669.706 411,-669.706 530.903,-669.706 630.929,-538.098 664.737,-487.87"/>
<polygon fill="midnightblue" stroke="midnightblue" points="667.852,-489.505 670.436,-479.23 662.008,-485.65 667.852,-489.505"/>
</g>
<!-- Node3 -->
<g id="node5" class="node"><title>Node3</title>
<a xlink:href="a00001.html#a86ff35452ee612d9e9e9b147e5544acc" target="_top" xlink:title="varIsArray">
<polygon fill="white" stroke="black" points="513.5,-496.206 513.5,-517.206 572.5,-517.206 572.5,-496.206 513.5,-496.206"/>
<text text-anchor="middle" x="543" y="-504.206" font-family="Helvetica,sans-Serif" font-size="10.00">varIsArray</text>
</a>
</g>
<!-- Node2&#45;&gt;Node3 -->
<g id="edge4" class="edge"><title>Node2&#45;&gt;Node3</title>
<path fill="none" stroke="midnightblue" d="M218.293,-406.869C253.483,-416.146 311.515,-434.99 362,-449.706 414.837,-465.108 476.944,-481.13 512.956,-492.82"/>
<polygon fill="midnightblue" stroke="midnightblue" points="512.229,-496.268 522.823,-496.15 514.467,-489.636 512.229,-496.268"/>
</g>
<!-- Node10 -->
<g id="node20" class="node"><title>Node10</title>
<a xlink:href="a00001.html#a5ebd24b62872515b28e27182857bfe7f" target="_top" xlink:title="renders boolean variable">
<polygon fill="white" stroke="black" points="254.5,-620.206 254.5,-641.206 325.5,-641.206 325.5,-620.206 254.5,-620.206"/>
<text text-anchor="middle" x="290" y="-628.206" font-family="Helvetica,sans-Serif" font-size="10.00">varIsBoolean</text>
</a>
</g>
<!-- Node2&#45;&gt;Node10 -->
<g id="edge20" class="edge"><title>Node2&#45;&gt;Node10</title>
<path fill="none" stroke="midnightblue" d="M187.203,-413.503C191.262,-445.744 206.945,-542.968 254,-605.706 256.166,-608.594 258.765,-611.27 261.563,-613.713"/>
<polygon fill="midnightblue" stroke="midnightblue" points="259.701,-616.695 269.778,-619.967 263.941,-611.125 259.701,-616.695"/>
</g>
<!-- Node12 -->
<g id="node25" class="node"><title>Node12</title>
<a xlink:href="a00001.html#acd3532d31c3c50577b2abd56624b3757" target="_top" xlink:title="renders NULL as red&#45;pink rectangle">
<polygon fill="white" stroke="black" points="260,-180.206 260,-201.206 320,-201.206 320,-180.206 260,-180.206"/>
<text text-anchor="middle" x="290" y="-188.206" font-family="Helvetica,sans-Serif" font-size="10.00">varIsNULL</text>
</a>
</g>
<!-- Node2&#45;&gt;Node12 -->
<g id="edge26" class="edge"><title>Node2&#45;&gt;Node12</title>
<path fill="none" stroke="midnightblue" d="M187.58,-391.895C192.5,-361.349 209.945,-272.907 254,-215.706 256.319,-212.696 259.103,-209.908 262.082,-207.372"/>
<polygon fill="midnightblue" stroke="midnightblue" points="264.334,-210.058 270.24,-201.262 260.138,-204.455 264.334,-210.058"/>
</g>
<!-- Node13 -->
<g id="node28" class="node"><title>Node13</title>
<a xlink:href="a00001.html#a44eb38e42426f01840a0d12fe6a6a05f" target="_top" xlink:title="renders numeric types : integers and doubles">
<polygon fill="white" stroke="black" points="375,-582.206 375,-603.206 447,-603.206 447,-582.206 375,-582.206"/>
<text text-anchor="middle" x="411" y="-590.206" font-family="Helvetica,sans-Serif" font-size="10.00">varIsNumeric</text>
</a>
</g>
<!-- Node2&#45;&gt;Node13 -->
<g id="edge30" class="edge"><title>Node2&#45;&gt;Node13</title>
<path fill="none" stroke="midnightblue" d="M186.898,-413.288C190.023,-442.986 203.2,-527.55 254,-567.706 285.102,-592.291 330.73,-597.158 364.791,-596.694"/>
<polygon fill="midnightblue" stroke="midnightblue" points="365.068,-600.187 374.961,-596.395 364.862,-593.19 365.068,-600.187"/>
</g>
<!-- Node14 -->
<g id="node31" class="node"><title>Node14</title>
<a xlink:href="a00001.html#a443a941157b2ed03d6a24ae70ece785d" target="_top" xlink:title="checks wheither variable is object of special type (using varIs*Object), and renders it if it is gene...">
<polygon fill="white" stroke="black" points="257.5,-392.206 257.5,-413.206 322.5,-413.206 322.5,-392.206 257.5,-392.206"/>
<text text-anchor="middle" x="290" y="-400.206" font-family="Helvetica,sans-Serif" font-size="10.00">varIsObject</text>
</a>
</g>
<!-- Node2&#45;&gt;Node14 -->
<g id="edge34" class="edge"><title>Node2&#45;&gt;Node14</title>
<path fill="none" stroke="midnightblue" d="M218.052,-396.419C227.169,-395.975 237.249,-395.851 246.908,-396.045"/>
<polygon fill="midnightblue" stroke="midnightblue" points="247.047,-399.551 257.156,-396.381 247.276,-392.555 247.047,-399.551"/>
</g>
<!-- Node19 -->
<g id="node50" class="node"><title>Node19</title>
<a xlink:href="a00001.html#a4ab1e15fa34f8b98071b0eb36883777e" target="_top" xlink:title="shows info about different resources, uses customized rendering founctions when needed">
<polygon fill="white" stroke="black" points="372.5,-183.206 372.5,-204.206 449.5,-204.206 449.5,-183.206 372.5,-183.206"/>
<text text-anchor="middle" x="411" y="-191.206" font-family="Helvetica,sans-Serif" font-size="10.00">varIsResource</text>
</a>
</g>
<!-- Node2&#45;&gt;Node19 -->
<g id="edge62" class="edge"><title>Node2&#45;&gt;Node19</title>
<path fill="none" stroke="midnightblue" d="M187.961,-392.072C193.462,-365.149 211.502,-293.603 254,-253.706 283.883,-225.652 328.241,-210.32 362.192,-202.195"/>
<polygon fill="midnightblue" stroke="midnightblue" points="363.383,-205.515 372.367,-199.899 361.842,-198.686 363.383,-205.515"/>
</g>
<!-- Node23 -->
<g id="node66" class="node"><title>Node23</title>
<a xlink:href="a00001.html#a1dce801bff273c92008ec238b5480928" target="_top" xlink:title="renders string either as primitive type (if it is short (less than $embeddedStringMaxLength chars) an...">
<polygon fill="white" stroke="black" points="512,-536.206 512,-557.206 574,-557.206 574,-536.206 512,-536.206"/>
<text text-anchor="middle" x="543" y="-544.206" font-family="Helvetica,sans-Serif" font-size="10.00">varIsString</text>
</a>
</g>
<!-- Node2&#45;&gt;Node23 -->
<g id="edge86" class="edge"><title>Node2&#45;&gt;Node23</title>
<path fill="none" stroke="midnightblue" d="M196.612,-413.599C209.259,-426.038 231.518,-446.268 254,-458.706 335.824,-503.976 443.856,-528.874 501.901,-539.817"/>
<polygon fill="midnightblue" stroke="midnightblue" points="501.33,-543.271 511.799,-541.639 502.597,-536.387 501.33,-543.271"/>
</g>
<!-- Node3&#45;&gt;Node2 -->
<g id="edge6" class="edge"><title>Node3&#45;&gt;Node2</title>
<path fill="none" stroke="midnightblue" d="M513.408,-505.696C477.466,-499.265 415.058,-483.173 362,-467.706 307.925,-451.943 245.193,-431.446 211.145,-417.225"/>
<polygon fill="midnightblue" stroke="midnightblue" points="212.501,-413.999 201.936,-413.208 209.702,-420.415 212.501,-413.999"/>
</g>
<!-- Node3&#45;&gt;Node4 -->
<g id="edge8" class="edge"><title>Node3&#45;&gt;Node4</title>
<path fill="none" stroke="midnightblue" d="M548.686,-496.095C561.397,-472.687 593.554,-415.172 626,-370.706 636.404,-356.448 649.436,-341.412 659.723,-330.088"/>
<polygon fill="midnightblue" stroke="midnightblue" points="662.453,-332.29 666.651,-322.562 657.303,-327.549 662.453,-332.29"/>
</g>
<!-- Node3&#45;&gt;Node5 -->
<g id="edge10" class="edge"><title>Node3&#45;&gt;Node5</title>
<path fill="none" stroke="midnightblue" d="M572.81,-511.497C611.675,-516.13 680.305,-518.641 728,-488.706 771.564,-461.364 795.818,-402.383 806.073,-371.12"/>
<polygon fill="midnightblue" stroke="midnightblue" points="809.495,-371.904 809.125,-361.315 802.811,-369.823 809.495,-371.904"/>
</g>
<!-- Node3&#45;&gt;Node9 -->
<g id="edge18" class="edge"><title>Node3&#45;&gt;Node9</title>
<path fill="none" stroke="midnightblue" d="M572.739,-498.273C589.548,-493.506 610.944,-487.438 629.974,-482.042"/>
<polygon fill="midnightblue" stroke="midnightblue" points="631.008,-485.387 639.674,-479.291 629.098,-478.652 631.008,-485.387"/>
</g>
<!-- Node6 -->
<g id="node12" class="node"><title>Node6</title>
<a xlink:href="a00001.html#a742973a203c412611192053dc0cd48af" target="_top" xlink:title="initializeHeader">
<polygon fill="white" stroke="black" points="903.5,-429.206 903.5,-450.206 986.5,-450.206 986.5,-429.206 903.5,-429.206"/>
<text text-anchor="middle" x="945" y="-437.206" font-family="Helvetica,sans-Serif" font-size="10.00">initializeHeader</text>
</a>
</g>
<!-- Node5&#45;&gt;Node6 -->
<g id="edge12" class="edge"><title>Node5&#45;&gt;Node6</title>
<path fill="none" stroke="midnightblue" d="M827.779,-361.265C850.776,-376.654 893.699,-405.377 920.734,-423.468"/>
<polygon fill="midnightblue" stroke="midnightblue" points="918.984,-426.508 929.241,-429.161 922.877,-420.691 918.984,-426.508"/>
</g>
<!-- Node8 -->
<g id="node16" class="node"><title>Node8</title>
<a xlink:href="a00001.html#a3396d3c6336b500d49e3a1a0288dc035" target="_top" xlink:title="draws the main table header">
<polygon fill="white" stroke="black" points="896,-340.206 896,-361.206 994,-361.206 994,-340.206 896,-340.206"/>
<text text-anchor="middle" x="945" y="-348.206" font-family="Helvetica,sans-Serif" font-size="10.00">renderTableHeader</text>
</a>
</g>
<!-- Node5&#45;&gt;Node8 -->
<g id="edge16" class="edge"><title>Node5&#45;&gt;Node8</title>
<path fill="none" stroke="midnightblue" d="M859.64,-350.706C868.105,-350.706 877.014,-350.706 885.754,-350.706"/>
<polygon fill="midnightblue" stroke="midnightblue" points="885.899,-354.206 895.899,-350.706 885.899,-347.206 885.899,-354.206"/>
</g>
<!-- Node7 -->
<g id="node14" class="node"><title>Node7</title>
<a xlink:href="a00001.html#a20af85a4f4041ed681b095e1427b2a1d" target="_top" xlink:title="getVariableName">
<polygon fill="white" stroke="black" points="1030.5,-429.206 1030.5,-450.206 1121.5,-450.206 1121.5,-429.206 1030.5,-429.206"/>
<text text-anchor="middle" x="1076" y="-437.206" font-family="Helvetica,sans-Serif" font-size="10.00">getVariableName</text>
</a>
</g>
<!-- Node6&#45;&gt;Node7 -->
<g id="edge14" class="edge"><title>Node6&#45;&gt;Node7</title>
<path fill="none" stroke="midnightblue" d="M986.809,-439.706C997.358,-439.706 1008.85,-439.706 1019.98,-439.706"/>
<polygon fill="midnightblue" stroke="midnightblue" points="1020.05,-443.206 1030.05,-439.706 1020.05,-436.206 1020.05,-443.206"/>
</g>
<!-- Node11 -->
<g id="node22" class="node"><title>Node11</title>
<a xlink:href="a00001.html#adbad9cee60e948aa3802a45be355a1f3" target="_top" xlink:title="renders table of 2 cells in 1 row [type][value]">
<polygon fill="white" stroke="black" points="626.5,-576.206 626.5,-597.206 727.5,-597.206 727.5,-576.206 626.5,-576.206"/>
<text text-anchor="middle" x="677" y="-584.206" font-family="Helvetica,sans-Serif" font-size="10.00">renderPrimitiveType</text>
</a>
</g>
<!-- Node10&#45;&gt;Node11 -->
<g id="edge22" class="edge"><title>Node10&#45;&gt;Node11</title>
<path fill="none" stroke="midnightblue" d="M325.697,-628.689C382.051,-625.237 494.998,-617.226 590,-603.706 599.063,-602.416 608.612,-600.808 617.931,-599.099"/>
<polygon fill="midnightblue" stroke="midnightblue" points="618.741,-602.508 627.919,-597.215 617.444,-595.629 618.741,-602.508"/>
</g>
<!-- Node11&#45;&gt;Node6 -->
<g id="edge24" class="edge"><title>Node11&#45;&gt;Node6</title>
<path fill="none" stroke="midnightblue" d="M697.395,-576.017C706.743,-571.09 717.955,-565.142 728,-559.706 796.32,-522.735 876.14,-478.264 917.304,-455.233"/>
<polygon fill="midnightblue" stroke="midnightblue" points="919.18,-458.194 926.196,-450.256 915.761,-452.086 919.18,-458.194"/>
</g>
<!-- Node12&#45;&gt;Node5 -->
<g id="edge28" class="edge"><title>Node12&#45;&gt;Node5</title>
<path fill="none" stroke="midnightblue" d="M303.319,-180.128C360.353,-136.177 587.471,24.9732 728,-78.7062 769.572,-109.377 799.266,-271.355 808.757,-329.721"/>
<polygon fill="midnightblue" stroke="midnightblue" points="805.355,-330.617 810.383,-339.943 812.268,-329.517 805.355,-330.617"/>
</g>
<!-- Node13&#45;&gt;Node11 -->
<g id="edge32" class="edge"><title>Node13&#45;&gt;Node11</title>
<path fill="none" stroke="midnightblue" d="M447.151,-591.891C490.565,-590.911 564.048,-589.254 616.234,-588.077"/>
<polygon fill="midnightblue" stroke="midnightblue" points="616.453,-591.573 626.372,-587.848 616.296,-584.575 616.453,-591.573"/>
</g>
<!-- Node14&#45;&gt;Node2 -->
<g id="edge60" class="edge"><title>Node14&#45;&gt;Node2</title>
<path fill="none" stroke="midnightblue" d="M257.156,-409.031C247.985,-409.456 237.89,-409.562 228.257,-409.35"/>
<polygon fill="midnightblue" stroke="midnightblue" points="228.168,-405.845 218.052,-408.994 227.924,-412.84 228.168,-405.845"/>
</g>
<!-- Node14&#45;&gt;Node4 -->
<g id="edge58" class="edge"><title>Node14&#45;&gt;Node4</title>
<path fill="none" stroke="midnightblue" d="M305.963,-392.164C320.157,-383.206 341.742,-370.581 362,-362.706 453.034,-327.318 568.078,-316.484 630.887,-313.168"/>
<polygon fill="midnightblue" stroke="midnightblue" points="631.431,-316.646 641.249,-312.665 631.091,-309.654 631.431,-316.646"/>
</g>
<!-- Node14&#45;&gt;Node5 -->
<g id="edge54" class="edge"><title>Node14&#45;&gt;Node5</title>
<path fill="none" stroke="midnightblue" d="M322.635,-410.292C396.828,-426.055 582.967,-457.184 728,-410.706 753.869,-402.416 778.553,-382.908 794.386,-368.373"/>
<polygon fill="midnightblue" stroke="midnightblue" points="796.98,-370.736 801.818,-361.311 792.158,-365.662 796.98,-370.736"/>
</g>
<!-- Node14&#45;&gt;Node9 -->
<g id="edge56" class="edge"><title>Node14&#45;&gt;Node9</title>
<path fill="none" stroke="midnightblue" d="M308.615,-413.286C322.791,-420.828 343.034,-430.517 362,-435.706 452.433,-460.449 562.14,-466.872 625.329,-468.402"/>
<polygon fill="midnightblue" stroke="midnightblue" points="625.367,-471.903 635.439,-468.614 625.514,-464.905 625.367,-471.903"/>
</g>
<!-- Node15 -->
<g id="node33" class="node"><title>Node15</title>
<a xlink:href="a00001.html#a783baa8ff544bb8278ac32bce66be5c4" target="_top" xlink:title="varIsSpecialObject">
<polygon fill="white" stroke="black" points="362.5,-372.206 362.5,-393.206 459.5,-393.206 459.5,-372.206 362.5,-372.206"/>
<text text-anchor="middle" x="411" y="-380.206" font-family="Helvetica,sans-Serif" font-size="10.00">varIsSpecialObject</text>
</a>
</g>
<!-- Node14&#45;&gt;Node15 -->
<g id="edge36" class="edge"><title>Node14&#45;&gt;Node15</title>
<path fill="none" stroke="midnightblue" d="M322.744,-397.294C331.878,-395.784 342.089,-394.096 352.235,-392.419"/>
<polygon fill="midnightblue" stroke="midnightblue" points="353.022,-395.837 362.317,-390.753 351.88,-388.931 353.022,-395.837"/>
</g>
<!-- Node16 -->
<g id="node35" class="node"><title>Node16</title>
<a xlink:href="a00001.html#aff5b4a4ce77391ef5bc5f2637ac683b1" target="_top" xlink:title="renders either PDO or SQLite3 statement objects">
<polygon fill="white" stroke="black" points="504,-380.206 504,-401.206 582,-401.206 582,-380.206 504,-380.206"/>
<text text-anchor="middle" x="543" y="-388.206" font-family="Helvetica,sans-Serif" font-size="10.00">varIsDBObject</text>
</a>
</g>
<!-- Node15&#45;&gt;Node16 -->
<g id="edge38" class="edge"><title>Node15&#45;&gt;Node16</title>
<path fill="none" stroke="midnightblue" d="M459.777,-385.662C470.91,-386.337 482.746,-387.054 493.893,-387.73"/>
<polygon fill="midnightblue" stroke="midnightblue" points="493.703,-391.225 503.897,-388.336 494.127,-384.238 493.703,-391.225"/>
</g>
<!-- Node18 -->
<g id="node40" class="node"><title>Node18</title>
<a xlink:href="a00001.html#a91a251e46645521ab0c05a9b787624f6" target="_top" xlink:title="function used to render exceptions">
<polygon fill="white" stroke="black" points="503,-340.206 503,-361.206 583,-361.206 583,-340.206 503,-340.206"/>
<text text-anchor="middle" x="543" y="-348.206" font-family="Helvetica,sans-Serif" font-size="10.00">varIsException</text>
</a>
</g>
<!-- Node15&#45;&gt;Node18 -->
<g id="edge44" class="edge"><title>Node15&#45;&gt;Node18</title>
<path fill="none" stroke="midnightblue" d="M454.588,-372.139C466.794,-369.18 480.161,-365.94 492.722,-362.895"/>
<polygon fill="midnightblue" stroke="midnightblue" points="493.69,-366.261 502.584,-360.504 492.041,-359.459 493.69,-366.261"/>
</g>
<!-- Node17 -->
<g id="node37" class="node"><title>Node17</title>
<a xlink:href="a00001.html#ab4bab40a2bcac12276e3e7f2739f1761" target="_top" xlink:title="renders database data">
<polygon fill="white" stroke="black" points="638.5,-380.206 638.5,-401.206 715.5,-401.206 715.5,-380.206 638.5,-380.206"/>
<text text-anchor="middle" x="677" y="-388.206" font-family="Helvetica,sans-Serif" font-size="10.00">renderDBData</text>
</a>
</g>
<!-- Node16&#45;&gt;Node17 -->
<g id="edge40" class="edge"><title>Node16&#45;&gt;Node17</title>
<path fill="none" stroke="midnightblue" d="M582.119,-390.706C596.429,-390.706 612.805,-390.706 627.879,-390.706"/>
<polygon fill="midnightblue" stroke="midnightblue" points="628.064,-394.206 638.064,-390.706 628.064,-387.206 628.064,-394.206"/>
</g>
<!-- Node17&#45;&gt;Node5 -->
<g id="edge42" class="edge"><title>Node17&#45;&gt;Node5</title>
<path fill="none" stroke="midnightblue" d="M712.47,-380.197C728.926,-375.321 748.69,-369.465 766.253,-364.261"/>
<polygon fill="midnightblue" stroke="midnightblue" points="767.705,-367.481 776.299,-361.284 765.716,-360.77 767.705,-367.481"/>
</g>
<!-- Node18&#45;&gt;Node2 -->
<g id="edge50" class="edge"><title>Node18&#45;&gt;Node2</title>
<path fill="none" stroke="midnightblue" d="M502.971,-352.017C466.209,-353.538 410.279,-356.657 362,-362.706 313.563,-368.776 301.479,-371.36 254,-382.706 245.57,-384.721 236.63,-387.141 228.101,-389.591"/>
<polygon fill="midnightblue" stroke="midnightblue" points="226.94,-386.284 218.331,-392.458 228.912,-393.001 226.94,-386.284"/>
</g>
<!-- Node18&#45;&gt;Node4 -->
<g id="edge52" class="edge"><title>Node18&#45;&gt;Node4</title>
<path fill="none" stroke="midnightblue" d="M579.262,-340.152C595.331,-335.476 614.411,-329.922 631.429,-324.969"/>
<polygon fill="midnightblue" stroke="midnightblue" points="632.549,-328.289 641.173,-322.133 630.593,-321.567 632.549,-328.289"/>
</g>
<!-- Node18&#45;&gt;Node5 -->
<g id="edge46" class="edge"><title>Node18&#45;&gt;Node5</title>
<path fill="none" stroke="midnightblue" d="M583.272,-350.706C628.522,-350.706 702.366,-350.706 753.867,-350.706"/>
<polygon fill="midnightblue" stroke="midnightblue" points="754.177,-354.206 764.177,-350.706 754.177,-347.206 754.177,-354.206"/>
</g>
<!-- Node18&#45;&gt;Node9 -->
<g id="edge48" class="edge"><title>Node18&#45;&gt;Node9</title>
<path fill="none" stroke="midnightblue" d="M573.399,-361.298C579.163,-363.944 584.961,-367.081 590,-370.706 592.133,-372.24 636.504,-422.607 661.034,-450.52"/>
<polygon fill="midnightblue" stroke="midnightblue" points="658.429,-452.858 667.658,-458.061 663.688,-448.238 658.429,-452.858"/>
</g>
<!-- Node19&#45;&gt;Node1 -->
<g id="edge82" class="edge"><title>Node19&#45;&gt;Node1</title>
<path fill="none" stroke="midnightblue" d="M377.823,-183.13C362.248,-178.579 343.334,-173.64 326,-170.706 259.279,-159.414 182.075,-154.821 127.901,-152.959"/>
<polygon fill="midnightblue" stroke="midnightblue" points="127.829,-149.455 117.722,-152.632 127.604,-156.452 127.829,-149.455"/>
</g>
<!-- Node19&#45;&gt;Node4 -->
<g id="edge84" class="edge"><title>Node19&#45;&gt;Node4</title>
<path fill="none" stroke="midnightblue" d="M449.617,-189.982C487.511,-188.062 545.875,-189.858 590,-212.706 624.824,-230.738 652.014,-268.998 666.183,-292.32"/>
<polygon fill="midnightblue" stroke="midnightblue" points="663.206,-294.162 671.284,-301.016 669.244,-290.62 663.206,-294.162"/>
</g>
<!-- Node19&#45;&gt;Node5 -->
<g id="edge64" class="edge"><title>Node19&#45;&gt;Node5</title>
<path fill="none" stroke="midnightblue" d="M449.827,-185.176C486.612,-178.672 543.056,-172.811 590,-185.706 681.266,-210.776 763.59,-295.046 796.643,-332.5"/>
<polygon fill="midnightblue" stroke="midnightblue" points="794.083,-334.889 803.28,-340.149 799.37,-330.302 794.083,-334.889"/>
</g>
<!-- Node20 -->
<g id="node53" class="node"><title>Node20</title>
<a xlink:href="a00001.html#a14955ad355cef1e5d7898fb57023c999" target="_top" xlink:title="renders database resource (fetch result) into table or ... smth else">
<polygon fill="white" stroke="black" points="631.5,-88.2062 631.5,-109.206 722.5,-109.206 722.5,-88.2062 631.5,-88.2062"/>
<text text-anchor="middle" x="677" y="-96.2062" font-family="Helvetica,sans-Serif" font-size="10.00">varIsDBResource</text>
</a>
</g>
<!-- Node19&#45;&gt;Node20 -->
<g id="edge66" class="edge"><title>Node19&#45;&gt;Node20</title>
<path fill="none" stroke="midnightblue" d="M430.261,-183.104C439.365,-177.991 450.332,-171.681 460,-165.706 476.358,-155.597 478.369,-149.382 496,-141.706 536.197,-124.206 584.653,-113.175 621.309,-106.673"/>
<polygon fill="midnightblue" stroke="midnightblue" points="622.054,-110.096 631.319,-104.957 620.871,-103.197 622.054,-110.096"/>
</g>
<!-- Node21 -->
<g id="node56" class="node"><title>Node21</title>
<a xlink:href="a00001.html#a642e715a1977cf46d40d840b5112465d" target="_top" xlink:title="if variable is an image/gd resource type">
<polygon fill="white" stroke="black" points="497,-262.206 497,-283.206 589,-283.206 589,-262.206 497,-262.206"/>
<text text-anchor="middle" x="543" y="-270.206" font-family="Helvetica,sans-Serif" font-size="10.00">varIsGDResource</text>
</a>
</g>
<!-- Node19&#45;&gt;Node21 -->
<g id="edge70" class="edge"><title>Node19&#45;&gt;Node21</title>
<path fill="none" stroke="midnightblue" d="M424.282,-204.21C440.556,-216.77 469.267,-237.944 496,-252.706 499.217,-254.482 502.623,-256.208 506.075,-257.852"/>
<polygon fill="midnightblue" stroke="midnightblue" points="504.66,-261.053 515.213,-261.994 507.55,-254.678 504.66,-261.053"/>
</g>
<!-- Node22 -->
<g id="node62" class="node"><title>Node22</title>
<a xlink:href="a00001.html#a7538f8f3d434a3152a400f7478ae6454" target="_top" xlink:title="if variable is an xml resource type">
<polygon fill="white" stroke="black" points="496.5,-222.206 496.5,-243.206 589.5,-243.206 589.5,-222.206 496.5,-222.206"/>
<text text-anchor="middle" x="543" y="-230.206" font-family="Helvetica,sans-Serif" font-size="10.00">varIsXmlResource</text>
</a>
</g>
<!-- Node19&#45;&gt;Node22 -->
<g id="edge80" class="edge"><title>Node19&#45;&gt;Node22</title>
<path fill="none" stroke="midnightblue" d="M446.721,-204.26C462.275,-208.856 480.694,-214.298 497.236,-219.185"/>
<polygon fill="midnightblue" stroke="midnightblue" points="496.668,-222.667 507.25,-222.144 498.652,-215.954 496.668,-222.667"/>
</g>
<!-- Node20&#45;&gt;Node5 -->
<g id="edge68" class="edge"><title>Node20&#45;&gt;Node5</title>
<path fill="none" stroke="midnightblue" d="M693.547,-109.438C704.545,-117.273 718.633,-128.757 728,-141.706 772.204,-202.816 797.48,-290.474 807.259,-329.993"/>
<polygon fill="midnightblue" stroke="midnightblue" points="803.875,-330.891 809.609,-339.8 810.682,-329.26 803.875,-330.891"/>
</g>
<!-- Node21&#45;&gt;Node2 -->
<g id="edge76" class="edge"><title>Node21&#45;&gt;Node2</title>
<path fill="none" stroke="midnightblue" d="M499.342,-283.304C441.813,-297.973 338.077,-326.874 254,-363.706 239.154,-370.21 223.405,-379.103 210.805,-386.754"/>
<polygon fill="midnightblue" stroke="midnightblue" points="208.905,-383.814 202.245,-392.055 212.59,-389.766 208.905,-383.814"/>
</g>
<!-- Node21&#45;&gt;Node4 -->
<g id="edge78" class="edge"><title>Node21&#45;&gt;Node4</title>
<path fill="none" stroke="midnightblue" d="M579.262,-283.26C595.331,-287.937 614.411,-293.49 631.429,-298.443"/>
<polygon fill="midnightblue" stroke="midnightblue" points="630.593,-301.845 641.173,-301.279 632.549,-295.124 630.593,-301.845"/>
</g>
<!-- Node21&#45;&gt;Node5 -->
<g id="edge72" class="edge"><title>Node21&#45;&gt;Node5</title>
<path fill="none" stroke="midnightblue" d="M589.32,-271.07C627.655,-271.203 682.931,-274.879 728,-291.706 752.88,-300.995 777.259,-319.463 793.288,-333.275"/>
<polygon fill="midnightblue" stroke="midnightblue" points="791.065,-335.982 800.868,-340 795.711,-330.745 791.065,-335.982"/>
</g>
<!-- Node21&#45;&gt;Node9 -->
<g id="edge74" class="edge"><title>Node21&#45;&gt;Node9</title>
<path fill="none" stroke="midnightblue" d="M553.284,-283.608C563.486,-294.807 579.127,-313.049 590,-330.706 610.444,-363.906 604.892,-377.924 626,-410.706 635.346,-425.221 648.191,-439.807 658.652,-450.72"/>
<polygon fill="midnightblue" stroke="midnightblue" points="656.26,-453.28 665.763,-457.964 661.255,-448.376 656.26,-453.28"/>
</g>
<!-- Node23&#45;&gt;Node4 -->
<g id="edge94" class="edge"><title>Node23&#45;&gt;Node4</title>
<path fill="none" stroke="midnightblue" d="M574.097,-538.379C580.079,-535.528 585.784,-531.735 590,-526.706 635.711,-472.175 593.787,-434.153 626,-370.706 633.892,-355.163 646.745,-340.33 657.574,-329.426"/>
<polygon fill="midnightblue" stroke="midnightblue" points="660.257,-331.699 665.001,-322.225 655.385,-326.673 660.257,-331.699"/>
</g>
<!-- Node23&#45;&gt;Node5 -->
<g id="edge88" class="edge"><title>Node23&#45;&gt;Node5</title>
<path fill="none" stroke="midnightblue" d="M574.064,-549.321C613.667,-551.007 682.45,-548.223 728,-514.706 776.592,-478.951 799.177,-406.874 807.702,-371.394"/>
<polygon fill="midnightblue" stroke="midnightblue" points="811.203,-371.778 809.991,-361.253 804.375,-370.237 811.203,-371.778"/>
</g>
<!-- Node23&#45;&gt;Node9 -->
<g id="edge92" class="edge"><title>Node23&#45;&gt;Node9</title>
<path fill="none" stroke="midnightblue" d="M570.248,-536.125C576.827,-533.294 583.758,-530.077 590,-526.706 612.851,-514.366 637.332,-497.705 654.485,-485.406"/>
<polygon fill="midnightblue" stroke="midnightblue" points="656.7,-488.123 662.739,-479.418 652.59,-482.457 656.7,-488.123"/>
</g>
<!-- Node23&#45;&gt;Node11 -->
<g id="edge90" class="edge"><title>Node23&#45;&gt;Node11</title>
<path fill="none" stroke="midnightblue" d="M574.079,-555.984C591.197,-561.093 612.756,-567.529 631.715,-573.188"/>
<polygon fill="midnightblue" stroke="midnightblue" points="630.771,-576.559 641.354,-576.066 632.773,-569.852 630.771,-576.559"/>
</g>
</g>
</svg>
