<?xml version="1.0" encoding="UTF-8" standalone="no"?>
<!DOCTYPE svg PUBLIC "-//W3C//DTD SVG 1.1//EN"
 "http://www.w3.org/Graphics/SVG/1.1/DTD/svg11.dtd">
<!-- Generated by graphviz version 2.26.3 (20100126.1600)
 -->
<!-- Title: getVariableName Pages: 1 -->
<!--zoomable 499 -->
<svg id="main" version="1.1" xmlns="http://www.w3.org/2000/svg" xmlns:xlink="http://www.w3.org/1999/xlink" xml:space="preserve" onload="init(evt)">
        <defs>
                <circle id="rim" cx="0" cy="0" r="7"/>
                <circle id="rim2" cx="0" cy="0" r="3.5"/>
                <g id="zoomPlus">
                        <use xlink:href="#rim" fill="#404040">
                                <set attributeName="fill" to="#808080" begin="zoomplus.mouseover" end="zoomplus.mouseout"/>
                        </use>
                        <path d="M-4,0h8M0,-4v8" fill="none" stroke="white" stroke-width="1.5" pointer-events="none"/>
                </g>
                <g id="zoomMin">
                        <use xlink:href="#rim" fill="#404040">
                                <set attributeName="fill" to="#808080" begin="zoomminus.mouseover" end="zoomminus.mouseout"/>
                        </use>
                        <path d="M-4,0h8" fill="none" stroke="white" stroke-width="1.5" pointer-events="none"/>
                </g>
                <g id="dirArrow">
                        <path fill="none" stroke="white" stroke-width="1.5" d="M0,-3.0v7 M-2.5,-0.5L0,-3.0L2.5,-0.5"/>
                </g>
               <g id="resetDef">
                       <use xlink:href="#rim2" fill="#404040">
                               <set attributeName="fill" to="#808080" begin="reset.mouseover" end="reset.mouseout"/>
                       </use>
               </g>
        </defs>

<script type="text/javascript">
var viewWidth = 990;
var viewHeight = 499;
var sectionId = 'dynsection-5';
</script>
<script xlink:href="svgpan.js"/>
<svg id="graph" class="graph">
<g id="viewport">
<title>getVariableName</title>
<polygon fill="white" stroke="white" points="-4,5 -4,-495 987,-495 987,5 -4,5"/>
<!-- Node1 -->
<g id="node1" class="node"><title>Node1</title>
<polygon fill="#bfbfbf" stroke="black" points="0.5,-302.5 0.5,-323.5 91.5,-323.5 91.5,-302.5 0.5,-302.5"/>
<text text-anchor="middle" x="46" y="-310.5" font-family="Helvetica,sans-Serif" font-size="10.00">getVariableName</text>
</g>
<!-- Node2 -->
<g id="node3" class="node"><title>Node2</title>
<a xlink:href="a00001.html#a742973a203c412611192053dc0cd48af" target="_top" xlink:title="initializeHeader">
<polygon fill="white" stroke="black" points="128.5,-302.5 128.5,-323.5 211.5,-323.5 211.5,-302.5 128.5,-302.5"/>
<text text-anchor="middle" x="170" y="-310.5" font-family="Helvetica,sans-Serif" font-size="10.00">initializeHeader</text>
</a>
</g>
<!-- Node1&#45;&gt;Node2 -->
<g id="edge2" class="edge"><title>Node1&#45;&gt;Node2</title>
<path fill="none" stroke="midnightblue" d="M101.823,-313C110.783,-313 119.917,-313 128.466,-313"/>
<polygon fill="midnightblue" stroke="midnightblue" points="101.821,-309.5 91.8207,-313 101.821,-316.5 101.821,-309.5"/>
</g>
<!-- Node3 -->
<g id="node5" class="node"><title>Node3</title>
<a xlink:href="a00001.html#a04aa495573c880043c46c3bfc669bbe3" target="_top" xlink:title="creates the main table header">
<polygon fill="white" stroke="black" points="251.5,-195.5 251.5,-216.5 346.5,-216.5 346.5,-195.5 251.5,-195.5"/>
<text text-anchor="middle" x="299" y="-203.5" font-family="Helvetica,sans-Serif" font-size="10.00">makeTableHeader</text>
</a>
</g>
<!-- Node2&#45;&gt;Node3 -->
<g id="edge4" class="edge"><title>Node2&#45;&gt;Node3</title>
<path fill="none" stroke="midnightblue" d="M190.867,-295.692C217.827,-273.33 263.936,-235.084 286.211,-216.608"/>
<polygon fill="midnightblue" stroke="midnightblue" points="188.303,-293.271 182.841,-302.349 192.772,-298.659 188.303,-293.271"/>
</g>
<!-- Node18 -->
<g id="node49" class="node"><title>Node18</title>
<a xlink:href="a00001.html#adbad9cee60e948aa3802a45be355a1f3" target="_top" xlink:title="renders table of 2 cells in 1 row [type][value]">
<polygon fill="white" stroke="black" points="248.5,-409.5 248.5,-430.5 349.5,-430.5 349.5,-409.5 248.5,-409.5"/>
<text text-anchor="middle" x="299" y="-417.5" font-family="Helvetica,sans-Serif" font-size="10.00">renderPrimitiveType</text>
</a>
</g>
<!-- Node2&#45;&gt;Node18 -->
<g id="edge62" class="edge"><title>Node2&#45;&gt;Node18</title>
<path fill="none" stroke="midnightblue" d="M190.867,-330.308C217.827,-352.67 263.936,-390.916 286.211,-409.392"/>
<polygon fill="midnightblue" stroke="midnightblue" points="192.772,-327.341 182.841,-323.651 188.303,-332.729 192.772,-327.341"/>
</g>
<!-- Node4 -->
<g id="node7" class="node"><title>Node4</title>
<a xlink:href="a00001.html#acd3532d31c3c50577b2abd56624b3757" target="_top" xlink:title="renders NULL as red&#45;pink rectangle">
<polygon fill="white" stroke="black" points="395,-254.5 395,-275.5 455,-275.5 455,-254.5 395,-254.5"/>
<text text-anchor="middle" x="425" y="-262.5" font-family="Helvetica,sans-Serif" font-size="10.00">varIsNULL</text>
</a>
</g>
<!-- Node3&#45;&gt;Node4 -->
<g id="edge6" class="edge"><title>Node3&#45;&gt;Node4</title>
<path fill="none" stroke="midnightblue" d="M330.6,-220.797C352.891,-231.235 382.228,-244.972 402.244,-254.344"/>
<polygon fill="midnightblue" stroke="midnightblue" points="332.067,-217.619 321.526,-216.548 329.098,-223.958 332.067,-217.619"/>
</g>
<!-- Node7 -->
<g id="node13" class="node"><title>Node7</title>
<a xlink:href="a00001.html#a86ff35452ee612d9e9e9b147e5544acc" target="_top" xlink:title="varIsArray">
<polygon fill="white" stroke="black" points="657.5,-369.5 657.5,-390.5 716.5,-390.5 716.5,-369.5 657.5,-369.5"/>
<text text-anchor="middle" x="687" y="-377.5" font-family="Helvetica,sans-Serif" font-size="10.00">varIsArray</text>
</a>
</g>
<!-- Node3&#45;&gt;Node7 -->
<g id="edge40" class="edge"><title>Node3&#45;&gt;Node7</title>
<path fill="none" stroke="midnightblue" d="M314.896,-224.476C331.129,-242.284 357.875,-268.841 386,-285 477.227,-337.413 600.926,-364.644 657.074,-374.984"/>
<polygon fill="midnightblue" stroke="midnightblue" points="317.076,-221.661 307.812,-216.52 311.848,-226.316 317.076,-221.661"/>
</g>
<!-- Node8 -->
<g id="node16" class="node"><title>Node8</title>
<a xlink:href="a00001.html#aaa52412f9f4f725e15aafa3fcd678b1d" target="_top" xlink:title="shows information about curl easy handles">
<polygon fill="white" stroke="black" points="628.5,-155.5 628.5,-176.5 745.5,-176.5 745.5,-155.5 628.5,-155.5"/>
<text text-anchor="middle" x="687" y="-163.5" font-family="Helvetica,sans-Serif" font-size="10.00">varIsCurlEasyResource</text>
</a>
</g>
<!-- Node3&#45;&gt;Node8 -->
<g id="edge46" class="edge"><title>Node3&#45;&gt;Node8</title>
<path fill="none" stroke="midnightblue" d="M356.965,-200.024C430.008,-192.494 554.847,-179.624 628.256,-172.056"/>
<polygon fill="midnightblue" stroke="midnightblue" points="356.165,-196.588 346.576,-201.095 356.883,-203.551 356.165,-196.588"/>
</g>
<!-- Node9 -->
<g id="node18" class="node"><title>Node9</title>
<a xlink:href="a00001.html#a4ab1e15fa34f8b98071b0eb36883777e" target="_top" xlink:title="shows info about different resources, uses customized rendering founctions when needed">
<polygon fill="white" stroke="black" points="792.5,-155.5 792.5,-176.5 869.5,-176.5 869.5,-155.5 792.5,-155.5"/>
<text text-anchor="middle" x="831" y="-163.5" font-family="Helvetica,sans-Serif" font-size="10.00">varIsResource</text>
</a>
</g>
<!-- Node3&#45;&gt;Node9 -->
<g id="edge44" class="edge"><title>Node3&#45;&gt;Node9</title>
<path fill="none" stroke="midnightblue" d="M343.195,-192.714C423.357,-170.258 598.129,-128.838 746,-146 762.113,-147.87 779.606,-151.671 794.51,-155.462"/>
<polygon fill="midnightblue" stroke="midnightblue" points="342.102,-189.386 333.439,-195.485 344.015,-196.12 342.102,-189.386"/>
</g>
<!-- Node10 -->
<g id="node21" class="node"><title>Node10</title>
<a xlink:href="a00001.html#a91a251e46645521ab0c05a9b787624f6" target="_top" xlink:title="function used to render exceptions">
<polygon fill="white" stroke="black" points="647,-39.5 647,-60.5 727,-60.5 727,-39.5 647,-39.5"/>
<text text-anchor="middle" x="687" y="-47.5" font-family="Helvetica,sans-Serif" font-size="10.00">varIsException</text>
</a>
</g>
<!-- Node3&#45;&gt;Node10 -->
<g id="edge60" class="edge"><title>Node3&#45;&gt;Node10</title>
<path fill="none" stroke="midnightblue" d="M307.621,-185.899C320.443,-158.64 347.261,-110.647 386,-87 467.902,-37.0048 585.743,-39.4418 646.842,-44.9952"/>
<polygon fill="midnightblue" stroke="midnightblue" points="304.33,-184.683 303.396,-195.237 310.707,-187.568 304.33,-184.683"/>
</g>
<!-- Node12 -->
<g id="node25" class="node"><title>Node12</title>
<a xlink:href="a00001.html#a443a941157b2ed03d6a24ae70ece785d" target="_top" xlink:title="checks wheither variable is object of special type (using varIs*Object), and renders it if it is gene...">
<polygon fill="white" stroke="black" points="916.5,-321.5 916.5,-342.5 981.5,-342.5 981.5,-321.5 916.5,-321.5"/>
<text text-anchor="middle" x="949" y="-329.5" font-family="Helvetica,sans-Serif" font-size="10.00">varIsObject</text>
</a>
</g>
<!-- Node3&#45;&gt;Node12 -->
<g id="edge42" class="edge"><title>Node3&#45;&gt;Node12</title>
<path fill="none" stroke="midnightblue" d="M309.864,-225.218C324.393,-249.382 352.272,-290.753 386,-316 477.144,-384.226 515.332,-383.629 628,-400 679.899,-407.541 694.239,-408.439 746,-400 813.314,-389.025 888.428,-358.846 925.574,-342.632"/>
<polygon fill="midnightblue" stroke="midnightblue" points="312.878,-223.439 304.801,-216.582 306.839,-226.979 312.878,-223.439"/>
</g>
<!-- Node13 -->
<g id="node28" class="node"><title>Node13</title>
<a xlink:href="a00001.html#a642e715a1977cf46d40d840b5112465d" target="_top" xlink:title="if variable is an image/gd resource type">
<polygon fill="white" stroke="black" points="641,-195.5 641,-216.5 733,-216.5 733,-195.5 641,-195.5"/>
<text text-anchor="middle" x="687" y="-203.5" font-family="Helvetica,sans-Serif" font-size="10.00">varIsGDResource</text>
</a>
</g>
<!-- Node3&#45;&gt;Node13 -->
<g id="edge48" class="edge"><title>Node3&#45;&gt;Node13</title>
<path fill="none" stroke="midnightblue" d="M356.63,-206C433.983,-206 569.856,-206 640.848,-206"/>
<polygon fill="midnightblue" stroke="midnightblue" points="356.576,-202.5 346.576,-206 356.576,-209.5 356.576,-202.5"/>
</g>
<!-- Node14 -->
<g id="node32" class="node"><title>Node14</title>
<a xlink:href="a00001.html#a1dce801bff273c92008ec238b5480928" target="_top" xlink:title="renders string either as primitive type (if it is short (less than $embeddedStringMaxLength chars) an...">
<polygon fill="white" stroke="black" points="394,-389.5 394,-410.5 456,-410.5 456,-389.5 394,-389.5"/>
<text text-anchor="middle" x="425" y="-397.5" font-family="Helvetica,sans-Serif" font-size="10.00">varIsString</text>
</a>
</g>
<!-- Node3&#45;&gt;Node14 -->
<g id="edge36" class="edge"><title>Node3&#45;&gt;Node14</title>
<path fill="none" stroke="midnightblue" d="M305.545,-226.382C317.258,-260.375 344.525,-329.402 386,-375 391.087,-380.593 397.696,-385.449 404.024,-389.355"/>
<polygon fill="midnightblue" stroke="midnightblue" points="308.781,-225.024 302.29,-216.65 302.143,-227.244 308.781,-225.024"/>
</g>
<!-- Node15 -->
<g id="node40" class="node"><title>Node15</title>
<a xlink:href="a00001.html#ab4bab40a2bcac12276e3e7f2739f1761" target="_top" xlink:title="renders database data">
<polygon fill="white" stroke="black" points="386.5,-0.5 386.5,-21.5 463.5,-21.5 463.5,-0.5 386.5,-0.5"/>
<text text-anchor="middle" x="425" y="-8.5" font-family="Helvetica,sans-Serif" font-size="10.00">renderDBData</text>
</a>
</g>
<!-- Node3&#45;&gt;Node15 -->
<g id="edge50" class="edge"><title>Node3&#45;&gt;Node15</title>
<path fill="none" stroke="midnightblue" d="M305.514,-185.496C317.182,-151.3 344.386,-81.8612 386,-36 391.08,-30.4013 397.688,-25.5435 404.016,-21.6374"/>
<polygon fill="midnightblue" stroke="midnightblue" points="302.093,-184.692 302.273,-195.286 308.739,-186.893 302.093,-184.692"/>
</g>
<!-- Node17 -->
<g id="node45" class="node"><title>Node17</title>
<a xlink:href="a00001.html#a14955ad355cef1e5d7898fb57023c999" target="_top" xlink:title="renders database resource (fetch result) into table or ... smth else">
<polygon fill="white" stroke="black" points="500.5,-78.5 500.5,-99.5 591.5,-99.5 591.5,-78.5 500.5,-78.5"/>
<text text-anchor="middle" x="546" y="-86.5" font-family="Helvetica,sans-Serif" font-size="10.00">varIsDBResource</text>
</a>
</g>
<!-- Node3&#45;&gt;Node17 -->
<g id="edge56" class="edge"><title>Node3&#45;&gt;Node17</title>
<path fill="none" stroke="midnightblue" d="M311.186,-186.954C326.06,-165.439 353.313,-131.19 386,-114 421.459,-95.3518 467.018,-89.7181 500.446,-88.3882"/>
<polygon fill="midnightblue" stroke="midnightblue" points="308.247,-185.053 305.589,-195.309 314.063,-188.948 308.247,-185.053"/>
</g>
<!-- Node5 -->
<g id="node9" class="node"><title>Node5</title>
<a xlink:href="a00001.html#aaecea663190c6ce2edd146c3133f257d" target="_top" xlink:title="check variable type andd process the value in right way">
<polygon fill="white" stroke="black" points="514,-273.5 514,-294.5 578,-294.5 578,-273.5 514,-273.5"/>
<text text-anchor="middle" x="546" y="-281.5" font-family="Helvetica,sans-Serif" font-size="10.00">checkType</text>
</a>
</g>
<!-- Node4&#45;&gt;Node5 -->
<g id="edge8" class="edge"><title>Node4&#45;&gt;Node5</title>
<path fill="none" stroke="midnightblue" d="M465.209,-271.314C480.94,-273.784 498.741,-276.579 513.623,-278.916"/>
<polygon fill="midnightblue" stroke="midnightblue" points="465.643,-267.839 455.221,-269.745 464.557,-274.754 465.643,-267.839"/>
</g>
<!-- Node6 -->
<g id="node11" class="node"><title>Node6</title>
<a xlink:href="a00001.html#a6826222eba46dd56dbd5841cdc300efa" target="_top" xlink:title="dBug">
<polygon fill="white" stroke="black" points="667.5,-273.5 667.5,-294.5 706.5,-294.5 706.5,-273.5 667.5,-273.5"/>
<text text-anchor="middle" x="687" y="-281.5" font-family="Helvetica,sans-Serif" font-size="10.00">dBug</text>
</a>
</g>
<!-- Node5&#45;&gt;Node6 -->
<g id="edge10" class="edge"><title>Node5&#45;&gt;Node6</title>
<path fill="none" stroke="midnightblue" d="M588.423,-284C614.651,-284 647.076,-284 667.405,-284"/>
<polygon fill="midnightblue" stroke="midnightblue" points="588.348,-280.5 578.348,-284 588.348,-287.5 588.348,-280.5"/>
</g>
<!-- Node5&#45;&gt;Node7 -->
<g id="edge12" class="edge"><title>Node5&#45;&gt;Node7</title>
<path fill="none" stroke="midnightblue" d="M587.1,-296.164C588.797,-297.397 590.439,-298.679 592,-300 611.818,-316.77 607.392,-330.211 628,-346 641.776,-356.555 660.671,-363.529 673.331,-369.404"/>
<polygon fill="midnightblue" stroke="midnightblue" points="588.577,-292.95 578.283,-290.445 584.768,-298.823 588.577,-292.95"/>
</g>
<!-- Node5&#45;&gt;Node8 -->
<g id="edge16" class="edge"><title>Node5&#45;&gt;Node8</title>
<path fill="none" stroke="midnightblue" d="M557.506,-264.686C571.545,-242.682 597.249,-207.057 628,-186 633.533,-182.211 639.846,-179.085 646.238,-176.522"/>
<polygon fill="midnightblue" stroke="midnightblue" points="554.522,-262.857 552.223,-273.2 560.47,-266.548 554.522,-262.857"/>
</g>
<!-- Node5&#45;&gt;Node10 -->
<g id="edge22" class="edge"><title>Node5&#45;&gt;Node10</title>
<path fill="none" stroke="midnightblue" d="M557.494,-264.448C573.272,-237.656 602.581,-188.06 628,-146 646.82,-114.859 669.438,-78.2918 680.4,-60.6227"/>
<polygon fill="midnightblue" stroke="midnightblue" points="554.38,-262.838 552.325,-273.231 560.413,-266.388 554.38,-262.838"/>
</g>
<!-- Node5&#45;&gt;Node12 -->
<g id="edge34" class="edge"><title>Node5&#45;&gt;Node12</title>
<path fill="none" stroke="midnightblue" d="M587.993,-286.944C600.758,-289.699 614.88,-292.841 628,-295 732.601,-312.215 858.234,-319.286 916.447,-325.449"/>
<polygon fill="midnightblue" stroke="midnightblue" points="588.601,-283.495 578.092,-284.844 587.148,-290.343 588.601,-283.495"/>
</g>
<!-- Node5&#45;&gt;Node13 -->
<g id="edge30" class="edge"><title>Node5&#45;&gt;Node13</title>
<path fill="none" stroke="midnightblue" d="M568.9,-267.671C584.996,-256.578 607.274,-241.983 628,-231 637.928,-225.739 649.206,-220.738 659.223,-216.61"/>
<polygon fill="midnightblue" stroke="midnightblue" points="566.843,-264.838 560.642,-273.428 570.847,-270.58 566.843,-264.838"/>
</g>
<!-- Node7&#45;&gt;Node5 -->
<g id="edge14" class="edge"><title>Node7&#45;&gt;Node5</title>
<path fill="none" stroke="midnightblue" d="M647.799,-375.544C640.854,-372.449 633.95,-368.558 628,-364 607.392,-348.211 611.818,-334.77 592,-318 580.76,-308.488 565.325,-301.004 555.505,-294.509"/>
<polygon fill="midnightblue" stroke="midnightblue" points="646.622,-378.842 657.208,-379.258 649.192,-372.331 646.622,-378.842"/>
</g>
<!-- Node8&#45;&gt;Node9 -->
<g id="edge18" class="edge"><title>Node8&#45;&gt;Node9</title>
<path fill="none" stroke="midnightblue" d="M755.613,-166C768.208,-166 780.942,-166 792.269,-166"/>
<polygon fill="midnightblue" stroke="midnightblue" points="755.57,-162.5 745.57,-166 755.57,-169.5 755.57,-162.5"/>
</g>
<!-- Node9&#45;&gt;Node5 -->
<g id="edge20" class="edge"><title>Node9&#45;&gt;Node5</title>
<path fill="none" stroke="midnightblue" d="M811.014,-183.021C794.509,-196.334 769.979,-214.462 746,-226 716.191,-240.343 626.799,-263.818 578.242,-276.04"/>
<polygon fill="midnightblue" stroke="midnightblue" points="813.37,-185.615 818.869,-176.559 808.923,-180.21 813.37,-185.615"/>
</g>
<!-- Node11 -->
<g id="node23" class="node"><title>Node11</title>
<a xlink:href="a00001.html#a783baa8ff544bb8278ac32bce66be5c4" target="_top" xlink:title="varIsSpecialObject">
<polygon fill="white" stroke="black" points="782.5,-39.5 782.5,-60.5 879.5,-60.5 879.5,-39.5 782.5,-39.5"/>
<text text-anchor="middle" x="831" y="-47.5" font-family="Helvetica,sans-Serif" font-size="10.00">varIsSpecialObject</text>
</a>
</g>
<!-- Node10&#45;&gt;Node11 -->
<g id="edge24" class="edge"><title>Node10&#45;&gt;Node11</title>
<path fill="none" stroke="midnightblue" d="M737.464,-50C752.049,-50 767.933,-50 782.402,-50"/>
<polygon fill="midnightblue" stroke="midnightblue" points="737.112,-46.5001 727.112,-50 737.112,-53.5001 737.112,-46.5001"/>
</g>
<!-- Node11&#45;&gt;Node12 -->
<g id="edge26" class="edge"><title>Node11&#45;&gt;Node12</title>
<path fill="none" stroke="midnightblue" d="M841.912,-69.7C852.33,-88.8806 868.152,-119.007 880,-146 908.653,-211.284 936.083,-292.603 945.533,-321.341"/>
<polygon fill="midnightblue" stroke="midnightblue" points="844.879,-67.8318 837.006,-60.7421 838.74,-71.1942 844.879,-67.8318"/>
</g>
<!-- Node12&#45;&gt;Node5 -->
<g id="edge28" class="edge"><title>Node12&#45;&gt;Node5</title>
<path fill="none" stroke="midnightblue" d="M906.306,-336.261C844.556,-336.483 726.88,-329.274 628,-313 603.709,-309.002 575.985,-301.638 559.796,-294.504"/>
<polygon fill="midnightblue" stroke="midnightblue" points="906.486,-339.759 916.447,-336.148 906.408,-332.759 906.486,-339.759"/>
</g>
<!-- Node13&#45;&gt;Node9 -->
<g id="edge32" class="edge"><title>Node13&#45;&gt;Node9</title>
<path fill="none" stroke="midnightblue" d="M734.486,-192.809C753.456,-187.54 775.003,-181.555 792.918,-176.578"/>
<polygon fill="midnightblue" stroke="midnightblue" points="733.533,-189.442 724.834,-195.49 735.406,-196.186 733.533,-189.442"/>
</g>
<!-- Node14&#45;&gt;Node5 -->
<g id="edge38" class="edge"><title>Node14&#45;&gt;Node5</title>
<path fill="none" stroke="midnightblue" d="M443.71,-382.063C469.212,-357.615 514.081,-314.6 534.86,-294.679"/>
<polygon fill="midnightblue" stroke="midnightblue" points="440.963,-379.848 436.167,-389.295 445.807,-384.901 440.963,-379.848"/>
</g>
<!-- Node16 -->
<g id="node42" class="node"><title>Node16</title>
<a xlink:href="a00001.html#aff5b4a4ce77391ef5bc5f2637ac683b1" target="_top" xlink:title="renders either PDO or SQLite3 statement objects">
<polygon fill="white" stroke="black" points="507,-0.5 507,-21.5 585,-21.5 585,-0.5 507,-0.5"/>
<text text-anchor="middle" x="546" y="-8.5" font-family="Helvetica,sans-Serif" font-size="10.00">varIsDBObject</text>
</a>
</g>
<!-- Node15&#45;&gt;Node16 -->
<g id="edge52" class="edge"><title>Node15&#45;&gt;Node16</title>
<path fill="none" stroke="midnightblue" d="M473.929,-11C484.904,-11 496.406,-11 506.918,-11"/>
<polygon fill="midnightblue" stroke="midnightblue" points="473.618,-7.5001 463.618,-11 473.618,-14.5001 473.618,-7.5001"/>
</g>
<!-- Node16&#45;&gt;Node11 -->
<g id="edge54" class="edge"><title>Node16&#45;&gt;Node11</title>
<path fill="none" stroke="midnightblue" d="M595.468,-13.8155C636.091,-16.5785 695.026,-21.622 746,-30 760.81,-32.4341 776.877,-35.9766 791.014,-39.4062"/>
<polygon fill="midnightblue" stroke="midnightblue" points="595.501,-10.3102 585.293,-13.145 595.041,-17.295 595.501,-10.3102"/>
</g>
<!-- Node17&#45;&gt;Node9 -->
<g id="edge58" class="edge"><title>Node17&#45;&gt;Node9</title>
<path fill="none" stroke="midnightblue" d="M601.82,-89.2303C642.771,-90.932 699.169,-96.5138 746,-113 773.887,-122.817 802.219,-142.968 818.109,-155.399"/>
<polygon fill="midnightblue" stroke="midnightblue" points="601.873,-85.7301 591.756,-88.877 601.627,-92.7258 601.873,-85.7301"/>
</g>
<!-- Node18&#45;&gt;Node14 -->
<g id="edge68" class="edge"><title>Node18&#45;&gt;Node14</title>
<path fill="none" stroke="midnightblue" d="M359.421,-410.409C371.282,-408.527 383.265,-406.625 393.684,-404.971"/>
<polygon fill="midnightblue" stroke="midnightblue" points="358.851,-406.956 349.523,-411.98 359.948,-413.869 358.851,-406.956"/>
</g>
<!-- Node19 -->
<g id="node51" class="node"><title>Node19</title>
<a xlink:href="a00001.html#a44eb38e42426f01840a0d12fe6a6a05f" target="_top" xlink:title="renders numeric types : integers and doubles">
<polygon fill="white" stroke="black" points="389,-469.5 389,-490.5 461,-490.5 461,-469.5 389,-469.5"/>
<text text-anchor="middle" x="425" y="-477.5" font-family="Helvetica,sans-Serif" font-size="10.00">varIsNumeric</text>
</a>
</g>
<!-- Node18&#45;&gt;Node19 -->
<g id="edge64" class="edge"><title>Node18&#45;&gt;Node19</title>
<path fill="none" stroke="midnightblue" d="M330.361,-434.934C352.799,-445.619 382.469,-459.747 402.562,-469.315"/>
<polygon fill="midnightblue" stroke="midnightblue" points="331.77,-431.728 321.236,-430.589 328.76,-438.048 331.77,-431.728"/>
</g>
<!-- Node20 -->
<g id="node55" class="node"><title>Node20</title>
<a xlink:href="a00001.html#a5ebd24b62872515b28e27182857bfe7f" target="_top" xlink:title="renders boolean variable">
<polygon fill="white" stroke="black" points="389.5,-429.5 389.5,-450.5 460.5,-450.5 460.5,-429.5 389.5,-429.5"/>
<text text-anchor="middle" x="425" y="-437.5" font-family="Helvetica,sans-Serif" font-size="10.00">varIsBoolean</text>
</a>
</g>
<!-- Node18&#45;&gt;Node20 -->
<g id="edge70" class="edge"><title>Node18&#45;&gt;Node20</title>
<path fill="none" stroke="midnightblue" d="M359.59,-429.618C369.724,-431.226 379.941,-432.848 389.191,-434.316"/>
<polygon fill="midnightblue" stroke="midnightblue" points="359.948,-426.131 349.523,-428.02 358.851,-433.044 359.948,-426.131"/>
</g>
<!-- Node19&#45;&gt;Node5 -->
<g id="edge66" class="edge"><title>Node19&#45;&gt;Node5</title>
<path fill="none" stroke="midnightblue" d="M460.152,-463.542C461.511,-462.424 462.803,-461.244 464,-460 512.632,-409.492 536.37,-324.872 543.562,-294.915"/>
<polygon fill="midnightblue" stroke="midnightblue" points="458.062,-460.732 451.804,-469.281 462.027,-466.5 458.062,-460.732"/>
</g>
<!-- Node20&#45;&gt;Node5 -->
<g id="edge72" class="edge"><title>Node20&#45;&gt;Node5</title>
<path fill="none" stroke="midnightblue" d="M459.326,-423.881C460.969,-422.657 462.54,-421.363 464,-420 504.711,-381.995 532.23,-319.29 542.028,-294.528"/>
<polygon fill="midnightblue" stroke="midnightblue" points="457.21,-421.08 450.681,-429.425 460.988,-426.973 457.21,-421.08"/>
</g>
</g>
</svg>
        <g id="navigator" transform="translate(0 0)" fill="#404254">
                <rect fill="#f2f5e9" fill-opacity="0.5" stroke="#606060" stroke-width=".5" x="0" y="0" width="60" height="60"/>
                <use id="zoomplus" xlink:href="#zoomPlus" x="17" y="9" onmousedown="handleZoom(evt,'in')"/>
                <use id="zoomminus" xlink:href="#zoomMin" x="42" y="9" onmousedown="handleZoom(evt,'out')"/>
                <use id="reset" xlink:href="#resetDef" x="30" y="36" onmousedown="handleReset()"/>
                <g id="arrowUp" xlink:href="#dirArrow" transform="translate(30 24)" onmousedown="handlePan(0,-1)">
                  <use xlink:href="#rim" fill="#404040">
                        <set attributeName="fill" to="#808080" begin="arrowUp.mouseover" end="arrowUp.mouseout"/>
                  </use>
                  <path fill="none" stroke="white" stroke-width="1.5" d="M0,-3.0v7 M-2.5,-0.5L0,-3.0L2.5,-0.5"/>
                </g>
                <g id="arrowRight" xlink:href="#dirArrow" transform="rotate(90) translate(36 -43)" onmousedown="handlePan(1,0)">
                  <use xlink:href="#rim" fill="#404040">
                        <set attributeName="fill" to="#808080" begin="arrowRight.mouseover" end="arrowRight.mouseout"/>
                  </use>
                  <path fill="none" stroke="white" stroke-width="1.5" d="M0,-3.0v7 M-2.5,-0.5L0,-3.0L2.5,-0.5"/>
                </g>
                <g id="arrowDown" xlink:href="#dirArrow" transform="rotate(180) translate(-30 -48)" onmousedown="handlePan(0,1)">
                  <use xlink:href="#rim" fill="#404040">
                        <set attributeName="fill" to="#808080" begin="arrowDown.mouseover" end="arrowDown.mouseout"/>
                  </use>
                  <path fill="none" stroke="white" stroke-width="1.5" d="M0,-3.0v7 M-2.5,-0.5L0,-3.0L2.5,-0.5"/>
                </g>
                <g id="arrowLeft" xlink:href="#dirArrow" transform="rotate(270) translate(-36 17)" onmousedown="handlePan(-1,0)">
                  <use xlink:href="#rim" fill="#404040">
                        <set attributeName="fill" to="#808080" begin="arrowLeft.mouseover" end="arrowLeft.mouseout"/>
                  </use>
                  <path fill="none" stroke="white" stroke-width="1.5" d="M0,-3.0v7 M-2.5,-0.5L0,-3.0L2.5,-0.5"/>
                </g>
        </g>
        <svg viewBox="0 0 15 15" width="100%" height="30px" preserveAspectRatio="xMaxYMin meet">
         <g id="arrow_out" transform="scale(0.3 0.3)">
          <a xlink:href="a00001_a20af85a4f4041ed681b095e1427b2a1d_icgraph_org.svg" target="_base">
           <rect id="button" ry="5" rx="5" y="6" x="6" height="38" width="38"
                fill="#f2f5e9" fill-opacity="0.5" stroke="#606060" stroke-width="1.0"/>
           <path id="arrow"
             d="M 11.500037,31.436501 C 11.940474,20.09759 22.043105,11.32322 32.158766,21.979434 L 37.068811,17.246167 C 37.068811,17.246167 37.088388,32 37.088388,32 L 22.160133,31.978069 C 22.160133,31.978069 26.997745,27.140456 26.997745,27.140456 C 18.528582,18.264221 13.291696,25.230495 11.500037,31.436501 z"
             style="fill:#404040;"/>
          </a>
         </g>
        </svg>
</svg>
