<?xml version="1.0" encoding="UTF-8" standalone="no"?>
<!DOCTYPE svg PUBLIC "-//W3C//DTD SVG 1.1//EN"
 "http://www.w3.org/Graphics/SVG/1.1/DTD/svg11.dtd">
<!-- Generated by graphviz version 2.26.3 (20100126.1600)
 -->
<!-- Title: renderTableHeader Pages: 1 -->
<svg width="1084pt" height="366pt"
 viewBox="0.00 0.00 1084.00 366.08" xmlns="http://www.w3.org/2000/svg" xmlns:xlink="http://www.w3.org/1999/xlink">
<g id="graph1" class="graph" transform="scale(1 1) rotate(0) translate(4 362.077)">
<title>renderTableHeader</title>
<polygon fill="white" stroke="white" points="-4,5 -4,-362.077 1081,-362.077 1081,5 -4,5"/>
<!-- Node1 -->
<g id="node1" class="node"><title>Node1</title>
<polygon fill="#bfbfbf" stroke="black" points="0,-174.5 0,-195.5 98,-195.5 98,-174.5 0,-174.5"/>
<text text-anchor="middle" x="49" y="-182.5" font-family="Helvetica,sans-Serif" font-size="10.00">renderTableHeader</text>
</g>
<!-- Node2 -->
<g id="node3" class="node"><title>Node2</title>
<a xlink:href="a00001.html#a04aa495573c880043c46c3bfc669bbe3" target="_top" xlink:title="creates the main table header">
<polygon fill="white" stroke="black" points="134.5,-174.5 134.5,-195.5 229.5,-195.5 229.5,-174.5 134.5,-174.5"/>
<text text-anchor="middle" x="182" y="-182.5" font-family="Helvetica,sans-Serif" font-size="10.00">makeTableHeader</text>
</a>
</g>
<!-- Node1&#45;&gt;Node2 -->
<g id="edge2" class="edge"><title>Node1&#45;&gt;Node2</title>
<path fill="none" stroke="midnightblue" d="M108.287,-185C117.022,-185 125.925,-185 134.383,-185"/>
<polygon fill="midnightblue" stroke="midnightblue" points="108.146,-181.5 98.1464,-185 108.146,-188.5 108.146,-181.5"/>
</g>
<!-- Node3 -->
<g id="node5" class="node"><title>Node3</title>
<a xlink:href="a00001.html#ab4bab40a2bcac12276e3e7f2739f1761" target="_top" xlink:title="renders database data">
<polygon fill="white" stroke="black" points="266.5,-232.5 266.5,-253.5 343.5,-253.5 343.5,-232.5 266.5,-232.5"/>
<text text-anchor="middle" x="305" y="-240.5" font-family="Helvetica,sans-Serif" font-size="10.00">renderDBData</text>
</a>
</g>
<!-- Node2&#45;&gt;Node3 -->
<g id="edge4" class="edge"><title>Node2&#45;&gt;Node3</title>
<path fill="none" stroke="midnightblue" d="M213.373,-199.794C234.951,-209.969 263.102,-223.243 282.476,-232.379"/>
<polygon fill="midnightblue" stroke="midnightblue" points="214.812,-196.603 204.274,-195.503 211.826,-202.934 214.812,-196.603"/>
</g>
<!-- Node6 -->
<g id="node11" class="node"><title>Node6</title>
<a xlink:href="a00001.html#a443a941157b2ed03d6a24ae70ece785d" target="_top" xlink:title="checks wheither variable is object of special type (using varIs*Object), and renders it if it is gene...">
<polygon fill="white" stroke="black" points="642.5,-194.5 642.5,-215.5 707.5,-215.5 707.5,-194.5 642.5,-194.5"/>
<text text-anchor="middle" x="675" y="-202.5" font-family="Helvetica,sans-Serif" font-size="10.00">varIsObject</text>
</a>
</g>
<!-- Node2&#45;&gt;Node6 -->
<g id="edge52" class="edge"><title>Node2&#45;&gt;Node6</title>
<path fill="none" stroke="midnightblue" d="M239.747,-187.343C343.951,-191.57 560.227,-200.344 642.38,-203.677"/>
<polygon fill="midnightblue" stroke="midnightblue" points="239.853,-183.844 229.719,-186.936 239.569,-190.838 239.853,-183.844"/>
</g>
<!-- Node9 -->
<g id="node17" class="node"><title>Node9</title>
<a xlink:href="a00001.html#a86ff35452ee612d9e9e9b147e5544acc" target="_top" xlink:title="varIsArray">
<polygon fill="white" stroke="black" points="873.5,-197.5 873.5,-218.5 932.5,-218.5 932.5,-197.5 873.5,-197.5"/>
<text text-anchor="middle" x="903" y="-205.5" font-family="Helvetica,sans-Serif" font-size="10.00">varIsArray</text>
</a>
</g>
<!-- Node2&#45;&gt;Node9 -->
<g id="edge36" class="edge"><title>Node2&#45;&gt;Node9</title>
<path fill="none" stroke="midnightblue" d="M195.982,-203.545C211.055,-222.017 236.842,-249.511 266,-263 330.993,-293.066 354.389,-282 426,-282 426,-282 426,-282 675,-282 680.124,-282 812.378,-238.179 873.067,-217.98"/>
<polygon fill="midnightblue" stroke="midnightblue" points="198.602,-201.216 189.656,-195.54 193.11,-205.556 198.602,-201.216"/>
</g>
<!-- Node10 -->
<g id="node20" class="node"><title>Node10</title>
<a xlink:href="a00001.html#aaa52412f9f4f725e15aafa3fcd678b1d" target="_top" xlink:title="shows information about curl easy handles">
<polygon fill="white" stroke="black" points="844.5,-39.5 844.5,-60.5 961.5,-60.5 961.5,-39.5 844.5,-39.5"/>
<text text-anchor="middle" x="903" y="-47.5" font-family="Helvetica,sans-Serif" font-size="10.00">varIsCurlEasyResource</text>
</a>
</g>
<!-- Node2&#45;&gt;Node10 -->
<g id="edge38" class="edge"><title>Node2&#45;&gt;Node10</title>
<path fill="none" stroke="midnightblue" d="M195.383,-166.272C210.424,-146.543 236.613,-115.904 266,-98 329.402,-59.372 351.758,-50 426,-50 426,-50 426,-50 675,-50 732.594,-50 798.371,-50 844.425,-50"/>
<polygon fill="midnightblue" stroke="midnightblue" points="192.437,-164.369 189.286,-174.484 198.058,-168.542 192.437,-164.369"/>
</g>
<!-- Node11 -->
<g id="node22" class="node"><title>Node11</title>
<a xlink:href="a00001.html#a4ab1e15fa34f8b98071b0eb36883777e" target="_top" xlink:title="shows info about different resources, uses customized rendering founctions when needed">
<polygon fill="white" stroke="black" points="998.5,-79.5 998.5,-100.5 1075.5,-100.5 1075.5,-79.5 998.5,-79.5"/>
<text text-anchor="middle" x="1037" y="-87.5" font-family="Helvetica,sans-Serif" font-size="10.00">varIsResource</text>
</a>
</g>
<!-- Node2&#45;&gt;Node11 -->
<g id="edge54" class="edge"><title>Node2&#45;&gt;Node11</title>
<path fill="none" stroke="midnightblue" d="M189.433,-205.266C201.144,-234.311 226.687,-287.417 266,-316 325.464,-359.235 352.48,-358 426,-358 426,-358 426,-358 776,-358 867.836,-358 898.769,-334.6 962,-268 1010.26,-217.173 1029.71,-130.697 1035.22,-100.657"/>
<polygon fill="midnightblue" stroke="midnightblue" points="192.62,-203.804 185.744,-195.743 186.093,-206.333 192.62,-203.804"/>
</g>
<!-- Node12 -->
<g id="node25" class="node"><title>Node12</title>
<a xlink:href="a00001.html#a91a251e46645521ab0c05a9b787624f6" target="_top" xlink:title="function used to render exceptions">
<polygon fill="white" stroke="black" points="863,-237.5 863,-258.5 943,-258.5 943,-237.5 863,-237.5"/>
<text text-anchor="middle" x="903" y="-245.5" font-family="Helvetica,sans-Serif" font-size="10.00">varIsException</text>
</a>
</g>
<!-- Node2&#45;&gt;Node12 -->
<g id="edge44" class="edge"><title>Node2&#45;&gt;Node12</title>
<path fill="none" stroke="midnightblue" d="M192.429,-204.409C206.094,-227.862 232.331,-266.697 266,-287 328.178,-324.494 353.392,-320 426,-320 426,-320 426,-320 675,-320 755.53,-320 844.942,-278.652 883.528,-258.624"/>
<polygon fill="midnightblue" stroke="midnightblue" points="195.469,-202.673 187.51,-195.679 189.37,-206.11 195.469,-202.673"/>
</g>
<!-- Node13 -->
<g id="node28" class="node"><title>Node13</title>
<a xlink:href="a00001.html#a642e715a1977cf46d40d840b5112465d" target="_top" xlink:title="if variable is an image/gd resource type">
<polygon fill="white" stroke="black" points="857,-79.5 857,-100.5 949,-100.5 949,-79.5 857,-79.5"/>
<text text-anchor="middle" x="903" y="-87.5" font-family="Helvetica,sans-Serif" font-size="10.00">varIsGDResource</text>
</a>
</g>
<!-- Node2&#45;&gt;Node13 -->
<g id="edge46" class="edge"><title>Node2&#45;&gt;Node13</title>
<path fill="none" stroke="midnightblue" d="M205.294,-168.803C247.335,-141.201 339.575,-88 426,-88 426,-88 426,-88 675,-88 737.94,-88 810.649,-88.7715 856.713,-89.3562"/>
<polygon fill="midnightblue" stroke="midnightblue" points="203.239,-165.966 196.872,-174.435 207.131,-171.785 203.239,-165.966"/>
</g>
<!-- Node14 -->
<g id="node34" class="node"><title>Node14</title>
<a xlink:href="a00001.html#a14955ad355cef1e5d7898fb57023c999" target="_top" xlink:title="renders database resource (fetch result) into table or ... smth else">
<polygon fill="white" stroke="black" points="380.5,-0.5 380.5,-21.5 471.5,-21.5 471.5,-0.5 380.5,-0.5"/>
<text text-anchor="middle" x="426" y="-8.5" font-family="Helvetica,sans-Serif" font-size="10.00">varIsDBResource</text>
</a>
</g>
<!-- Node2&#45;&gt;Node14 -->
<g id="edge40" class="edge"><title>Node2&#45;&gt;Node14</title>
<path fill="none" stroke="midnightblue" d="M187.369,-164.239C197.07,-131.229 220.834,-67.3145 266,-36 299.387,-12.8526 346.06,-7.87129 380.383,-7.92316"/>
<polygon fill="midnightblue" stroke="midnightblue" points="183.918,-163.585 184.608,-174.157 190.662,-165.462 183.918,-163.585"/>
</g>
<!-- Node15 -->
<g id="node39" class="node"><title>Node15</title>
<a xlink:href="a00001.html#acd3532d31c3c50577b2abd56624b3757" target="_top" xlink:title="renders NULL as red&#45;pink rectangle">
<polygon fill="white" stroke="black" points="527,-116.5 527,-137.5 587,-137.5 587,-116.5 527,-116.5"/>
<text text-anchor="middle" x="557" y="-124.5" font-family="Helvetica,sans-Serif" font-size="10.00">varIsNULL</text>
</a>
</g>
<!-- Node2&#45;&gt;Node15 -->
<g id="edge48" class="edge"><title>Node2&#45;&gt;Node15</title>
<path fill="none" stroke="midnightblue" d="M213.052,-170.317C228.607,-163.608 247.934,-156.23 266,-152 359.312,-130.15 473.455,-126.936 526.811,-126.751"/>
<polygon fill="midnightblue" stroke="midnightblue" points="211.624,-167.122 203.899,-174.373 214.46,-173.521 211.624,-167.122"/>
</g>
<!-- Node16 -->
<g id="node44" class="node"><title>Node16</title>
<a xlink:href="a00001.html#a1dce801bff273c92008ec238b5480928" target="_top" xlink:title="renders string either as primitive type (if it is short (less than $embeddedStringMaxLength chars) an...">
<polygon fill="white" stroke="black" points="644,-154.5 644,-175.5 706,-175.5 706,-154.5 644,-154.5"/>
<text text-anchor="middle" x="675" y="-162.5" font-family="Helvetica,sans-Serif" font-size="10.00">varIsString</text>
</a>
</g>
<!-- Node2&#45;&gt;Node16 -->
<g id="edge56" class="edge"><title>Node2&#45;&gt;Node16</title>
<path fill="none" stroke="midnightblue" d="M239.81,-182.655C344.692,-178.4 562.956,-169.545 643.907,-166.261"/>
<polygon fill="midnightblue" stroke="midnightblue" points="239.569,-179.162 229.719,-183.064 239.853,-186.156 239.569,-179.162"/>
</g>
<!-- Node4 -->
<g id="node7" class="node"><title>Node4</title>
<a xlink:href="a00001.html#aff5b4a4ce77391ef5bc5f2637ac683b1" target="_top" xlink:title="renders either PDO or SQLite3 statement objects">
<polygon fill="white" stroke="black" points="387,-232.5 387,-253.5 465,-253.5 465,-232.5 387,-232.5"/>
<text text-anchor="middle" x="426" y="-240.5" font-family="Helvetica,sans-Serif" font-size="10.00">varIsDBObject</text>
</a>
</g>
<!-- Node3&#45;&gt;Node4 -->
<g id="edge6" class="edge"><title>Node3&#45;&gt;Node4</title>
<path fill="none" stroke="midnightblue" d="M353.929,-243C364.904,-243 376.406,-243 386.918,-243"/>
<polygon fill="midnightblue" stroke="midnightblue" points="353.618,-239.5 343.618,-243 353.618,-246.5 353.618,-239.5"/>
</g>
<!-- Node5 -->
<g id="node9" class="node"><title>Node5</title>
<a xlink:href="a00001.html#a783baa8ff544bb8278ac32bce66be5c4" target="_top" xlink:title="varIsSpecialObject">
<polygon fill="white" stroke="black" points="508.5,-232.5 508.5,-253.5 605.5,-253.5 605.5,-232.5 508.5,-232.5"/>
<text text-anchor="middle" x="557" y="-240.5" font-family="Helvetica,sans-Serif" font-size="10.00">varIsSpecialObject</text>
</a>
</g>
<!-- Node4&#45;&gt;Node5 -->
<g id="edge8" class="edge"><title>Node4&#45;&gt;Node5</title>
<path fill="none" stroke="midnightblue" d="M475.435,-243C486.243,-243 497.674,-243 508.447,-243"/>
<polygon fill="midnightblue" stroke="midnightblue" points="475.304,-239.5 465.304,-243 475.304,-246.5 475.304,-239.5"/>
</g>
<!-- Node5&#45;&gt;Node6 -->
<g id="edge10" class="edge"><title>Node5&#45;&gt;Node6</title>
<path fill="none" stroke="midnightblue" d="M599.794,-229.219C613.813,-224.704 629.156,-219.763 642.307,-215.528"/>
<polygon fill="midnightblue" stroke="midnightblue" points="598.315,-226.018 589.87,-232.415 600.461,-232.681 598.315,-226.018"/>
</g>
<!-- Node7 -->
<g id="node13" class="node"><title>Node7</title>
<a xlink:href="a00001.html#aaecea663190c6ce2edd146c3133f257d" target="_top" xlink:title="check variable type andd process the value in right way">
<polygon fill="white" stroke="black" points="744,-157.5 744,-178.5 808,-178.5 808,-157.5 744,-157.5"/>
<text text-anchor="middle" x="776" y="-165.5" font-family="Helvetica,sans-Serif" font-size="10.00">checkType</text>
</a>
</g>
<!-- Node6&#45;&gt;Node7 -->
<g id="edge12" class="edge"><title>Node6&#45;&gt;Node7</title>
<path fill="none" stroke="midnightblue" d="M699.76,-190.029C713.021,-184.212 729.515,-178.023 743.765,-173.468"/>
<polygon fill="midnightblue" stroke="midnightblue" points="697.956,-187.006 690.34,-194.371 700.887,-193.363 697.956,-187.006"/>
</g>
<!-- Node7&#45;&gt;Node6 -->
<g id="edge34" class="edge"><title>Node7&#45;&gt;Node6</title>
<path fill="none" stroke="midnightblue" d="M751.404,-182.9C738.201,-188.7 721.759,-194.878 707.513,-199.443"/>
<polygon fill="midnightblue" stroke="midnightblue" points="753.167,-185.941 760.778,-178.571 750.232,-179.585 753.167,-185.941"/>
</g>
<!-- Node8 -->
<g id="node15" class="node"><title>Node8</title>
<a xlink:href="a00001.html#a6826222eba46dd56dbd5841cdc300efa" target="_top" xlink:title="dBug">
<polygon fill="white" stroke="black" points="883.5,-157.5 883.5,-178.5 922.5,-178.5 922.5,-157.5 883.5,-157.5"/>
<text text-anchor="middle" x="903" y="-165.5" font-family="Helvetica,sans-Serif" font-size="10.00">dBug</text>
</a>
</g>
<!-- Node7&#45;&gt;Node8 -->
<g id="edge14" class="edge"><title>Node7&#45;&gt;Node8</title>
<path fill="none" stroke="midnightblue" d="M818.14,-168C840.097,-168 865.911,-168 883.252,-168"/>
<polygon fill="midnightblue" stroke="midnightblue" points="818.047,-164.5 808.047,-168 818.047,-171.5 818.047,-164.5"/>
</g>
<!-- Node7&#45;&gt;Node9 -->
<g id="edge16" class="edge"><title>Node7&#45;&gt;Node9</title>
<path fill="none" stroke="midnightblue" d="M817.85,-174.793C840.658,-181.186 867.699,-190.208 885.09,-197.488"/>
<polygon fill="midnightblue" stroke="midnightblue" points="818.614,-171.374 808.047,-172.141 816.787,-178.131 818.614,-171.374"/>
</g>
<!-- Node7&#45;&gt;Node10 -->
<g id="edge20" class="edge"><title>Node7&#45;&gt;Node10</title>
<path fill="none" stroke="midnightblue" d="M784.853,-148.391C795.764,-126.326 816.314,-90.8512 844,-70 849.011,-66.2261 854.78,-63.1357 860.706,-60.6127"/>
<polygon fill="midnightblue" stroke="midnightblue" points="781.663,-146.951 780.527,-157.484 787.984,-149.958 781.663,-146.951"/>
</g>
<!-- Node7&#45;&gt;Node12 -->
<g id="edge26" class="edge"><title>Node7&#45;&gt;Node12</title>
<path fill="none" stroke="midnightblue" d="M792.815,-186.311C805.731,-199.455 824.594,-216.762 844,-228 850.364,-231.686 857.511,-234.824 864.574,-237.447"/>
<polygon fill="midnightblue" stroke="midnightblue" points="795.031,-183.565 785.59,-178.757 789.973,-188.403 795.031,-183.565"/>
</g>
<!-- Node7&#45;&gt;Node13 -->
<g id="edge30" class="edge"><title>Node7&#45;&gt;Node13</title>
<path fill="none" stroke="midnightblue" d="M795.675,-150.419C808.747,-139.32 826.641,-125.204 844,-115 853.399,-109.475 864.248,-104.517 874.059,-100.501"/>
<polygon fill="midnightblue" stroke="midnightblue" points="793.106,-148.014 787.835,-157.205 797.687,-153.306 793.106,-148.014"/>
</g>
<!-- Node9&#45;&gt;Node7 -->
<g id="edge18" class="edge"><title>Node9&#45;&gt;Node7</title>
<path fill="none" stroke="midnightblue" d="M863.478,-201.855C840.212,-195.436 811.914,-186.047 793.927,-178.519"/>
<polygon fill="midnightblue" stroke="midnightblue" points="862.863,-205.313 873.426,-204.493 864.657,-198.547 862.863,-205.313"/>
</g>
<!-- Node10&#45;&gt;Node11 -->
<g id="edge22" class="edge"><title>Node10&#45;&gt;Node11</title>
<path fill="none" stroke="midnightblue" d="M948.163,-63.4814C965.575,-68.6792 985.197,-74.5365 1001.56,-79.4218"/>
<polygon fill="midnightblue" stroke="midnightblue" points="948.79,-60.0162 938.207,-60.5095 946.788,-66.7237 948.79,-60.0162"/>
</g>
<!-- Node11&#45;&gt;Node7 -->
<g id="edge24" class="edge"><title>Node11&#45;&gt;Node7</title>
<path fill="none" stroke="midnightblue" d="M992.106,-103.417C939.649,-119.093 854.169,-144.639 808.004,-158.436"/>
<polygon fill="midnightblue" stroke="midnightblue" points="993.238,-106.731 1001.82,-100.514 991.234,-100.024 993.238,-106.731"/>
</g>
<!-- Node12&#45;&gt;Node5 -->
<g id="edge28" class="edge"><title>Node12&#45;&gt;Node5</title>
<path fill="none" stroke="midnightblue" d="M852.576,-247.271C786.445,-246.316 671.175,-244.65 605.84,-243.706"/>
<polygon fill="midnightblue" stroke="midnightblue" points="852.703,-250.773 862.752,-247.418 852.804,-243.774 852.703,-250.773"/>
</g>
<!-- Node13&#45;&gt;Node11 -->
<g id="edge32" class="edge"><title>Node13&#45;&gt;Node11</title>
<path fill="none" stroke="midnightblue" d="M959.469,-90C972.576,-90 986.235,-90 998.371,-90"/>
<polygon fill="midnightblue" stroke="midnightblue" points="959.115,-86.5001 949.115,-90 959.115,-93.5001 959.115,-86.5001"/>
</g>
<!-- Node14&#45;&gt;Node11 -->
<g id="edge42" class="edge"><title>Node14&#45;&gt;Node11</title>
<path fill="none" stroke="midnightblue" d="M481.944,-11C532.409,-11 608.674,-11 675,-11 675,-11 675,-11 776,-11 859.097,-11 885.088,1.45939 962,-30 989.163,-41.1106 1014.43,-65.3035 1027.56,-79.3391"/>
<polygon fill="midnightblue" stroke="midnightblue" points="481.893,-7.5001 471.893,-11 481.893,-14.5001 481.893,-7.5001"/>
</g>
<!-- Node15&#45;&gt;Node7 -->
<g id="edge50" class="edge"><title>Node15&#45;&gt;Node7</title>
<path fill="none" stroke="midnightblue" d="M597.398,-129.528C628.033,-131.995 671.029,-136.639 708,-145 721.736,-148.106 736.595,-152.952 748.909,-157.395"/>
<polygon fill="midnightblue" stroke="midnightblue" points="597.345,-126.014 587.108,-128.744 596.813,-132.994 597.345,-126.014"/>
</g>
<!-- Node16&#45;&gt;Node7 -->
<g id="edge58" class="edge"><title>Node16&#45;&gt;Node7</title>
<path fill="none" stroke="midnightblue" d="M716.236,-166.225C725.409,-166.497 735.003,-166.782 743.753,-167.042"/>
<polygon fill="midnightblue" stroke="midnightblue" points="716.227,-162.723 706.127,-165.925 716.019,-169.72 716.227,-162.723"/>
</g>
</g>
</svg>
