<?xml version="1.0" encoding="UTF-8" standalone="no"?>
<!DOCTYPE svg PUBLIC "-//W3C//DTD SVG 1.1//EN"
 "http://www.w3.org/Graphics/SVG/1.1/DTD/svg11.dtd">
<!-- Generated by graphviz version 2.26.3 (20100126.1600)
 -->
<!-- Title: initializeHeader Pages: 1 -->
<!--zoomable 499 -->
<svg id="main" version="1.1" xmlns="http://www.w3.org/2000/svg" xmlns:xlink="http://www.w3.org/1999/xlink" xml:space="preserve" onload="init(evt)">
        <defs>
                <circle id="rim" cx="0" cy="0" r="7"/>
                <circle id="rim2" cx="0" cy="0" r="3.5"/>
                <g id="zoomPlus">
                        <use xlink:href="#rim" fill="#404040">
                                <set attributeName="fill" to="#808080" begin="zoomplus.mouseover" end="zoomplus.mouseout"/>
                        </use>
                        <path d="M-4,0h8M0,-4v8" fill="none" stroke="white" stroke-width="1.5" pointer-events="none"/>
                </g>
                <g id="zoomMin">
                        <use xlink:href="#rim" fill="#404040">
                                <set attributeName="fill" to="#808080" begin="zoomminus.mouseover" end="zoomminus.mouseout"/>
                        </use>
                        <path d="M-4,0h8" fill="none" stroke="white" stroke-width="1.5" pointer-events="none"/>
                </g>
                <g id="dirArrow">
                        <path fill="none" stroke="white" stroke-width="1.5" d="M0,-3.0v7 M-2.5,-0.5L0,-3.0L2.5,-0.5"/>
                </g>
               <g id="resetDef">
                       <use xlink:href="#rim2" fill="#404040">
                               <set attributeName="fill" to="#808080" begin="reset.mouseover" end="reset.mouseout"/>
                       </use>
               </g>
        </defs>

<script type="text/javascript">
var viewWidth = 862;
var viewHeight = 499;
var sectionId = 'dynsection-7';
</script>
<script xlink:href="svgpan.js"/>
<svg id="graph" class="graph">
<g id="viewport">
<title>initializeHeader</title>
<polygon fill="white" stroke="white" points="-4,5 -4,-495 859,-495 859,5 -4,5"/>
<!-- Node1 -->
<g id="node1" class="node"><title>Node1</title>
<polygon fill="#bfbfbf" stroke="black" points="0.5,-302.5 0.5,-323.5 83.5,-323.5 83.5,-302.5 0.5,-302.5"/>
<text text-anchor="middle" x="42" y="-310.5" font-family="Helvetica,sans-Serif" font-size="10.00">initializeHeader</text>
</g>
<!-- Node2 -->
<g id="node3" class="node"><title>Node2</title>
<a xlink:href="a00001.html#a04aa495573c880043c46c3bfc669bbe3" target="_top" xlink:title="creates the main table header">
<polygon fill="white" stroke="black" points="123.5,-195.5 123.5,-216.5 218.5,-216.5 218.5,-195.5 123.5,-195.5"/>
<text text-anchor="middle" x="171" y="-203.5" font-family="Helvetica,sans-Serif" font-size="10.00">makeTableHeader</text>
</a>
</g>
<!-- Node1&#45;&gt;Node2 -->
<g id="edge2" class="edge"><title>Node1&#45;&gt;Node2</title>
<path fill="none" stroke="midnightblue" d="M62.8666,-295.692C89.8269,-273.33 135.936,-235.084 158.211,-216.608"/>
<polygon fill="midnightblue" stroke="midnightblue" points="60.303,-293.271 54.8406,-302.349 64.772,-298.659 60.303,-293.271"/>
</g>
<!-- Node17 -->
<g id="node47" class="node"><title>Node17</title>
<a xlink:href="a00001.html#adbad9cee60e948aa3802a45be355a1f3" target="_top" xlink:title="renders table of 2 cells in 1 row [type][value]">
<polygon fill="white" stroke="black" points="120.5,-409.5 120.5,-430.5 221.5,-430.5 221.5,-409.5 120.5,-409.5"/>
<text text-anchor="middle" x="171" y="-417.5" font-family="Helvetica,sans-Serif" font-size="10.00">renderPrimitiveType</text>
</a>
</g>
<!-- Node1&#45;&gt;Node17 -->
<g id="edge60" class="edge"><title>Node1&#45;&gt;Node17</title>
<path fill="none" stroke="midnightblue" d="M62.8666,-330.308C89.8269,-352.67 135.936,-390.916 158.211,-409.392"/>
<polygon fill="midnightblue" stroke="midnightblue" points="64.772,-327.341 54.8406,-323.651 60.303,-332.729 64.772,-327.341"/>
</g>
<!-- Node3 -->
<g id="node5" class="node"><title>Node3</title>
<a xlink:href="a00001.html#acd3532d31c3c50577b2abd56624b3757" target="_top" xlink:title="renders NULL as red&#45;pink rectangle">
<polygon fill="white" stroke="black" points="267,-254.5 267,-275.5 327,-275.5 327,-254.5 267,-254.5"/>
<text text-anchor="middle" x="297" y="-262.5" font-family="Helvetica,sans-Serif" font-size="10.00">varIsNULL</text>
</a>
</g>
<!-- Node2&#45;&gt;Node3 -->
<g id="edge4" class="edge"><title>Node2&#45;&gt;Node3</title>
<path fill="none" stroke="midnightblue" d="M202.6,-220.797C224.891,-231.235 254.228,-244.972 274.244,-254.344"/>
<polygon fill="midnightblue" stroke="midnightblue" points="204.067,-217.619 193.526,-216.548 201.098,-223.958 204.067,-217.619"/>
</g>
<!-- Node6 -->
<g id="node11" class="node"><title>Node6</title>
<a xlink:href="a00001.html#a86ff35452ee612d9e9e9b147e5544acc" target="_top" xlink:title="varIsArray">
<polygon fill="white" stroke="black" points="529.5,-369.5 529.5,-390.5 588.5,-390.5 588.5,-369.5 529.5,-369.5"/>
<text text-anchor="middle" x="559" y="-377.5" font-family="Helvetica,sans-Serif" font-size="10.00">varIsArray</text>
</a>
</g>
<!-- Node2&#45;&gt;Node6 -->
<g id="edge38" class="edge"><title>Node2&#45;&gt;Node6</title>
<path fill="none" stroke="midnightblue" d="M186.896,-224.476C203.129,-242.284 229.875,-268.841 258,-285 349.227,-337.413 472.926,-364.644 529.074,-374.984"/>
<polygon fill="midnightblue" stroke="midnightblue" points="189.076,-221.661 179.812,-216.52 183.848,-226.316 189.076,-221.661"/>
</g>
<!-- Node7 -->
<g id="node14" class="node"><title>Node7</title>
<a xlink:href="a00001.html#aaa52412f9f4f725e15aafa3fcd678b1d" target="_top" xlink:title="shows information about curl easy handles">
<polygon fill="white" stroke="black" points="500.5,-155.5 500.5,-176.5 617.5,-176.5 617.5,-155.5 500.5,-155.5"/>
<text text-anchor="middle" x="559" y="-163.5" font-family="Helvetica,sans-Serif" font-size="10.00">varIsCurlEasyResource</text>
</a>
</g>
<!-- Node2&#45;&gt;Node7 -->
<g id="edge44" class="edge"><title>Node2&#45;&gt;Node7</title>
<path fill="none" stroke="midnightblue" d="M228.965,-200.024C302.008,-192.494 426.847,-179.624 500.256,-172.056"/>
<polygon fill="midnightblue" stroke="midnightblue" points="228.165,-196.588 218.576,-201.095 228.883,-203.551 228.165,-196.588"/>
</g>
<!-- Node8 -->
<g id="node16" class="node"><title>Node8</title>
<a xlink:href="a00001.html#a4ab1e15fa34f8b98071b0eb36883777e" target="_top" xlink:title="shows info about different resources, uses customized rendering founctions when needed">
<polygon fill="white" stroke="black" points="664.5,-155.5 664.5,-176.5 741.5,-176.5 741.5,-155.5 664.5,-155.5"/>
<text text-anchor="middle" x="703" y="-163.5" font-family="Helvetica,sans-Serif" font-size="10.00">varIsResource</text>
</a>
</g>
<!-- Node2&#45;&gt;Node8 -->
<g id="edge42" class="edge"><title>Node2&#45;&gt;Node8</title>
<path fill="none" stroke="midnightblue" d="M215.195,-192.714C295.357,-170.258 470.129,-128.838 618,-146 634.113,-147.87 651.606,-151.671 666.51,-155.462"/>
<polygon fill="midnightblue" stroke="midnightblue" points="214.102,-189.386 205.439,-195.485 216.015,-196.12 214.102,-189.386"/>
</g>
<!-- Node9 -->
<g id="node19" class="node"><title>Node9</title>
<a xlink:href="a00001.html#a91a251e46645521ab0c05a9b787624f6" target="_top" xlink:title="function used to render exceptions">
<polygon fill="white" stroke="black" points="519,-39.5 519,-60.5 599,-60.5 599,-39.5 519,-39.5"/>
<text text-anchor="middle" x="559" y="-47.5" font-family="Helvetica,sans-Serif" font-size="10.00">varIsException</text>
</a>
</g>
<!-- Node2&#45;&gt;Node9 -->
<g id="edge58" class="edge"><title>Node2&#45;&gt;Node9</title>
<path fill="none" stroke="midnightblue" d="M179.621,-185.899C192.443,-158.64 219.261,-110.647 258,-87 339.902,-37.0048 457.743,-39.4418 518.842,-44.9952"/>
<polygon fill="midnightblue" stroke="midnightblue" points="176.33,-184.683 175.396,-195.237 182.707,-187.568 176.33,-184.683"/>
</g>
<!-- Node11 -->
<g id="node23" class="node"><title>Node11</title>
<a xlink:href="a00001.html#a443a941157b2ed03d6a24ae70ece785d" target="_top" xlink:title="checks wheither variable is object of special type (using varIs*Object), and renders it if it is gene...">
<polygon fill="white" stroke="black" points="788.5,-321.5 788.5,-342.5 853.5,-342.5 853.5,-321.5 788.5,-321.5"/>
<text text-anchor="middle" x="821" y="-329.5" font-family="Helvetica,sans-Serif" font-size="10.00">varIsObject</text>
</a>
</g>
<!-- Node2&#45;&gt;Node11 -->
<g id="edge40" class="edge"><title>Node2&#45;&gt;Node11</title>
<path fill="none" stroke="midnightblue" d="M181.864,-225.218C196.393,-249.382 224.272,-290.753 258,-316 349.144,-384.226 387.332,-383.629 500,-400 551.899,-407.541 566.239,-408.439 618,-400 685.314,-389.025 760.428,-358.846 797.574,-342.632"/>
<polygon fill="midnightblue" stroke="midnightblue" points="184.878,-223.439 176.801,-216.582 178.839,-226.979 184.878,-223.439"/>
</g>
<!-- Node12 -->
<g id="node26" class="node"><title>Node12</title>
<a xlink:href="a00001.html#a642e715a1977cf46d40d840b5112465d" target="_top" xlink:title="if variable is an image/gd resource type">
<polygon fill="white" stroke="black" points="513,-195.5 513,-216.5 605,-216.5 605,-195.5 513,-195.5"/>
<text text-anchor="middle" x="559" y="-203.5" font-family="Helvetica,sans-Serif" font-size="10.00">varIsGDResource</text>
</a>
</g>
<!-- Node2&#45;&gt;Node12 -->
<g id="edge46" class="edge"><title>Node2&#45;&gt;Node12</title>
<path fill="none" stroke="midnightblue" d="M228.63,-206C305.983,-206 441.856,-206 512.848,-206"/>
<polygon fill="midnightblue" stroke="midnightblue" points="228.576,-202.5 218.576,-206 228.576,-209.5 228.576,-202.5"/>
</g>
<!-- Node13 -->
<g id="node30" class="node"><title>Node13</title>
<a xlink:href="a00001.html#a1dce801bff273c92008ec238b5480928" target="_top" xlink:title="renders string either as primitive type (if it is short (less than $embeddedStringMaxLength chars) an...">
<polygon fill="white" stroke="black" points="266,-389.5 266,-410.5 328,-410.5 328,-389.5 266,-389.5"/>
<text text-anchor="middle" x="297" y="-397.5" font-family="Helvetica,sans-Serif" font-size="10.00">varIsString</text>
</a>
</g>
<!-- Node2&#45;&gt;Node13 -->
<g id="edge34" class="edge"><title>Node2&#45;&gt;Node13</title>
<path fill="none" stroke="midnightblue" d="M177.545,-226.382C189.258,-260.375 216.525,-329.402 258,-375 263.087,-380.593 269.696,-385.449 276.024,-389.355"/>
<polygon fill="midnightblue" stroke="midnightblue" points="180.781,-225.024 174.29,-216.65 174.143,-227.244 180.781,-225.024"/>
</g>
<!-- Node14 -->
<g id="node38" class="node"><title>Node14</title>
<a xlink:href="a00001.html#ab4bab40a2bcac12276e3e7f2739f1761" target="_top" xlink:title="renders database data">
<polygon fill="white" stroke="black" points="258.5,-0.5 258.5,-21.5 335.5,-21.5 335.5,-0.5 258.5,-0.5"/>
<text text-anchor="middle" x="297" y="-8.5" font-family="Helvetica,sans-Serif" font-size="10.00">renderDBData</text>
</a>
</g>
<!-- Node2&#45;&gt;Node14 -->
<g id="edge48" class="edge"><title>Node2&#45;&gt;Node14</title>
<path fill="none" stroke="midnightblue" d="M177.514,-185.496C189.182,-151.3 216.386,-81.8612 258,-36 263.08,-30.4013 269.688,-25.5435 276.016,-21.6374"/>
<polygon fill="midnightblue" stroke="midnightblue" points="174.093,-184.692 174.273,-195.286 180.739,-186.893 174.093,-184.692"/>
</g>
<!-- Node16 -->
<g id="node43" class="node"><title>Node16</title>
<a xlink:href="a00001.html#a14955ad355cef1e5d7898fb57023c999" target="_top" xlink:title="renders database resource (fetch result) into table or ... smth else">
<polygon fill="white" stroke="black" points="372.5,-78.5 372.5,-99.5 463.5,-99.5 463.5,-78.5 372.5,-78.5"/>
<text text-anchor="middle" x="418" y="-86.5" font-family="Helvetica,sans-Serif" font-size="10.00">varIsDBResource</text>
</a>
</g>
<!-- Node2&#45;&gt;Node16 -->
<g id="edge54" class="edge"><title>Node2&#45;&gt;Node16</title>
<path fill="none" stroke="midnightblue" d="M183.186,-186.954C198.06,-165.439 225.313,-131.19 258,-114 293.459,-95.3518 339.018,-89.7181 372.446,-88.3882"/>
<polygon fill="midnightblue" stroke="midnightblue" points="180.247,-185.053 177.589,-195.309 186.063,-188.948 180.247,-185.053"/>
</g>
<!-- Node4 -->
<g id="node7" class="node"><title>Node4</title>
<a xlink:href="a00001.html#aaecea663190c6ce2edd146c3133f257d" target="_top" xlink:title="check variable type andd process the value in right way">
<polygon fill="white" stroke="black" points="386,-273.5 386,-294.5 450,-294.5 450,-273.5 386,-273.5"/>
<text text-anchor="middle" x="418" y="-281.5" font-family="Helvetica,sans-Serif" font-size="10.00">checkType</text>
</a>
</g>
<!-- Node3&#45;&gt;Node4 -->
<g id="edge6" class="edge"><title>Node3&#45;&gt;Node4</title>
<path fill="none" stroke="midnightblue" d="M337.209,-271.314C352.94,-273.784 370.741,-276.579 385.623,-278.916"/>
<polygon fill="midnightblue" stroke="midnightblue" points="337.643,-267.839 327.221,-269.745 336.557,-274.754 337.643,-267.839"/>
</g>
<!-- Node5 -->
<g id="node9" class="node"><title>Node5</title>
<a xlink:href="a00001.html#a6826222eba46dd56dbd5841cdc300efa" target="_top" xlink:title="dBug">
<polygon fill="white" stroke="black" points="539.5,-273.5 539.5,-294.5 578.5,-294.5 578.5,-273.5 539.5,-273.5"/>
<text text-anchor="middle" x="559" y="-281.5" font-family="Helvetica,sans-Serif" font-size="10.00">dBug</text>
</a>
</g>
<!-- Node4&#45;&gt;Node5 -->
<g id="edge8" class="edge"><title>Node4&#45;&gt;Node5</title>
<path fill="none" stroke="midnightblue" d="M460.423,-284C486.651,-284 519.076,-284 539.405,-284"/>
<polygon fill="midnightblue" stroke="midnightblue" points="460.348,-280.5 450.348,-284 460.348,-287.5 460.348,-280.5"/>
</g>
<!-- Node4&#45;&gt;Node6 -->
<g id="edge10" class="edge"><title>Node4&#45;&gt;Node6</title>
<path fill="none" stroke="midnightblue" d="M459.1,-296.164C460.797,-297.397 462.439,-298.679 464,-300 483.818,-316.77 479.392,-330.211 500,-346 513.776,-356.555 532.671,-363.529 545.331,-369.404"/>
<polygon fill="midnightblue" stroke="midnightblue" points="460.577,-292.95 450.283,-290.445 456.768,-298.823 460.577,-292.95"/>
</g>
<!-- Node4&#45;&gt;Node7 -->
<g id="edge14" class="edge"><title>Node4&#45;&gt;Node7</title>
<path fill="none" stroke="midnightblue" d="M429.506,-264.686C443.545,-242.682 469.249,-207.057 500,-186 505.533,-182.211 511.846,-179.085 518.238,-176.522"/>
<polygon fill="midnightblue" stroke="midnightblue" points="426.522,-262.857 424.223,-273.2 432.47,-266.548 426.522,-262.857"/>
</g>
<!-- Node4&#45;&gt;Node9 -->
<g id="edge20" class="edge"><title>Node4&#45;&gt;Node9</title>
<path fill="none" stroke="midnightblue" d="M429.494,-264.448C445.272,-237.656 474.581,-188.06 500,-146 518.82,-114.859 541.438,-78.2918 552.4,-60.6227"/>
<polygon fill="midnightblue" stroke="midnightblue" points="426.38,-262.838 424.325,-273.231 432.413,-266.388 426.38,-262.838"/>
</g>
<!-- Node4&#45;&gt;Node11 -->
<g id="edge32" class="edge"><title>Node4&#45;&gt;Node11</title>
<path fill="none" stroke="midnightblue" d="M459.993,-286.944C472.758,-289.699 486.88,-292.841 500,-295 604.601,-312.215 730.234,-319.286 788.447,-325.449"/>
<polygon fill="midnightblue" stroke="midnightblue" points="460.601,-283.495 450.092,-284.844 459.148,-290.343 460.601,-283.495"/>
</g>
<!-- Node4&#45;&gt;Node12 -->
<g id="edge28" class="edge"><title>Node4&#45;&gt;Node12</title>
<path fill="none" stroke="midnightblue" d="M440.9,-267.671C456.996,-256.578 479.274,-241.983 500,-231 509.928,-225.739 521.206,-220.738 531.223,-216.61"/>
<polygon fill="midnightblue" stroke="midnightblue" points="438.843,-264.838 432.642,-273.428 442.847,-270.58 438.843,-264.838"/>
</g>
<!-- Node6&#45;&gt;Node4 -->
<g id="edge12" class="edge"><title>Node6&#45;&gt;Node4</title>
<path fill="none" stroke="midnightblue" d="M519.799,-375.544C512.854,-372.449 505.95,-368.558 500,-364 479.392,-348.211 483.818,-334.77 464,-318 452.76,-308.488 437.325,-301.004 427.505,-294.509"/>
<polygon fill="midnightblue" stroke="midnightblue" points="518.622,-378.842 529.208,-379.258 521.192,-372.331 518.622,-378.842"/>
</g>
<!-- Node7&#45;&gt;Node8 -->
<g id="edge16" class="edge"><title>Node7&#45;&gt;Node8</title>
<path fill="none" stroke="midnightblue" d="M627.613,-166C640.208,-166 652.942,-166 664.269,-166"/>
<polygon fill="midnightblue" stroke="midnightblue" points="627.57,-162.5 617.57,-166 627.57,-169.5 627.57,-162.5"/>
</g>
<!-- Node8&#45;&gt;Node4 -->
<g id="edge18" class="edge"><title>Node8&#45;&gt;Node4</title>
<path fill="none" stroke="midnightblue" d="M683.014,-183.021C666.509,-196.334 641.979,-214.462 618,-226 588.191,-240.343 498.799,-263.818 450.242,-276.04"/>
<polygon fill="midnightblue" stroke="midnightblue" points="685.37,-185.615 690.869,-176.559 680.923,-180.21 685.37,-185.615"/>
</g>
<!-- Node10 -->
<g id="node21" class="node"><title>Node10</title>
<a xlink:href="a00001.html#a783baa8ff544bb8278ac32bce66be5c4" target="_top" xlink:title="varIsSpecialObject">
<polygon fill="white" stroke="black" points="654.5,-39.5 654.5,-60.5 751.5,-60.5 751.5,-39.5 654.5,-39.5"/>
<text text-anchor="middle" x="703" y="-47.5" font-family="Helvetica,sans-Serif" font-size="10.00">varIsSpecialObject</text>
</a>
</g>
<!-- Node9&#45;&gt;Node10 -->
<g id="edge22" class="edge"><title>Node9&#45;&gt;Node10</title>
<path fill="none" stroke="midnightblue" d="M609.464,-50C624.049,-50 639.933,-50 654.402,-50"/>
<polygon fill="midnightblue" stroke="midnightblue" points="609.112,-46.5001 599.112,-50 609.112,-53.5001 609.112,-46.5001"/>
</g>
<!-- Node10&#45;&gt;Node11 -->
<g id="edge24" class="edge"><title>Node10&#45;&gt;Node11</title>
<path fill="none" stroke="midnightblue" d="M713.912,-69.7C724.33,-88.8806 740.152,-119.007 752,-146 780.653,-211.284 808.083,-292.603 817.533,-321.341"/>
<polygon fill="midnightblue" stroke="midnightblue" points="716.879,-67.8318 709.006,-60.7421 710.74,-71.1942 716.879,-67.8318"/>
</g>
<!-- Node11&#45;&gt;Node4 -->
<g id="edge26" class="edge"><title>Node11&#45;&gt;Node4</title>
<path fill="none" stroke="midnightblue" d="M778.306,-336.261C716.556,-336.483 598.88,-329.274 500,-313 475.709,-309.002 447.985,-301.638 431.796,-294.504"/>
<polygon fill="midnightblue" stroke="midnightblue" points="778.486,-339.759 788.447,-336.148 778.408,-332.759 778.486,-339.759"/>
</g>
<!-- Node12&#45;&gt;Node8 -->
<g id="edge30" class="edge"><title>Node12&#45;&gt;Node8</title>
<path fill="none" stroke="midnightblue" d="M606.486,-192.809C625.456,-187.54 647.003,-181.555 664.918,-176.578"/>
<polygon fill="midnightblue" stroke="midnightblue" points="605.533,-189.442 596.834,-195.49 607.406,-196.186 605.533,-189.442"/>
</g>
<!-- Node13&#45;&gt;Node4 -->
<g id="edge36" class="edge"><title>Node13&#45;&gt;Node4</title>
<path fill="none" stroke="midnightblue" d="M315.71,-382.063C341.212,-357.615 386.081,-314.6 406.86,-294.679"/>
<polygon fill="midnightblue" stroke="midnightblue" points="312.963,-379.848 308.167,-389.295 317.807,-384.901 312.963,-379.848"/>
</g>
<!-- Node15 -->
<g id="node40" class="node"><title>Node15</title>
<a xlink:href="a00001.html#aff5b4a4ce77391ef5bc5f2637ac683b1" target="_top" xlink:title="renders either PDO or SQLite3 statement objects">
<polygon fill="white" stroke="black" points="379,-0.5 379,-21.5 457,-21.5 457,-0.5 379,-0.5"/>
<text text-anchor="middle" x="418" y="-8.5" font-family="Helvetica,sans-Serif" font-size="10.00">varIsDBObject</text>
</a>
</g>
<!-- Node14&#45;&gt;Node15 -->
<g id="edge50" class="edge"><title>Node14&#45;&gt;Node15</title>
<path fill="none" stroke="midnightblue" d="M345.929,-11C356.904,-11 368.406,-11 378.918,-11"/>
<polygon fill="midnightblue" stroke="midnightblue" points="345.618,-7.5001 335.618,-11 345.618,-14.5001 345.618,-7.5001"/>
</g>
<!-- Node15&#45;&gt;Node10 -->
<g id="edge52" class="edge"><title>Node15&#45;&gt;Node10</title>
<path fill="none" stroke="midnightblue" d="M467.468,-13.8155C508.091,-16.5785 567.026,-21.622 618,-30 632.81,-32.4341 648.877,-35.9766 663.014,-39.4062"/>
<polygon fill="midnightblue" stroke="midnightblue" points="467.501,-10.3102 457.293,-13.145 467.041,-17.295 467.501,-10.3102"/>
</g>
<!-- Node16&#45;&gt;Node8 -->
<g id="edge56" class="edge"><title>Node16&#45;&gt;Node8</title>
<path fill="none" stroke="midnightblue" d="M473.82,-89.2303C514.771,-90.932 571.169,-96.5138 618,-113 645.887,-122.817 674.219,-142.968 690.109,-155.399"/>
<polygon fill="midnightblue" stroke="midnightblue" points="473.873,-85.7301 463.756,-88.877 473.627,-92.7258 473.873,-85.7301"/>
</g>
<!-- Node17&#45;&gt;Node13 -->
<g id="edge66" class="edge"><title>Node17&#45;&gt;Node13</title>
<path fill="none" stroke="midnightblue" d="M231.421,-410.409C243.282,-408.527 255.265,-406.625 265.684,-404.971"/>
<polygon fill="midnightblue" stroke="midnightblue" points="230.851,-406.956 221.523,-411.98 231.948,-413.869 230.851,-406.956"/>
</g>
<!-- Node18 -->
<g id="node49" class="node"><title>Node18</title>
<a xlink:href="a00001.html#a44eb38e42426f01840a0d12fe6a6a05f" target="_top" xlink:title="renders numeric types : integers and doubles">
<polygon fill="white" stroke="black" points="261,-469.5 261,-490.5 333,-490.5 333,-469.5 261,-469.5"/>
<text text-anchor="middle" x="297" y="-477.5" font-family="Helvetica,sans-Serif" font-size="10.00">varIsNumeric</text>
</a>
</g>
<!-- Node17&#45;&gt;Node18 -->
<g id="edge62" class="edge"><title>Node17&#45;&gt;Node18</title>
<path fill="none" stroke="midnightblue" d="M202.361,-434.934C224.799,-445.619 254.469,-459.747 274.562,-469.315"/>
<polygon fill="midnightblue" stroke="midnightblue" points="203.77,-431.728 193.236,-430.589 200.76,-438.048 203.77,-431.728"/>
</g>
<!-- Node19 -->
<g id="node53" class="node"><title>Node19</title>
<a xlink:href="a00001.html#a5ebd24b62872515b28e27182857bfe7f" target="_top" xlink:title="renders boolean variable">
<polygon fill="white" stroke="black" points="261.5,-429.5 261.5,-450.5 332.5,-450.5 332.5,-429.5 261.5,-429.5"/>
<text text-anchor="middle" x="297" y="-437.5" font-family="Helvetica,sans-Serif" font-size="10.00">varIsBoolean</text>
</a>
</g>
<!-- Node17&#45;&gt;Node19 -->
<g id="edge68" class="edge"><title>Node17&#45;&gt;Node19</title>
<path fill="none" stroke="midnightblue" d="M231.59,-429.618C241.724,-431.226 251.941,-432.848 261.191,-434.316"/>
<polygon fill="midnightblue" stroke="midnightblue" points="231.948,-426.131 221.523,-428.02 230.851,-433.044 231.948,-426.131"/>
</g>
<!-- Node18&#45;&gt;Node4 -->
<g id="edge64" class="edge"><title>Node18&#45;&gt;Node4</title>
<path fill="none" stroke="midnightblue" d="M332.152,-463.542C333.511,-462.424 334.803,-461.244 336,-460 384.632,-409.492 408.37,-324.872 415.562,-294.915"/>
<polygon fill="midnightblue" stroke="midnightblue" points="330.062,-460.732 323.804,-469.281 334.027,-466.5 330.062,-460.732"/>
</g>
<!-- Node19&#45;&gt;Node4 -->
<g id="edge70" class="edge"><title>Node19&#45;&gt;Node4</title>
<path fill="none" stroke="midnightblue" d="M331.326,-423.881C332.969,-422.657 334.54,-421.363 336,-420 376.711,-381.995 404.23,-319.29 414.028,-294.528"/>
<polygon fill="midnightblue" stroke="midnightblue" points="329.21,-421.08 322.681,-429.425 332.988,-426.973 329.21,-421.08"/>
</g>
</g>
</svg>
        <g id="navigator" transform="translate(0 0)" fill="#404254">
                <rect fill="#f2f5e9" fill-opacity="0.5" stroke="#606060" stroke-width=".5" x="0" y="0" width="60" height="60"/>
                <use id="zoomplus" xlink:href="#zoomPlus" x="17" y="9" onmousedown="handleZoom(evt,'in')"/>
                <use id="zoomminus" xlink:href="#zoomMin" x="42" y="9" onmousedown="handleZoom(evt,'out')"/>
                <use id="reset" xlink:href="#resetDef" x="30" y="36" onmousedown="handleReset()"/>
                <g id="arrowUp" xlink:href="#dirArrow" transform="translate(30 24)" onmousedown="handlePan(0,-1)">
                  <use xlink:href="#rim" fill="#404040">
                        <set attributeName="fill" to="#808080" begin="arrowUp.mouseover" end="arrowUp.mouseout"/>
                  </use>
                  <path fill="none" stroke="white" stroke-width="1.5" d="M0,-3.0v7 M-2.5,-0.5L0,-3.0L2.5,-0.5"/>
                </g>
                <g id="arrowRight" xlink:href="#dirArrow" transform="rotate(90) translate(36 -43)" onmousedown="handlePan(1,0)">
                  <use xlink:href="#rim" fill="#404040">
                        <set attributeName="fill" to="#808080" begin="arrowRight.mouseover" end="arrowRight.mouseout"/>
                  </use>
                  <path fill="none" stroke="white" stroke-width="1.5" d="M0,-3.0v7 M-2.5,-0.5L0,-3.0L2.5,-0.5"/>
                </g>
                <g id="arrowDown" xlink:href="#dirArrow" transform="rotate(180) translate(-30 -48)" onmousedown="handlePan(0,1)">
                  <use xlink:href="#rim" fill="#404040">
                        <set attributeName="fill" to="#808080" begin="arrowDown.mouseover" end="arrowDown.mouseout"/>
                  </use>
                  <path fill="none" stroke="white" stroke-width="1.5" d="M0,-3.0v7 M-2.5,-0.5L0,-3.0L2.5,-0.5"/>
                </g>
                <g id="arrowLeft" xlink:href="#dirArrow" transform="rotate(270) translate(-36 17)" onmousedown="handlePan(-1,0)">
                  <use xlink:href="#rim" fill="#404040">
                        <set attributeName="fill" to="#808080" begin="arrowLeft.mouseover" end="arrowLeft.mouseout"/>
                  </use>
                  <path fill="none" stroke="white" stroke-width="1.5" d="M0,-3.0v7 M-2.5,-0.5L0,-3.0L2.5,-0.5"/>
                </g>
        </g>
        <svg viewBox="0 0 15 15" width="100%" height="30px" preserveAspectRatio="xMaxYMin meet">
         <g id="arrow_out" transform="scale(0.3 0.3)">
          <a xlink:href="a00001_a742973a203c412611192053dc0cd48af_icgraph_org.svg" target="_base">
           <rect id="button" ry="5" rx="5" y="6" x="6" height="38" width="38"
                fill="#f2f5e9" fill-opacity="0.5" stroke="#606060" stroke-width="1.0"/>
           <path id="arrow"
             d="M 11.500037,31.436501 C 11.940474,20.09759 22.043105,11.32322 32.158766,21.979434 L 37.068811,17.246167 C 37.068811,17.246167 37.088388,32 37.088388,32 L 22.160133,31.978069 C 22.160133,31.978069 26.997745,27.140456 26.997745,27.140456 C 18.528582,18.264221 13.291696,25.230495 11.500037,31.436501 z"
             style="fill:#404040;"/>
          </a>
         </g>
        </svg>
</svg>
